M48
; DRILL file {KiCad 6.0.10-86aedd382b~118~ubuntu22.04.1} date Tue 03 Jan 2023 09:57:38 PM PST
; FORMAT={-:-/ absolute / inch / decimal}
; #@! TF.CreationDate,2023-01-03T21:57:38-08:00
; #@! TF.GenerationSoftware,Kicad,Pcbnew,6.0.10-86aedd382b~118~ubuntu22.04.1
; #@! TF.FileFunction,Plated,1,2,PTH
FMAT,2
INCH
; #@! TA.AperFunction,Plated,PTH,ViaDrill
T1C0.0157
; #@! TA.AperFunction,Plated,PTH,ComponentDrill
T2C0.0394
; #@! TA.AperFunction,Plated,PTH,ComponentDrill
T3C0.0630
%
G90
G05
T1
X4.56Y-2.5
X4.56Y-2.745
X4.6Y-2.275
X4.65Y-2.5
X4.65Y-2.75
X4.675Y-2.425
X4.675Y-2.575
X4.75Y-2.65
X4.75Y-2.75
X4.825Y-2.3
X4.85Y-2.7
X4.85Y-2.75
X4.925Y-2.45
X4.95Y-2.575
X4.95Y-2.75
X5.025Y-2.275
X5.05Y-2.575
X5.05Y-2.75
X5.075Y-2.45
X5.15Y-2.7
X5.15Y-2.75
X5.25Y-2.275
X5.25Y-2.65
X5.25Y-2.75
X5.325Y-2.425
X5.325Y-2.575
X5.35Y-2.5
X5.4Y-2.275
X5.4Y-2.75
X5.44Y-2.5
T2
X4.6Y-2.8
X4.7Y-2.8
X4.8Y-2.8
X4.9Y-2.8
X5.0Y-2.8
X5.1Y-2.8
X5.2Y-2.8
X5.3Y-2.8
X5.4Y-2.8
T3
X4.8352Y-2.4709
X4.8718Y-2.6076
X4.9163Y-2.3551
X5.0Y-2.5
X5.0Y-2.6673
X5.0837Y-2.3551
X5.1282Y-2.6076
X5.1648Y-2.4709
T0
M30
