%TF.GenerationSoftware,KiCad,Pcbnew,6.0.11-2627ca5db0~126~ubuntu22.04.1*%
%TF.CreationDate,2023-03-29T10:33:59-07:00*%
%TF.ProjectId,GX16-8P-Horizontal Slot Test,47583136-2d38-4502-9d48-6f72697a6f6e,rev?*%
%TF.SameCoordinates,Original*%
%TF.FileFunction,Legend,Bot*%
%TF.FilePolarity,Positive*%
%FSLAX46Y46*%
G04 Gerber Fmt 4.6, Leading zero omitted, Abs format (unit mm)*
G04 Created by KiCad (PCBNEW 6.0.11-2627ca5db0~126~ubuntu22.04.1) date 2023-03-29 10:33:59*
%MOMM*%
%LPD*%
G01*
G04 APERTURE LIST*
%ADD10C,0.120000*%
%ADD11C,2.540000*%
%ADD12R,1.524000X2.794000*%
G04 APERTURE END LIST*
D10*
%TO.C,J3*%
X109855000Y-88265000D02*
X111125000Y-88265000D01*
X132080000Y-91440000D02*
X132080000Y-88265000D01*
X110490000Y-88900000D02*
X109855000Y-88265000D01*
X109220000Y-91440000D02*
X109220000Y-88265000D01*
X111125000Y-88265000D02*
X110490000Y-88900000D01*
%TO.C,J14*%
X147955000Y-88265000D02*
X149225000Y-88265000D01*
X170180000Y-91440000D02*
X170180000Y-88265000D01*
X148590000Y-88900000D02*
X147955000Y-88265000D01*
X147320000Y-91440000D02*
X147320000Y-88265000D01*
X149225000Y-88265000D02*
X148590000Y-88900000D01*
%TD*%
%LPC*%
D11*
%TO.C,J1*%
X118525000Y-78869000D03*
X116465000Y-81812000D03*
X117394000Y-85282000D03*
X120650000Y-86800000D03*
X123906000Y-85282000D03*
X124835000Y-81812000D03*
X122775000Y-78869000D03*
X120650000Y-82550000D03*
%TD*%
%TO.C,J12*%
X156625000Y-78869000D03*
X154565000Y-81812000D03*
X155494000Y-85282000D03*
X158750000Y-86800000D03*
X162006000Y-85282000D03*
X162935000Y-81812000D03*
X160875000Y-78869000D03*
X158750000Y-82550000D03*
%TD*%
D12*
%TO.C,J3*%
X110490000Y-90297000D03*
X113030000Y-90297000D03*
X115570000Y-90297000D03*
X118110000Y-90297000D03*
X120650000Y-90297000D03*
X123190000Y-90297000D03*
X125730000Y-90297000D03*
X128270000Y-90297000D03*
X130810000Y-90297000D03*
%TD*%
%TO.C,J14*%
X148590000Y-90297000D03*
X151130000Y-90297000D03*
X153670000Y-90297000D03*
X156210000Y-90297000D03*
X158750000Y-90297000D03*
X161290000Y-90297000D03*
X163830000Y-90297000D03*
X166370000Y-90297000D03*
X168910000Y-90297000D03*
%TD*%
M02*
