%TF.GenerationSoftware,KiCad,Pcbnew,6.0.11-2627ca5db0~126~ubuntu22.04.1*%
%TF.CreationDate,2023-03-29T10:33:59-07:00*%
%TF.ProjectId,GX16-8P-Horizontal Slot Test,47583136-2d38-4502-9d48-6f72697a6f6e,rev?*%
%TF.SameCoordinates,Original*%
%TF.FileFunction,Copper,L1,Top*%
%TF.FilePolarity,Positive*%
%FSLAX46Y46*%
G04 Gerber Fmt 4.6, Leading zero omitted, Abs format (unit mm)*
G04 Created by KiCad (PCBNEW 6.0.11-2627ca5db0~126~ubuntu22.04.1) date 2023-03-29 10:33:59*
%MOMM*%
%LPD*%
G01*
G04 APERTURE LIST*
%TA.AperFunction,ComponentPad*%
%ADD10C,2.540000*%
%TD*%
%TA.AperFunction,SMDPad,CuDef*%
%ADD11R,2.540000X2.540000*%
%TD*%
%TA.AperFunction,SMDPad,CuDef*%
%ADD12R,1.524000X2.794000*%
%TD*%
%TA.AperFunction,ViaPad*%
%ADD13C,0.800000*%
%TD*%
G04 APERTURE END LIST*
D10*
%TO.P,J1,1,Pin_1*%
%TO.N,Net-(J1-Pad1)*%
X118525000Y-78869000D03*
%TO.P,J1,2,Pin_2*%
%TO.N,Net-(J1-Pad2)*%
X116465000Y-81812000D03*
%TO.P,J1,3,Pin_3*%
%TO.N,Net-(J1-Pad3)*%
X117394000Y-85282000D03*
%TO.P,J1,4,Pin_4*%
%TO.N,Net-(J1-Pad4)*%
X120650000Y-86800000D03*
%TO.P,J1,5,Pin_5*%
%TO.N,Net-(J1-Pad5)*%
X123906000Y-85282000D03*
%TO.P,J1,6,Pin_6*%
%TO.N,Net-(J1-Pad6)*%
X124835000Y-81812000D03*
%TO.P,J1,7,Pin_7*%
%TO.N,Net-(J1-Pad7)*%
X122775000Y-78869000D03*
%TO.P,J1,8,Pin_8*%
%TO.N,Net-(J1-Pad8)*%
X120650000Y-82550000D03*
D11*
%TO.P,J1,MP,MountPin*%
%TO.N,Net-(J1-PadMP)*%
X112850000Y-82550000D03*
X128450000Y-82550000D03*
%TD*%
D12*
%TO.P,J19,1,Pin_1*%
%TO.N,unconnected-(J19-Pad1)*%
X148590000Y-42672000D03*
%TO.P,J19,2,Pin_2*%
%TO.N,unconnected-(J19-Pad2)*%
X151130000Y-42672000D03*
%TO.P,J19,3,Pin_3*%
%TO.N,unconnected-(J19-Pad3)*%
X153670000Y-42672000D03*
%TO.P,J19,4,Pin_4*%
%TO.N,unconnected-(J19-Pad4)*%
X156210000Y-42672000D03*
%TO.P,J19,5,Pin_5*%
%TO.N,unconnected-(J19-Pad5)*%
X158750000Y-42672000D03*
%TO.P,J19,6,Pin_6*%
%TO.N,unconnected-(J19-Pad6)*%
X161290000Y-42672000D03*
%TO.P,J19,7,Pin_7*%
%TO.N,unconnected-(J19-Pad7)*%
X163830000Y-42672000D03*
%TO.P,J19,8,Pin_8*%
%TO.N,unconnected-(J19-Pad8)*%
X166370000Y-42672000D03*
%TO.P,J19,9,Pin_9*%
%TO.N,unconnected-(J19-Pad9)*%
X168910000Y-42672000D03*
%TD*%
%TO.P,J5,1,Pin_1*%
%TO.N,unconnected-(J5-Pad1)*%
X110490000Y-68148000D03*
%TO.P,J5,2,Pin_2*%
%TO.N,unconnected-(J5-Pad2)*%
X113030000Y-68148000D03*
%TO.P,J5,3,Pin_3*%
%TO.N,unconnected-(J5-Pad3)*%
X115570000Y-68148000D03*
%TO.P,J5,4,Pin_4*%
%TO.N,unconnected-(J5-Pad4)*%
X118110000Y-68148000D03*
%TO.P,J5,5,Pin_5*%
%TO.N,unconnected-(J5-Pad5)*%
X120650000Y-68148000D03*
%TO.P,J5,6,Pin_6*%
%TO.N,unconnected-(J5-Pad6)*%
X123190000Y-68148000D03*
%TO.P,J5,7,Pin_7*%
%TO.N,unconnected-(J5-Pad7)*%
X125730000Y-68148000D03*
%TO.P,J5,8,Pin_8*%
%TO.N,unconnected-(J5-Pad8)*%
X128270000Y-68148000D03*
%TO.P,J5,9,Pin_9*%
%TO.N,unconnected-(J5-Pad9)*%
X130810000Y-68148000D03*
%TD*%
%TO.P,J7,1,Pin_1*%
%TO.N,unconnected-(J7-Pad1)*%
X110490000Y-57326000D03*
%TO.P,J7,2,Pin_2*%
%TO.N,unconnected-(J7-Pad2)*%
X113030000Y-57326000D03*
%TO.P,J7,3,Pin_3*%
%TO.N,unconnected-(J7-Pad3)*%
X115570000Y-57326000D03*
%TO.P,J7,4,Pin_4*%
%TO.N,unconnected-(J7-Pad4)*%
X118110000Y-57326000D03*
%TO.P,J7,5,Pin_5*%
%TO.N,unconnected-(J7-Pad5)*%
X120650000Y-57326000D03*
%TO.P,J7,6,Pin_6*%
%TO.N,unconnected-(J7-Pad6)*%
X123190000Y-57326000D03*
%TO.P,J7,7,Pin_7*%
%TO.N,unconnected-(J7-Pad7)*%
X125730000Y-57326000D03*
%TO.P,J7,8,Pin_8*%
%TO.N,unconnected-(J7-Pad8)*%
X128270000Y-57326000D03*
%TO.P,J7,9,Pin_9*%
%TO.N,unconnected-(J7-Pad9)*%
X130810000Y-57326000D03*
%TD*%
%TO.P,J15,1,Pin_1*%
%TO.N,unconnected-(J15-Pad1)*%
X148590000Y-64262000D03*
%TO.P,J15,2,Pin_2*%
%TO.N,unconnected-(J15-Pad2)*%
X151130000Y-64262000D03*
%TO.P,J15,3,Pin_3*%
%TO.N,unconnected-(J15-Pad3)*%
X153670000Y-64262000D03*
%TO.P,J15,4,Pin_4*%
%TO.N,unconnected-(J15-Pad4)*%
X156210000Y-64262000D03*
%TO.P,J15,5,Pin_5*%
%TO.N,unconnected-(J15-Pad5)*%
X158750000Y-64262000D03*
%TO.P,J15,6,Pin_6*%
%TO.N,unconnected-(J15-Pad6)*%
X161290000Y-64262000D03*
%TO.P,J15,7,Pin_7*%
%TO.N,unconnected-(J15-Pad7)*%
X163830000Y-64262000D03*
%TO.P,J15,8,Pin_8*%
%TO.N,unconnected-(J15-Pad8)*%
X166370000Y-64262000D03*
%TO.P,J15,9,Pin_9*%
%TO.N,unconnected-(J15-Pad9)*%
X168910000Y-64262000D03*
%TD*%
%TO.P,J21,1,Pin_1*%
%TO.N,unconnected-(J21-Pad1)*%
X148590000Y-31877000D03*
%TO.P,J21,2,Pin_2*%
%TO.N,unconnected-(J21-Pad2)*%
X151130000Y-31877000D03*
%TO.P,J21,3,Pin_3*%
%TO.N,unconnected-(J21-Pad3)*%
X153670000Y-31877000D03*
%TO.P,J21,4,Pin_4*%
%TO.N,unconnected-(J21-Pad4)*%
X156210000Y-31877000D03*
%TO.P,J21,5,Pin_5*%
%TO.N,unconnected-(J21-Pad5)*%
X158750000Y-31877000D03*
%TO.P,J21,6,Pin_6*%
%TO.N,unconnected-(J21-Pad6)*%
X161290000Y-31877000D03*
%TO.P,J21,7,Pin_7*%
%TO.N,unconnected-(J21-Pad7)*%
X163830000Y-31877000D03*
%TO.P,J21,8,Pin_8*%
%TO.N,unconnected-(J21-Pad8)*%
X166370000Y-31877000D03*
%TO.P,J21,9,Pin_9*%
%TO.N,unconnected-(J21-Pad9)*%
X168910000Y-31877000D03*
%TD*%
%TO.P,J11,1,Pin_1*%
%TO.N,unconnected-(J11-Pad1)*%
X110490000Y-36063000D03*
%TO.P,J11,2,Pin_2*%
%TO.N,unconnected-(J11-Pad2)*%
X113030000Y-36063000D03*
%TO.P,J11,3,Pin_3*%
%TO.N,unconnected-(J11-Pad3)*%
X115570000Y-36063000D03*
%TO.P,J11,4,Pin_4*%
%TO.N,unconnected-(J11-Pad4)*%
X118110000Y-36063000D03*
%TO.P,J11,5,Pin_5*%
%TO.N,unconnected-(J11-Pad5)*%
X120650000Y-36063000D03*
%TO.P,J11,6,Pin_6*%
%TO.N,unconnected-(J11-Pad6)*%
X123190000Y-36063000D03*
%TO.P,J11,7,Pin_7*%
%TO.N,unconnected-(J11-Pad7)*%
X125730000Y-36063000D03*
%TO.P,J11,8,Pin_8*%
%TO.N,unconnected-(J11-Pad8)*%
X128270000Y-36063000D03*
%TO.P,J11,9,Pin_9*%
%TO.N,unconnected-(J11-Pad9)*%
X130810000Y-36063000D03*
%TD*%
%TO.P,J2,1,Pin_1*%
%TO.N,Net-(J1-PadMP)*%
X110490000Y-90297000D03*
%TO.P,J2,2,Pin_2*%
%TO.N,Net-(J1-Pad1)*%
X113030000Y-90297000D03*
%TO.P,J2,3,Pin_3*%
%TO.N,Net-(J1-Pad2)*%
X115570000Y-90297000D03*
%TO.P,J2,4,Pin_4*%
%TO.N,Net-(J1-Pad3)*%
X118110000Y-90297000D03*
%TO.P,J2,5,Pin_5*%
%TO.N,Net-(J1-Pad4)*%
X120650000Y-90297000D03*
%TO.P,J2,6,Pin_6*%
%TO.N,Net-(J1-Pad5)*%
X123190000Y-90297000D03*
%TO.P,J2,7,Pin_7*%
%TO.N,Net-(J1-Pad6)*%
X125730000Y-90297000D03*
%TO.P,J2,8,Pin_8*%
%TO.N,Net-(J1-Pad7)*%
X128270000Y-90297000D03*
%TO.P,J2,9,Pin_9*%
%TO.N,Net-(J1-Pad8)*%
X130810000Y-90297000D03*
%TD*%
%TO.P,J13,1,Pin_1*%
%TO.N,Net-(J12-PadMP)*%
X148590000Y-90297000D03*
%TO.P,J13,2,Pin_2*%
%TO.N,Net-(J12-Pad1)*%
X151130000Y-90297000D03*
%TO.P,J13,3,Pin_3*%
%TO.N,Net-(J12-Pad2)*%
X153670000Y-90297000D03*
%TO.P,J13,4,Pin_4*%
%TO.N,Net-(J12-Pad3)*%
X156210000Y-90297000D03*
%TO.P,J13,5,Pin_5*%
%TO.N,Net-(J12-Pad4)*%
X158750000Y-90297000D03*
%TO.P,J13,6,Pin_6*%
%TO.N,Net-(J12-Pad5)*%
X161290000Y-90297000D03*
%TO.P,J13,7,Pin_7*%
%TO.N,Net-(J12-Pad6)*%
X163830000Y-90297000D03*
%TO.P,J13,8,Pin_8*%
%TO.N,Net-(J12-Pad7)*%
X166370000Y-90297000D03*
%TO.P,J13,9,Pin_9*%
%TO.N,Net-(J12-Pad8)*%
X168910000Y-90297000D03*
%TD*%
%TO.P,J20,1,Pin_1*%
%TO.N,unconnected-(J20-Pad1)*%
X148590000Y-46758000D03*
%TO.P,J20,2,Pin_2*%
%TO.N,unconnected-(J20-Pad2)*%
X151130000Y-46758000D03*
%TO.P,J20,3,Pin_3*%
%TO.N,unconnected-(J20-Pad3)*%
X153670000Y-46758000D03*
%TO.P,J20,4,Pin_4*%
%TO.N,unconnected-(J20-Pad4)*%
X156210000Y-46758000D03*
%TO.P,J20,5,Pin_5*%
%TO.N,unconnected-(J20-Pad5)*%
X158750000Y-46758000D03*
%TO.P,J20,6,Pin_6*%
%TO.N,unconnected-(J20-Pad6)*%
X161290000Y-46758000D03*
%TO.P,J20,7,Pin_7*%
%TO.N,unconnected-(J20-Pad7)*%
X163830000Y-46758000D03*
%TO.P,J20,8,Pin_8*%
%TO.N,unconnected-(J20-Pad8)*%
X166370000Y-46758000D03*
%TO.P,J20,9,Pin_9*%
%TO.N,unconnected-(J20-Pad9)*%
X168910000Y-46758000D03*
%TD*%
%TO.P,J17,1,Pin_1*%
%TO.N,unconnected-(J17-Pad1)*%
X148590000Y-53467000D03*
%TO.P,J17,2,Pin_2*%
%TO.N,unconnected-(J17-Pad2)*%
X151130000Y-53467000D03*
%TO.P,J17,3,Pin_3*%
%TO.N,unconnected-(J17-Pad3)*%
X153670000Y-53467000D03*
%TO.P,J17,4,Pin_4*%
%TO.N,unconnected-(J17-Pad4)*%
X156210000Y-53467000D03*
%TO.P,J17,5,Pin_5*%
%TO.N,unconnected-(J17-Pad5)*%
X158750000Y-53467000D03*
%TO.P,J17,6,Pin_6*%
%TO.N,unconnected-(J17-Pad6)*%
X161290000Y-53467000D03*
%TO.P,J17,7,Pin_7*%
%TO.N,unconnected-(J17-Pad7)*%
X163830000Y-53467000D03*
%TO.P,J17,8,Pin_8*%
%TO.N,unconnected-(J17-Pad8)*%
X166370000Y-53467000D03*
%TO.P,J17,9,Pin_9*%
%TO.N,unconnected-(J17-Pad9)*%
X168910000Y-53467000D03*
%TD*%
D10*
%TO.P,J12,1,Pin_1*%
%TO.N,Net-(J12-Pad1)*%
X156625000Y-78869000D03*
%TO.P,J12,2,Pin_2*%
%TO.N,Net-(J12-Pad2)*%
X154565000Y-81812000D03*
%TO.P,J12,3,Pin_3*%
%TO.N,Net-(J12-Pad3)*%
X155494000Y-85282000D03*
%TO.P,J12,4,Pin_4*%
%TO.N,Net-(J12-Pad4)*%
X158750000Y-86800000D03*
%TO.P,J12,5,Pin_5*%
%TO.N,Net-(J12-Pad5)*%
X162006000Y-85282000D03*
%TO.P,J12,6,Pin_6*%
%TO.N,Net-(J12-Pad6)*%
X162935000Y-81812000D03*
%TO.P,J12,7,Pin_7*%
%TO.N,Net-(J12-Pad7)*%
X160875000Y-78869000D03*
%TO.P,J12,8,Pin_8*%
%TO.N,Net-(J12-Pad8)*%
X158750000Y-82550000D03*
D11*
%TO.P,J12,MP,MountPin*%
%TO.N,Net-(J12-PadMP)*%
X150950000Y-82550000D03*
X166550000Y-82550000D03*
%TD*%
D12*
%TO.P,J18,1,Pin_1*%
%TO.N,unconnected-(J18-Pad1)*%
X148590000Y-57326000D03*
%TO.P,J18,2,Pin_2*%
%TO.N,unconnected-(J18-Pad2)*%
X151130000Y-57326000D03*
%TO.P,J18,3,Pin_3*%
%TO.N,unconnected-(J18-Pad3)*%
X153670000Y-57326000D03*
%TO.P,J18,4,Pin_4*%
%TO.N,unconnected-(J18-Pad4)*%
X156210000Y-57326000D03*
%TO.P,J18,5,Pin_5*%
%TO.N,unconnected-(J18-Pad5)*%
X158750000Y-57326000D03*
%TO.P,J18,6,Pin_6*%
%TO.N,unconnected-(J18-Pad6)*%
X161290000Y-57326000D03*
%TO.P,J18,7,Pin_7*%
%TO.N,unconnected-(J18-Pad7)*%
X163830000Y-57326000D03*
%TO.P,J18,8,Pin_8*%
%TO.N,unconnected-(J18-Pad8)*%
X166370000Y-57326000D03*
%TO.P,J18,9,Pin_9*%
%TO.N,unconnected-(J18-Pad9)*%
X168910000Y-57326000D03*
%TD*%
%TO.P,J8,1,Pin_1*%
%TO.N,unconnected-(J8-Pad1)*%
X110490000Y-42672000D03*
%TO.P,J8,2,Pin_2*%
%TO.N,unconnected-(J8-Pad2)*%
X113030000Y-42672000D03*
%TO.P,J8,3,Pin_3*%
%TO.N,unconnected-(J8-Pad3)*%
X115570000Y-42672000D03*
%TO.P,J8,4,Pin_4*%
%TO.N,unconnected-(J8-Pad4)*%
X118110000Y-42672000D03*
%TO.P,J8,5,Pin_5*%
%TO.N,unconnected-(J8-Pad5)*%
X120650000Y-42672000D03*
%TO.P,J8,6,Pin_6*%
%TO.N,unconnected-(J8-Pad6)*%
X123190000Y-42672000D03*
%TO.P,J8,7,Pin_7*%
%TO.N,unconnected-(J8-Pad7)*%
X125730000Y-42672000D03*
%TO.P,J8,8,Pin_8*%
%TO.N,unconnected-(J8-Pad8)*%
X128270000Y-42672000D03*
%TO.P,J8,9,Pin_9*%
%TO.N,unconnected-(J8-Pad9)*%
X130810000Y-42672000D03*
%TD*%
%TO.P,J22,1,Pin_1*%
%TO.N,unconnected-(J22-Pad1)*%
X148590000Y-36063000D03*
%TO.P,J22,2,Pin_2*%
%TO.N,unconnected-(J22-Pad2)*%
X151130000Y-36063000D03*
%TO.P,J22,3,Pin_3*%
%TO.N,unconnected-(J22-Pad3)*%
X153670000Y-36063000D03*
%TO.P,J22,4,Pin_4*%
%TO.N,unconnected-(J22-Pad4)*%
X156210000Y-36063000D03*
%TO.P,J22,5,Pin_5*%
%TO.N,unconnected-(J22-Pad5)*%
X158750000Y-36063000D03*
%TO.P,J22,6,Pin_6*%
%TO.N,unconnected-(J22-Pad6)*%
X161290000Y-36063000D03*
%TO.P,J22,7,Pin_7*%
%TO.N,unconnected-(J22-Pad7)*%
X163830000Y-36063000D03*
%TO.P,J22,8,Pin_8*%
%TO.N,unconnected-(J22-Pad8)*%
X166370000Y-36063000D03*
%TO.P,J22,9,Pin_9*%
%TO.N,unconnected-(J22-Pad9)*%
X168910000Y-36063000D03*
%TD*%
%TO.P,J4,1,Pin_1*%
%TO.N,unconnected-(J4-Pad1)*%
X110490000Y-64262000D03*
%TO.P,J4,2,Pin_2*%
%TO.N,unconnected-(J4-Pad2)*%
X113030000Y-64262000D03*
%TO.P,J4,3,Pin_3*%
%TO.N,unconnected-(J4-Pad3)*%
X115570000Y-64262000D03*
%TO.P,J4,4,Pin_4*%
%TO.N,unconnected-(J4-Pad4)*%
X118110000Y-64262000D03*
%TO.P,J4,5,Pin_5*%
%TO.N,unconnected-(J4-Pad5)*%
X120650000Y-64262000D03*
%TO.P,J4,6,Pin_6*%
%TO.N,unconnected-(J4-Pad6)*%
X123190000Y-64262000D03*
%TO.P,J4,7,Pin_7*%
%TO.N,unconnected-(J4-Pad7)*%
X125730000Y-64262000D03*
%TO.P,J4,8,Pin_8*%
%TO.N,unconnected-(J4-Pad8)*%
X128270000Y-64262000D03*
%TO.P,J4,9,Pin_9*%
%TO.N,unconnected-(J4-Pad9)*%
X130810000Y-64262000D03*
%TD*%
%TO.P,J9,1,Pin_1*%
%TO.N,unconnected-(J9-Pad1)*%
X110490000Y-46758000D03*
%TO.P,J9,2,Pin_2*%
%TO.N,unconnected-(J9-Pad2)*%
X113030000Y-46758000D03*
%TO.P,J9,3,Pin_3*%
%TO.N,unconnected-(J9-Pad3)*%
X115570000Y-46758000D03*
%TO.P,J9,4,Pin_4*%
%TO.N,unconnected-(J9-Pad4)*%
X118110000Y-46758000D03*
%TO.P,J9,5,Pin_5*%
%TO.N,unconnected-(J9-Pad5)*%
X120650000Y-46758000D03*
%TO.P,J9,6,Pin_6*%
%TO.N,unconnected-(J9-Pad6)*%
X123190000Y-46758000D03*
%TO.P,J9,7,Pin_7*%
%TO.N,unconnected-(J9-Pad7)*%
X125730000Y-46758000D03*
%TO.P,J9,8,Pin_8*%
%TO.N,unconnected-(J9-Pad8)*%
X128270000Y-46758000D03*
%TO.P,J9,9,Pin_9*%
%TO.N,unconnected-(J9-Pad9)*%
X130810000Y-46758000D03*
%TD*%
%TO.P,J10,1,Pin_1*%
%TO.N,unconnected-(J10-Pad1)*%
X110490000Y-31877000D03*
%TO.P,J10,2,Pin_2*%
%TO.N,unconnected-(J10-Pad2)*%
X113030000Y-31877000D03*
%TO.P,J10,3,Pin_3*%
%TO.N,unconnected-(J10-Pad3)*%
X115570000Y-31877000D03*
%TO.P,J10,4,Pin_4*%
%TO.N,unconnected-(J10-Pad4)*%
X118110000Y-31877000D03*
%TO.P,J10,5,Pin_5*%
%TO.N,unconnected-(J10-Pad5)*%
X120650000Y-31877000D03*
%TO.P,J10,6,Pin_6*%
%TO.N,unconnected-(J10-Pad6)*%
X123190000Y-31877000D03*
%TO.P,J10,7,Pin_7*%
%TO.N,unconnected-(J10-Pad7)*%
X125730000Y-31877000D03*
%TO.P,J10,8,Pin_8*%
%TO.N,unconnected-(J10-Pad8)*%
X128270000Y-31877000D03*
%TO.P,J10,9,Pin_9*%
%TO.N,unconnected-(J10-Pad9)*%
X130810000Y-31877000D03*
%TD*%
%TO.P,J6,1,Pin_1*%
%TO.N,unconnected-(J6-Pad1)*%
X110490000Y-53467000D03*
%TO.P,J6,2,Pin_2*%
%TO.N,unconnected-(J6-Pad2)*%
X113030000Y-53467000D03*
%TO.P,J6,3,Pin_3*%
%TO.N,unconnected-(J6-Pad3)*%
X115570000Y-53467000D03*
%TO.P,J6,4,Pin_4*%
%TO.N,unconnected-(J6-Pad4)*%
X118110000Y-53467000D03*
%TO.P,J6,5,Pin_5*%
%TO.N,unconnected-(J6-Pad5)*%
X120650000Y-53467000D03*
%TO.P,J6,6,Pin_6*%
%TO.N,unconnected-(J6-Pad6)*%
X123190000Y-53467000D03*
%TO.P,J6,7,Pin_7*%
%TO.N,unconnected-(J6-Pad7)*%
X125730000Y-53467000D03*
%TO.P,J6,8,Pin_8*%
%TO.N,unconnected-(J6-Pad8)*%
X128270000Y-53467000D03*
%TO.P,J6,9,Pin_9*%
%TO.N,unconnected-(J6-Pad9)*%
X130810000Y-53467000D03*
%TD*%
%TO.P,J16,1,Pin_1*%
%TO.N,unconnected-(J16-Pad1)*%
X148590000Y-68148000D03*
%TO.P,J16,2,Pin_2*%
%TO.N,unconnected-(J16-Pad2)*%
X151130000Y-68148000D03*
%TO.P,J16,3,Pin_3*%
%TO.N,unconnected-(J16-Pad3)*%
X153670000Y-68148000D03*
%TO.P,J16,4,Pin_4*%
%TO.N,unconnected-(J16-Pad4)*%
X156210000Y-68148000D03*
%TO.P,J16,5,Pin_5*%
%TO.N,unconnected-(J16-Pad5)*%
X158750000Y-68148000D03*
%TO.P,J16,6,Pin_6*%
%TO.N,unconnected-(J16-Pad6)*%
X161290000Y-68148000D03*
%TO.P,J16,7,Pin_7*%
%TO.N,unconnected-(J16-Pad7)*%
X163830000Y-68148000D03*
%TO.P,J16,8,Pin_8*%
%TO.N,unconnected-(J16-Pad8)*%
X166370000Y-68148000D03*
%TO.P,J16,9,Pin_9*%
%TO.N,unconnected-(J16-Pad9)*%
X168910000Y-68148000D03*
%TD*%
D13*
%TO.N,Net-(J1-Pad1)*%
X113030000Y-89535000D03*
%TO.N,Net-(J1-Pad2)*%
X115570000Y-89535000D03*
%TO.N,Net-(J1-Pad3)*%
X118110000Y-89535000D03*
%TO.N,Net-(J1-Pad4)*%
X120650000Y-89535000D03*
%TO.N,Net-(J1-Pad5)*%
X123190000Y-89535000D03*
%TO.N,Net-(J1-Pad6)*%
X125730000Y-89535000D03*
%TO.N,Net-(J1-Pad7)*%
X128270000Y-89535000D03*
%TO.N,Net-(J1-Pad8)*%
X130810000Y-89535000D03*
%TO.N,Net-(J1-PadMP)*%
X119634000Y-84582000D03*
X114935000Y-78105000D03*
X111760000Y-84455000D03*
X118618000Y-81153000D03*
X129540000Y-85090000D03*
X122555000Y-87630000D03*
X122682000Y-81153000D03*
X126365000Y-78105000D03*
X121666000Y-84582000D03*
X114300000Y-87630000D03*
X127000000Y-87630000D03*
X111760000Y-87630000D03*
X127000000Y-82550000D03*
X114300000Y-82550000D03*
X110490000Y-89535000D03*
X118745000Y-87630000D03*
X129540000Y-87630000D03*
X128270000Y-80010000D03*
X113030000Y-80010000D03*
%TO.N,Net-(J12-Pad1)*%
X151130000Y-89535000D03*
%TO.N,Net-(J12-Pad2)*%
X153670000Y-89535000D03*
%TO.N,Net-(J12-Pad3)*%
X156210000Y-89535000D03*
%TO.N,Net-(J12-Pad4)*%
X158750000Y-89535000D03*
%TO.N,Net-(J12-Pad5)*%
X161290000Y-89535000D03*
%TO.N,Net-(J12-Pad6)*%
X163830000Y-89535000D03*
%TO.N,Net-(J12-Pad7)*%
X166370000Y-89535000D03*
%TO.N,Net-(J12-Pad8)*%
X168910000Y-89535000D03*
%TO.N,Net-(J12-PadMP)*%
X152400000Y-82550000D03*
X153035000Y-78105000D03*
X166370000Y-80010000D03*
X167640000Y-87630000D03*
X149860000Y-87630000D03*
X159766000Y-84582000D03*
X164465000Y-78105000D03*
X160782000Y-81153000D03*
X160655000Y-87630000D03*
X165100000Y-82550000D03*
X152400000Y-87630000D03*
X156718000Y-81153000D03*
X167640000Y-85090000D03*
X156845000Y-87630000D03*
X157734000Y-84582000D03*
X165100000Y-87630000D03*
X149860000Y-84455000D03*
X148590000Y-89535000D03*
X151130000Y-80010000D03*
%TD*%
%TA.AperFunction,Conductor*%
%TO.N,Net-(J12-PadMP)*%
G36*
X172902921Y-75344202D02*
G01*
X172949414Y-75397858D01*
X172960800Y-75450200D01*
X172960800Y-90919800D01*
X172940798Y-90987921D01*
X172887142Y-91034414D01*
X172834800Y-91045800D01*
X171490944Y-91045800D01*
X171471233Y-91044249D01*
X171459793Y-91042437D01*
X171450000Y-91040886D01*
X171440207Y-91042437D01*
X171418974Y-91045800D01*
X171336458Y-91058869D01*
X171336456Y-91058870D01*
X171326667Y-91060420D01*
X171215407Y-91117110D01*
X171127110Y-91205407D01*
X171070420Y-91316667D01*
X171068869Y-91326460D01*
X171068868Y-91326463D01*
X171067719Y-91333714D01*
X171037305Y-91397866D01*
X170977036Y-91435392D01*
X170943271Y-91440000D01*
X170192200Y-91440000D01*
X170124079Y-91419998D01*
X170077586Y-91366342D01*
X170066200Y-91314000D01*
X170066200Y-88868974D01*
X170051580Y-88776667D01*
X169994890Y-88665407D01*
X169906593Y-88577110D01*
X169795333Y-88520420D01*
X169785544Y-88518870D01*
X169785542Y-88518869D01*
X169759167Y-88514692D01*
X169703026Y-88505800D01*
X168116974Y-88505800D01*
X168060833Y-88514692D01*
X168034458Y-88518869D01*
X168034456Y-88518870D01*
X168024667Y-88520420D01*
X167913407Y-88577110D01*
X167825110Y-88665407D01*
X167768420Y-88776667D01*
X167766870Y-88786456D01*
X167766869Y-88786458D01*
X167764449Y-88801739D01*
X167734037Y-88865892D01*
X167673768Y-88903419D01*
X167602779Y-88902405D01*
X167543607Y-88863172D01*
X167515551Y-88801739D01*
X167513131Y-88786458D01*
X167513130Y-88786456D01*
X167511580Y-88776667D01*
X167454890Y-88665407D01*
X167366593Y-88577110D01*
X167255333Y-88520420D01*
X167245544Y-88518870D01*
X167245542Y-88518869D01*
X167219167Y-88514692D01*
X167163026Y-88505800D01*
X165576974Y-88505800D01*
X165520833Y-88514692D01*
X165494458Y-88518869D01*
X165494456Y-88518870D01*
X165484667Y-88520420D01*
X165373407Y-88577110D01*
X165285110Y-88665407D01*
X165228420Y-88776667D01*
X165226870Y-88786456D01*
X165226869Y-88786458D01*
X165224449Y-88801739D01*
X165194037Y-88865892D01*
X165133768Y-88903419D01*
X165062779Y-88902405D01*
X165003607Y-88863172D01*
X164975551Y-88801739D01*
X164973131Y-88786458D01*
X164973130Y-88786456D01*
X164971580Y-88776667D01*
X164914890Y-88665407D01*
X164826593Y-88577110D01*
X164715333Y-88520420D01*
X164705544Y-88518870D01*
X164705542Y-88518869D01*
X164679167Y-88514692D01*
X164623026Y-88505800D01*
X163036974Y-88505800D01*
X162980833Y-88514692D01*
X162954458Y-88518869D01*
X162954456Y-88518870D01*
X162944667Y-88520420D01*
X162833407Y-88577110D01*
X162745110Y-88665407D01*
X162688420Y-88776667D01*
X162686870Y-88786456D01*
X162686869Y-88786458D01*
X162684449Y-88801739D01*
X162654037Y-88865892D01*
X162593768Y-88903419D01*
X162522779Y-88902405D01*
X162463607Y-88863172D01*
X162435551Y-88801739D01*
X162433131Y-88786458D01*
X162433130Y-88786456D01*
X162431580Y-88776667D01*
X162374890Y-88665407D01*
X162286593Y-88577110D01*
X162175333Y-88520420D01*
X162165544Y-88518870D01*
X162165542Y-88518869D01*
X162139167Y-88514692D01*
X162083026Y-88505800D01*
X160496974Y-88505800D01*
X160440833Y-88514692D01*
X160414458Y-88518869D01*
X160414456Y-88518870D01*
X160404667Y-88520420D01*
X160293407Y-88577110D01*
X160205110Y-88665407D01*
X160148420Y-88776667D01*
X160146870Y-88786456D01*
X160146869Y-88786458D01*
X160144449Y-88801739D01*
X160114037Y-88865892D01*
X160053768Y-88903419D01*
X159982779Y-88902405D01*
X159923607Y-88863172D01*
X159895551Y-88801739D01*
X159893131Y-88786458D01*
X159893130Y-88786456D01*
X159891580Y-88776667D01*
X159834890Y-88665407D01*
X159746593Y-88577110D01*
X159635333Y-88520420D01*
X159625542Y-88518869D01*
X159625541Y-88518869D01*
X159570107Y-88510089D01*
X159505954Y-88479676D01*
X159468427Y-88419408D01*
X159469441Y-88348419D01*
X159508674Y-88289247D01*
X159523515Y-88278496D01*
X159730935Y-88150141D01*
X159919724Y-87990319D01*
X160000545Y-87898161D01*
X160079734Y-87807864D01*
X160079738Y-87807859D01*
X160082816Y-87804349D01*
X160216628Y-87596314D01*
X160318221Y-87370786D01*
X160385363Y-87132718D01*
X160401233Y-87007969D01*
X160416181Y-86890473D01*
X160416181Y-86890467D01*
X160416579Y-86887342D01*
X160417297Y-86859944D01*
X160417863Y-86838306D01*
X160418866Y-86800000D01*
X160400535Y-86553326D01*
X160399269Y-86547728D01*
X160346975Y-86316628D01*
X160345944Y-86312071D01*
X160334412Y-86282416D01*
X160257987Y-86085888D01*
X160257986Y-86085885D01*
X160256294Y-86081535D01*
X160252018Y-86074053D01*
X160135872Y-85870839D01*
X160135870Y-85870837D01*
X160133553Y-85866782D01*
X159980417Y-85672530D01*
X159800251Y-85503048D01*
X159768057Y-85480714D01*
X159600856Y-85364721D01*
X159600853Y-85364719D01*
X159597014Y-85362056D01*
X159592824Y-85359990D01*
X159592821Y-85359988D01*
X159379356Y-85254719D01*
X159379353Y-85254718D01*
X159375168Y-85252654D01*
X159331823Y-85238779D01*
X159330370Y-85238314D01*
X160337706Y-85238314D01*
X160337930Y-85242981D01*
X160337930Y-85242986D01*
X160338494Y-85254719D01*
X160349573Y-85485384D01*
X160397830Y-85727985D01*
X160481415Y-85960789D01*
X160598493Y-86178681D01*
X160746491Y-86376875D01*
X160749800Y-86380155D01*
X160749805Y-86380161D01*
X160880988Y-86510204D01*
X160922158Y-86551016D01*
X160925920Y-86553774D01*
X160925923Y-86553777D01*
X161036152Y-86634600D01*
X161121636Y-86697279D01*
X161125767Y-86699453D01*
X161125768Y-86699453D01*
X161336406Y-86810275D01*
X161336412Y-86810277D01*
X161340541Y-86812450D01*
X161344949Y-86813989D01*
X161344955Y-86813992D01*
X161563963Y-86890473D01*
X161574066Y-86894001D01*
X161578659Y-86894873D01*
X161812490Y-86939267D01*
X161812493Y-86939267D01*
X161817079Y-86940138D01*
X161934588Y-86944755D01*
X162059575Y-86949666D01*
X162059580Y-86949666D01*
X162064243Y-86949849D01*
X162160869Y-86939267D01*
X162305474Y-86923431D01*
X162305480Y-86923430D01*
X162310127Y-86922921D01*
X162433373Y-86890473D01*
X162544807Y-86861135D01*
X162544809Y-86861134D01*
X162549330Y-86859944D01*
X162659875Y-86812450D01*
X162772303Y-86764147D01*
X162772305Y-86764146D01*
X162776597Y-86762302D01*
X162881673Y-86697279D01*
X162982962Y-86634600D01*
X162982966Y-86634597D01*
X162986935Y-86632141D01*
X163175724Y-86472319D01*
X163256545Y-86380161D01*
X163335734Y-86289864D01*
X163335738Y-86289859D01*
X163338816Y-86286349D01*
X163341346Y-86282416D01*
X163470100Y-86082245D01*
X163470103Y-86082240D01*
X163472628Y-86078314D01*
X163574221Y-85852786D01*
X163641363Y-85614718D01*
X163651313Y-85536504D01*
X163672181Y-85372473D01*
X163672181Y-85372467D01*
X163672579Y-85369342D01*
X163673338Y-85340377D01*
X163674783Y-85285160D01*
X163674866Y-85282000D01*
X163672685Y-85252654D01*
X163656881Y-85039978D01*
X163656880Y-85039974D01*
X163656535Y-85035326D01*
X163647832Y-84996862D01*
X163602975Y-84798628D01*
X163601944Y-84794071D01*
X163600251Y-84789717D01*
X163513987Y-84567888D01*
X163513986Y-84567885D01*
X163512294Y-84563535D01*
X163509976Y-84559479D01*
X163391872Y-84352839D01*
X163391870Y-84352837D01*
X163389553Y-84348782D01*
X163236417Y-84154530D01*
X163056251Y-83985048D01*
X163052404Y-83982379D01*
X162882728Y-83864669D01*
X164772001Y-83864669D01*
X164772371Y-83871490D01*
X164777895Y-83922352D01*
X164781521Y-83937604D01*
X164826676Y-84058054D01*
X164835214Y-84073649D01*
X164911715Y-84175724D01*
X164924276Y-84188285D01*
X165026351Y-84264786D01*
X165041946Y-84273324D01*
X165162394Y-84318478D01*
X165177649Y-84322105D01*
X165228514Y-84327631D01*
X165235328Y-84328000D01*
X166277885Y-84328000D01*
X166293124Y-84323525D01*
X166294329Y-84322135D01*
X166296000Y-84314452D01*
X166296000Y-84309884D01*
X166804000Y-84309884D01*
X166808475Y-84325123D01*
X166809865Y-84326328D01*
X166817548Y-84327999D01*
X167864669Y-84327999D01*
X167871490Y-84327629D01*
X167922352Y-84322105D01*
X167937604Y-84318479D01*
X168058054Y-84273324D01*
X168073649Y-84264786D01*
X168175724Y-84188285D01*
X168188285Y-84175724D01*
X168264786Y-84073649D01*
X168273324Y-84058054D01*
X168318478Y-83937606D01*
X168322105Y-83922351D01*
X168327631Y-83871486D01*
X168328000Y-83864672D01*
X168328000Y-82822115D01*
X168323525Y-82806876D01*
X168322135Y-82805671D01*
X168314452Y-82804000D01*
X166822115Y-82804000D01*
X166806876Y-82808475D01*
X166805671Y-82809865D01*
X166804000Y-82817548D01*
X166804000Y-84309884D01*
X166296000Y-84309884D01*
X166296000Y-82822115D01*
X166291525Y-82806876D01*
X166290135Y-82805671D01*
X166282452Y-82804000D01*
X164790116Y-82804000D01*
X164774877Y-82808475D01*
X164773672Y-82809865D01*
X164772001Y-82817548D01*
X164772001Y-83864669D01*
X162882728Y-83864669D01*
X162856856Y-83846721D01*
X162856853Y-83846719D01*
X162853014Y-83844056D01*
X162848824Y-83841990D01*
X162848821Y-83841988D01*
X162635356Y-83736719D01*
X162635353Y-83736718D01*
X162631168Y-83734654D01*
X162587823Y-83720779D01*
X162400034Y-83660668D01*
X162400036Y-83660668D01*
X162395589Y-83659245D01*
X162261935Y-83637478D01*
X162156063Y-83620236D01*
X162156062Y-83620236D01*
X162151451Y-83619485D01*
X162027785Y-83617866D01*
X161908795Y-83616308D01*
X161908792Y-83616308D01*
X161904118Y-83616247D01*
X161806645Y-83629513D01*
X161663663Y-83648971D01*
X161663656Y-83648972D01*
X161659023Y-83649603D01*
X161654533Y-83650912D01*
X161654527Y-83650913D01*
X161553781Y-83680278D01*
X161421551Y-83718820D01*
X161417304Y-83720778D01*
X161417301Y-83720779D01*
X161390291Y-83733231D01*
X161196918Y-83822377D01*
X161193009Y-83824940D01*
X160993969Y-83955436D01*
X160993965Y-83955439D01*
X160990059Y-83958000D01*
X160986576Y-83961109D01*
X160986573Y-83961111D01*
X160962744Y-83982379D01*
X160805518Y-84122708D01*
X160647350Y-84312885D01*
X160519030Y-84524351D01*
X160517221Y-84528665D01*
X160517220Y-84528667D01*
X160504300Y-84559479D01*
X160423375Y-84752461D01*
X160362488Y-84992204D01*
X160337706Y-85238314D01*
X159330370Y-85238314D01*
X159144034Y-85178668D01*
X159144036Y-85178668D01*
X159139589Y-85177245D01*
X159005935Y-85155478D01*
X158900063Y-85138236D01*
X158900062Y-85138236D01*
X158895451Y-85137485D01*
X158771784Y-85135866D01*
X158652795Y-85134308D01*
X158652792Y-85134308D01*
X158648118Y-85134247D01*
X158550645Y-85147513D01*
X158407663Y-85166971D01*
X158407656Y-85166972D01*
X158403023Y-85167603D01*
X158398533Y-85168912D01*
X158398527Y-85168913D01*
X158297781Y-85198278D01*
X158165551Y-85236820D01*
X158161304Y-85238778D01*
X158161301Y-85238779D01*
X158134291Y-85251231D01*
X157940918Y-85340377D01*
X157937009Y-85342940D01*
X157737969Y-85473436D01*
X157737965Y-85473439D01*
X157734059Y-85476000D01*
X157730576Y-85479109D01*
X157730573Y-85479111D01*
X157573598Y-85619216D01*
X157549518Y-85640708D01*
X157391350Y-85830885D01*
X157263030Y-86042351D01*
X157261221Y-86046665D01*
X157261220Y-86046667D01*
X157205862Y-86178681D01*
X157167375Y-86270461D01*
X157106488Y-86510204D01*
X157081706Y-86756314D01*
X157081930Y-86760981D01*
X157081930Y-86760986D01*
X157082082Y-86764147D01*
X157093573Y-87003384D01*
X157141830Y-87245985D01*
X157225415Y-87478789D01*
X157342493Y-87696681D01*
X157490491Y-87894875D01*
X157493800Y-87898155D01*
X157493805Y-87898161D01*
X157662841Y-88065728D01*
X157666158Y-88069016D01*
X157669920Y-88071774D01*
X157669923Y-88071777D01*
X157780151Y-88152599D01*
X157865636Y-88215279D01*
X157869769Y-88217453D01*
X157869773Y-88217456D01*
X157975496Y-88273080D01*
X158026468Y-88322499D01*
X158042631Y-88391632D01*
X158018852Y-88458528D01*
X157962681Y-88501949D01*
X157936540Y-88509036D01*
X157891844Y-88516116D01*
X157874459Y-88518869D01*
X157874458Y-88518869D01*
X157864667Y-88520420D01*
X157753407Y-88577110D01*
X157665110Y-88665407D01*
X157608420Y-88776667D01*
X157606870Y-88786456D01*
X157606869Y-88786458D01*
X157604449Y-88801739D01*
X157574037Y-88865892D01*
X157513768Y-88903419D01*
X157442779Y-88902405D01*
X157383607Y-88863172D01*
X157355551Y-88801739D01*
X157353131Y-88786458D01*
X157353130Y-88786456D01*
X157351580Y-88776667D01*
X157294890Y-88665407D01*
X157206593Y-88577110D01*
X157095333Y-88520420D01*
X157085544Y-88518870D01*
X157085542Y-88518869D01*
X157059167Y-88514692D01*
X157003026Y-88505800D01*
X155416974Y-88505800D01*
X155360833Y-88514692D01*
X155334458Y-88518869D01*
X155334456Y-88518870D01*
X155324667Y-88520420D01*
X155213407Y-88577110D01*
X155125110Y-88665407D01*
X155068420Y-88776667D01*
X155066870Y-88786456D01*
X155066869Y-88786458D01*
X155064449Y-88801739D01*
X155034037Y-88865892D01*
X154973768Y-88903419D01*
X154902779Y-88902405D01*
X154843607Y-88863172D01*
X154815551Y-88801739D01*
X154813131Y-88786458D01*
X154813130Y-88786456D01*
X154811580Y-88776667D01*
X154754890Y-88665407D01*
X154666593Y-88577110D01*
X154555333Y-88520420D01*
X154545544Y-88518870D01*
X154545542Y-88518869D01*
X154519167Y-88514692D01*
X154463026Y-88505800D01*
X152876974Y-88505800D01*
X152820833Y-88514692D01*
X152794458Y-88518869D01*
X152794456Y-88518870D01*
X152784667Y-88520420D01*
X152673407Y-88577110D01*
X152585110Y-88665407D01*
X152528420Y-88776667D01*
X152526870Y-88786456D01*
X152526869Y-88786458D01*
X152524449Y-88801739D01*
X152494037Y-88865892D01*
X152433768Y-88903419D01*
X152362779Y-88902405D01*
X152303607Y-88863172D01*
X152275551Y-88801739D01*
X152273131Y-88786458D01*
X152273130Y-88786456D01*
X152271580Y-88776667D01*
X152214890Y-88665407D01*
X152126593Y-88577110D01*
X152015333Y-88520420D01*
X152005544Y-88518870D01*
X152005542Y-88518869D01*
X151979167Y-88514692D01*
X151923026Y-88505800D01*
X150336974Y-88505800D01*
X150280833Y-88514692D01*
X150254458Y-88518869D01*
X150254456Y-88518870D01*
X150244667Y-88520420D01*
X150133407Y-88577110D01*
X150045110Y-88665407D01*
X150040610Y-88674238D01*
X150040609Y-88674240D01*
X150037560Y-88680224D01*
X149988810Y-88731838D01*
X149919895Y-88748903D01*
X149852694Y-88726001D01*
X149807312Y-88667248D01*
X149805325Y-88661948D01*
X149796786Y-88646351D01*
X149720285Y-88544276D01*
X149707724Y-88531715D01*
X149605649Y-88455214D01*
X149590054Y-88446676D01*
X149469606Y-88401522D01*
X149454351Y-88397895D01*
X149403486Y-88392369D01*
X149396672Y-88392000D01*
X148862115Y-88392000D01*
X148846876Y-88396475D01*
X148845671Y-88397865D01*
X148844000Y-88405548D01*
X148844000Y-90425000D01*
X148823998Y-90493121D01*
X148770342Y-90539614D01*
X148718000Y-90551000D01*
X147338116Y-90551000D01*
X147322877Y-90555475D01*
X147321672Y-90556865D01*
X147320001Y-90564548D01*
X147320001Y-90919800D01*
X147299999Y-90987921D01*
X147246343Y-91034414D01*
X147194001Y-91045800D01*
X145935200Y-91045800D01*
X145867079Y-91025798D01*
X145820586Y-90972142D01*
X145809200Y-90919800D01*
X145809200Y-90024885D01*
X147320000Y-90024885D01*
X147324475Y-90040124D01*
X147325865Y-90041329D01*
X147333548Y-90043000D01*
X148317885Y-90043000D01*
X148333124Y-90038525D01*
X148334329Y-90037135D01*
X148336000Y-90029452D01*
X148336000Y-88410116D01*
X148331525Y-88394877D01*
X148330135Y-88393672D01*
X148322452Y-88392001D01*
X147783331Y-88392001D01*
X147776510Y-88392371D01*
X147725648Y-88397895D01*
X147710396Y-88401521D01*
X147589946Y-88446676D01*
X147574351Y-88455214D01*
X147472276Y-88531715D01*
X147459715Y-88544276D01*
X147383214Y-88646351D01*
X147374676Y-88661946D01*
X147329522Y-88782394D01*
X147325895Y-88797649D01*
X147320369Y-88848514D01*
X147320000Y-88855328D01*
X147320000Y-90024885D01*
X145809200Y-90024885D01*
X145809200Y-85238314D01*
X153825706Y-85238314D01*
X153825930Y-85242981D01*
X153825930Y-85242986D01*
X153826494Y-85254719D01*
X153837573Y-85485384D01*
X153885830Y-85727985D01*
X153969415Y-85960789D01*
X154086493Y-86178681D01*
X154234491Y-86376875D01*
X154237800Y-86380155D01*
X154237805Y-86380161D01*
X154368988Y-86510204D01*
X154410158Y-86551016D01*
X154413920Y-86553774D01*
X154413923Y-86553777D01*
X154524152Y-86634600D01*
X154609636Y-86697279D01*
X154613767Y-86699453D01*
X154613768Y-86699453D01*
X154824406Y-86810275D01*
X154824412Y-86810277D01*
X154828541Y-86812450D01*
X154832949Y-86813989D01*
X154832955Y-86813992D01*
X155051963Y-86890473D01*
X155062066Y-86894001D01*
X155066659Y-86894873D01*
X155300490Y-86939267D01*
X155300493Y-86939267D01*
X155305079Y-86940138D01*
X155422588Y-86944755D01*
X155547575Y-86949666D01*
X155547580Y-86949666D01*
X155552243Y-86949849D01*
X155648869Y-86939267D01*
X155793474Y-86923431D01*
X155793480Y-86923430D01*
X155798127Y-86922921D01*
X155921373Y-86890473D01*
X156032807Y-86861135D01*
X156032809Y-86861134D01*
X156037330Y-86859944D01*
X156147875Y-86812450D01*
X156260303Y-86764147D01*
X156260305Y-86764146D01*
X156264597Y-86762302D01*
X156369673Y-86697279D01*
X156470962Y-86634600D01*
X156470966Y-86634597D01*
X156474935Y-86632141D01*
X156663724Y-86472319D01*
X156744545Y-86380161D01*
X156823734Y-86289864D01*
X156823738Y-86289859D01*
X156826816Y-86286349D01*
X156829346Y-86282416D01*
X156958100Y-86082245D01*
X156958103Y-86082240D01*
X156960628Y-86078314D01*
X157062221Y-85852786D01*
X157129363Y-85614718D01*
X157139313Y-85536504D01*
X157160181Y-85372473D01*
X157160181Y-85372467D01*
X157160579Y-85369342D01*
X157161338Y-85340377D01*
X157162783Y-85285160D01*
X157162866Y-85282000D01*
X157160685Y-85252654D01*
X157144881Y-85039978D01*
X157144880Y-85039974D01*
X157144535Y-85035326D01*
X157135832Y-84996862D01*
X157090975Y-84798628D01*
X157089944Y-84794071D01*
X157088251Y-84789717D01*
X157001987Y-84567888D01*
X157001986Y-84567885D01*
X157000294Y-84563535D01*
X156997976Y-84559479D01*
X156879872Y-84352839D01*
X156879870Y-84352837D01*
X156877553Y-84348782D01*
X156724417Y-84154530D01*
X156544251Y-83985048D01*
X156540404Y-83982379D01*
X156344856Y-83846721D01*
X156344853Y-83846719D01*
X156341014Y-83844056D01*
X156336824Y-83841990D01*
X156336821Y-83841988D01*
X156123356Y-83736719D01*
X156123353Y-83736718D01*
X156119168Y-83734654D01*
X156075823Y-83720779D01*
X155888034Y-83660668D01*
X155888036Y-83660668D01*
X155883589Y-83659245D01*
X155749935Y-83637478D01*
X155644063Y-83620236D01*
X155644062Y-83620236D01*
X155639451Y-83619485D01*
X155515785Y-83617866D01*
X155396795Y-83616308D01*
X155396792Y-83616308D01*
X155392118Y-83616247D01*
X155294645Y-83629513D01*
X155151663Y-83648971D01*
X155151656Y-83648972D01*
X155147023Y-83649603D01*
X155142533Y-83650912D01*
X155142527Y-83650913D01*
X155041781Y-83680278D01*
X154909551Y-83718820D01*
X154905304Y-83720778D01*
X154905301Y-83720779D01*
X154878291Y-83733231D01*
X154684918Y-83822377D01*
X154681009Y-83824940D01*
X154481969Y-83955436D01*
X154481965Y-83955439D01*
X154478059Y-83958000D01*
X154474576Y-83961109D01*
X154474573Y-83961111D01*
X154450744Y-83982379D01*
X154293518Y-84122708D01*
X154135350Y-84312885D01*
X154007030Y-84524351D01*
X154005221Y-84528665D01*
X154005220Y-84528667D01*
X153992300Y-84559479D01*
X153911375Y-84752461D01*
X153850488Y-84992204D01*
X153825706Y-85238314D01*
X145809200Y-85238314D01*
X145809200Y-83864669D01*
X149172001Y-83864669D01*
X149172371Y-83871490D01*
X149177895Y-83922352D01*
X149181521Y-83937604D01*
X149226676Y-84058054D01*
X149235214Y-84073649D01*
X149311715Y-84175724D01*
X149324276Y-84188285D01*
X149426351Y-84264786D01*
X149441946Y-84273324D01*
X149562394Y-84318478D01*
X149577649Y-84322105D01*
X149628514Y-84327631D01*
X149635328Y-84328000D01*
X150677885Y-84328000D01*
X150693124Y-84323525D01*
X150694329Y-84322135D01*
X150696000Y-84314452D01*
X150696000Y-84309884D01*
X151204000Y-84309884D01*
X151208475Y-84325123D01*
X151209865Y-84326328D01*
X151217548Y-84327999D01*
X152264669Y-84327999D01*
X152271490Y-84327629D01*
X152322352Y-84322105D01*
X152337604Y-84318479D01*
X152458054Y-84273324D01*
X152473649Y-84264786D01*
X152575724Y-84188285D01*
X152588285Y-84175724D01*
X152664786Y-84073649D01*
X152673324Y-84058054D01*
X152718478Y-83937606D01*
X152722105Y-83922351D01*
X152727631Y-83871486D01*
X152728000Y-83864672D01*
X152728000Y-82822115D01*
X152723525Y-82806876D01*
X152722135Y-82805671D01*
X152714452Y-82804000D01*
X151222115Y-82804000D01*
X151206876Y-82808475D01*
X151205671Y-82809865D01*
X151204000Y-82817548D01*
X151204000Y-84309884D01*
X150696000Y-84309884D01*
X150696000Y-82822115D01*
X150691525Y-82806876D01*
X150690135Y-82805671D01*
X150682452Y-82804000D01*
X149190116Y-82804000D01*
X149174877Y-82808475D01*
X149173672Y-82809865D01*
X149172001Y-82817548D01*
X149172001Y-83864669D01*
X145809200Y-83864669D01*
X145809200Y-82277885D01*
X149172000Y-82277885D01*
X149176475Y-82293124D01*
X149177865Y-82294329D01*
X149185548Y-82296000D01*
X150677885Y-82296000D01*
X150693124Y-82291525D01*
X150694329Y-82290135D01*
X150696000Y-82282452D01*
X150696000Y-82277885D01*
X151204000Y-82277885D01*
X151208475Y-82293124D01*
X151209865Y-82294329D01*
X151217548Y-82296000D01*
X152709884Y-82296000D01*
X152725123Y-82291525D01*
X152734547Y-82280650D01*
X152758340Y-82237075D01*
X152820652Y-82203050D01*
X152891467Y-82208114D01*
X152948303Y-82250660D01*
X152966023Y-82283591D01*
X153040415Y-82490789D01*
X153157493Y-82708681D01*
X153305491Y-82906875D01*
X153308800Y-82910155D01*
X153308805Y-82910161D01*
X153477841Y-83077728D01*
X153481158Y-83081016D01*
X153484920Y-83083774D01*
X153484923Y-83083777D01*
X153595152Y-83164600D01*
X153680636Y-83227279D01*
X153684767Y-83229453D01*
X153684768Y-83229453D01*
X153895406Y-83340275D01*
X153895412Y-83340277D01*
X153899541Y-83342450D01*
X153903949Y-83343989D01*
X153903955Y-83343992D01*
X154128650Y-83422459D01*
X154133066Y-83424001D01*
X154137659Y-83424873D01*
X154371490Y-83469267D01*
X154371493Y-83469267D01*
X154376079Y-83470138D01*
X154493588Y-83474755D01*
X154618575Y-83479666D01*
X154618580Y-83479666D01*
X154623243Y-83479849D01*
X154719869Y-83469267D01*
X154864474Y-83453431D01*
X154864480Y-83453430D01*
X154869127Y-83452921D01*
X154984830Y-83422459D01*
X155103807Y-83391135D01*
X155103809Y-83391134D01*
X155108330Y-83389944D01*
X155200732Y-83350245D01*
X155331303Y-83294147D01*
X155331305Y-83294146D01*
X155335597Y-83292302D01*
X155440673Y-83227279D01*
X155541962Y-83164600D01*
X155541966Y-83164597D01*
X155545935Y-83162141D01*
X155734724Y-83002319D01*
X155815545Y-82910161D01*
X155894734Y-82819864D01*
X155894738Y-82819859D01*
X155897816Y-82816349D01*
X155903909Y-82806876D01*
X156029100Y-82612245D01*
X156029103Y-82612240D01*
X156031628Y-82608314D01*
X156077576Y-82506314D01*
X157081706Y-82506314D01*
X157093573Y-82753384D01*
X157141830Y-82995985D01*
X157225415Y-83228789D01*
X157342493Y-83446681D01*
X157345288Y-83450425D01*
X157345290Y-83450427D01*
X157413110Y-83541249D01*
X157490491Y-83644875D01*
X157493800Y-83648155D01*
X157493805Y-83648161D01*
X157662841Y-83815728D01*
X157666158Y-83819016D01*
X157669920Y-83821774D01*
X157669923Y-83821777D01*
X157861869Y-83962517D01*
X157865636Y-83965279D01*
X157869767Y-83967453D01*
X157869768Y-83967453D01*
X158080406Y-84078275D01*
X158080412Y-84078277D01*
X158084541Y-84080450D01*
X158088949Y-84081989D01*
X158088955Y-84081992D01*
X158313650Y-84160459D01*
X158318066Y-84162001D01*
X158322659Y-84162873D01*
X158556490Y-84207267D01*
X158556493Y-84207267D01*
X158561079Y-84208138D01*
X158678588Y-84212755D01*
X158803575Y-84217666D01*
X158803580Y-84217666D01*
X158808243Y-84217849D01*
X158904869Y-84207267D01*
X159049474Y-84191431D01*
X159049480Y-84191430D01*
X159054127Y-84190921D01*
X159064139Y-84188285D01*
X159288807Y-84129135D01*
X159288809Y-84129134D01*
X159293330Y-84127944D01*
X159305517Y-84122708D01*
X159516303Y-84032147D01*
X159516305Y-84032146D01*
X159520597Y-84030302D01*
X159625673Y-83965279D01*
X159726962Y-83902600D01*
X159726966Y-83902597D01*
X159730935Y-83900141D01*
X159919724Y-83740319D01*
X159941119Y-83715922D01*
X160079734Y-83557864D01*
X160079738Y-83557859D01*
X160082816Y-83554349D01*
X160130854Y-83479666D01*
X160214100Y-83350245D01*
X160214103Y-83350240D01*
X160216628Y-83346314D01*
X160318221Y-83120786D01*
X160385363Y-82882718D01*
X160401233Y-82757969D01*
X160416181Y-82640473D01*
X160416181Y-82640467D01*
X160416579Y-82637342D01*
X160418866Y-82550000D01*
X160415274Y-82501660D01*
X160400881Y-82307978D01*
X160400880Y-82307974D01*
X160400535Y-82303326D01*
X160398878Y-82296000D01*
X160346975Y-82066628D01*
X160345944Y-82062071D01*
X160344251Y-82057717D01*
X160257987Y-81835888D01*
X160257986Y-81835885D01*
X160256294Y-81831535D01*
X160243329Y-81808851D01*
X160220160Y-81768314D01*
X161266706Y-81768314D01*
X161266930Y-81772981D01*
X161266930Y-81772986D01*
X161272848Y-81896185D01*
X161278573Y-82015384D01*
X161326830Y-82257985D01*
X161410415Y-82490789D01*
X161527493Y-82708681D01*
X161675491Y-82906875D01*
X161678800Y-82910155D01*
X161678805Y-82910161D01*
X161847841Y-83077728D01*
X161851158Y-83081016D01*
X161854920Y-83083774D01*
X161854923Y-83083777D01*
X161965152Y-83164600D01*
X162050636Y-83227279D01*
X162054767Y-83229453D01*
X162054768Y-83229453D01*
X162265406Y-83340275D01*
X162265412Y-83340277D01*
X162269541Y-83342450D01*
X162273949Y-83343989D01*
X162273955Y-83343992D01*
X162498650Y-83422459D01*
X162503066Y-83424001D01*
X162507659Y-83424873D01*
X162741490Y-83469267D01*
X162741493Y-83469267D01*
X162746079Y-83470138D01*
X162863588Y-83474755D01*
X162988575Y-83479666D01*
X162988580Y-83479666D01*
X162993243Y-83479849D01*
X163089869Y-83469267D01*
X163234474Y-83453431D01*
X163234480Y-83453430D01*
X163239127Y-83452921D01*
X163354830Y-83422459D01*
X163473807Y-83391135D01*
X163473809Y-83391134D01*
X163478330Y-83389944D01*
X163570732Y-83350245D01*
X163701303Y-83294147D01*
X163701305Y-83294146D01*
X163705597Y-83292302D01*
X163810673Y-83227279D01*
X163911962Y-83164600D01*
X163911966Y-83164597D01*
X163915935Y-83162141D01*
X164104724Y-83002319D01*
X164185545Y-82910161D01*
X164264734Y-82819864D01*
X164264738Y-82819859D01*
X164267816Y-82816349D01*
X164273909Y-82806876D01*
X164399100Y-82612245D01*
X164399103Y-82612240D01*
X164401628Y-82608314D01*
X164503221Y-82382786D01*
X164531164Y-82283707D01*
X164568906Y-82223574D01*
X164633167Y-82193391D01*
X164703545Y-82202741D01*
X164757695Y-82248657D01*
X164773329Y-82282411D01*
X164776475Y-82293124D01*
X164777865Y-82294329D01*
X164785548Y-82296000D01*
X166277885Y-82296000D01*
X166293124Y-82291525D01*
X166294329Y-82290135D01*
X166296000Y-82282452D01*
X166296000Y-82277885D01*
X166804000Y-82277885D01*
X166808475Y-82293124D01*
X166809865Y-82294329D01*
X166817548Y-82296000D01*
X168309884Y-82296000D01*
X168325123Y-82291525D01*
X168326328Y-82290135D01*
X168327999Y-82282452D01*
X168327999Y-81235331D01*
X168327629Y-81228510D01*
X168322105Y-81177648D01*
X168318479Y-81162396D01*
X168273324Y-81041946D01*
X168264786Y-81026351D01*
X168188285Y-80924276D01*
X168175724Y-80911715D01*
X168073649Y-80835214D01*
X168058054Y-80826676D01*
X167937606Y-80781522D01*
X167922351Y-80777895D01*
X167871486Y-80772369D01*
X167864672Y-80772000D01*
X166822115Y-80772000D01*
X166806876Y-80776475D01*
X166805671Y-80777865D01*
X166804000Y-80785548D01*
X166804000Y-82277885D01*
X166296000Y-82277885D01*
X166296000Y-80790116D01*
X166291525Y-80774877D01*
X166290135Y-80773672D01*
X166282452Y-80772001D01*
X165235331Y-80772001D01*
X165228510Y-80772371D01*
X165177648Y-80777895D01*
X165162396Y-80781521D01*
X165041946Y-80826676D01*
X165026351Y-80835214D01*
X164924276Y-80911715D01*
X164911715Y-80924276D01*
X164835214Y-81026351D01*
X164826676Y-81041946D01*
X164781522Y-81162394D01*
X164777895Y-81177649D01*
X164772369Y-81228514D01*
X164772000Y-81235328D01*
X164772000Y-81272292D01*
X164751998Y-81340413D01*
X164698342Y-81386906D01*
X164628068Y-81397010D01*
X164563488Y-81367516D01*
X164528567Y-81317959D01*
X164504572Y-81256254D01*
X164474004Y-81177648D01*
X164442987Y-81097888D01*
X164442986Y-81097885D01*
X164441294Y-81093535D01*
X164438371Y-81088420D01*
X164320872Y-80882839D01*
X164320870Y-80882837D01*
X164318553Y-80878782D01*
X164165417Y-80684530D01*
X163985251Y-80515048D01*
X163976144Y-80508730D01*
X163785856Y-80376721D01*
X163785853Y-80376719D01*
X163782014Y-80374056D01*
X163777824Y-80371990D01*
X163777821Y-80371988D01*
X163564356Y-80266719D01*
X163564353Y-80266718D01*
X163560168Y-80264654D01*
X163516823Y-80250779D01*
X163329034Y-80190668D01*
X163329036Y-80190668D01*
X163324589Y-80189245D01*
X163190935Y-80167478D01*
X163085063Y-80150236D01*
X163085062Y-80150236D01*
X163080451Y-80149485D01*
X162956784Y-80147866D01*
X162837795Y-80146308D01*
X162837792Y-80146308D01*
X162833118Y-80146247D01*
X162735645Y-80159513D01*
X162592663Y-80178971D01*
X162592656Y-80178972D01*
X162588023Y-80179603D01*
X162583533Y-80180912D01*
X162583527Y-80180913D01*
X162482781Y-80210278D01*
X162350551Y-80248820D01*
X162346304Y-80250778D01*
X162346301Y-80250779D01*
X162262282Y-80289512D01*
X162125918Y-80352377D01*
X162122009Y-80354940D01*
X161922969Y-80485436D01*
X161922965Y-80485439D01*
X161919059Y-80488000D01*
X161915576Y-80491109D01*
X161915573Y-80491111D01*
X161894498Y-80509921D01*
X161734518Y-80652708D01*
X161576350Y-80842885D01*
X161448030Y-81054351D01*
X161446221Y-81058665D01*
X161446220Y-81058667D01*
X161363365Y-81256254D01*
X161352375Y-81282461D01*
X161351224Y-81286993D01*
X161351223Y-81286996D01*
X161342913Y-81319717D01*
X161291488Y-81522204D01*
X161266706Y-81768314D01*
X160220160Y-81768314D01*
X160135872Y-81620839D01*
X160135870Y-81620837D01*
X160133553Y-81616782D01*
X159980417Y-81422530D01*
X159800251Y-81253048D01*
X159796404Y-81250379D01*
X159600856Y-81114721D01*
X159600853Y-81114719D01*
X159597014Y-81112056D01*
X159592824Y-81109990D01*
X159592821Y-81109988D01*
X159379356Y-81004719D01*
X159379353Y-81004718D01*
X159375168Y-81002654D01*
X159331823Y-80988779D01*
X159144034Y-80928668D01*
X159144036Y-80928668D01*
X159139589Y-80927245D01*
X159005935Y-80905478D01*
X158900063Y-80888236D01*
X158900062Y-80888236D01*
X158895451Y-80887485D01*
X158771784Y-80885866D01*
X158652795Y-80884308D01*
X158652792Y-80884308D01*
X158648118Y-80884247D01*
X158550645Y-80897513D01*
X158407663Y-80916971D01*
X158407656Y-80916972D01*
X158403023Y-80917603D01*
X158398533Y-80918912D01*
X158398527Y-80918913D01*
X158297781Y-80948278D01*
X158165551Y-80986820D01*
X158161304Y-80988778D01*
X158161301Y-80988779D01*
X158134291Y-81001231D01*
X157940918Y-81090377D01*
X157937009Y-81092940D01*
X157737969Y-81223436D01*
X157737965Y-81223439D01*
X157734059Y-81226000D01*
X157730576Y-81229109D01*
X157730573Y-81229111D01*
X157631027Y-81317959D01*
X157549518Y-81390708D01*
X157391350Y-81580885D01*
X157263030Y-81792351D01*
X157261221Y-81796665D01*
X157261220Y-81796667D01*
X157216852Y-81902473D01*
X157167375Y-82020461D01*
X157106488Y-82260204D01*
X157081706Y-82506314D01*
X156077576Y-82506314D01*
X156133221Y-82382786D01*
X156200363Y-82144718D01*
X156216720Y-82016146D01*
X156231181Y-81902473D01*
X156231181Y-81902467D01*
X156231579Y-81899342D01*
X156233866Y-81812000D01*
X156230274Y-81763660D01*
X156215881Y-81569978D01*
X156215880Y-81569974D01*
X156215535Y-81565326D01*
X156206832Y-81526862D01*
X156161975Y-81328628D01*
X156160944Y-81324071D01*
X156154338Y-81307083D01*
X156072987Y-81097888D01*
X156072986Y-81097885D01*
X156071294Y-81093535D01*
X156068371Y-81088420D01*
X155950872Y-80882839D01*
X155950870Y-80882837D01*
X155948553Y-80878782D01*
X155795417Y-80684530D01*
X155615251Y-80515048D01*
X155606144Y-80508730D01*
X155415856Y-80376721D01*
X155415853Y-80376719D01*
X155412014Y-80374056D01*
X155407824Y-80371990D01*
X155407821Y-80371988D01*
X155194356Y-80266719D01*
X155194353Y-80266718D01*
X155190168Y-80264654D01*
X155146823Y-80250779D01*
X154959034Y-80190668D01*
X154959036Y-80190668D01*
X154954589Y-80189245D01*
X154820935Y-80167478D01*
X154715063Y-80150236D01*
X154715062Y-80150236D01*
X154710451Y-80149485D01*
X154586784Y-80147866D01*
X154467795Y-80146308D01*
X154467792Y-80146308D01*
X154463118Y-80146247D01*
X154365645Y-80159513D01*
X154222663Y-80178971D01*
X154222656Y-80178972D01*
X154218023Y-80179603D01*
X154213533Y-80180912D01*
X154213527Y-80180913D01*
X154112781Y-80210278D01*
X153980551Y-80248820D01*
X153976304Y-80250778D01*
X153976301Y-80250779D01*
X153892282Y-80289512D01*
X153755918Y-80352377D01*
X153752009Y-80354940D01*
X153552969Y-80485436D01*
X153552965Y-80485439D01*
X153549059Y-80488000D01*
X153545576Y-80491109D01*
X153545573Y-80491111D01*
X153524498Y-80509921D01*
X153364518Y-80652708D01*
X153206350Y-80842885D01*
X153078030Y-81054351D01*
X153076221Y-81058665D01*
X153076220Y-81058667D01*
X152993365Y-81256254D01*
X152982375Y-81282461D01*
X152981224Y-81286993D01*
X152976122Y-81307083D01*
X152939967Y-81368184D01*
X152876518Y-81400038D01*
X152805919Y-81392533D01*
X152750585Y-81348051D01*
X152727999Y-81276067D01*
X152727999Y-81235331D01*
X152727629Y-81228510D01*
X152722105Y-81177648D01*
X152718479Y-81162396D01*
X152673324Y-81041946D01*
X152664786Y-81026351D01*
X152588285Y-80924276D01*
X152575724Y-80911715D01*
X152473649Y-80835214D01*
X152458054Y-80826676D01*
X152337606Y-80781522D01*
X152322351Y-80777895D01*
X152271486Y-80772369D01*
X152264672Y-80772000D01*
X151222115Y-80772000D01*
X151206876Y-80776475D01*
X151205671Y-80777865D01*
X151204000Y-80785548D01*
X151204000Y-82277885D01*
X150696000Y-82277885D01*
X150696000Y-80790116D01*
X150691525Y-80774877D01*
X150690135Y-80773672D01*
X150682452Y-80772001D01*
X149635331Y-80772001D01*
X149628510Y-80772371D01*
X149577648Y-80777895D01*
X149562396Y-80781521D01*
X149441946Y-80826676D01*
X149426351Y-80835214D01*
X149324276Y-80911715D01*
X149311715Y-80924276D01*
X149235214Y-81026351D01*
X149226676Y-81041946D01*
X149181522Y-81162394D01*
X149177895Y-81177649D01*
X149172369Y-81228514D01*
X149172000Y-81235328D01*
X149172000Y-82277885D01*
X145809200Y-82277885D01*
X145809200Y-78825314D01*
X154956706Y-78825314D01*
X154968573Y-79072384D01*
X155016830Y-79314985D01*
X155100415Y-79547789D01*
X155217493Y-79765681D01*
X155365491Y-79963875D01*
X155368800Y-79967155D01*
X155368805Y-79967161D01*
X155537841Y-80134728D01*
X155541158Y-80138016D01*
X155544920Y-80140774D01*
X155544923Y-80140777D01*
X155711930Y-80263231D01*
X155740636Y-80284279D01*
X155744767Y-80286453D01*
X155744768Y-80286453D01*
X155955406Y-80397275D01*
X155955412Y-80397277D01*
X155959541Y-80399450D01*
X155963949Y-80400989D01*
X155963955Y-80400992D01*
X156188650Y-80479459D01*
X156193066Y-80481001D01*
X156197659Y-80481873D01*
X156431490Y-80526267D01*
X156431493Y-80526267D01*
X156436079Y-80527138D01*
X156553588Y-80531755D01*
X156678575Y-80536666D01*
X156678580Y-80536666D01*
X156683243Y-80536849D01*
X156779869Y-80526267D01*
X156924474Y-80510431D01*
X156924480Y-80510430D01*
X156929127Y-80509921D01*
X156933651Y-80508730D01*
X157163807Y-80448135D01*
X157163809Y-80448134D01*
X157168330Y-80446944D01*
X157278875Y-80399450D01*
X157391303Y-80351147D01*
X157391305Y-80351146D01*
X157395597Y-80349302D01*
X157500673Y-80284279D01*
X157601962Y-80221600D01*
X157601966Y-80221597D01*
X157605935Y-80219141D01*
X157794724Y-80059319D01*
X157875545Y-79967161D01*
X157954734Y-79876864D01*
X157954738Y-79876859D01*
X157957816Y-79873349D01*
X158091628Y-79665314D01*
X158193221Y-79439786D01*
X158260363Y-79201718D01*
X158276233Y-79076969D01*
X158291181Y-78959473D01*
X158291181Y-78959467D01*
X158291579Y-78956342D01*
X158293866Y-78869000D01*
X158290620Y-78825314D01*
X159206706Y-78825314D01*
X159218573Y-79072384D01*
X159266830Y-79314985D01*
X159350415Y-79547789D01*
X159467493Y-79765681D01*
X159615491Y-79963875D01*
X159618800Y-79967155D01*
X159618805Y-79967161D01*
X159787841Y-80134728D01*
X159791158Y-80138016D01*
X159794920Y-80140774D01*
X159794923Y-80140777D01*
X159961930Y-80263231D01*
X159990636Y-80284279D01*
X159994767Y-80286453D01*
X159994768Y-80286453D01*
X160205406Y-80397275D01*
X160205412Y-80397277D01*
X160209541Y-80399450D01*
X160213949Y-80400989D01*
X160213955Y-80400992D01*
X160438650Y-80479459D01*
X160443066Y-80481001D01*
X160447659Y-80481873D01*
X160681490Y-80526267D01*
X160681493Y-80526267D01*
X160686079Y-80527138D01*
X160803588Y-80531755D01*
X160928575Y-80536666D01*
X160928580Y-80536666D01*
X160933243Y-80536849D01*
X161029869Y-80526267D01*
X161174474Y-80510431D01*
X161174480Y-80510430D01*
X161179127Y-80509921D01*
X161183651Y-80508730D01*
X161413807Y-80448135D01*
X161413809Y-80448134D01*
X161418330Y-80446944D01*
X161528875Y-80399450D01*
X161641303Y-80351147D01*
X161641305Y-80351146D01*
X161645597Y-80349302D01*
X161750673Y-80284279D01*
X161851962Y-80221600D01*
X161851966Y-80221597D01*
X161855935Y-80219141D01*
X162044724Y-80059319D01*
X162125545Y-79967161D01*
X162204734Y-79876864D01*
X162204738Y-79876859D01*
X162207816Y-79873349D01*
X162341628Y-79665314D01*
X162443221Y-79439786D01*
X162510363Y-79201718D01*
X162526233Y-79076969D01*
X162541181Y-78959473D01*
X162541181Y-78959467D01*
X162541579Y-78956342D01*
X162543866Y-78869000D01*
X162525535Y-78622326D01*
X162516832Y-78583862D01*
X162471975Y-78385628D01*
X162470944Y-78381071D01*
X162469251Y-78376717D01*
X162382987Y-78154888D01*
X162382986Y-78154885D01*
X162381294Y-78150535D01*
X162378976Y-78146479D01*
X162260872Y-77939839D01*
X162260870Y-77939837D01*
X162258553Y-77935782D01*
X162105417Y-77741530D01*
X161925251Y-77572048D01*
X161921404Y-77569379D01*
X161725856Y-77433721D01*
X161725853Y-77433719D01*
X161722014Y-77431056D01*
X161717824Y-77428990D01*
X161717821Y-77428988D01*
X161504356Y-77323719D01*
X161504353Y-77323718D01*
X161500168Y-77321654D01*
X161456823Y-77307779D01*
X161269034Y-77247668D01*
X161269036Y-77247668D01*
X161264589Y-77246245D01*
X161130935Y-77224478D01*
X161025063Y-77207236D01*
X161025062Y-77207236D01*
X161020451Y-77206485D01*
X160896784Y-77204866D01*
X160777795Y-77203308D01*
X160777792Y-77203308D01*
X160773118Y-77203247D01*
X160675645Y-77216513D01*
X160532663Y-77235971D01*
X160532656Y-77235972D01*
X160528023Y-77236603D01*
X160523533Y-77237912D01*
X160523527Y-77237913D01*
X160422781Y-77267278D01*
X160290551Y-77305820D01*
X160286304Y-77307778D01*
X160286301Y-77307779D01*
X160259291Y-77320231D01*
X160065918Y-77409377D01*
X160062009Y-77411940D01*
X159862969Y-77542436D01*
X159862965Y-77542439D01*
X159859059Y-77545000D01*
X159674518Y-77709708D01*
X159516350Y-77899885D01*
X159388030Y-78111351D01*
X159386221Y-78115665D01*
X159386220Y-78115667D01*
X159373300Y-78146479D01*
X159292375Y-78339461D01*
X159231488Y-78579204D01*
X159206706Y-78825314D01*
X158290620Y-78825314D01*
X158275535Y-78622326D01*
X158266832Y-78583862D01*
X158221975Y-78385628D01*
X158220944Y-78381071D01*
X158219251Y-78376717D01*
X158132987Y-78154888D01*
X158132986Y-78154885D01*
X158131294Y-78150535D01*
X158128976Y-78146479D01*
X158010872Y-77939839D01*
X158010870Y-77939837D01*
X158008553Y-77935782D01*
X157855417Y-77741530D01*
X157675251Y-77572048D01*
X157671404Y-77569379D01*
X157475856Y-77433721D01*
X157475853Y-77433719D01*
X157472014Y-77431056D01*
X157467824Y-77428990D01*
X157467821Y-77428988D01*
X157254356Y-77323719D01*
X157254353Y-77323718D01*
X157250168Y-77321654D01*
X157206823Y-77307779D01*
X157019034Y-77247668D01*
X157019036Y-77247668D01*
X157014589Y-77246245D01*
X156880935Y-77224478D01*
X156775063Y-77207236D01*
X156775062Y-77207236D01*
X156770451Y-77206485D01*
X156646784Y-77204866D01*
X156527795Y-77203308D01*
X156527792Y-77203308D01*
X156523118Y-77203247D01*
X156425645Y-77216513D01*
X156282663Y-77235971D01*
X156282656Y-77235972D01*
X156278023Y-77236603D01*
X156273533Y-77237912D01*
X156273527Y-77237913D01*
X156172781Y-77267278D01*
X156040551Y-77305820D01*
X156036304Y-77307778D01*
X156036301Y-77307779D01*
X156009291Y-77320231D01*
X155815918Y-77409377D01*
X155812009Y-77411940D01*
X155612969Y-77542436D01*
X155612965Y-77542439D01*
X155609059Y-77545000D01*
X155424518Y-77709708D01*
X155266350Y-77899885D01*
X155138030Y-78111351D01*
X155136221Y-78115665D01*
X155136220Y-78115667D01*
X155123300Y-78146479D01*
X155042375Y-78339461D01*
X154981488Y-78579204D01*
X154956706Y-78825314D01*
X145809200Y-78825314D01*
X145809200Y-75450200D01*
X145829202Y-75382079D01*
X145882858Y-75335586D01*
X145935200Y-75324200D01*
X172834800Y-75324200D01*
X172902921Y-75344202D01*
G37*
%TD.AperFunction*%
%TD*%
%TA.AperFunction,Conductor*%
%TO.N,Net-(J1-PadMP)*%
G36*
X133532921Y-75344202D02*
G01*
X133579414Y-75397858D01*
X133590800Y-75450200D01*
X133590800Y-90919800D01*
X133570798Y-90987921D01*
X133517142Y-91034414D01*
X133464800Y-91045800D01*
X132120944Y-91045800D01*
X132101233Y-91044249D01*
X132080000Y-91040886D01*
X132080307Y-91038945D01*
X132024079Y-91022435D01*
X131977586Y-90968779D01*
X131966200Y-90916437D01*
X131966200Y-88868974D01*
X131951580Y-88776667D01*
X131894890Y-88665407D01*
X131806593Y-88577110D01*
X131695333Y-88520420D01*
X131685544Y-88518870D01*
X131685542Y-88518869D01*
X131659167Y-88514692D01*
X131603026Y-88505800D01*
X130016974Y-88505800D01*
X129960833Y-88514692D01*
X129934458Y-88518869D01*
X129934456Y-88518870D01*
X129924667Y-88520420D01*
X129813407Y-88577110D01*
X129725110Y-88665407D01*
X129668420Y-88776667D01*
X129666870Y-88786456D01*
X129666869Y-88786458D01*
X129664449Y-88801739D01*
X129634037Y-88865892D01*
X129573768Y-88903419D01*
X129502779Y-88902405D01*
X129443607Y-88863172D01*
X129415551Y-88801739D01*
X129413131Y-88786458D01*
X129413130Y-88786456D01*
X129411580Y-88776667D01*
X129354890Y-88665407D01*
X129266593Y-88577110D01*
X129155333Y-88520420D01*
X129145544Y-88518870D01*
X129145542Y-88518869D01*
X129119167Y-88514692D01*
X129063026Y-88505800D01*
X127476974Y-88505800D01*
X127420833Y-88514692D01*
X127394458Y-88518869D01*
X127394456Y-88518870D01*
X127384667Y-88520420D01*
X127273407Y-88577110D01*
X127185110Y-88665407D01*
X127128420Y-88776667D01*
X127126870Y-88786456D01*
X127126869Y-88786458D01*
X127124449Y-88801739D01*
X127094037Y-88865892D01*
X127033768Y-88903419D01*
X126962779Y-88902405D01*
X126903607Y-88863172D01*
X126875551Y-88801739D01*
X126873131Y-88786458D01*
X126873130Y-88786456D01*
X126871580Y-88776667D01*
X126814890Y-88665407D01*
X126726593Y-88577110D01*
X126615333Y-88520420D01*
X126605544Y-88518870D01*
X126605542Y-88518869D01*
X126579167Y-88514692D01*
X126523026Y-88505800D01*
X124936974Y-88505800D01*
X124880833Y-88514692D01*
X124854458Y-88518869D01*
X124854456Y-88518870D01*
X124844667Y-88520420D01*
X124733407Y-88577110D01*
X124645110Y-88665407D01*
X124588420Y-88776667D01*
X124586870Y-88786456D01*
X124586869Y-88786458D01*
X124584449Y-88801739D01*
X124554037Y-88865892D01*
X124493768Y-88903419D01*
X124422779Y-88902405D01*
X124363607Y-88863172D01*
X124335551Y-88801739D01*
X124333131Y-88786458D01*
X124333130Y-88786456D01*
X124331580Y-88776667D01*
X124274890Y-88665407D01*
X124186593Y-88577110D01*
X124075333Y-88520420D01*
X124065544Y-88518870D01*
X124065542Y-88518869D01*
X124039167Y-88514692D01*
X123983026Y-88505800D01*
X122396974Y-88505800D01*
X122340833Y-88514692D01*
X122314458Y-88518869D01*
X122314456Y-88518870D01*
X122304667Y-88520420D01*
X122193407Y-88577110D01*
X122105110Y-88665407D01*
X122048420Y-88776667D01*
X122046870Y-88786456D01*
X122046869Y-88786458D01*
X122044449Y-88801739D01*
X122014037Y-88865892D01*
X121953768Y-88903419D01*
X121882779Y-88902405D01*
X121823607Y-88863172D01*
X121795551Y-88801739D01*
X121793131Y-88786458D01*
X121793130Y-88786456D01*
X121791580Y-88776667D01*
X121734890Y-88665407D01*
X121646593Y-88577110D01*
X121535333Y-88520420D01*
X121525542Y-88518869D01*
X121525541Y-88518869D01*
X121470107Y-88510089D01*
X121405954Y-88479676D01*
X121368427Y-88419408D01*
X121369441Y-88348419D01*
X121408674Y-88289247D01*
X121423515Y-88278496D01*
X121630935Y-88150141D01*
X121819724Y-87990319D01*
X121900545Y-87898161D01*
X121979734Y-87807864D01*
X121979738Y-87807859D01*
X121982816Y-87804349D01*
X122116628Y-87596314D01*
X122218221Y-87370786D01*
X122285363Y-87132718D01*
X122301233Y-87007969D01*
X122316181Y-86890473D01*
X122316181Y-86890467D01*
X122316579Y-86887342D01*
X122317297Y-86859944D01*
X122317863Y-86838306D01*
X122318866Y-86800000D01*
X122300535Y-86553326D01*
X122299269Y-86547728D01*
X122246975Y-86316628D01*
X122245944Y-86312071D01*
X122234412Y-86282416D01*
X122157987Y-86085888D01*
X122157986Y-86085885D01*
X122156294Y-86081535D01*
X122152018Y-86074053D01*
X122035872Y-85870839D01*
X122035870Y-85870837D01*
X122033553Y-85866782D01*
X121880417Y-85672530D01*
X121700251Y-85503048D01*
X121668057Y-85480714D01*
X121500856Y-85364721D01*
X121500853Y-85364719D01*
X121497014Y-85362056D01*
X121492824Y-85359990D01*
X121492821Y-85359988D01*
X121279356Y-85254719D01*
X121279353Y-85254718D01*
X121275168Y-85252654D01*
X121231823Y-85238779D01*
X121230370Y-85238314D01*
X122237706Y-85238314D01*
X122237930Y-85242981D01*
X122237930Y-85242986D01*
X122238494Y-85254719D01*
X122249573Y-85485384D01*
X122297830Y-85727985D01*
X122381415Y-85960789D01*
X122498493Y-86178681D01*
X122646491Y-86376875D01*
X122649800Y-86380155D01*
X122649805Y-86380161D01*
X122780988Y-86510204D01*
X122822158Y-86551016D01*
X122825920Y-86553774D01*
X122825923Y-86553777D01*
X122936152Y-86634600D01*
X123021636Y-86697279D01*
X123025767Y-86699453D01*
X123025768Y-86699453D01*
X123236406Y-86810275D01*
X123236412Y-86810277D01*
X123240541Y-86812450D01*
X123244949Y-86813989D01*
X123244955Y-86813992D01*
X123463963Y-86890473D01*
X123474066Y-86894001D01*
X123478659Y-86894873D01*
X123712490Y-86939267D01*
X123712493Y-86939267D01*
X123717079Y-86940138D01*
X123834588Y-86944755D01*
X123959575Y-86949666D01*
X123959580Y-86949666D01*
X123964243Y-86949849D01*
X124060869Y-86939267D01*
X124205474Y-86923431D01*
X124205480Y-86923430D01*
X124210127Y-86922921D01*
X124333373Y-86890473D01*
X124444807Y-86861135D01*
X124444809Y-86861134D01*
X124449330Y-86859944D01*
X124559875Y-86812450D01*
X124672303Y-86764147D01*
X124672305Y-86764146D01*
X124676597Y-86762302D01*
X124781673Y-86697279D01*
X124882962Y-86634600D01*
X124882966Y-86634597D01*
X124886935Y-86632141D01*
X125075724Y-86472319D01*
X125156545Y-86380161D01*
X125235734Y-86289864D01*
X125235738Y-86289859D01*
X125238816Y-86286349D01*
X125241346Y-86282416D01*
X125370100Y-86082245D01*
X125370103Y-86082240D01*
X125372628Y-86078314D01*
X125474221Y-85852786D01*
X125541363Y-85614718D01*
X125551313Y-85536504D01*
X125572181Y-85372473D01*
X125572181Y-85372467D01*
X125572579Y-85369342D01*
X125573338Y-85340377D01*
X125574783Y-85285160D01*
X125574866Y-85282000D01*
X125572685Y-85252654D01*
X125556881Y-85039978D01*
X125556880Y-85039974D01*
X125556535Y-85035326D01*
X125547832Y-84996862D01*
X125502975Y-84798628D01*
X125501944Y-84794071D01*
X125500251Y-84789717D01*
X125413987Y-84567888D01*
X125413986Y-84567885D01*
X125412294Y-84563535D01*
X125409976Y-84559479D01*
X125291872Y-84352839D01*
X125291870Y-84352837D01*
X125289553Y-84348782D01*
X125136417Y-84154530D01*
X124956251Y-83985048D01*
X124952404Y-83982379D01*
X124782728Y-83864669D01*
X126672001Y-83864669D01*
X126672371Y-83871490D01*
X126677895Y-83922352D01*
X126681521Y-83937604D01*
X126726676Y-84058054D01*
X126735214Y-84073649D01*
X126811715Y-84175724D01*
X126824276Y-84188285D01*
X126926351Y-84264786D01*
X126941946Y-84273324D01*
X127062394Y-84318478D01*
X127077649Y-84322105D01*
X127128514Y-84327631D01*
X127135328Y-84328000D01*
X128177885Y-84328000D01*
X128193124Y-84323525D01*
X128194329Y-84322135D01*
X128196000Y-84314452D01*
X128196000Y-84309884D01*
X128704000Y-84309884D01*
X128708475Y-84325123D01*
X128709865Y-84326328D01*
X128717548Y-84327999D01*
X129764669Y-84327999D01*
X129771490Y-84327629D01*
X129822352Y-84322105D01*
X129837604Y-84318479D01*
X129958054Y-84273324D01*
X129973649Y-84264786D01*
X130075724Y-84188285D01*
X130088285Y-84175724D01*
X130164786Y-84073649D01*
X130173324Y-84058054D01*
X130218478Y-83937606D01*
X130222105Y-83922351D01*
X130227631Y-83871486D01*
X130228000Y-83864672D01*
X130228000Y-82822115D01*
X130223525Y-82806876D01*
X130222135Y-82805671D01*
X130214452Y-82804000D01*
X128722115Y-82804000D01*
X128706876Y-82808475D01*
X128705671Y-82809865D01*
X128704000Y-82817548D01*
X128704000Y-84309884D01*
X128196000Y-84309884D01*
X128196000Y-82822115D01*
X128191525Y-82806876D01*
X128190135Y-82805671D01*
X128182452Y-82804000D01*
X126690116Y-82804000D01*
X126674877Y-82808475D01*
X126673672Y-82809865D01*
X126672001Y-82817548D01*
X126672001Y-83864669D01*
X124782728Y-83864669D01*
X124756856Y-83846721D01*
X124756853Y-83846719D01*
X124753014Y-83844056D01*
X124748824Y-83841990D01*
X124748821Y-83841988D01*
X124535356Y-83736719D01*
X124535353Y-83736718D01*
X124531168Y-83734654D01*
X124487823Y-83720779D01*
X124300034Y-83660668D01*
X124300036Y-83660668D01*
X124295589Y-83659245D01*
X124161935Y-83637478D01*
X124056063Y-83620236D01*
X124056062Y-83620236D01*
X124051451Y-83619485D01*
X123927785Y-83617866D01*
X123808795Y-83616308D01*
X123808792Y-83616308D01*
X123804118Y-83616247D01*
X123706645Y-83629513D01*
X123563663Y-83648971D01*
X123563656Y-83648972D01*
X123559023Y-83649603D01*
X123554533Y-83650912D01*
X123554527Y-83650913D01*
X123453781Y-83680278D01*
X123321551Y-83718820D01*
X123317304Y-83720778D01*
X123317301Y-83720779D01*
X123290291Y-83733231D01*
X123096918Y-83822377D01*
X123093009Y-83824940D01*
X122893969Y-83955436D01*
X122893965Y-83955439D01*
X122890059Y-83958000D01*
X122886576Y-83961109D01*
X122886573Y-83961111D01*
X122862744Y-83982379D01*
X122705518Y-84122708D01*
X122547350Y-84312885D01*
X122419030Y-84524351D01*
X122417221Y-84528665D01*
X122417220Y-84528667D01*
X122404300Y-84559479D01*
X122323375Y-84752461D01*
X122262488Y-84992204D01*
X122237706Y-85238314D01*
X121230370Y-85238314D01*
X121044034Y-85178668D01*
X121044036Y-85178668D01*
X121039589Y-85177245D01*
X120905935Y-85155478D01*
X120800063Y-85138236D01*
X120800062Y-85138236D01*
X120795451Y-85137485D01*
X120671784Y-85135866D01*
X120552795Y-85134308D01*
X120552792Y-85134308D01*
X120548118Y-85134247D01*
X120450645Y-85147513D01*
X120307663Y-85166971D01*
X120307656Y-85166972D01*
X120303023Y-85167603D01*
X120298533Y-85168912D01*
X120298527Y-85168913D01*
X120197781Y-85198278D01*
X120065551Y-85236820D01*
X120061304Y-85238778D01*
X120061301Y-85238779D01*
X120034291Y-85251231D01*
X119840918Y-85340377D01*
X119837009Y-85342940D01*
X119637969Y-85473436D01*
X119637965Y-85473439D01*
X119634059Y-85476000D01*
X119630576Y-85479109D01*
X119630573Y-85479111D01*
X119473598Y-85619216D01*
X119449518Y-85640708D01*
X119291350Y-85830885D01*
X119163030Y-86042351D01*
X119161221Y-86046665D01*
X119161220Y-86046667D01*
X119105862Y-86178681D01*
X119067375Y-86270461D01*
X119006488Y-86510204D01*
X118981706Y-86756314D01*
X118981930Y-86760981D01*
X118981930Y-86760986D01*
X118982082Y-86764147D01*
X118993573Y-87003384D01*
X119041830Y-87245985D01*
X119125415Y-87478789D01*
X119242493Y-87696681D01*
X119390491Y-87894875D01*
X119393800Y-87898155D01*
X119393805Y-87898161D01*
X119562841Y-88065728D01*
X119566158Y-88069016D01*
X119569920Y-88071774D01*
X119569923Y-88071777D01*
X119680151Y-88152599D01*
X119765636Y-88215279D01*
X119769769Y-88217453D01*
X119769773Y-88217456D01*
X119875496Y-88273080D01*
X119926468Y-88322499D01*
X119942631Y-88391632D01*
X119918852Y-88458528D01*
X119862681Y-88501949D01*
X119836540Y-88509036D01*
X119791844Y-88516116D01*
X119774459Y-88518869D01*
X119774458Y-88518869D01*
X119764667Y-88520420D01*
X119653407Y-88577110D01*
X119565110Y-88665407D01*
X119508420Y-88776667D01*
X119506870Y-88786456D01*
X119506869Y-88786458D01*
X119504449Y-88801739D01*
X119474037Y-88865892D01*
X119413768Y-88903419D01*
X119342779Y-88902405D01*
X119283607Y-88863172D01*
X119255551Y-88801739D01*
X119253131Y-88786458D01*
X119253130Y-88786456D01*
X119251580Y-88776667D01*
X119194890Y-88665407D01*
X119106593Y-88577110D01*
X118995333Y-88520420D01*
X118985544Y-88518870D01*
X118985542Y-88518869D01*
X118959167Y-88514692D01*
X118903026Y-88505800D01*
X117316974Y-88505800D01*
X117260833Y-88514692D01*
X117234458Y-88518869D01*
X117234456Y-88518870D01*
X117224667Y-88520420D01*
X117113407Y-88577110D01*
X117025110Y-88665407D01*
X116968420Y-88776667D01*
X116966870Y-88786456D01*
X116966869Y-88786458D01*
X116964449Y-88801739D01*
X116934037Y-88865892D01*
X116873768Y-88903419D01*
X116802779Y-88902405D01*
X116743607Y-88863172D01*
X116715551Y-88801739D01*
X116713131Y-88786458D01*
X116713130Y-88786456D01*
X116711580Y-88776667D01*
X116654890Y-88665407D01*
X116566593Y-88577110D01*
X116455333Y-88520420D01*
X116445544Y-88518870D01*
X116445542Y-88518869D01*
X116419167Y-88514692D01*
X116363026Y-88505800D01*
X114776974Y-88505800D01*
X114720833Y-88514692D01*
X114694458Y-88518869D01*
X114694456Y-88518870D01*
X114684667Y-88520420D01*
X114573407Y-88577110D01*
X114485110Y-88665407D01*
X114428420Y-88776667D01*
X114426870Y-88786456D01*
X114426869Y-88786458D01*
X114424449Y-88801739D01*
X114394037Y-88865892D01*
X114333768Y-88903419D01*
X114262779Y-88902405D01*
X114203607Y-88863172D01*
X114175551Y-88801739D01*
X114173131Y-88786458D01*
X114173130Y-88786456D01*
X114171580Y-88776667D01*
X114114890Y-88665407D01*
X114026593Y-88577110D01*
X113915333Y-88520420D01*
X113905544Y-88518870D01*
X113905542Y-88518869D01*
X113879167Y-88514692D01*
X113823026Y-88505800D01*
X112236974Y-88505800D01*
X112180833Y-88514692D01*
X112154458Y-88518869D01*
X112154456Y-88518870D01*
X112144667Y-88520420D01*
X112033407Y-88577110D01*
X111945110Y-88665407D01*
X111940610Y-88674238D01*
X111940609Y-88674240D01*
X111937560Y-88680224D01*
X111888810Y-88731838D01*
X111819895Y-88748903D01*
X111752694Y-88726001D01*
X111707312Y-88667248D01*
X111705325Y-88661948D01*
X111696786Y-88646351D01*
X111620285Y-88544276D01*
X111607724Y-88531715D01*
X111505649Y-88455214D01*
X111490054Y-88446676D01*
X111369606Y-88401522D01*
X111354351Y-88397895D01*
X111303486Y-88392369D01*
X111296672Y-88392000D01*
X110762115Y-88392000D01*
X110746876Y-88396475D01*
X110745671Y-88397865D01*
X110744000Y-88405548D01*
X110744000Y-90425000D01*
X110723998Y-90493121D01*
X110670342Y-90539614D01*
X110618000Y-90551000D01*
X109238116Y-90551000D01*
X109222877Y-90555475D01*
X109221672Y-90556865D01*
X109220001Y-90564548D01*
X109220001Y-90919800D01*
X109199999Y-90987921D01*
X109146343Y-91034414D01*
X109094001Y-91045800D01*
X107835200Y-91045800D01*
X107767079Y-91025798D01*
X107720586Y-90972142D01*
X107709200Y-90919800D01*
X107709200Y-90024885D01*
X109220000Y-90024885D01*
X109224475Y-90040124D01*
X109225865Y-90041329D01*
X109233548Y-90043000D01*
X110217885Y-90043000D01*
X110233124Y-90038525D01*
X110234329Y-90037135D01*
X110236000Y-90029452D01*
X110236000Y-88410116D01*
X110231525Y-88394877D01*
X110230135Y-88393672D01*
X110222452Y-88392001D01*
X109683331Y-88392001D01*
X109676510Y-88392371D01*
X109625648Y-88397895D01*
X109610396Y-88401521D01*
X109489946Y-88446676D01*
X109474351Y-88455214D01*
X109372276Y-88531715D01*
X109359715Y-88544276D01*
X109283214Y-88646351D01*
X109274676Y-88661946D01*
X109229522Y-88782394D01*
X109225895Y-88797649D01*
X109220369Y-88848514D01*
X109220000Y-88855328D01*
X109220000Y-90024885D01*
X107709200Y-90024885D01*
X107709200Y-85238314D01*
X115725706Y-85238314D01*
X115725930Y-85242981D01*
X115725930Y-85242986D01*
X115726494Y-85254719D01*
X115737573Y-85485384D01*
X115785830Y-85727985D01*
X115869415Y-85960789D01*
X115986493Y-86178681D01*
X116134491Y-86376875D01*
X116137800Y-86380155D01*
X116137805Y-86380161D01*
X116268988Y-86510204D01*
X116310158Y-86551016D01*
X116313920Y-86553774D01*
X116313923Y-86553777D01*
X116424152Y-86634600D01*
X116509636Y-86697279D01*
X116513767Y-86699453D01*
X116513768Y-86699453D01*
X116724406Y-86810275D01*
X116724412Y-86810277D01*
X116728541Y-86812450D01*
X116732949Y-86813989D01*
X116732955Y-86813992D01*
X116951963Y-86890473D01*
X116962066Y-86894001D01*
X116966659Y-86894873D01*
X117200490Y-86939267D01*
X117200493Y-86939267D01*
X117205079Y-86940138D01*
X117322588Y-86944755D01*
X117447575Y-86949666D01*
X117447580Y-86949666D01*
X117452243Y-86949849D01*
X117548869Y-86939267D01*
X117693474Y-86923431D01*
X117693480Y-86923430D01*
X117698127Y-86922921D01*
X117821373Y-86890473D01*
X117932807Y-86861135D01*
X117932809Y-86861134D01*
X117937330Y-86859944D01*
X118047875Y-86812450D01*
X118160303Y-86764147D01*
X118160305Y-86764146D01*
X118164597Y-86762302D01*
X118269673Y-86697279D01*
X118370962Y-86634600D01*
X118370966Y-86634597D01*
X118374935Y-86632141D01*
X118563724Y-86472319D01*
X118644545Y-86380161D01*
X118723734Y-86289864D01*
X118723738Y-86289859D01*
X118726816Y-86286349D01*
X118729346Y-86282416D01*
X118858100Y-86082245D01*
X118858103Y-86082240D01*
X118860628Y-86078314D01*
X118962221Y-85852786D01*
X119029363Y-85614718D01*
X119039313Y-85536504D01*
X119060181Y-85372473D01*
X119060181Y-85372467D01*
X119060579Y-85369342D01*
X119061338Y-85340377D01*
X119062783Y-85285160D01*
X119062866Y-85282000D01*
X119060685Y-85252654D01*
X119044881Y-85039978D01*
X119044880Y-85039974D01*
X119044535Y-85035326D01*
X119035832Y-84996862D01*
X118990975Y-84798628D01*
X118989944Y-84794071D01*
X118988251Y-84789717D01*
X118901987Y-84567888D01*
X118901986Y-84567885D01*
X118900294Y-84563535D01*
X118897976Y-84559479D01*
X118779872Y-84352839D01*
X118779870Y-84352837D01*
X118777553Y-84348782D01*
X118624417Y-84154530D01*
X118444251Y-83985048D01*
X118440404Y-83982379D01*
X118244856Y-83846721D01*
X118244853Y-83846719D01*
X118241014Y-83844056D01*
X118236824Y-83841990D01*
X118236821Y-83841988D01*
X118023356Y-83736719D01*
X118023353Y-83736718D01*
X118019168Y-83734654D01*
X117975823Y-83720779D01*
X117788034Y-83660668D01*
X117788036Y-83660668D01*
X117783589Y-83659245D01*
X117649935Y-83637478D01*
X117544063Y-83620236D01*
X117544062Y-83620236D01*
X117539451Y-83619485D01*
X117415785Y-83617866D01*
X117296795Y-83616308D01*
X117296792Y-83616308D01*
X117292118Y-83616247D01*
X117194645Y-83629513D01*
X117051663Y-83648971D01*
X117051656Y-83648972D01*
X117047023Y-83649603D01*
X117042533Y-83650912D01*
X117042527Y-83650913D01*
X116941781Y-83680278D01*
X116809551Y-83718820D01*
X116805304Y-83720778D01*
X116805301Y-83720779D01*
X116778291Y-83733231D01*
X116584918Y-83822377D01*
X116581009Y-83824940D01*
X116381969Y-83955436D01*
X116381965Y-83955439D01*
X116378059Y-83958000D01*
X116374576Y-83961109D01*
X116374573Y-83961111D01*
X116350744Y-83982379D01*
X116193518Y-84122708D01*
X116035350Y-84312885D01*
X115907030Y-84524351D01*
X115905221Y-84528665D01*
X115905220Y-84528667D01*
X115892300Y-84559479D01*
X115811375Y-84752461D01*
X115750488Y-84992204D01*
X115725706Y-85238314D01*
X107709200Y-85238314D01*
X107709200Y-83864669D01*
X111072001Y-83864669D01*
X111072371Y-83871490D01*
X111077895Y-83922352D01*
X111081521Y-83937604D01*
X111126676Y-84058054D01*
X111135214Y-84073649D01*
X111211715Y-84175724D01*
X111224276Y-84188285D01*
X111326351Y-84264786D01*
X111341946Y-84273324D01*
X111462394Y-84318478D01*
X111477649Y-84322105D01*
X111528514Y-84327631D01*
X111535328Y-84328000D01*
X112577885Y-84328000D01*
X112593124Y-84323525D01*
X112594329Y-84322135D01*
X112596000Y-84314452D01*
X112596000Y-84309884D01*
X113104000Y-84309884D01*
X113108475Y-84325123D01*
X113109865Y-84326328D01*
X113117548Y-84327999D01*
X114164669Y-84327999D01*
X114171490Y-84327629D01*
X114222352Y-84322105D01*
X114237604Y-84318479D01*
X114358054Y-84273324D01*
X114373649Y-84264786D01*
X114475724Y-84188285D01*
X114488285Y-84175724D01*
X114564786Y-84073649D01*
X114573324Y-84058054D01*
X114618478Y-83937606D01*
X114622105Y-83922351D01*
X114627631Y-83871486D01*
X114628000Y-83864672D01*
X114628000Y-82822115D01*
X114623525Y-82806876D01*
X114622135Y-82805671D01*
X114614452Y-82804000D01*
X113122115Y-82804000D01*
X113106876Y-82808475D01*
X113105671Y-82809865D01*
X113104000Y-82817548D01*
X113104000Y-84309884D01*
X112596000Y-84309884D01*
X112596000Y-82822115D01*
X112591525Y-82806876D01*
X112590135Y-82805671D01*
X112582452Y-82804000D01*
X111090116Y-82804000D01*
X111074877Y-82808475D01*
X111073672Y-82809865D01*
X111072001Y-82817548D01*
X111072001Y-83864669D01*
X107709200Y-83864669D01*
X107709200Y-82277885D01*
X111072000Y-82277885D01*
X111076475Y-82293124D01*
X111077865Y-82294329D01*
X111085548Y-82296000D01*
X112577885Y-82296000D01*
X112593124Y-82291525D01*
X112594329Y-82290135D01*
X112596000Y-82282452D01*
X112596000Y-82277885D01*
X113104000Y-82277885D01*
X113108475Y-82293124D01*
X113109865Y-82294329D01*
X113117548Y-82296000D01*
X114609884Y-82296000D01*
X114625123Y-82291525D01*
X114634547Y-82280650D01*
X114658340Y-82237075D01*
X114720652Y-82203050D01*
X114791467Y-82208114D01*
X114848303Y-82250660D01*
X114866023Y-82283591D01*
X114940415Y-82490789D01*
X115057493Y-82708681D01*
X115205491Y-82906875D01*
X115208800Y-82910155D01*
X115208805Y-82910161D01*
X115377841Y-83077728D01*
X115381158Y-83081016D01*
X115384920Y-83083774D01*
X115384923Y-83083777D01*
X115495152Y-83164600D01*
X115580636Y-83227279D01*
X115584767Y-83229453D01*
X115584768Y-83229453D01*
X115795406Y-83340275D01*
X115795412Y-83340277D01*
X115799541Y-83342450D01*
X115803949Y-83343989D01*
X115803955Y-83343992D01*
X116028650Y-83422459D01*
X116033066Y-83424001D01*
X116037659Y-83424873D01*
X116271490Y-83469267D01*
X116271493Y-83469267D01*
X116276079Y-83470138D01*
X116393588Y-83474755D01*
X116518575Y-83479666D01*
X116518580Y-83479666D01*
X116523243Y-83479849D01*
X116619869Y-83469267D01*
X116764474Y-83453431D01*
X116764480Y-83453430D01*
X116769127Y-83452921D01*
X116884830Y-83422459D01*
X117003807Y-83391135D01*
X117003809Y-83391134D01*
X117008330Y-83389944D01*
X117100732Y-83350245D01*
X117231303Y-83294147D01*
X117231305Y-83294146D01*
X117235597Y-83292302D01*
X117340673Y-83227279D01*
X117441962Y-83164600D01*
X117441966Y-83164597D01*
X117445935Y-83162141D01*
X117634724Y-83002319D01*
X117715545Y-82910161D01*
X117794734Y-82819864D01*
X117794738Y-82819859D01*
X117797816Y-82816349D01*
X117803909Y-82806876D01*
X117929100Y-82612245D01*
X117929103Y-82612240D01*
X117931628Y-82608314D01*
X117977576Y-82506314D01*
X118981706Y-82506314D01*
X118993573Y-82753384D01*
X119041830Y-82995985D01*
X119125415Y-83228789D01*
X119242493Y-83446681D01*
X119245288Y-83450425D01*
X119245290Y-83450427D01*
X119313110Y-83541249D01*
X119390491Y-83644875D01*
X119393800Y-83648155D01*
X119393805Y-83648161D01*
X119562841Y-83815728D01*
X119566158Y-83819016D01*
X119569920Y-83821774D01*
X119569923Y-83821777D01*
X119761869Y-83962517D01*
X119765636Y-83965279D01*
X119769767Y-83967453D01*
X119769768Y-83967453D01*
X119980406Y-84078275D01*
X119980412Y-84078277D01*
X119984541Y-84080450D01*
X119988949Y-84081989D01*
X119988955Y-84081992D01*
X120213650Y-84160459D01*
X120218066Y-84162001D01*
X120222659Y-84162873D01*
X120456490Y-84207267D01*
X120456493Y-84207267D01*
X120461079Y-84208138D01*
X120578588Y-84212755D01*
X120703575Y-84217666D01*
X120703580Y-84217666D01*
X120708243Y-84217849D01*
X120804869Y-84207267D01*
X120949474Y-84191431D01*
X120949480Y-84191430D01*
X120954127Y-84190921D01*
X120964139Y-84188285D01*
X121188807Y-84129135D01*
X121188809Y-84129134D01*
X121193330Y-84127944D01*
X121205517Y-84122708D01*
X121416303Y-84032147D01*
X121416305Y-84032146D01*
X121420597Y-84030302D01*
X121525673Y-83965279D01*
X121626962Y-83902600D01*
X121626966Y-83902597D01*
X121630935Y-83900141D01*
X121819724Y-83740319D01*
X121841119Y-83715922D01*
X121979734Y-83557864D01*
X121979738Y-83557859D01*
X121982816Y-83554349D01*
X122030854Y-83479666D01*
X122114100Y-83350245D01*
X122114103Y-83350240D01*
X122116628Y-83346314D01*
X122218221Y-83120786D01*
X122285363Y-82882718D01*
X122301233Y-82757969D01*
X122316181Y-82640473D01*
X122316181Y-82640467D01*
X122316579Y-82637342D01*
X122318866Y-82550000D01*
X122315274Y-82501660D01*
X122300881Y-82307978D01*
X122300880Y-82307974D01*
X122300535Y-82303326D01*
X122298878Y-82296000D01*
X122246975Y-82066628D01*
X122245944Y-82062071D01*
X122244251Y-82057717D01*
X122157987Y-81835888D01*
X122157986Y-81835885D01*
X122156294Y-81831535D01*
X122143329Y-81808851D01*
X122120160Y-81768314D01*
X123166706Y-81768314D01*
X123166930Y-81772981D01*
X123166930Y-81772986D01*
X123172848Y-81896185D01*
X123178573Y-82015384D01*
X123226830Y-82257985D01*
X123310415Y-82490789D01*
X123427493Y-82708681D01*
X123575491Y-82906875D01*
X123578800Y-82910155D01*
X123578805Y-82910161D01*
X123747841Y-83077728D01*
X123751158Y-83081016D01*
X123754920Y-83083774D01*
X123754923Y-83083777D01*
X123865152Y-83164600D01*
X123950636Y-83227279D01*
X123954767Y-83229453D01*
X123954768Y-83229453D01*
X124165406Y-83340275D01*
X124165412Y-83340277D01*
X124169541Y-83342450D01*
X124173949Y-83343989D01*
X124173955Y-83343992D01*
X124398650Y-83422459D01*
X124403066Y-83424001D01*
X124407659Y-83424873D01*
X124641490Y-83469267D01*
X124641493Y-83469267D01*
X124646079Y-83470138D01*
X124763588Y-83474755D01*
X124888575Y-83479666D01*
X124888580Y-83479666D01*
X124893243Y-83479849D01*
X124989869Y-83469267D01*
X125134474Y-83453431D01*
X125134480Y-83453430D01*
X125139127Y-83452921D01*
X125254830Y-83422459D01*
X125373807Y-83391135D01*
X125373809Y-83391134D01*
X125378330Y-83389944D01*
X125470732Y-83350245D01*
X125601303Y-83294147D01*
X125601305Y-83294146D01*
X125605597Y-83292302D01*
X125710673Y-83227279D01*
X125811962Y-83164600D01*
X125811966Y-83164597D01*
X125815935Y-83162141D01*
X126004724Y-83002319D01*
X126085545Y-82910161D01*
X126164734Y-82819864D01*
X126164738Y-82819859D01*
X126167816Y-82816349D01*
X126173909Y-82806876D01*
X126299100Y-82612245D01*
X126299103Y-82612240D01*
X126301628Y-82608314D01*
X126403221Y-82382786D01*
X126431164Y-82283707D01*
X126468906Y-82223574D01*
X126533167Y-82193391D01*
X126603545Y-82202741D01*
X126657695Y-82248657D01*
X126673329Y-82282411D01*
X126676475Y-82293124D01*
X126677865Y-82294329D01*
X126685548Y-82296000D01*
X128177885Y-82296000D01*
X128193124Y-82291525D01*
X128194329Y-82290135D01*
X128196000Y-82282452D01*
X128196000Y-82277885D01*
X128704000Y-82277885D01*
X128708475Y-82293124D01*
X128709865Y-82294329D01*
X128717548Y-82296000D01*
X130209884Y-82296000D01*
X130225123Y-82291525D01*
X130226328Y-82290135D01*
X130227999Y-82282452D01*
X130227999Y-81235331D01*
X130227629Y-81228510D01*
X130222105Y-81177648D01*
X130218479Y-81162396D01*
X130173324Y-81041946D01*
X130164786Y-81026351D01*
X130088285Y-80924276D01*
X130075724Y-80911715D01*
X129973649Y-80835214D01*
X129958054Y-80826676D01*
X129837606Y-80781522D01*
X129822351Y-80777895D01*
X129771486Y-80772369D01*
X129764672Y-80772000D01*
X128722115Y-80772000D01*
X128706876Y-80776475D01*
X128705671Y-80777865D01*
X128704000Y-80785548D01*
X128704000Y-82277885D01*
X128196000Y-82277885D01*
X128196000Y-80790116D01*
X128191525Y-80774877D01*
X128190135Y-80773672D01*
X128182452Y-80772001D01*
X127135331Y-80772001D01*
X127128510Y-80772371D01*
X127077648Y-80777895D01*
X127062396Y-80781521D01*
X126941946Y-80826676D01*
X126926351Y-80835214D01*
X126824276Y-80911715D01*
X126811715Y-80924276D01*
X126735214Y-81026351D01*
X126726676Y-81041946D01*
X126681522Y-81162394D01*
X126677895Y-81177649D01*
X126672369Y-81228514D01*
X126672000Y-81235328D01*
X126672000Y-81272292D01*
X126651998Y-81340413D01*
X126598342Y-81386906D01*
X126528068Y-81397010D01*
X126463488Y-81367516D01*
X126428567Y-81317959D01*
X126404572Y-81256254D01*
X126374004Y-81177648D01*
X126342987Y-81097888D01*
X126342986Y-81097885D01*
X126341294Y-81093535D01*
X126338371Y-81088420D01*
X126220872Y-80882839D01*
X126220870Y-80882837D01*
X126218553Y-80878782D01*
X126065417Y-80684530D01*
X125885251Y-80515048D01*
X125876144Y-80508730D01*
X125685856Y-80376721D01*
X125685853Y-80376719D01*
X125682014Y-80374056D01*
X125677824Y-80371990D01*
X125677821Y-80371988D01*
X125464356Y-80266719D01*
X125464353Y-80266718D01*
X125460168Y-80264654D01*
X125416823Y-80250779D01*
X125229034Y-80190668D01*
X125229036Y-80190668D01*
X125224589Y-80189245D01*
X125090935Y-80167478D01*
X124985063Y-80150236D01*
X124985062Y-80150236D01*
X124980451Y-80149485D01*
X124856784Y-80147866D01*
X124737795Y-80146308D01*
X124737792Y-80146308D01*
X124733118Y-80146247D01*
X124635645Y-80159513D01*
X124492663Y-80178971D01*
X124492656Y-80178972D01*
X124488023Y-80179603D01*
X124483533Y-80180912D01*
X124483527Y-80180913D01*
X124382781Y-80210278D01*
X124250551Y-80248820D01*
X124246304Y-80250778D01*
X124246301Y-80250779D01*
X124162282Y-80289512D01*
X124025918Y-80352377D01*
X124022009Y-80354940D01*
X123822969Y-80485436D01*
X123822965Y-80485439D01*
X123819059Y-80488000D01*
X123815576Y-80491109D01*
X123815573Y-80491111D01*
X123794498Y-80509921D01*
X123634518Y-80652708D01*
X123476350Y-80842885D01*
X123348030Y-81054351D01*
X123346221Y-81058665D01*
X123346220Y-81058667D01*
X123263365Y-81256254D01*
X123252375Y-81282461D01*
X123251224Y-81286993D01*
X123251223Y-81286996D01*
X123242913Y-81319717D01*
X123191488Y-81522204D01*
X123166706Y-81768314D01*
X122120160Y-81768314D01*
X122035872Y-81620839D01*
X122035870Y-81620837D01*
X122033553Y-81616782D01*
X121880417Y-81422530D01*
X121700251Y-81253048D01*
X121696404Y-81250379D01*
X121500856Y-81114721D01*
X121500853Y-81114719D01*
X121497014Y-81112056D01*
X121492824Y-81109990D01*
X121492821Y-81109988D01*
X121279356Y-81004719D01*
X121279353Y-81004718D01*
X121275168Y-81002654D01*
X121231823Y-80988779D01*
X121044034Y-80928668D01*
X121044036Y-80928668D01*
X121039589Y-80927245D01*
X120905935Y-80905478D01*
X120800063Y-80888236D01*
X120800062Y-80888236D01*
X120795451Y-80887485D01*
X120671784Y-80885866D01*
X120552795Y-80884308D01*
X120552792Y-80884308D01*
X120548118Y-80884247D01*
X120450645Y-80897513D01*
X120307663Y-80916971D01*
X120307656Y-80916972D01*
X120303023Y-80917603D01*
X120298533Y-80918912D01*
X120298527Y-80918913D01*
X120197781Y-80948278D01*
X120065551Y-80986820D01*
X120061304Y-80988778D01*
X120061301Y-80988779D01*
X120034291Y-81001231D01*
X119840918Y-81090377D01*
X119837009Y-81092940D01*
X119637969Y-81223436D01*
X119637965Y-81223439D01*
X119634059Y-81226000D01*
X119630576Y-81229109D01*
X119630573Y-81229111D01*
X119531027Y-81317959D01*
X119449518Y-81390708D01*
X119291350Y-81580885D01*
X119163030Y-81792351D01*
X119161221Y-81796665D01*
X119161220Y-81796667D01*
X119116852Y-81902473D01*
X119067375Y-82020461D01*
X119006488Y-82260204D01*
X118981706Y-82506314D01*
X117977576Y-82506314D01*
X118033221Y-82382786D01*
X118100363Y-82144718D01*
X118116720Y-82016146D01*
X118131181Y-81902473D01*
X118131181Y-81902467D01*
X118131579Y-81899342D01*
X118133866Y-81812000D01*
X118130274Y-81763660D01*
X118115881Y-81569978D01*
X118115880Y-81569974D01*
X118115535Y-81565326D01*
X118106832Y-81526862D01*
X118061975Y-81328628D01*
X118060944Y-81324071D01*
X118054338Y-81307083D01*
X117972987Y-81097888D01*
X117972986Y-81097885D01*
X117971294Y-81093535D01*
X117968371Y-81088420D01*
X117850872Y-80882839D01*
X117850870Y-80882837D01*
X117848553Y-80878782D01*
X117695417Y-80684530D01*
X117515251Y-80515048D01*
X117506144Y-80508730D01*
X117315856Y-80376721D01*
X117315853Y-80376719D01*
X117312014Y-80374056D01*
X117307824Y-80371990D01*
X117307821Y-80371988D01*
X117094356Y-80266719D01*
X117094353Y-80266718D01*
X117090168Y-80264654D01*
X117046823Y-80250779D01*
X116859034Y-80190668D01*
X116859036Y-80190668D01*
X116854589Y-80189245D01*
X116720935Y-80167478D01*
X116615063Y-80150236D01*
X116615062Y-80150236D01*
X116610451Y-80149485D01*
X116486784Y-80147866D01*
X116367795Y-80146308D01*
X116367792Y-80146308D01*
X116363118Y-80146247D01*
X116265645Y-80159513D01*
X116122663Y-80178971D01*
X116122656Y-80178972D01*
X116118023Y-80179603D01*
X116113533Y-80180912D01*
X116113527Y-80180913D01*
X116012781Y-80210278D01*
X115880551Y-80248820D01*
X115876304Y-80250778D01*
X115876301Y-80250779D01*
X115792282Y-80289512D01*
X115655918Y-80352377D01*
X115652009Y-80354940D01*
X115452969Y-80485436D01*
X115452965Y-80485439D01*
X115449059Y-80488000D01*
X115445576Y-80491109D01*
X115445573Y-80491111D01*
X115424498Y-80509921D01*
X115264518Y-80652708D01*
X115106350Y-80842885D01*
X114978030Y-81054351D01*
X114976221Y-81058665D01*
X114976220Y-81058667D01*
X114893365Y-81256254D01*
X114882375Y-81282461D01*
X114881224Y-81286993D01*
X114876122Y-81307083D01*
X114839967Y-81368184D01*
X114776518Y-81400038D01*
X114705919Y-81392533D01*
X114650585Y-81348051D01*
X114627999Y-81276067D01*
X114627999Y-81235331D01*
X114627629Y-81228510D01*
X114622105Y-81177648D01*
X114618479Y-81162396D01*
X114573324Y-81041946D01*
X114564786Y-81026351D01*
X114488285Y-80924276D01*
X114475724Y-80911715D01*
X114373649Y-80835214D01*
X114358054Y-80826676D01*
X114237606Y-80781522D01*
X114222351Y-80777895D01*
X114171486Y-80772369D01*
X114164672Y-80772000D01*
X113122115Y-80772000D01*
X113106876Y-80776475D01*
X113105671Y-80777865D01*
X113104000Y-80785548D01*
X113104000Y-82277885D01*
X112596000Y-82277885D01*
X112596000Y-80790116D01*
X112591525Y-80774877D01*
X112590135Y-80773672D01*
X112582452Y-80772001D01*
X111535331Y-80772001D01*
X111528510Y-80772371D01*
X111477648Y-80777895D01*
X111462396Y-80781521D01*
X111341946Y-80826676D01*
X111326351Y-80835214D01*
X111224276Y-80911715D01*
X111211715Y-80924276D01*
X111135214Y-81026351D01*
X111126676Y-81041946D01*
X111081522Y-81162394D01*
X111077895Y-81177649D01*
X111072369Y-81228514D01*
X111072000Y-81235328D01*
X111072000Y-82277885D01*
X107709200Y-82277885D01*
X107709200Y-78825314D01*
X116856706Y-78825314D01*
X116868573Y-79072384D01*
X116916830Y-79314985D01*
X117000415Y-79547789D01*
X117117493Y-79765681D01*
X117265491Y-79963875D01*
X117268800Y-79967155D01*
X117268805Y-79967161D01*
X117437841Y-80134728D01*
X117441158Y-80138016D01*
X117444920Y-80140774D01*
X117444923Y-80140777D01*
X117611930Y-80263231D01*
X117640636Y-80284279D01*
X117644767Y-80286453D01*
X117644768Y-80286453D01*
X117855406Y-80397275D01*
X117855412Y-80397277D01*
X117859541Y-80399450D01*
X117863949Y-80400989D01*
X117863955Y-80400992D01*
X118088650Y-80479459D01*
X118093066Y-80481001D01*
X118097659Y-80481873D01*
X118331490Y-80526267D01*
X118331493Y-80526267D01*
X118336079Y-80527138D01*
X118453588Y-80531755D01*
X118578575Y-80536666D01*
X118578580Y-80536666D01*
X118583243Y-80536849D01*
X118679869Y-80526267D01*
X118824474Y-80510431D01*
X118824480Y-80510430D01*
X118829127Y-80509921D01*
X118833651Y-80508730D01*
X119063807Y-80448135D01*
X119063809Y-80448134D01*
X119068330Y-80446944D01*
X119178875Y-80399450D01*
X119291303Y-80351147D01*
X119291305Y-80351146D01*
X119295597Y-80349302D01*
X119400673Y-80284279D01*
X119501962Y-80221600D01*
X119501966Y-80221597D01*
X119505935Y-80219141D01*
X119694724Y-80059319D01*
X119775545Y-79967161D01*
X119854734Y-79876864D01*
X119854738Y-79876859D01*
X119857816Y-79873349D01*
X119991628Y-79665314D01*
X120093221Y-79439786D01*
X120160363Y-79201718D01*
X120176233Y-79076969D01*
X120191181Y-78959473D01*
X120191181Y-78959467D01*
X120191579Y-78956342D01*
X120193866Y-78869000D01*
X120190620Y-78825314D01*
X121106706Y-78825314D01*
X121118573Y-79072384D01*
X121166830Y-79314985D01*
X121250415Y-79547789D01*
X121367493Y-79765681D01*
X121515491Y-79963875D01*
X121518800Y-79967155D01*
X121518805Y-79967161D01*
X121687841Y-80134728D01*
X121691158Y-80138016D01*
X121694920Y-80140774D01*
X121694923Y-80140777D01*
X121861930Y-80263231D01*
X121890636Y-80284279D01*
X121894767Y-80286453D01*
X121894768Y-80286453D01*
X122105406Y-80397275D01*
X122105412Y-80397277D01*
X122109541Y-80399450D01*
X122113949Y-80400989D01*
X122113955Y-80400992D01*
X122338650Y-80479459D01*
X122343066Y-80481001D01*
X122347659Y-80481873D01*
X122581490Y-80526267D01*
X122581493Y-80526267D01*
X122586079Y-80527138D01*
X122703588Y-80531755D01*
X122828575Y-80536666D01*
X122828580Y-80536666D01*
X122833243Y-80536849D01*
X122929869Y-80526267D01*
X123074474Y-80510431D01*
X123074480Y-80510430D01*
X123079127Y-80509921D01*
X123083651Y-80508730D01*
X123313807Y-80448135D01*
X123313809Y-80448134D01*
X123318330Y-80446944D01*
X123428875Y-80399450D01*
X123541303Y-80351147D01*
X123541305Y-80351146D01*
X123545597Y-80349302D01*
X123650673Y-80284279D01*
X123751962Y-80221600D01*
X123751966Y-80221597D01*
X123755935Y-80219141D01*
X123944724Y-80059319D01*
X124025545Y-79967161D01*
X124104734Y-79876864D01*
X124104738Y-79876859D01*
X124107816Y-79873349D01*
X124241628Y-79665314D01*
X124343221Y-79439786D01*
X124410363Y-79201718D01*
X124426233Y-79076969D01*
X124441181Y-78959473D01*
X124441181Y-78959467D01*
X124441579Y-78956342D01*
X124443866Y-78869000D01*
X124425535Y-78622326D01*
X124416832Y-78583862D01*
X124371975Y-78385628D01*
X124370944Y-78381071D01*
X124369251Y-78376717D01*
X124282987Y-78154888D01*
X124282986Y-78154885D01*
X124281294Y-78150535D01*
X124278976Y-78146479D01*
X124160872Y-77939839D01*
X124160870Y-77939837D01*
X124158553Y-77935782D01*
X124005417Y-77741530D01*
X123825251Y-77572048D01*
X123821404Y-77569379D01*
X123625856Y-77433721D01*
X123625853Y-77433719D01*
X123622014Y-77431056D01*
X123617824Y-77428990D01*
X123617821Y-77428988D01*
X123404356Y-77323719D01*
X123404353Y-77323718D01*
X123400168Y-77321654D01*
X123356823Y-77307779D01*
X123169034Y-77247668D01*
X123169036Y-77247668D01*
X123164589Y-77246245D01*
X123030935Y-77224478D01*
X122925063Y-77207236D01*
X122925062Y-77207236D01*
X122920451Y-77206485D01*
X122796784Y-77204866D01*
X122677795Y-77203308D01*
X122677792Y-77203308D01*
X122673118Y-77203247D01*
X122575645Y-77216513D01*
X122432663Y-77235971D01*
X122432656Y-77235972D01*
X122428023Y-77236603D01*
X122423533Y-77237912D01*
X122423527Y-77237913D01*
X122322781Y-77267278D01*
X122190551Y-77305820D01*
X122186304Y-77307778D01*
X122186301Y-77307779D01*
X122159291Y-77320231D01*
X121965918Y-77409377D01*
X121962009Y-77411940D01*
X121762969Y-77542436D01*
X121762965Y-77542439D01*
X121759059Y-77545000D01*
X121574518Y-77709708D01*
X121416350Y-77899885D01*
X121288030Y-78111351D01*
X121286221Y-78115665D01*
X121286220Y-78115667D01*
X121273300Y-78146479D01*
X121192375Y-78339461D01*
X121131488Y-78579204D01*
X121106706Y-78825314D01*
X120190620Y-78825314D01*
X120175535Y-78622326D01*
X120166832Y-78583862D01*
X120121975Y-78385628D01*
X120120944Y-78381071D01*
X120119251Y-78376717D01*
X120032987Y-78154888D01*
X120032986Y-78154885D01*
X120031294Y-78150535D01*
X120028976Y-78146479D01*
X119910872Y-77939839D01*
X119910870Y-77939837D01*
X119908553Y-77935782D01*
X119755417Y-77741530D01*
X119575251Y-77572048D01*
X119571404Y-77569379D01*
X119375856Y-77433721D01*
X119375853Y-77433719D01*
X119372014Y-77431056D01*
X119367824Y-77428990D01*
X119367821Y-77428988D01*
X119154356Y-77323719D01*
X119154353Y-77323718D01*
X119150168Y-77321654D01*
X119106823Y-77307779D01*
X118919034Y-77247668D01*
X118919036Y-77247668D01*
X118914589Y-77246245D01*
X118780935Y-77224478D01*
X118675063Y-77207236D01*
X118675062Y-77207236D01*
X118670451Y-77206485D01*
X118546784Y-77204866D01*
X118427795Y-77203308D01*
X118427792Y-77203308D01*
X118423118Y-77203247D01*
X118325645Y-77216513D01*
X118182663Y-77235971D01*
X118182656Y-77235972D01*
X118178023Y-77236603D01*
X118173533Y-77237912D01*
X118173527Y-77237913D01*
X118072781Y-77267278D01*
X117940551Y-77305820D01*
X117936304Y-77307778D01*
X117936301Y-77307779D01*
X117909291Y-77320231D01*
X117715918Y-77409377D01*
X117712009Y-77411940D01*
X117512969Y-77542436D01*
X117512965Y-77542439D01*
X117509059Y-77545000D01*
X117324518Y-77709708D01*
X117166350Y-77899885D01*
X117038030Y-78111351D01*
X117036221Y-78115665D01*
X117036220Y-78115667D01*
X117023300Y-78146479D01*
X116942375Y-78339461D01*
X116881488Y-78579204D01*
X116856706Y-78825314D01*
X107709200Y-78825314D01*
X107709200Y-75450200D01*
X107729202Y-75382079D01*
X107782858Y-75335586D01*
X107835200Y-75324200D01*
X133464800Y-75324200D01*
X133532921Y-75344202D01*
G37*
%TD.AperFunction*%
%TD*%
M02*
