%TF.GenerationSoftware,KiCad,Pcbnew,6.0.11-2627ca5db0~126~ubuntu22.04.1*%
%TF.CreationDate,2023-03-29T10:33:59-07:00*%
%TF.ProjectId,GX16-8P-Horizontal Slot Test,47583136-2d38-4502-9d48-6f72697a6f6e,rev?*%
%TF.SameCoordinates,Original*%
%TF.FileFunction,Copper,L2,Bot*%
%TF.FilePolarity,Positive*%
%FSLAX46Y46*%
G04 Gerber Fmt 4.6, Leading zero omitted, Abs format (unit mm)*
G04 Created by KiCad (PCBNEW 6.0.11-2627ca5db0~126~ubuntu22.04.1) date 2023-03-29 10:33:59*
%MOMM*%
%LPD*%
G01*
G04 APERTURE LIST*
%TA.AperFunction,ComponentPad*%
%ADD10C,2.540000*%
%TD*%
%TA.AperFunction,SMDPad,CuDef*%
%ADD11R,1.524000X2.794000*%
%TD*%
%TA.AperFunction,ViaPad*%
%ADD12C,0.800000*%
%TD*%
%TA.AperFunction,Conductor*%
%ADD13C,0.381000*%
%TD*%
G04 APERTURE END LIST*
D10*
%TO.P,J1,1,Pin_1*%
%TO.N,Net-(J1-Pad1)*%
X118525000Y-78869000D03*
%TO.P,J1,2,Pin_2*%
%TO.N,Net-(J1-Pad2)*%
X116465000Y-81812000D03*
%TO.P,J1,3,Pin_3*%
%TO.N,Net-(J1-Pad3)*%
X117394000Y-85282000D03*
%TO.P,J1,4,Pin_4*%
%TO.N,Net-(J1-Pad4)*%
X120650000Y-86800000D03*
%TO.P,J1,5,Pin_5*%
%TO.N,Net-(J1-Pad5)*%
X123906000Y-85282000D03*
%TO.P,J1,6,Pin_6*%
%TO.N,Net-(J1-Pad6)*%
X124835000Y-81812000D03*
%TO.P,J1,7,Pin_7*%
%TO.N,Net-(J1-Pad7)*%
X122775000Y-78869000D03*
%TO.P,J1,8,Pin_8*%
%TO.N,Net-(J1-Pad8)*%
X120650000Y-82550000D03*
%TD*%
%TO.P,J12,1,Pin_1*%
%TO.N,Net-(J12-Pad1)*%
X156625000Y-78869000D03*
%TO.P,J12,2,Pin_2*%
%TO.N,Net-(J12-Pad2)*%
X154565000Y-81812000D03*
%TO.P,J12,3,Pin_3*%
%TO.N,Net-(J12-Pad3)*%
X155494000Y-85282000D03*
%TO.P,J12,4,Pin_4*%
%TO.N,Net-(J12-Pad4)*%
X158750000Y-86800000D03*
%TO.P,J12,5,Pin_5*%
%TO.N,Net-(J12-Pad5)*%
X162006000Y-85282000D03*
%TO.P,J12,6,Pin_6*%
%TO.N,Net-(J12-Pad6)*%
X162935000Y-81812000D03*
%TO.P,J12,7,Pin_7*%
%TO.N,Net-(J12-Pad7)*%
X160875000Y-78869000D03*
%TO.P,J12,8,Pin_8*%
%TO.N,Net-(J12-Pad8)*%
X158750000Y-82550000D03*
%TD*%
D11*
%TO.P,J3,1,Pin_1*%
%TO.N,Net-(J1-PadMP)*%
X110490000Y-90297000D03*
%TO.P,J3,2,Pin_2*%
%TO.N,Net-(J1-Pad1)*%
X113030000Y-90297000D03*
%TO.P,J3,3,Pin_3*%
%TO.N,Net-(J1-Pad2)*%
X115570000Y-90297000D03*
%TO.P,J3,4,Pin_4*%
%TO.N,Net-(J1-Pad3)*%
X118110000Y-90297000D03*
%TO.P,J3,5,Pin_5*%
%TO.N,Net-(J1-Pad4)*%
X120650000Y-90297000D03*
%TO.P,J3,6,Pin_6*%
%TO.N,Net-(J1-Pad5)*%
X123190000Y-90297000D03*
%TO.P,J3,7,Pin_7*%
%TO.N,Net-(J1-Pad6)*%
X125730000Y-90297000D03*
%TO.P,J3,8,Pin_8*%
%TO.N,Net-(J1-Pad7)*%
X128270000Y-90297000D03*
%TO.P,J3,9,Pin_9*%
%TO.N,Net-(J1-Pad8)*%
X130810000Y-90297000D03*
%TD*%
%TO.P,J14,1,Pin_1*%
%TO.N,Net-(J12-PadMP)*%
X148590000Y-90297000D03*
%TO.P,J14,2,Pin_2*%
%TO.N,Net-(J12-Pad1)*%
X151130000Y-90297000D03*
%TO.P,J14,3,Pin_3*%
%TO.N,Net-(J12-Pad2)*%
X153670000Y-90297000D03*
%TO.P,J14,4,Pin_4*%
%TO.N,Net-(J12-Pad3)*%
X156210000Y-90297000D03*
%TO.P,J14,5,Pin_5*%
%TO.N,Net-(J12-Pad4)*%
X158750000Y-90297000D03*
%TO.P,J14,6,Pin_6*%
%TO.N,Net-(J12-Pad5)*%
X161290000Y-90297000D03*
%TO.P,J14,7,Pin_7*%
%TO.N,Net-(J12-Pad6)*%
X163830000Y-90297000D03*
%TO.P,J14,8,Pin_8*%
%TO.N,Net-(J12-Pad7)*%
X166370000Y-90297000D03*
%TO.P,J14,9,Pin_9*%
%TO.N,Net-(J12-Pad8)*%
X168910000Y-90297000D03*
%TD*%
D12*
%TO.N,Net-(J1-Pad1)*%
X113030000Y-89535000D03*
%TO.N,Net-(J1-Pad2)*%
X115570000Y-89535000D03*
%TO.N,Net-(J1-Pad3)*%
X118110000Y-89535000D03*
%TO.N,Net-(J1-Pad4)*%
X120650000Y-89535000D03*
%TO.N,Net-(J1-Pad5)*%
X123190000Y-89535000D03*
%TO.N,Net-(J1-Pad6)*%
X125730000Y-89535000D03*
%TO.N,Net-(J1-Pad7)*%
X128270000Y-89535000D03*
%TO.N,Net-(J1-Pad8)*%
X130810000Y-89535000D03*
%TO.N,Net-(J1-PadMP)*%
X119634000Y-84582000D03*
X114935000Y-78105000D03*
X111760000Y-84455000D03*
X118618000Y-81153000D03*
X129540000Y-85090000D03*
X122555000Y-87630000D03*
X122682000Y-81153000D03*
X126365000Y-78105000D03*
X121666000Y-84582000D03*
X114300000Y-87630000D03*
X127000000Y-87630000D03*
X111760000Y-87630000D03*
X127000000Y-82550000D03*
X114300000Y-82550000D03*
X110490000Y-89535000D03*
X118745000Y-87630000D03*
X129540000Y-87630000D03*
X128270000Y-80010000D03*
X113030000Y-80010000D03*
%TO.N,Net-(J12-Pad1)*%
X151130000Y-89535000D03*
%TO.N,Net-(J12-Pad2)*%
X153670000Y-89535000D03*
%TO.N,Net-(J12-Pad3)*%
X156210000Y-89535000D03*
%TO.N,Net-(J12-Pad4)*%
X158750000Y-89535000D03*
%TO.N,Net-(J12-Pad5)*%
X161290000Y-89535000D03*
%TO.N,Net-(J12-Pad6)*%
X163830000Y-89535000D03*
%TO.N,Net-(J12-Pad7)*%
X166370000Y-89535000D03*
%TO.N,Net-(J12-Pad8)*%
X168910000Y-89535000D03*
%TO.N,Net-(J12-PadMP)*%
X152400000Y-82550000D03*
X153035000Y-78105000D03*
X166370000Y-80010000D03*
X167640000Y-87630000D03*
X149860000Y-87630000D03*
X159766000Y-84582000D03*
X164465000Y-78105000D03*
X160782000Y-81153000D03*
X160655000Y-87630000D03*
X165100000Y-82550000D03*
X152400000Y-87630000D03*
X156718000Y-81153000D03*
X167640000Y-85090000D03*
X156845000Y-87630000D03*
X157734000Y-84582000D03*
X165100000Y-87630000D03*
X149860000Y-84455000D03*
X148590000Y-89535000D03*
X151130000Y-80010000D03*
%TD*%
D13*
%TO.N,Net-(J1-Pad1)*%
X116076000Y-78869000D02*
X113030000Y-81915000D01*
X113030000Y-81915000D02*
X113030000Y-89535000D01*
X118525000Y-78869000D02*
X116076000Y-78869000D01*
%TO.N,Net-(J1-Pad2)*%
X115570000Y-82550000D02*
X115570000Y-89535000D01*
X116465000Y-81812000D02*
X116308000Y-81812000D01*
X116308000Y-81812000D02*
X115570000Y-82550000D01*
%TO.N,Net-(J1-Pad3)*%
X118110000Y-89535000D02*
X117394000Y-88819000D01*
X117394000Y-88819000D02*
X117394000Y-85282000D01*
%TO.N,Net-(J1-Pad4)*%
X120650000Y-89535000D02*
X120650000Y-86800000D01*
%TO.N,Net-(J1-Pad5)*%
X123190000Y-89535000D02*
X123906000Y-88819000D01*
X123906000Y-88819000D02*
X123906000Y-85282000D01*
%TO.N,Net-(J1-Pad6)*%
X124835000Y-81812000D02*
X124992000Y-81812000D01*
X125730000Y-82550000D02*
X125730000Y-89535000D01*
X124992000Y-81812000D02*
X125730000Y-82550000D01*
%TO.N,Net-(J1-Pad7)*%
X122775000Y-78869000D02*
X125224000Y-78869000D01*
X125224000Y-78869000D02*
X128270000Y-81915000D01*
X128270000Y-81915000D02*
X128270000Y-89535000D01*
%TO.N,Net-(J1-Pad8)*%
X127000000Y-76835000D02*
X130810000Y-80645000D01*
X121285000Y-76835000D02*
X127000000Y-76835000D01*
X120650000Y-77470000D02*
X121285000Y-76835000D01*
X130810000Y-80645000D02*
X130810000Y-89535000D01*
X120650000Y-82550000D02*
X120650000Y-77470000D01*
%TO.N,Net-(J12-Pad1)*%
X154176000Y-78869000D02*
X151130000Y-81915000D01*
X156625000Y-78869000D02*
X154176000Y-78869000D01*
X151130000Y-81915000D02*
X151130000Y-89535000D01*
%TO.N,Net-(J12-Pad2)*%
X154565000Y-81812000D02*
X154408000Y-81812000D01*
X153670000Y-82550000D02*
X153670000Y-89535000D01*
X154408000Y-81812000D02*
X153670000Y-82550000D01*
%TO.N,Net-(J12-Pad3)*%
X155494000Y-88819000D02*
X155494000Y-85282000D01*
X156210000Y-89535000D02*
X155494000Y-88819000D01*
%TO.N,Net-(J12-Pad4)*%
X158750000Y-89535000D02*
X158750000Y-86800000D01*
%TO.N,Net-(J12-Pad5)*%
X161290000Y-89535000D02*
X162006000Y-88819000D01*
X162006000Y-88819000D02*
X162006000Y-85282000D01*
%TO.N,Net-(J12-Pad6)*%
X163092000Y-81812000D02*
X163830000Y-82550000D01*
X162935000Y-81812000D02*
X163092000Y-81812000D01*
X163830000Y-82550000D02*
X163830000Y-89535000D01*
%TO.N,Net-(J12-Pad7)*%
X163324000Y-78869000D02*
X166370000Y-81915000D01*
X166370000Y-81915000D02*
X166370000Y-89535000D01*
X160875000Y-78869000D02*
X163324000Y-78869000D01*
%TO.N,Net-(J12-Pad8)*%
X168910000Y-80645000D02*
X168910000Y-89535000D01*
X158750000Y-77470000D02*
X159385000Y-76835000D01*
X158750000Y-82550000D02*
X158750000Y-77470000D01*
X159385000Y-76835000D02*
X165100000Y-76835000D01*
X165100000Y-76835000D02*
X168910000Y-80645000D01*
%TD*%
%TA.AperFunction,Conductor*%
%TO.N,Net-(J12-PadMP)*%
G36*
X172902921Y-75344202D02*
G01*
X172949414Y-75397858D01*
X172960800Y-75450200D01*
X172960800Y-90919800D01*
X172940798Y-90987921D01*
X172887142Y-91034414D01*
X172834800Y-91045800D01*
X171490944Y-91045800D01*
X171471233Y-91044249D01*
X171459793Y-91042437D01*
X171450000Y-91040886D01*
X171440207Y-91042437D01*
X171418974Y-91045800D01*
X171336458Y-91058869D01*
X171336456Y-91058870D01*
X171326667Y-91060420D01*
X171215407Y-91117110D01*
X171127110Y-91205407D01*
X171070420Y-91316667D01*
X171068869Y-91326460D01*
X171068868Y-91326463D01*
X171067719Y-91333714D01*
X171037305Y-91397866D01*
X170977036Y-91435392D01*
X170943271Y-91440000D01*
X170192200Y-91440000D01*
X170124079Y-91419998D01*
X170077586Y-91366342D01*
X170066200Y-91314000D01*
X170066200Y-88868974D01*
X170051580Y-88776667D01*
X169994890Y-88665407D01*
X169906593Y-88577110D01*
X169795333Y-88520420D01*
X169785544Y-88518870D01*
X169785542Y-88518869D01*
X169759167Y-88514692D01*
X169703026Y-88505800D01*
X169620700Y-88505800D01*
X169552579Y-88485798D01*
X169506086Y-88432142D01*
X169494700Y-88379800D01*
X169494700Y-80691586D01*
X169495778Y-80675139D01*
X169498668Y-80653188D01*
X169499746Y-80645000D01*
X169479650Y-80492363D01*
X169420734Y-80350128D01*
X169350543Y-80258652D01*
X169350542Y-80258651D01*
X169327013Y-80227987D01*
X169318690Y-80221600D01*
X169302894Y-80209480D01*
X169290503Y-80198612D01*
X165546387Y-76454497D01*
X165535519Y-76442105D01*
X165522039Y-76424537D01*
X165517013Y-76417987D01*
X165439386Y-76358423D01*
X165394873Y-76324266D01*
X165353213Y-76307010D01*
X165252637Y-76265350D01*
X165244449Y-76264272D01*
X165138324Y-76250300D01*
X165138319Y-76250300D01*
X165100000Y-76245255D01*
X165091812Y-76246333D01*
X165069867Y-76249222D01*
X165053421Y-76250300D01*
X159431586Y-76250300D01*
X159415139Y-76249222D01*
X159393188Y-76246332D01*
X159385000Y-76245254D01*
X159376812Y-76246332D01*
X159359731Y-76248581D01*
X159232363Y-76265350D01*
X159090128Y-76324266D01*
X158967987Y-76417987D01*
X158962961Y-76424537D01*
X158962960Y-76424538D01*
X158949483Y-76442102D01*
X158938616Y-76454493D01*
X158369494Y-77023616D01*
X158357101Y-77034484D01*
X158332987Y-77052987D01*
X158273992Y-77129872D01*
X158239266Y-77175127D01*
X158239266Y-77175128D01*
X158233225Y-77189713D01*
X158233224Y-77189714D01*
X158185131Y-77305820D01*
X158180350Y-77317363D01*
X158166877Y-77419700D01*
X158160255Y-77470000D01*
X158161333Y-77478188D01*
X158164222Y-77500133D01*
X158165300Y-77516579D01*
X158165300Y-77771261D01*
X158145298Y-77839382D01*
X158091642Y-77885875D01*
X158021368Y-77895979D01*
X157956788Y-77866485D01*
X157940350Y-77849267D01*
X157878855Y-77771261D01*
X157855417Y-77741530D01*
X157675251Y-77572048D01*
X157671404Y-77569379D01*
X157475856Y-77433721D01*
X157475853Y-77433719D01*
X157472014Y-77431056D01*
X157467824Y-77428990D01*
X157467821Y-77428988D01*
X157254356Y-77323719D01*
X157254353Y-77323718D01*
X157250168Y-77321654D01*
X157206823Y-77307779D01*
X157019034Y-77247668D01*
X157019036Y-77247668D01*
X157014589Y-77246245D01*
X156880935Y-77224478D01*
X156775063Y-77207236D01*
X156775062Y-77207236D01*
X156770451Y-77206485D01*
X156646784Y-77204866D01*
X156527795Y-77203308D01*
X156527792Y-77203308D01*
X156523118Y-77203247D01*
X156425645Y-77216513D01*
X156282663Y-77235971D01*
X156282656Y-77235972D01*
X156278023Y-77236603D01*
X156273533Y-77237912D01*
X156273527Y-77237913D01*
X156172781Y-77267278D01*
X156040551Y-77305820D01*
X156036304Y-77307778D01*
X156036301Y-77307779D01*
X156015512Y-77317363D01*
X155815918Y-77409377D01*
X155812009Y-77411940D01*
X155612969Y-77542436D01*
X155612965Y-77542439D01*
X155609059Y-77545000D01*
X155424518Y-77709708D01*
X155266350Y-77899885D01*
X155138030Y-78111351D01*
X155136221Y-78115665D01*
X155136220Y-78115667D01*
X155097910Y-78207026D01*
X155053121Y-78262112D01*
X154981713Y-78284300D01*
X154222586Y-78284300D01*
X154206139Y-78283222D01*
X154184188Y-78280332D01*
X154176000Y-78279254D01*
X154167812Y-78280332D01*
X154150731Y-78282581D01*
X154023363Y-78299350D01*
X153881128Y-78358266D01*
X153758987Y-78451987D01*
X153753961Y-78458537D01*
X153753960Y-78458538D01*
X153740480Y-78476106D01*
X153729612Y-78488497D01*
X150749497Y-81468613D01*
X150737106Y-81479480D01*
X150712987Y-81497987D01*
X150707961Y-81504537D01*
X150661318Y-81565324D01*
X150661317Y-81565326D01*
X150652137Y-81577290D01*
X150619266Y-81620127D01*
X150619266Y-81620128D01*
X150560350Y-81762363D01*
X150545300Y-81876679D01*
X150540255Y-81915000D01*
X150541333Y-81923188D01*
X150544222Y-81945133D01*
X150545300Y-81961579D01*
X150545300Y-88379800D01*
X150525298Y-88447921D01*
X150471642Y-88494414D01*
X150419300Y-88505800D01*
X150336974Y-88505800D01*
X150280833Y-88514692D01*
X150254458Y-88518869D01*
X150254456Y-88518870D01*
X150244667Y-88520420D01*
X150133407Y-88577110D01*
X150045110Y-88665407D01*
X150040610Y-88674238D01*
X150040609Y-88674240D01*
X150037560Y-88680224D01*
X149988810Y-88731838D01*
X149919895Y-88748903D01*
X149852694Y-88726001D01*
X149807312Y-88667248D01*
X149805325Y-88661948D01*
X149796786Y-88646351D01*
X149720285Y-88544276D01*
X149707724Y-88531715D01*
X149605649Y-88455214D01*
X149590054Y-88446676D01*
X149469606Y-88401522D01*
X149454351Y-88397895D01*
X149403486Y-88392369D01*
X149396672Y-88392000D01*
X148862115Y-88392000D01*
X148846876Y-88396475D01*
X148845671Y-88397865D01*
X148844000Y-88405548D01*
X148844000Y-90425000D01*
X148823998Y-90493121D01*
X148770342Y-90539614D01*
X148718000Y-90551000D01*
X147338116Y-90551000D01*
X147322877Y-90555475D01*
X147321672Y-90556865D01*
X147320001Y-90564548D01*
X147320001Y-90919800D01*
X147299999Y-90987921D01*
X147246343Y-91034414D01*
X147194001Y-91045800D01*
X145935200Y-91045800D01*
X145867079Y-91025798D01*
X145820586Y-90972142D01*
X145809200Y-90919800D01*
X145809200Y-90024885D01*
X147320000Y-90024885D01*
X147324475Y-90040124D01*
X147325865Y-90041329D01*
X147333548Y-90043000D01*
X148317885Y-90043000D01*
X148333124Y-90038525D01*
X148334329Y-90037135D01*
X148336000Y-90029452D01*
X148336000Y-88410116D01*
X148331525Y-88394877D01*
X148330135Y-88393672D01*
X148322452Y-88392001D01*
X147783331Y-88392001D01*
X147776510Y-88392371D01*
X147725648Y-88397895D01*
X147710396Y-88401521D01*
X147589946Y-88446676D01*
X147574351Y-88455214D01*
X147472276Y-88531715D01*
X147459715Y-88544276D01*
X147383214Y-88646351D01*
X147374676Y-88661946D01*
X147329522Y-88782394D01*
X147325895Y-88797649D01*
X147320369Y-88848514D01*
X147320000Y-88855328D01*
X147320000Y-90024885D01*
X145809200Y-90024885D01*
X145809200Y-75450200D01*
X145829202Y-75382079D01*
X145882858Y-75335586D01*
X145935200Y-75324200D01*
X172834800Y-75324200D01*
X172902921Y-75344202D01*
G37*
%TD.AperFunction*%
%TA.AperFunction,Conductor*%
G36*
X152946199Y-81029859D02*
G01*
X153003034Y-81072406D01*
X153027845Y-81138926D01*
X153018363Y-81196639D01*
X152982375Y-81282461D01*
X152921488Y-81522204D01*
X152896706Y-81768314D01*
X152896930Y-81772981D01*
X152896930Y-81772986D01*
X152901911Y-81876679D01*
X152908573Y-82015384D01*
X152956830Y-82257985D01*
X153040415Y-82490789D01*
X153042632Y-82494915D01*
X153070292Y-82546393D01*
X153085300Y-82606031D01*
X153085300Y-88379800D01*
X153065298Y-88447921D01*
X153011642Y-88494414D01*
X152959300Y-88505800D01*
X152876974Y-88505800D01*
X152820833Y-88514692D01*
X152794458Y-88518869D01*
X152794456Y-88518870D01*
X152784667Y-88520420D01*
X152673407Y-88577110D01*
X152585110Y-88665407D01*
X152528420Y-88776667D01*
X152526870Y-88786456D01*
X152526869Y-88786458D01*
X152524449Y-88801739D01*
X152494037Y-88865892D01*
X152433768Y-88903419D01*
X152362779Y-88902405D01*
X152303607Y-88863172D01*
X152275551Y-88801739D01*
X152273131Y-88786458D01*
X152273130Y-88786456D01*
X152271580Y-88776667D01*
X152214890Y-88665407D01*
X152126593Y-88577110D01*
X152015333Y-88520420D01*
X152005544Y-88518870D01*
X152005542Y-88518869D01*
X151979167Y-88514692D01*
X151923026Y-88505800D01*
X151840700Y-88505800D01*
X151772579Y-88485798D01*
X151726086Y-88432142D01*
X151714700Y-88379800D01*
X151714700Y-82209380D01*
X151734702Y-82141259D01*
X151751605Y-82120285D01*
X152813071Y-81058820D01*
X152875383Y-81024794D01*
X152946199Y-81029859D01*
G37*
%TD.AperFunction*%
%TA.AperFunction,Conductor*%
G36*
X164873741Y-77439702D02*
G01*
X164894715Y-77456605D01*
X168288395Y-80850286D01*
X168322421Y-80912598D01*
X168325300Y-80939381D01*
X168325300Y-88379800D01*
X168305298Y-88447921D01*
X168251642Y-88494414D01*
X168199300Y-88505800D01*
X168116974Y-88505800D01*
X168060833Y-88514692D01*
X168034458Y-88518869D01*
X168034456Y-88518870D01*
X168024667Y-88520420D01*
X167913407Y-88577110D01*
X167825110Y-88665407D01*
X167768420Y-88776667D01*
X167766870Y-88786456D01*
X167766869Y-88786458D01*
X167764449Y-88801739D01*
X167734037Y-88865892D01*
X167673768Y-88903419D01*
X167602779Y-88902405D01*
X167543607Y-88863172D01*
X167515551Y-88801739D01*
X167513131Y-88786458D01*
X167513130Y-88786456D01*
X167511580Y-88776667D01*
X167454890Y-88665407D01*
X167366593Y-88577110D01*
X167255333Y-88520420D01*
X167245544Y-88518870D01*
X167245542Y-88518869D01*
X167219167Y-88514692D01*
X167163026Y-88505800D01*
X167080700Y-88505800D01*
X167012579Y-88485798D01*
X166966086Y-88432142D01*
X166954700Y-88379800D01*
X166954700Y-81961586D01*
X166955778Y-81945139D01*
X166958668Y-81923188D01*
X166959746Y-81915000D01*
X166939650Y-81762363D01*
X166880734Y-81620128D01*
X166810543Y-81528652D01*
X166810542Y-81528651D01*
X166787013Y-81497987D01*
X166762893Y-81479479D01*
X166750503Y-81468612D01*
X163770387Y-78488497D01*
X163759519Y-78476105D01*
X163746039Y-78458537D01*
X163741013Y-78451987D01*
X163663386Y-78392423D01*
X163618873Y-78358266D01*
X163573473Y-78339461D01*
X163476637Y-78299350D01*
X163417365Y-78291547D01*
X163362324Y-78284300D01*
X163362319Y-78284300D01*
X163324000Y-78279255D01*
X163315812Y-78280333D01*
X163293867Y-78283222D01*
X163277421Y-78284300D01*
X162519505Y-78284300D01*
X162451384Y-78264298D01*
X162404891Y-78210642D01*
X162402072Y-78203966D01*
X162382989Y-78154892D01*
X162382985Y-78154884D01*
X162381294Y-78150535D01*
X162378976Y-78146479D01*
X162260872Y-77939839D01*
X162260870Y-77939837D01*
X162258553Y-77935782D01*
X162105417Y-77741530D01*
X161994801Y-77637474D01*
X161958890Y-77576231D01*
X161961789Y-77505294D01*
X162002580Y-77447185D01*
X162068312Y-77420354D01*
X162081135Y-77419700D01*
X164805620Y-77419700D01*
X164873741Y-77439702D01*
G37*
%TD.AperFunction*%
%TA.AperFunction,Conductor*%
G36*
X164639895Y-81028930D02*
G01*
X164686598Y-81058489D01*
X165748395Y-82120286D01*
X165782421Y-82182598D01*
X165785300Y-82209381D01*
X165785300Y-88379800D01*
X165765298Y-88447921D01*
X165711642Y-88494414D01*
X165659300Y-88505800D01*
X165576974Y-88505800D01*
X165520833Y-88514692D01*
X165494458Y-88518869D01*
X165494456Y-88518870D01*
X165484667Y-88520420D01*
X165373407Y-88577110D01*
X165285110Y-88665407D01*
X165228420Y-88776667D01*
X165226870Y-88786456D01*
X165226869Y-88786458D01*
X165224449Y-88801739D01*
X165194037Y-88865892D01*
X165133768Y-88903419D01*
X165062779Y-88902405D01*
X165003607Y-88863172D01*
X164975551Y-88801739D01*
X164973131Y-88786458D01*
X164973130Y-88786456D01*
X164971580Y-88776667D01*
X164914890Y-88665407D01*
X164826593Y-88577110D01*
X164715333Y-88520420D01*
X164705544Y-88518870D01*
X164705542Y-88518869D01*
X164679167Y-88514692D01*
X164623026Y-88505800D01*
X164540700Y-88505800D01*
X164472579Y-88485798D01*
X164426086Y-88432142D01*
X164414700Y-88379800D01*
X164414700Y-82606365D01*
X164425818Y-82554614D01*
X164426473Y-82553160D01*
X164503221Y-82382786D01*
X164570363Y-82144718D01*
X164586720Y-82016146D01*
X164601181Y-81902473D01*
X164601181Y-81902467D01*
X164601579Y-81899342D01*
X164602173Y-81876679D01*
X164602863Y-81850306D01*
X164603866Y-81812000D01*
X164599610Y-81754732D01*
X164585881Y-81569978D01*
X164585880Y-81569974D01*
X164585535Y-81565326D01*
X164577237Y-81528652D01*
X164531975Y-81328628D01*
X164530944Y-81324071D01*
X164529251Y-81319717D01*
X164480072Y-81193252D01*
X164474025Y-81122513D01*
X164507182Y-81059735D01*
X164569016Y-81024848D01*
X164639895Y-81028930D01*
G37*
%TD.AperFunction*%
%TA.AperFunction,Conductor*%
G36*
X155046119Y-79473702D02*
G01*
X155092612Y-79527358D01*
X155096579Y-79537106D01*
X155100415Y-79547789D01*
X155217493Y-79765681D01*
X155220288Y-79769425D01*
X155220290Y-79769427D01*
X155282368Y-79852559D01*
X155365491Y-79963875D01*
X155368800Y-79967155D01*
X155368805Y-79967161D01*
X155512584Y-80109690D01*
X155541158Y-80138016D01*
X155544920Y-80140774D01*
X155544923Y-80140777D01*
X155705682Y-80258650D01*
X155740636Y-80284279D01*
X155744767Y-80286453D01*
X155744768Y-80286453D01*
X155955406Y-80397275D01*
X155955412Y-80397277D01*
X155959541Y-80399450D01*
X155963949Y-80400989D01*
X155963955Y-80400992D01*
X156188650Y-80479459D01*
X156193066Y-80481001D01*
X156197659Y-80481873D01*
X156431490Y-80526267D01*
X156431493Y-80526267D01*
X156436079Y-80527138D01*
X156553588Y-80531755D01*
X156678575Y-80536666D01*
X156678580Y-80536666D01*
X156683243Y-80536849D01*
X156779869Y-80526267D01*
X156924474Y-80510431D01*
X156924480Y-80510430D01*
X156929127Y-80509921D01*
X156995817Y-80492363D01*
X157163807Y-80448135D01*
X157163809Y-80448134D01*
X157168330Y-80446944D01*
X157278875Y-80399450D01*
X157391303Y-80351147D01*
X157391305Y-80351146D01*
X157395597Y-80349302D01*
X157500673Y-80284279D01*
X157601962Y-80221600D01*
X157601966Y-80221597D01*
X157605935Y-80219141D01*
X157794724Y-80059319D01*
X157944569Y-79888455D01*
X158004522Y-79850428D01*
X158075517Y-79850850D01*
X158135014Y-79889589D01*
X158164122Y-79954344D01*
X158165300Y-79971533D01*
X158165300Y-80906278D01*
X158145298Y-80974399D01*
X158092051Y-81020704D01*
X158072192Y-81029859D01*
X157940918Y-81090377D01*
X157937009Y-81092940D01*
X157737969Y-81223436D01*
X157737965Y-81223439D01*
X157734059Y-81226000D01*
X157549518Y-81390708D01*
X157391350Y-81580885D01*
X157263030Y-81792351D01*
X157261221Y-81796665D01*
X157261220Y-81796667D01*
X157195527Y-81953327D01*
X157167375Y-82020461D01*
X157106488Y-82260204D01*
X157081706Y-82506314D01*
X157081930Y-82510981D01*
X157081930Y-82510986D01*
X157086605Y-82608314D01*
X157093573Y-82753384D01*
X157141830Y-82995985D01*
X157225415Y-83228789D01*
X157342493Y-83446681D01*
X157345288Y-83450425D01*
X157345290Y-83450427D01*
X157367383Y-83480013D01*
X157490491Y-83644875D01*
X157493800Y-83648155D01*
X157493805Y-83648161D01*
X157662841Y-83815728D01*
X157666158Y-83819016D01*
X157669920Y-83821774D01*
X157669923Y-83821777D01*
X157859960Y-83961117D01*
X157865636Y-83965279D01*
X157869767Y-83967453D01*
X157869768Y-83967453D01*
X158080406Y-84078275D01*
X158080412Y-84078277D01*
X158084541Y-84080450D01*
X158088949Y-84081989D01*
X158088955Y-84081992D01*
X158313650Y-84160459D01*
X158318066Y-84162001D01*
X158322659Y-84162873D01*
X158556490Y-84207267D01*
X158556493Y-84207267D01*
X158561079Y-84208138D01*
X158678588Y-84212755D01*
X158803575Y-84217666D01*
X158803580Y-84217666D01*
X158808243Y-84217849D01*
X158904869Y-84207267D01*
X159049474Y-84191431D01*
X159049480Y-84191430D01*
X159054127Y-84190921D01*
X159169830Y-84160459D01*
X159288807Y-84129135D01*
X159288809Y-84129134D01*
X159293330Y-84127944D01*
X159305517Y-84122708D01*
X159516303Y-84032147D01*
X159516305Y-84032146D01*
X159520597Y-84030302D01*
X159625673Y-83965279D01*
X159726962Y-83902600D01*
X159726966Y-83902597D01*
X159730935Y-83900141D01*
X159919724Y-83740319D01*
X159941119Y-83715922D01*
X160079734Y-83557864D01*
X160079738Y-83557859D01*
X160082816Y-83554349D01*
X160129479Y-83481803D01*
X160214100Y-83350245D01*
X160214103Y-83350240D01*
X160216628Y-83346314D01*
X160318221Y-83120786D01*
X160385363Y-82882718D01*
X160401233Y-82757969D01*
X160416181Y-82640473D01*
X160416181Y-82640467D01*
X160416579Y-82637342D01*
X160418866Y-82550000D01*
X160415274Y-82501660D01*
X160400881Y-82307978D01*
X160400880Y-82307974D01*
X160400535Y-82303326D01*
X160391832Y-82264862D01*
X160346975Y-82066628D01*
X160345944Y-82062071D01*
X160344251Y-82057717D01*
X160257987Y-81835888D01*
X160257986Y-81835885D01*
X160256294Y-81831535D01*
X160243329Y-81808851D01*
X160135872Y-81620839D01*
X160135870Y-81620837D01*
X160133553Y-81616782D01*
X159980417Y-81422530D01*
X159800251Y-81253048D01*
X159796404Y-81250379D01*
X159600856Y-81114721D01*
X159600853Y-81114719D01*
X159597014Y-81112056D01*
X159592824Y-81109990D01*
X159592821Y-81109988D01*
X159488751Y-81058667D01*
X159404971Y-81017351D01*
X159352723Y-80969284D01*
X159334700Y-80904346D01*
X159334700Y-79967173D01*
X159354702Y-79899052D01*
X159408358Y-79852559D01*
X159478632Y-79842455D01*
X159543212Y-79871949D01*
X159561658Y-79891784D01*
X159612699Y-79960137D01*
X159612704Y-79960143D01*
X159615491Y-79963875D01*
X159618800Y-79967155D01*
X159618805Y-79967161D01*
X159762584Y-80109690D01*
X159791158Y-80138016D01*
X159794920Y-80140774D01*
X159794923Y-80140777D01*
X159955682Y-80258650D01*
X159990636Y-80284279D01*
X159994767Y-80286453D01*
X159994768Y-80286453D01*
X160205406Y-80397275D01*
X160205412Y-80397277D01*
X160209541Y-80399450D01*
X160213949Y-80400989D01*
X160213955Y-80400992D01*
X160438650Y-80479459D01*
X160443066Y-80481001D01*
X160447659Y-80481873D01*
X160681490Y-80526267D01*
X160681493Y-80526267D01*
X160686079Y-80527138D01*
X160803588Y-80531755D01*
X160928575Y-80536666D01*
X160928580Y-80536666D01*
X160933243Y-80536849D01*
X161029869Y-80526267D01*
X161174474Y-80510431D01*
X161174480Y-80510430D01*
X161179127Y-80509921D01*
X161245817Y-80492363D01*
X161413807Y-80448135D01*
X161413809Y-80448134D01*
X161418330Y-80446944D01*
X161528875Y-80399450D01*
X161641303Y-80351147D01*
X161641305Y-80351146D01*
X161645597Y-80349302D01*
X161750673Y-80284279D01*
X161851962Y-80221600D01*
X161851966Y-80221597D01*
X161855935Y-80219141D01*
X162044724Y-80059319D01*
X162125545Y-79967161D01*
X162204734Y-79876864D01*
X162204738Y-79876859D01*
X162207816Y-79873349D01*
X162341628Y-79665314D01*
X162392711Y-79551915D01*
X162403506Y-79527950D01*
X162449721Y-79474055D01*
X162518388Y-79453700D01*
X163029620Y-79453700D01*
X163097741Y-79473702D01*
X163118715Y-79490605D01*
X163681779Y-80053669D01*
X163715805Y-80115981D01*
X163710740Y-80186796D01*
X163668193Y-80243632D01*
X163601673Y-80268443D01*
X163554271Y-80262766D01*
X163387803Y-80209480D01*
X163324589Y-80189245D01*
X163190935Y-80167478D01*
X163085063Y-80150236D01*
X163085062Y-80150236D01*
X163080451Y-80149485D01*
X162956784Y-80147866D01*
X162837795Y-80146308D01*
X162837792Y-80146308D01*
X162833118Y-80146247D01*
X162735645Y-80159513D01*
X162592663Y-80178971D01*
X162592656Y-80178972D01*
X162588023Y-80179603D01*
X162583533Y-80180912D01*
X162583527Y-80180913D01*
X162522806Y-80198612D01*
X162350551Y-80248820D01*
X162346304Y-80250778D01*
X162346301Y-80250779D01*
X162262282Y-80289512D01*
X162125918Y-80352377D01*
X162122009Y-80354940D01*
X161922969Y-80485436D01*
X161922965Y-80485439D01*
X161919059Y-80488000D01*
X161915576Y-80491109D01*
X161915573Y-80491111D01*
X161894498Y-80509921D01*
X161734518Y-80652708D01*
X161576350Y-80842885D01*
X161448030Y-81054351D01*
X161446221Y-81058665D01*
X161446220Y-81058667D01*
X161363365Y-81256254D01*
X161352375Y-81282461D01*
X161291488Y-81522204D01*
X161266706Y-81768314D01*
X161266930Y-81772981D01*
X161266930Y-81772986D01*
X161271911Y-81876679D01*
X161278573Y-82015384D01*
X161326830Y-82257985D01*
X161410415Y-82490789D01*
X161527493Y-82708681D01*
X161675491Y-82906875D01*
X161678800Y-82910155D01*
X161678805Y-82910161D01*
X161847841Y-83077728D01*
X161851158Y-83081016D01*
X161854920Y-83083774D01*
X161854923Y-83083777D01*
X161965152Y-83164600D01*
X162050636Y-83227279D01*
X162054767Y-83229453D01*
X162054768Y-83229453D01*
X162265406Y-83340275D01*
X162265412Y-83340277D01*
X162269541Y-83342450D01*
X162273949Y-83343989D01*
X162273955Y-83343992D01*
X162498650Y-83422459D01*
X162503066Y-83424001D01*
X162507659Y-83424873D01*
X162741490Y-83469267D01*
X162741493Y-83469267D01*
X162746079Y-83470138D01*
X162863588Y-83474755D01*
X162988575Y-83479666D01*
X162988580Y-83479666D01*
X162993243Y-83479849D01*
X163105583Y-83467546D01*
X163175476Y-83480013D01*
X163227534Y-83528288D01*
X163245300Y-83592797D01*
X163245300Y-83875436D01*
X163225298Y-83943557D01*
X163171642Y-83990050D01*
X163101368Y-84000154D01*
X163047480Y-83978963D01*
X162856856Y-83846721D01*
X162856853Y-83846719D01*
X162853014Y-83844056D01*
X162848824Y-83841990D01*
X162848821Y-83841988D01*
X162635356Y-83736719D01*
X162635353Y-83736718D01*
X162631168Y-83734654D01*
X162587823Y-83720779D01*
X162400034Y-83660668D01*
X162400036Y-83660668D01*
X162395589Y-83659245D01*
X162261935Y-83637478D01*
X162156063Y-83620236D01*
X162156062Y-83620236D01*
X162151451Y-83619485D01*
X162027785Y-83617866D01*
X161908795Y-83616308D01*
X161908792Y-83616308D01*
X161904118Y-83616247D01*
X161806645Y-83629513D01*
X161663663Y-83648971D01*
X161663656Y-83648972D01*
X161659023Y-83649603D01*
X161654533Y-83650912D01*
X161654527Y-83650913D01*
X161553781Y-83680278D01*
X161421551Y-83718820D01*
X161417304Y-83720778D01*
X161417301Y-83720779D01*
X161390291Y-83733231D01*
X161196918Y-83822377D01*
X161193009Y-83824940D01*
X160993969Y-83955436D01*
X160993965Y-83955439D01*
X160990059Y-83958000D01*
X160986576Y-83961109D01*
X160986573Y-83961111D01*
X160911809Y-84027840D01*
X160805518Y-84122708D01*
X160647350Y-84312885D01*
X160519030Y-84524351D01*
X160517221Y-84528665D01*
X160517220Y-84528667D01*
X160504300Y-84559479D01*
X160423375Y-84752461D01*
X160362488Y-84992204D01*
X160337706Y-85238314D01*
X160337930Y-85242981D01*
X160337930Y-85242986D01*
X160338494Y-85254719D01*
X160349573Y-85485384D01*
X160397830Y-85727985D01*
X160481415Y-85960789D01*
X160598493Y-86178681D01*
X160746491Y-86376875D01*
X160749800Y-86380155D01*
X160749805Y-86380161D01*
X160880988Y-86510204D01*
X160922158Y-86551016D01*
X160925920Y-86553774D01*
X160925923Y-86553777D01*
X161036152Y-86634600D01*
X161121636Y-86697279D01*
X161340541Y-86812450D01*
X161344961Y-86813993D01*
X161345537Y-86814244D01*
X161400034Y-86859747D01*
X161421300Y-86929796D01*
X161421300Y-88379800D01*
X161401298Y-88447921D01*
X161347642Y-88494414D01*
X161295300Y-88505800D01*
X160496974Y-88505800D01*
X160440833Y-88514692D01*
X160414458Y-88518869D01*
X160414456Y-88518870D01*
X160404667Y-88520420D01*
X160293407Y-88577110D01*
X160205110Y-88665407D01*
X160148420Y-88776667D01*
X160146870Y-88786456D01*
X160146869Y-88786458D01*
X160144449Y-88801739D01*
X160114037Y-88865892D01*
X160053768Y-88903419D01*
X159982779Y-88902405D01*
X159923607Y-88863172D01*
X159895551Y-88801739D01*
X159893131Y-88786458D01*
X159893130Y-88786456D01*
X159891580Y-88776667D01*
X159834890Y-88665407D01*
X159746593Y-88577110D01*
X159635333Y-88520420D01*
X159625542Y-88518869D01*
X159625541Y-88518869D01*
X159570107Y-88510089D01*
X159505954Y-88479676D01*
X159468427Y-88419408D01*
X159469441Y-88348419D01*
X159508674Y-88289247D01*
X159523515Y-88278496D01*
X159730935Y-88150141D01*
X159919724Y-87990319D01*
X160000545Y-87898161D01*
X160079734Y-87807864D01*
X160079738Y-87807859D01*
X160082816Y-87804349D01*
X160216628Y-87596314D01*
X160318221Y-87370786D01*
X160385363Y-87132718D01*
X160401233Y-87007969D01*
X160416181Y-86890473D01*
X160416181Y-86890467D01*
X160416579Y-86887342D01*
X160418866Y-86800000D01*
X160405307Y-86617537D01*
X160400881Y-86557978D01*
X160400880Y-86557974D01*
X160400535Y-86553326D01*
X160399269Y-86547728D01*
X160346975Y-86316628D01*
X160345944Y-86312071D01*
X160334412Y-86282416D01*
X160257987Y-86085888D01*
X160257986Y-86085885D01*
X160256294Y-86081535D01*
X160252018Y-86074053D01*
X160135872Y-85870839D01*
X160135870Y-85870837D01*
X160133553Y-85866782D01*
X159980417Y-85672530D01*
X159800251Y-85503048D01*
X159768057Y-85480714D01*
X159600856Y-85364721D01*
X159600853Y-85364719D01*
X159597014Y-85362056D01*
X159592824Y-85359990D01*
X159592821Y-85359988D01*
X159379356Y-85254719D01*
X159379353Y-85254718D01*
X159375168Y-85252654D01*
X159331823Y-85238779D01*
X159144034Y-85178668D01*
X159144036Y-85178668D01*
X159139589Y-85177245D01*
X159005935Y-85155478D01*
X158900063Y-85138236D01*
X158900062Y-85138236D01*
X158895451Y-85137485D01*
X158771784Y-85135866D01*
X158652795Y-85134308D01*
X158652792Y-85134308D01*
X158648118Y-85134247D01*
X158550645Y-85147513D01*
X158407663Y-85166971D01*
X158407656Y-85166972D01*
X158403023Y-85167603D01*
X158398533Y-85168912D01*
X158398527Y-85168913D01*
X158297781Y-85198278D01*
X158165551Y-85236820D01*
X158161304Y-85238778D01*
X158161301Y-85238779D01*
X158134291Y-85251231D01*
X157940918Y-85340377D01*
X157937009Y-85342940D01*
X157737969Y-85473436D01*
X157737965Y-85473439D01*
X157734059Y-85476000D01*
X157730576Y-85479109D01*
X157730573Y-85479111D01*
X157573598Y-85619216D01*
X157549518Y-85640708D01*
X157391350Y-85830885D01*
X157263030Y-86042351D01*
X157261221Y-86046665D01*
X157261220Y-86046667D01*
X157205862Y-86178681D01*
X157167375Y-86270461D01*
X157106488Y-86510204D01*
X157081706Y-86756314D01*
X157081930Y-86760981D01*
X157081930Y-86760986D01*
X157086674Y-86859747D01*
X157093573Y-87003384D01*
X157141830Y-87245985D01*
X157225415Y-87478789D01*
X157342493Y-87696681D01*
X157490491Y-87894875D01*
X157493800Y-87898155D01*
X157493805Y-87898161D01*
X157662841Y-88065728D01*
X157666158Y-88069016D01*
X157669920Y-88071774D01*
X157669923Y-88071777D01*
X157780151Y-88152599D01*
X157865636Y-88215279D01*
X157869769Y-88217453D01*
X157869773Y-88217456D01*
X157975496Y-88273080D01*
X158026468Y-88322499D01*
X158042631Y-88391632D01*
X158018852Y-88458528D01*
X157962681Y-88501949D01*
X157936540Y-88509036D01*
X157894929Y-88515627D01*
X157874459Y-88518869D01*
X157874458Y-88518869D01*
X157864667Y-88520420D01*
X157753407Y-88577110D01*
X157665110Y-88665407D01*
X157608420Y-88776667D01*
X157606870Y-88786456D01*
X157606869Y-88786458D01*
X157604449Y-88801739D01*
X157574037Y-88865892D01*
X157513768Y-88903419D01*
X157442779Y-88902405D01*
X157383607Y-88863172D01*
X157355551Y-88801739D01*
X157353131Y-88786458D01*
X157353130Y-88786456D01*
X157351580Y-88776667D01*
X157294890Y-88665407D01*
X157206593Y-88577110D01*
X157095333Y-88520420D01*
X157085544Y-88518870D01*
X157085542Y-88518869D01*
X157059167Y-88514692D01*
X157003026Y-88505800D01*
X156204700Y-88505800D01*
X156136579Y-88485798D01*
X156090086Y-88432142D01*
X156078700Y-88379800D01*
X156078700Y-86925173D01*
X156098702Y-86857052D01*
X156154962Y-86809405D01*
X156260303Y-86764147D01*
X156260305Y-86764146D01*
X156264597Y-86762302D01*
X156369673Y-86697279D01*
X156470962Y-86634600D01*
X156470966Y-86634597D01*
X156474935Y-86632141D01*
X156663724Y-86472319D01*
X156744545Y-86380161D01*
X156823734Y-86289864D01*
X156823738Y-86289859D01*
X156826816Y-86286349D01*
X156829346Y-86282416D01*
X156958100Y-86082245D01*
X156958103Y-86082240D01*
X156960628Y-86078314D01*
X157062221Y-85852786D01*
X157129363Y-85614718D01*
X157139313Y-85536504D01*
X157160181Y-85372473D01*
X157160181Y-85372467D01*
X157160579Y-85369342D01*
X157161338Y-85340377D01*
X157162783Y-85285160D01*
X157162866Y-85282000D01*
X157160685Y-85252654D01*
X157144881Y-85039978D01*
X157144880Y-85039974D01*
X157144535Y-85035326D01*
X157135832Y-84996862D01*
X157090975Y-84798628D01*
X157089944Y-84794071D01*
X157088251Y-84789717D01*
X157001987Y-84567888D01*
X157001986Y-84567885D01*
X157000294Y-84563535D01*
X156997976Y-84559479D01*
X156879872Y-84352839D01*
X156879870Y-84352837D01*
X156877553Y-84348782D01*
X156724417Y-84154530D01*
X156544251Y-83985048D01*
X156522574Y-83970010D01*
X156344856Y-83846721D01*
X156344853Y-83846719D01*
X156341014Y-83844056D01*
X156336824Y-83841990D01*
X156336821Y-83841988D01*
X156123356Y-83736719D01*
X156123353Y-83736718D01*
X156119168Y-83734654D01*
X156075823Y-83720779D01*
X155888034Y-83660668D01*
X155888036Y-83660668D01*
X155883589Y-83659245D01*
X155749935Y-83637478D01*
X155644063Y-83620236D01*
X155644062Y-83620236D01*
X155639451Y-83619485D01*
X155515785Y-83617866D01*
X155396795Y-83616308D01*
X155396792Y-83616308D01*
X155392118Y-83616247D01*
X155294645Y-83629513D01*
X155151663Y-83648971D01*
X155151656Y-83648972D01*
X155147023Y-83649603D01*
X155142533Y-83650912D01*
X155142527Y-83650913D01*
X155041781Y-83680278D01*
X154909551Y-83718820D01*
X154905304Y-83720778D01*
X154905301Y-83720779D01*
X154878291Y-83733231D01*
X154684918Y-83822377D01*
X154681009Y-83824940D01*
X154481969Y-83955436D01*
X154481965Y-83955439D01*
X154478059Y-83958000D01*
X154474577Y-83961108D01*
X154474565Y-83961117D01*
X154464602Y-83970010D01*
X154400462Y-84000449D01*
X154330047Y-83991378D01*
X154275714Y-83945678D01*
X154254700Y-83876008D01*
X154254700Y-83596417D01*
X154274702Y-83528296D01*
X154328358Y-83481803D01*
X154385647Y-83470514D01*
X154618575Y-83479666D01*
X154618580Y-83479666D01*
X154623243Y-83479849D01*
X154701615Y-83471266D01*
X154864474Y-83453431D01*
X154864480Y-83453430D01*
X154869127Y-83452921D01*
X154878600Y-83450427D01*
X155103807Y-83391135D01*
X155103809Y-83391134D01*
X155108330Y-83389944D01*
X155200732Y-83350245D01*
X155331303Y-83294147D01*
X155331305Y-83294146D01*
X155335597Y-83292302D01*
X155440673Y-83227279D01*
X155541962Y-83164600D01*
X155541966Y-83164597D01*
X155545935Y-83162141D01*
X155734724Y-83002319D01*
X155815545Y-82910161D01*
X155894734Y-82819864D01*
X155894738Y-82819859D01*
X155897816Y-82816349D01*
X155935367Y-82757969D01*
X156029100Y-82612245D01*
X156029103Y-82612240D01*
X156031628Y-82608314D01*
X156133221Y-82382786D01*
X156200363Y-82144718D01*
X156216720Y-82016146D01*
X156231181Y-81902473D01*
X156231181Y-81902467D01*
X156231579Y-81899342D01*
X156232173Y-81876679D01*
X156232863Y-81850306D01*
X156233866Y-81812000D01*
X156229610Y-81754732D01*
X156215881Y-81569978D01*
X156215880Y-81569974D01*
X156215535Y-81565326D01*
X156207237Y-81528652D01*
X156161975Y-81328628D01*
X156160944Y-81324071D01*
X156159251Y-81319717D01*
X156072987Y-81097888D01*
X156072986Y-81097885D01*
X156071294Y-81093535D01*
X156051453Y-81058820D01*
X155950872Y-80882839D01*
X155950870Y-80882837D01*
X155948553Y-80878782D01*
X155795417Y-80684530D01*
X155615251Y-80515048D01*
X155606144Y-80508730D01*
X155415856Y-80376721D01*
X155415853Y-80376719D01*
X155412014Y-80374056D01*
X155407824Y-80371990D01*
X155407821Y-80371988D01*
X155194356Y-80266719D01*
X155194353Y-80266718D01*
X155190168Y-80264654D01*
X155173068Y-80259180D01*
X155017803Y-80209480D01*
X154954589Y-80189245D01*
X154820935Y-80167478D01*
X154715063Y-80150236D01*
X154715062Y-80150236D01*
X154710451Y-80149485D01*
X154586784Y-80147866D01*
X154467795Y-80146308D01*
X154467792Y-80146308D01*
X154463118Y-80146247D01*
X154365645Y-80159513D01*
X154222663Y-80178971D01*
X154222656Y-80178972D01*
X154218023Y-80179603D01*
X154213533Y-80180912D01*
X154213527Y-80180913D01*
X154152806Y-80198612D01*
X153980551Y-80248820D01*
X153976304Y-80250778D01*
X153976301Y-80250779D01*
X153967462Y-80254854D01*
X153958078Y-80259180D01*
X153887841Y-80269536D01*
X153823155Y-80240274D01*
X153784558Y-80180686D01*
X153784303Y-80109690D01*
X153816231Y-80055660D01*
X154381286Y-79490605D01*
X154443598Y-79456579D01*
X154470381Y-79453700D01*
X154977998Y-79453700D01*
X155046119Y-79473702D01*
G37*
%TD.AperFunction*%
%TD*%
%TA.AperFunction,Conductor*%
%TO.N,Net-(J1-PadMP)*%
G36*
X133532921Y-75344202D02*
G01*
X133579414Y-75397858D01*
X133590800Y-75450200D01*
X133590800Y-90919800D01*
X133570798Y-90987921D01*
X133517142Y-91034414D01*
X133464800Y-91045800D01*
X132120944Y-91045800D01*
X132101233Y-91044249D01*
X132080000Y-91040886D01*
X132080307Y-91038945D01*
X132024079Y-91022435D01*
X131977586Y-90968779D01*
X131966200Y-90916437D01*
X131966200Y-88868974D01*
X131951580Y-88776667D01*
X131894890Y-88665407D01*
X131806593Y-88577110D01*
X131695333Y-88520420D01*
X131685544Y-88518870D01*
X131685542Y-88518869D01*
X131659167Y-88514692D01*
X131603026Y-88505800D01*
X131520700Y-88505800D01*
X131452579Y-88485798D01*
X131406086Y-88432142D01*
X131394700Y-88379800D01*
X131394700Y-80691586D01*
X131395778Y-80675139D01*
X131398668Y-80653188D01*
X131399746Y-80645000D01*
X131379650Y-80492363D01*
X131320734Y-80350128D01*
X131250543Y-80258652D01*
X131250542Y-80258651D01*
X131227013Y-80227987D01*
X131218690Y-80221600D01*
X131202894Y-80209480D01*
X131190503Y-80198612D01*
X127446387Y-76454497D01*
X127435519Y-76442105D01*
X127422039Y-76424537D01*
X127417013Y-76417987D01*
X127339386Y-76358423D01*
X127294873Y-76324266D01*
X127253213Y-76307010D01*
X127152637Y-76265350D01*
X127144449Y-76264272D01*
X127038324Y-76250300D01*
X127038319Y-76250300D01*
X127000000Y-76245255D01*
X126991812Y-76246333D01*
X126969867Y-76249222D01*
X126953421Y-76250300D01*
X121331586Y-76250300D01*
X121315139Y-76249222D01*
X121293188Y-76246332D01*
X121285000Y-76245254D01*
X121276812Y-76246332D01*
X121259731Y-76248581D01*
X121132363Y-76265350D01*
X120990128Y-76324266D01*
X120867987Y-76417987D01*
X120862961Y-76424537D01*
X120862960Y-76424538D01*
X120849483Y-76442102D01*
X120838616Y-76454493D01*
X120269494Y-77023616D01*
X120257101Y-77034484D01*
X120232987Y-77052987D01*
X120173992Y-77129872D01*
X120139266Y-77175127D01*
X120139266Y-77175128D01*
X120133225Y-77189713D01*
X120133224Y-77189714D01*
X120085131Y-77305820D01*
X120080350Y-77317363D01*
X120066877Y-77419700D01*
X120060255Y-77470000D01*
X120061333Y-77478188D01*
X120064222Y-77500133D01*
X120065300Y-77516579D01*
X120065300Y-77771261D01*
X120045298Y-77839382D01*
X119991642Y-77885875D01*
X119921368Y-77895979D01*
X119856788Y-77866485D01*
X119840350Y-77849267D01*
X119778855Y-77771261D01*
X119755417Y-77741530D01*
X119575251Y-77572048D01*
X119571404Y-77569379D01*
X119375856Y-77433721D01*
X119375853Y-77433719D01*
X119372014Y-77431056D01*
X119367824Y-77428990D01*
X119367821Y-77428988D01*
X119154356Y-77323719D01*
X119154353Y-77323718D01*
X119150168Y-77321654D01*
X119106823Y-77307779D01*
X118919034Y-77247668D01*
X118919036Y-77247668D01*
X118914589Y-77246245D01*
X118780935Y-77224478D01*
X118675063Y-77207236D01*
X118675062Y-77207236D01*
X118670451Y-77206485D01*
X118546784Y-77204866D01*
X118427795Y-77203308D01*
X118427792Y-77203308D01*
X118423118Y-77203247D01*
X118325645Y-77216513D01*
X118182663Y-77235971D01*
X118182656Y-77235972D01*
X118178023Y-77236603D01*
X118173533Y-77237912D01*
X118173527Y-77237913D01*
X118072781Y-77267278D01*
X117940551Y-77305820D01*
X117936304Y-77307778D01*
X117936301Y-77307779D01*
X117915512Y-77317363D01*
X117715918Y-77409377D01*
X117712009Y-77411940D01*
X117512969Y-77542436D01*
X117512965Y-77542439D01*
X117509059Y-77545000D01*
X117324518Y-77709708D01*
X117166350Y-77899885D01*
X117038030Y-78111351D01*
X117036221Y-78115665D01*
X117036220Y-78115667D01*
X116997910Y-78207026D01*
X116953121Y-78262112D01*
X116881713Y-78284300D01*
X116122586Y-78284300D01*
X116106139Y-78283222D01*
X116084188Y-78280332D01*
X116076000Y-78279254D01*
X116067812Y-78280332D01*
X116050731Y-78282581D01*
X115923363Y-78299350D01*
X115781128Y-78358266D01*
X115658987Y-78451987D01*
X115653961Y-78458537D01*
X115653960Y-78458538D01*
X115640480Y-78476106D01*
X115629612Y-78488497D01*
X112649497Y-81468613D01*
X112637106Y-81479480D01*
X112612987Y-81497987D01*
X112607961Y-81504537D01*
X112561318Y-81565324D01*
X112561317Y-81565326D01*
X112552137Y-81577290D01*
X112519266Y-81620127D01*
X112519266Y-81620128D01*
X112460350Y-81762363D01*
X112445300Y-81876679D01*
X112440255Y-81915000D01*
X112441333Y-81923188D01*
X112444222Y-81945133D01*
X112445300Y-81961579D01*
X112445300Y-88379800D01*
X112425298Y-88447921D01*
X112371642Y-88494414D01*
X112319300Y-88505800D01*
X112236974Y-88505800D01*
X112180833Y-88514692D01*
X112154458Y-88518869D01*
X112154456Y-88518870D01*
X112144667Y-88520420D01*
X112033407Y-88577110D01*
X111945110Y-88665407D01*
X111940610Y-88674238D01*
X111940609Y-88674240D01*
X111937560Y-88680224D01*
X111888810Y-88731838D01*
X111819895Y-88748903D01*
X111752694Y-88726001D01*
X111707312Y-88667248D01*
X111705325Y-88661948D01*
X111696786Y-88646351D01*
X111620285Y-88544276D01*
X111607724Y-88531715D01*
X111505649Y-88455214D01*
X111490054Y-88446676D01*
X111369606Y-88401522D01*
X111354351Y-88397895D01*
X111303486Y-88392369D01*
X111296672Y-88392000D01*
X110762115Y-88392000D01*
X110746876Y-88396475D01*
X110745671Y-88397865D01*
X110744000Y-88405548D01*
X110744000Y-90425000D01*
X110723998Y-90493121D01*
X110670342Y-90539614D01*
X110618000Y-90551000D01*
X109238116Y-90551000D01*
X109222877Y-90555475D01*
X109221672Y-90556865D01*
X109220001Y-90564548D01*
X109220001Y-90919800D01*
X109199999Y-90987921D01*
X109146343Y-91034414D01*
X109094001Y-91045800D01*
X107835200Y-91045800D01*
X107767079Y-91025798D01*
X107720586Y-90972142D01*
X107709200Y-90919800D01*
X107709200Y-90024885D01*
X109220000Y-90024885D01*
X109224475Y-90040124D01*
X109225865Y-90041329D01*
X109233548Y-90043000D01*
X110217885Y-90043000D01*
X110233124Y-90038525D01*
X110234329Y-90037135D01*
X110236000Y-90029452D01*
X110236000Y-88410116D01*
X110231525Y-88394877D01*
X110230135Y-88393672D01*
X110222452Y-88392001D01*
X109683331Y-88392001D01*
X109676510Y-88392371D01*
X109625648Y-88397895D01*
X109610396Y-88401521D01*
X109489946Y-88446676D01*
X109474351Y-88455214D01*
X109372276Y-88531715D01*
X109359715Y-88544276D01*
X109283214Y-88646351D01*
X109274676Y-88661946D01*
X109229522Y-88782394D01*
X109225895Y-88797649D01*
X109220369Y-88848514D01*
X109220000Y-88855328D01*
X109220000Y-90024885D01*
X107709200Y-90024885D01*
X107709200Y-75450200D01*
X107729202Y-75382079D01*
X107782858Y-75335586D01*
X107835200Y-75324200D01*
X133464800Y-75324200D01*
X133532921Y-75344202D01*
G37*
%TD.AperFunction*%
%TA.AperFunction,Conductor*%
G36*
X116946119Y-79473702D02*
G01*
X116992612Y-79527358D01*
X116996579Y-79537106D01*
X117000415Y-79547789D01*
X117117493Y-79765681D01*
X117120288Y-79769425D01*
X117120290Y-79769427D01*
X117182368Y-79852559D01*
X117265491Y-79963875D01*
X117268800Y-79967155D01*
X117268805Y-79967161D01*
X117412584Y-80109690D01*
X117441158Y-80138016D01*
X117444920Y-80140774D01*
X117444923Y-80140777D01*
X117605682Y-80258650D01*
X117640636Y-80284279D01*
X117644767Y-80286453D01*
X117644768Y-80286453D01*
X117855406Y-80397275D01*
X117855412Y-80397277D01*
X117859541Y-80399450D01*
X117863949Y-80400989D01*
X117863955Y-80400992D01*
X118088650Y-80479459D01*
X118093066Y-80481001D01*
X118097659Y-80481873D01*
X118331490Y-80526267D01*
X118331493Y-80526267D01*
X118336079Y-80527138D01*
X118453588Y-80531755D01*
X118578575Y-80536666D01*
X118578580Y-80536666D01*
X118583243Y-80536849D01*
X118679869Y-80526267D01*
X118824474Y-80510431D01*
X118824480Y-80510430D01*
X118829127Y-80509921D01*
X118895817Y-80492363D01*
X119063807Y-80448135D01*
X119063809Y-80448134D01*
X119068330Y-80446944D01*
X119178875Y-80399450D01*
X119291303Y-80351147D01*
X119291305Y-80351146D01*
X119295597Y-80349302D01*
X119400673Y-80284279D01*
X119501962Y-80221600D01*
X119501966Y-80221597D01*
X119505935Y-80219141D01*
X119694724Y-80059319D01*
X119844569Y-79888455D01*
X119904522Y-79850428D01*
X119975517Y-79850850D01*
X120035014Y-79889589D01*
X120064122Y-79954344D01*
X120065300Y-79971533D01*
X120065300Y-80906278D01*
X120045298Y-80974399D01*
X119992051Y-81020704D01*
X119972192Y-81029859D01*
X119840918Y-81090377D01*
X119837009Y-81092940D01*
X119637969Y-81223436D01*
X119637965Y-81223439D01*
X119634059Y-81226000D01*
X119449518Y-81390708D01*
X119291350Y-81580885D01*
X119163030Y-81792351D01*
X119161221Y-81796665D01*
X119161220Y-81796667D01*
X119095527Y-81953327D01*
X119067375Y-82020461D01*
X119006488Y-82260204D01*
X118981706Y-82506314D01*
X118981930Y-82510981D01*
X118981930Y-82510986D01*
X118986605Y-82608314D01*
X118993573Y-82753384D01*
X119041830Y-82995985D01*
X119125415Y-83228789D01*
X119242493Y-83446681D01*
X119245288Y-83450425D01*
X119245290Y-83450427D01*
X119267383Y-83480013D01*
X119390491Y-83644875D01*
X119393800Y-83648155D01*
X119393805Y-83648161D01*
X119562841Y-83815728D01*
X119566158Y-83819016D01*
X119569920Y-83821774D01*
X119569923Y-83821777D01*
X119759960Y-83961117D01*
X119765636Y-83965279D01*
X119769767Y-83967453D01*
X119769768Y-83967453D01*
X119980406Y-84078275D01*
X119980412Y-84078277D01*
X119984541Y-84080450D01*
X119988949Y-84081989D01*
X119988955Y-84081992D01*
X120213650Y-84160459D01*
X120218066Y-84162001D01*
X120222659Y-84162873D01*
X120456490Y-84207267D01*
X120456493Y-84207267D01*
X120461079Y-84208138D01*
X120578588Y-84212755D01*
X120703575Y-84217666D01*
X120703580Y-84217666D01*
X120708243Y-84217849D01*
X120804869Y-84207267D01*
X120949474Y-84191431D01*
X120949480Y-84191430D01*
X120954127Y-84190921D01*
X121069830Y-84160459D01*
X121188807Y-84129135D01*
X121188809Y-84129134D01*
X121193330Y-84127944D01*
X121205517Y-84122708D01*
X121416303Y-84032147D01*
X121416305Y-84032146D01*
X121420597Y-84030302D01*
X121525673Y-83965279D01*
X121626962Y-83902600D01*
X121626966Y-83902597D01*
X121630935Y-83900141D01*
X121819724Y-83740319D01*
X121841119Y-83715922D01*
X121979734Y-83557864D01*
X121979738Y-83557859D01*
X121982816Y-83554349D01*
X122029479Y-83481803D01*
X122114100Y-83350245D01*
X122114103Y-83350240D01*
X122116628Y-83346314D01*
X122218221Y-83120786D01*
X122285363Y-82882718D01*
X122301233Y-82757969D01*
X122316181Y-82640473D01*
X122316181Y-82640467D01*
X122316579Y-82637342D01*
X122318866Y-82550000D01*
X122315274Y-82501660D01*
X122300881Y-82307978D01*
X122300880Y-82307974D01*
X122300535Y-82303326D01*
X122291832Y-82264862D01*
X122246975Y-82066628D01*
X122245944Y-82062071D01*
X122244251Y-82057717D01*
X122157987Y-81835888D01*
X122157986Y-81835885D01*
X122156294Y-81831535D01*
X122143329Y-81808851D01*
X122035872Y-81620839D01*
X122035870Y-81620837D01*
X122033553Y-81616782D01*
X121880417Y-81422530D01*
X121700251Y-81253048D01*
X121696404Y-81250379D01*
X121500856Y-81114721D01*
X121500853Y-81114719D01*
X121497014Y-81112056D01*
X121492824Y-81109990D01*
X121492821Y-81109988D01*
X121388751Y-81058667D01*
X121304971Y-81017351D01*
X121252723Y-80969284D01*
X121234700Y-80904346D01*
X121234700Y-79967173D01*
X121254702Y-79899052D01*
X121308358Y-79852559D01*
X121378632Y-79842455D01*
X121443212Y-79871949D01*
X121461658Y-79891784D01*
X121512699Y-79960137D01*
X121512704Y-79960143D01*
X121515491Y-79963875D01*
X121518800Y-79967155D01*
X121518805Y-79967161D01*
X121662584Y-80109690D01*
X121691158Y-80138016D01*
X121694920Y-80140774D01*
X121694923Y-80140777D01*
X121855682Y-80258650D01*
X121890636Y-80284279D01*
X121894767Y-80286453D01*
X121894768Y-80286453D01*
X122105406Y-80397275D01*
X122105412Y-80397277D01*
X122109541Y-80399450D01*
X122113949Y-80400989D01*
X122113955Y-80400992D01*
X122338650Y-80479459D01*
X122343066Y-80481001D01*
X122347659Y-80481873D01*
X122581490Y-80526267D01*
X122581493Y-80526267D01*
X122586079Y-80527138D01*
X122703588Y-80531755D01*
X122828575Y-80536666D01*
X122828580Y-80536666D01*
X122833243Y-80536849D01*
X122929869Y-80526267D01*
X123074474Y-80510431D01*
X123074480Y-80510430D01*
X123079127Y-80509921D01*
X123145817Y-80492363D01*
X123313807Y-80448135D01*
X123313809Y-80448134D01*
X123318330Y-80446944D01*
X123428875Y-80399450D01*
X123541303Y-80351147D01*
X123541305Y-80351146D01*
X123545597Y-80349302D01*
X123650673Y-80284279D01*
X123751962Y-80221600D01*
X123751966Y-80221597D01*
X123755935Y-80219141D01*
X123944724Y-80059319D01*
X124025545Y-79967161D01*
X124104734Y-79876864D01*
X124104738Y-79876859D01*
X124107816Y-79873349D01*
X124241628Y-79665314D01*
X124292711Y-79551915D01*
X124303506Y-79527950D01*
X124349721Y-79474055D01*
X124418388Y-79453700D01*
X124929620Y-79453700D01*
X124997741Y-79473702D01*
X125018715Y-79490605D01*
X125581779Y-80053669D01*
X125615805Y-80115981D01*
X125610740Y-80186796D01*
X125568193Y-80243632D01*
X125501673Y-80268443D01*
X125454271Y-80262766D01*
X125287803Y-80209480D01*
X125224589Y-80189245D01*
X125090935Y-80167478D01*
X124985063Y-80150236D01*
X124985062Y-80150236D01*
X124980451Y-80149485D01*
X124856784Y-80147866D01*
X124737795Y-80146308D01*
X124737792Y-80146308D01*
X124733118Y-80146247D01*
X124635645Y-80159513D01*
X124492663Y-80178971D01*
X124492656Y-80178972D01*
X124488023Y-80179603D01*
X124483533Y-80180912D01*
X124483527Y-80180913D01*
X124422806Y-80198612D01*
X124250551Y-80248820D01*
X124246304Y-80250778D01*
X124246301Y-80250779D01*
X124162282Y-80289512D01*
X124025918Y-80352377D01*
X124022009Y-80354940D01*
X123822969Y-80485436D01*
X123822965Y-80485439D01*
X123819059Y-80488000D01*
X123815576Y-80491109D01*
X123815573Y-80491111D01*
X123794498Y-80509921D01*
X123634518Y-80652708D01*
X123476350Y-80842885D01*
X123348030Y-81054351D01*
X123346221Y-81058665D01*
X123346220Y-81058667D01*
X123263365Y-81256254D01*
X123252375Y-81282461D01*
X123191488Y-81522204D01*
X123166706Y-81768314D01*
X123166930Y-81772981D01*
X123166930Y-81772986D01*
X123171911Y-81876679D01*
X123178573Y-82015384D01*
X123226830Y-82257985D01*
X123310415Y-82490789D01*
X123427493Y-82708681D01*
X123575491Y-82906875D01*
X123578800Y-82910155D01*
X123578805Y-82910161D01*
X123747841Y-83077728D01*
X123751158Y-83081016D01*
X123754920Y-83083774D01*
X123754923Y-83083777D01*
X123865152Y-83164600D01*
X123950636Y-83227279D01*
X123954767Y-83229453D01*
X123954768Y-83229453D01*
X124165406Y-83340275D01*
X124165412Y-83340277D01*
X124169541Y-83342450D01*
X124173949Y-83343989D01*
X124173955Y-83343992D01*
X124398650Y-83422459D01*
X124403066Y-83424001D01*
X124407659Y-83424873D01*
X124641490Y-83469267D01*
X124641493Y-83469267D01*
X124646079Y-83470138D01*
X124763588Y-83474755D01*
X124888575Y-83479666D01*
X124888580Y-83479666D01*
X124893243Y-83479849D01*
X125005583Y-83467546D01*
X125075476Y-83480013D01*
X125127534Y-83528288D01*
X125145300Y-83592797D01*
X125145300Y-83875436D01*
X125125298Y-83943557D01*
X125071642Y-83990050D01*
X125001368Y-84000154D01*
X124947480Y-83978963D01*
X124756856Y-83846721D01*
X124756853Y-83846719D01*
X124753014Y-83844056D01*
X124748824Y-83841990D01*
X124748821Y-83841988D01*
X124535356Y-83736719D01*
X124535353Y-83736718D01*
X124531168Y-83734654D01*
X124487823Y-83720779D01*
X124300034Y-83660668D01*
X124300036Y-83660668D01*
X124295589Y-83659245D01*
X124161935Y-83637478D01*
X124056063Y-83620236D01*
X124056062Y-83620236D01*
X124051451Y-83619485D01*
X123927785Y-83617866D01*
X123808795Y-83616308D01*
X123808792Y-83616308D01*
X123804118Y-83616247D01*
X123706645Y-83629513D01*
X123563663Y-83648971D01*
X123563656Y-83648972D01*
X123559023Y-83649603D01*
X123554533Y-83650912D01*
X123554527Y-83650913D01*
X123453781Y-83680278D01*
X123321551Y-83718820D01*
X123317304Y-83720778D01*
X123317301Y-83720779D01*
X123290291Y-83733231D01*
X123096918Y-83822377D01*
X123093009Y-83824940D01*
X122893969Y-83955436D01*
X122893965Y-83955439D01*
X122890059Y-83958000D01*
X122886576Y-83961109D01*
X122886573Y-83961111D01*
X122811809Y-84027840D01*
X122705518Y-84122708D01*
X122547350Y-84312885D01*
X122419030Y-84524351D01*
X122417221Y-84528665D01*
X122417220Y-84528667D01*
X122404300Y-84559479D01*
X122323375Y-84752461D01*
X122262488Y-84992204D01*
X122237706Y-85238314D01*
X122237930Y-85242981D01*
X122237930Y-85242986D01*
X122238494Y-85254719D01*
X122249573Y-85485384D01*
X122297830Y-85727985D01*
X122381415Y-85960789D01*
X122498493Y-86178681D01*
X122646491Y-86376875D01*
X122649800Y-86380155D01*
X122649805Y-86380161D01*
X122780988Y-86510204D01*
X122822158Y-86551016D01*
X122825920Y-86553774D01*
X122825923Y-86553777D01*
X122936152Y-86634600D01*
X123021636Y-86697279D01*
X123240541Y-86812450D01*
X123244961Y-86813993D01*
X123245537Y-86814244D01*
X123300034Y-86859747D01*
X123321300Y-86929796D01*
X123321300Y-88379800D01*
X123301298Y-88447921D01*
X123247642Y-88494414D01*
X123195300Y-88505800D01*
X122396974Y-88505800D01*
X122340833Y-88514692D01*
X122314458Y-88518869D01*
X122314456Y-88518870D01*
X122304667Y-88520420D01*
X122193407Y-88577110D01*
X122105110Y-88665407D01*
X122048420Y-88776667D01*
X122046870Y-88786456D01*
X122046869Y-88786458D01*
X122044449Y-88801739D01*
X122014037Y-88865892D01*
X121953768Y-88903419D01*
X121882779Y-88902405D01*
X121823607Y-88863172D01*
X121795551Y-88801739D01*
X121793131Y-88786458D01*
X121793130Y-88786456D01*
X121791580Y-88776667D01*
X121734890Y-88665407D01*
X121646593Y-88577110D01*
X121535333Y-88520420D01*
X121525542Y-88518869D01*
X121525541Y-88518869D01*
X121470107Y-88510089D01*
X121405954Y-88479676D01*
X121368427Y-88419408D01*
X121369441Y-88348419D01*
X121408674Y-88289247D01*
X121423515Y-88278496D01*
X121630935Y-88150141D01*
X121819724Y-87990319D01*
X121900545Y-87898161D01*
X121979734Y-87807864D01*
X121979738Y-87807859D01*
X121982816Y-87804349D01*
X122116628Y-87596314D01*
X122218221Y-87370786D01*
X122285363Y-87132718D01*
X122301233Y-87007969D01*
X122316181Y-86890473D01*
X122316181Y-86890467D01*
X122316579Y-86887342D01*
X122318866Y-86800000D01*
X122305307Y-86617537D01*
X122300881Y-86557978D01*
X122300880Y-86557974D01*
X122300535Y-86553326D01*
X122299269Y-86547728D01*
X122246975Y-86316628D01*
X122245944Y-86312071D01*
X122234412Y-86282416D01*
X122157987Y-86085888D01*
X122157986Y-86085885D01*
X122156294Y-86081535D01*
X122152018Y-86074053D01*
X122035872Y-85870839D01*
X122035870Y-85870837D01*
X122033553Y-85866782D01*
X121880417Y-85672530D01*
X121700251Y-85503048D01*
X121668057Y-85480714D01*
X121500856Y-85364721D01*
X121500853Y-85364719D01*
X121497014Y-85362056D01*
X121492824Y-85359990D01*
X121492821Y-85359988D01*
X121279356Y-85254719D01*
X121279353Y-85254718D01*
X121275168Y-85252654D01*
X121231823Y-85238779D01*
X121044034Y-85178668D01*
X121044036Y-85178668D01*
X121039589Y-85177245D01*
X120905935Y-85155478D01*
X120800063Y-85138236D01*
X120800062Y-85138236D01*
X120795451Y-85137485D01*
X120671784Y-85135866D01*
X120552795Y-85134308D01*
X120552792Y-85134308D01*
X120548118Y-85134247D01*
X120450645Y-85147513D01*
X120307663Y-85166971D01*
X120307656Y-85166972D01*
X120303023Y-85167603D01*
X120298533Y-85168912D01*
X120298527Y-85168913D01*
X120197781Y-85198278D01*
X120065551Y-85236820D01*
X120061304Y-85238778D01*
X120061301Y-85238779D01*
X120034291Y-85251231D01*
X119840918Y-85340377D01*
X119837009Y-85342940D01*
X119637969Y-85473436D01*
X119637965Y-85473439D01*
X119634059Y-85476000D01*
X119630576Y-85479109D01*
X119630573Y-85479111D01*
X119473598Y-85619216D01*
X119449518Y-85640708D01*
X119291350Y-85830885D01*
X119163030Y-86042351D01*
X119161221Y-86046665D01*
X119161220Y-86046667D01*
X119105862Y-86178681D01*
X119067375Y-86270461D01*
X119006488Y-86510204D01*
X118981706Y-86756314D01*
X118981930Y-86760981D01*
X118981930Y-86760986D01*
X118986674Y-86859747D01*
X118993573Y-87003384D01*
X119041830Y-87245985D01*
X119125415Y-87478789D01*
X119242493Y-87696681D01*
X119390491Y-87894875D01*
X119393800Y-87898155D01*
X119393805Y-87898161D01*
X119562841Y-88065728D01*
X119566158Y-88069016D01*
X119569920Y-88071774D01*
X119569923Y-88071777D01*
X119680151Y-88152599D01*
X119765636Y-88215279D01*
X119769769Y-88217453D01*
X119769773Y-88217456D01*
X119875496Y-88273080D01*
X119926468Y-88322499D01*
X119942631Y-88391632D01*
X119918852Y-88458528D01*
X119862681Y-88501949D01*
X119836540Y-88509036D01*
X119794929Y-88515627D01*
X119774459Y-88518869D01*
X119774458Y-88518869D01*
X119764667Y-88520420D01*
X119653407Y-88577110D01*
X119565110Y-88665407D01*
X119508420Y-88776667D01*
X119506870Y-88786456D01*
X119506869Y-88786458D01*
X119504449Y-88801739D01*
X119474037Y-88865892D01*
X119413768Y-88903419D01*
X119342779Y-88902405D01*
X119283607Y-88863172D01*
X119255551Y-88801739D01*
X119253131Y-88786458D01*
X119253130Y-88786456D01*
X119251580Y-88776667D01*
X119194890Y-88665407D01*
X119106593Y-88577110D01*
X118995333Y-88520420D01*
X118985544Y-88518870D01*
X118985542Y-88518869D01*
X118959167Y-88514692D01*
X118903026Y-88505800D01*
X118104700Y-88505800D01*
X118036579Y-88485798D01*
X117990086Y-88432142D01*
X117978700Y-88379800D01*
X117978700Y-86925173D01*
X117998702Y-86857052D01*
X118054962Y-86809405D01*
X118160303Y-86764147D01*
X118160305Y-86764146D01*
X118164597Y-86762302D01*
X118269673Y-86697279D01*
X118370962Y-86634600D01*
X118370966Y-86634597D01*
X118374935Y-86632141D01*
X118563724Y-86472319D01*
X118644545Y-86380161D01*
X118723734Y-86289864D01*
X118723738Y-86289859D01*
X118726816Y-86286349D01*
X118729346Y-86282416D01*
X118858100Y-86082245D01*
X118858103Y-86082240D01*
X118860628Y-86078314D01*
X118962221Y-85852786D01*
X119029363Y-85614718D01*
X119039313Y-85536504D01*
X119060181Y-85372473D01*
X119060181Y-85372467D01*
X119060579Y-85369342D01*
X119061338Y-85340377D01*
X119062783Y-85285160D01*
X119062866Y-85282000D01*
X119060685Y-85252654D01*
X119044881Y-85039978D01*
X119044880Y-85039974D01*
X119044535Y-85035326D01*
X119035832Y-84996862D01*
X118990975Y-84798628D01*
X118989944Y-84794071D01*
X118988251Y-84789717D01*
X118901987Y-84567888D01*
X118901986Y-84567885D01*
X118900294Y-84563535D01*
X118897976Y-84559479D01*
X118779872Y-84352839D01*
X118779870Y-84352837D01*
X118777553Y-84348782D01*
X118624417Y-84154530D01*
X118444251Y-83985048D01*
X118422574Y-83970010D01*
X118244856Y-83846721D01*
X118244853Y-83846719D01*
X118241014Y-83844056D01*
X118236824Y-83841990D01*
X118236821Y-83841988D01*
X118023356Y-83736719D01*
X118023353Y-83736718D01*
X118019168Y-83734654D01*
X117975823Y-83720779D01*
X117788034Y-83660668D01*
X117788036Y-83660668D01*
X117783589Y-83659245D01*
X117649935Y-83637478D01*
X117544063Y-83620236D01*
X117544062Y-83620236D01*
X117539451Y-83619485D01*
X117415785Y-83617866D01*
X117296795Y-83616308D01*
X117296792Y-83616308D01*
X117292118Y-83616247D01*
X117194645Y-83629513D01*
X117051663Y-83648971D01*
X117051656Y-83648972D01*
X117047023Y-83649603D01*
X117042533Y-83650912D01*
X117042527Y-83650913D01*
X116941781Y-83680278D01*
X116809551Y-83718820D01*
X116805304Y-83720778D01*
X116805301Y-83720779D01*
X116778291Y-83733231D01*
X116584918Y-83822377D01*
X116581009Y-83824940D01*
X116381969Y-83955436D01*
X116381965Y-83955439D01*
X116378059Y-83958000D01*
X116374577Y-83961108D01*
X116374565Y-83961117D01*
X116364602Y-83970010D01*
X116300462Y-84000449D01*
X116230047Y-83991378D01*
X116175714Y-83945678D01*
X116154700Y-83876008D01*
X116154700Y-83596417D01*
X116174702Y-83528296D01*
X116228358Y-83481803D01*
X116285647Y-83470514D01*
X116518575Y-83479666D01*
X116518580Y-83479666D01*
X116523243Y-83479849D01*
X116601615Y-83471266D01*
X116764474Y-83453431D01*
X116764480Y-83453430D01*
X116769127Y-83452921D01*
X116778600Y-83450427D01*
X117003807Y-83391135D01*
X117003809Y-83391134D01*
X117008330Y-83389944D01*
X117100732Y-83350245D01*
X117231303Y-83294147D01*
X117231305Y-83294146D01*
X117235597Y-83292302D01*
X117340673Y-83227279D01*
X117441962Y-83164600D01*
X117441966Y-83164597D01*
X117445935Y-83162141D01*
X117634724Y-83002319D01*
X117715545Y-82910161D01*
X117794734Y-82819864D01*
X117794738Y-82819859D01*
X117797816Y-82816349D01*
X117835367Y-82757969D01*
X117929100Y-82612245D01*
X117929103Y-82612240D01*
X117931628Y-82608314D01*
X118033221Y-82382786D01*
X118100363Y-82144718D01*
X118116720Y-82016146D01*
X118131181Y-81902473D01*
X118131181Y-81902467D01*
X118131579Y-81899342D01*
X118132173Y-81876679D01*
X118132863Y-81850306D01*
X118133866Y-81812000D01*
X118129610Y-81754732D01*
X118115881Y-81569978D01*
X118115880Y-81569974D01*
X118115535Y-81565326D01*
X118107237Y-81528652D01*
X118061975Y-81328628D01*
X118060944Y-81324071D01*
X118059251Y-81319717D01*
X117972987Y-81097888D01*
X117972986Y-81097885D01*
X117971294Y-81093535D01*
X117951453Y-81058820D01*
X117850872Y-80882839D01*
X117850870Y-80882837D01*
X117848553Y-80878782D01*
X117695417Y-80684530D01*
X117515251Y-80515048D01*
X117506144Y-80508730D01*
X117315856Y-80376721D01*
X117315853Y-80376719D01*
X117312014Y-80374056D01*
X117307824Y-80371990D01*
X117307821Y-80371988D01*
X117094356Y-80266719D01*
X117094353Y-80266718D01*
X117090168Y-80264654D01*
X117073068Y-80259180D01*
X116917803Y-80209480D01*
X116854589Y-80189245D01*
X116720935Y-80167478D01*
X116615063Y-80150236D01*
X116615062Y-80150236D01*
X116610451Y-80149485D01*
X116486784Y-80147866D01*
X116367795Y-80146308D01*
X116367792Y-80146308D01*
X116363118Y-80146247D01*
X116265645Y-80159513D01*
X116122663Y-80178971D01*
X116122656Y-80178972D01*
X116118023Y-80179603D01*
X116113533Y-80180912D01*
X116113527Y-80180913D01*
X116052806Y-80198612D01*
X115880551Y-80248820D01*
X115876304Y-80250778D01*
X115876301Y-80250779D01*
X115867462Y-80254854D01*
X115858078Y-80259180D01*
X115787841Y-80269536D01*
X115723155Y-80240274D01*
X115684558Y-80180686D01*
X115684303Y-80109690D01*
X115716231Y-80055660D01*
X116281286Y-79490605D01*
X116343598Y-79456579D01*
X116370381Y-79453700D01*
X116877998Y-79453700D01*
X116946119Y-79473702D01*
G37*
%TD.AperFunction*%
%TA.AperFunction,Conductor*%
G36*
X126539895Y-81028930D02*
G01*
X126586598Y-81058489D01*
X127648395Y-82120286D01*
X127682421Y-82182598D01*
X127685300Y-82209381D01*
X127685300Y-88379800D01*
X127665298Y-88447921D01*
X127611642Y-88494414D01*
X127559300Y-88505800D01*
X127476974Y-88505800D01*
X127420833Y-88514692D01*
X127394458Y-88518869D01*
X127394456Y-88518870D01*
X127384667Y-88520420D01*
X127273407Y-88577110D01*
X127185110Y-88665407D01*
X127128420Y-88776667D01*
X127126870Y-88786456D01*
X127126869Y-88786458D01*
X127124449Y-88801739D01*
X127094037Y-88865892D01*
X127033768Y-88903419D01*
X126962779Y-88902405D01*
X126903607Y-88863172D01*
X126875551Y-88801739D01*
X126873131Y-88786458D01*
X126873130Y-88786456D01*
X126871580Y-88776667D01*
X126814890Y-88665407D01*
X126726593Y-88577110D01*
X126615333Y-88520420D01*
X126605544Y-88518870D01*
X126605542Y-88518869D01*
X126579167Y-88514692D01*
X126523026Y-88505800D01*
X126440700Y-88505800D01*
X126372579Y-88485798D01*
X126326086Y-88432142D01*
X126314700Y-88379800D01*
X126314700Y-82606365D01*
X126325818Y-82554614D01*
X126326473Y-82553160D01*
X126403221Y-82382786D01*
X126470363Y-82144718D01*
X126486720Y-82016146D01*
X126501181Y-81902473D01*
X126501181Y-81902467D01*
X126501579Y-81899342D01*
X126502173Y-81876679D01*
X126502863Y-81850306D01*
X126503866Y-81812000D01*
X126499610Y-81754732D01*
X126485881Y-81569978D01*
X126485880Y-81569974D01*
X126485535Y-81565326D01*
X126477237Y-81528652D01*
X126431975Y-81328628D01*
X126430944Y-81324071D01*
X126429251Y-81319717D01*
X126380072Y-81193252D01*
X126374025Y-81122513D01*
X126407182Y-81059735D01*
X126469016Y-81024848D01*
X126539895Y-81028930D01*
G37*
%TD.AperFunction*%
%TA.AperFunction,Conductor*%
G36*
X114846199Y-81029859D02*
G01*
X114903034Y-81072406D01*
X114927845Y-81138926D01*
X114918363Y-81196639D01*
X114882375Y-81282461D01*
X114821488Y-81522204D01*
X114796706Y-81768314D01*
X114796930Y-81772981D01*
X114796930Y-81772986D01*
X114801911Y-81876679D01*
X114808573Y-82015384D01*
X114856830Y-82257985D01*
X114940415Y-82490789D01*
X114942632Y-82494915D01*
X114970292Y-82546393D01*
X114985300Y-82606031D01*
X114985300Y-88379800D01*
X114965298Y-88447921D01*
X114911642Y-88494414D01*
X114859300Y-88505800D01*
X114776974Y-88505800D01*
X114720833Y-88514692D01*
X114694458Y-88518869D01*
X114694456Y-88518870D01*
X114684667Y-88520420D01*
X114573407Y-88577110D01*
X114485110Y-88665407D01*
X114428420Y-88776667D01*
X114426870Y-88786456D01*
X114426869Y-88786458D01*
X114424449Y-88801739D01*
X114394037Y-88865892D01*
X114333768Y-88903419D01*
X114262779Y-88902405D01*
X114203607Y-88863172D01*
X114175551Y-88801739D01*
X114173131Y-88786458D01*
X114173130Y-88786456D01*
X114171580Y-88776667D01*
X114114890Y-88665407D01*
X114026593Y-88577110D01*
X113915333Y-88520420D01*
X113905544Y-88518870D01*
X113905542Y-88518869D01*
X113879167Y-88514692D01*
X113823026Y-88505800D01*
X113740700Y-88505800D01*
X113672579Y-88485798D01*
X113626086Y-88432142D01*
X113614700Y-88379800D01*
X113614700Y-82209380D01*
X113634702Y-82141259D01*
X113651605Y-82120285D01*
X114713071Y-81058820D01*
X114775383Y-81024794D01*
X114846199Y-81029859D01*
G37*
%TD.AperFunction*%
%TA.AperFunction,Conductor*%
G36*
X126773741Y-77439702D02*
G01*
X126794715Y-77456605D01*
X130188395Y-80850286D01*
X130222421Y-80912598D01*
X130225300Y-80939381D01*
X130225300Y-88379800D01*
X130205298Y-88447921D01*
X130151642Y-88494414D01*
X130099300Y-88505800D01*
X130016974Y-88505800D01*
X129960833Y-88514692D01*
X129934458Y-88518869D01*
X129934456Y-88518870D01*
X129924667Y-88520420D01*
X129813407Y-88577110D01*
X129725110Y-88665407D01*
X129668420Y-88776667D01*
X129666870Y-88786456D01*
X129666869Y-88786458D01*
X129664449Y-88801739D01*
X129634037Y-88865892D01*
X129573768Y-88903419D01*
X129502779Y-88902405D01*
X129443607Y-88863172D01*
X129415551Y-88801739D01*
X129413131Y-88786458D01*
X129413130Y-88786456D01*
X129411580Y-88776667D01*
X129354890Y-88665407D01*
X129266593Y-88577110D01*
X129155333Y-88520420D01*
X129145544Y-88518870D01*
X129145542Y-88518869D01*
X129119167Y-88514692D01*
X129063026Y-88505800D01*
X128980700Y-88505800D01*
X128912579Y-88485798D01*
X128866086Y-88432142D01*
X128854700Y-88379800D01*
X128854700Y-81961586D01*
X128855778Y-81945139D01*
X128858668Y-81923188D01*
X128859746Y-81915000D01*
X128839650Y-81762363D01*
X128780734Y-81620128D01*
X128710543Y-81528652D01*
X128710542Y-81528651D01*
X128687013Y-81497987D01*
X128662893Y-81479479D01*
X128650503Y-81468612D01*
X125670387Y-78488497D01*
X125659519Y-78476105D01*
X125646039Y-78458537D01*
X125641013Y-78451987D01*
X125563386Y-78392423D01*
X125518873Y-78358266D01*
X125473473Y-78339461D01*
X125376637Y-78299350D01*
X125317365Y-78291547D01*
X125262324Y-78284300D01*
X125262319Y-78284300D01*
X125224000Y-78279255D01*
X125215812Y-78280333D01*
X125193867Y-78283222D01*
X125177421Y-78284300D01*
X124419505Y-78284300D01*
X124351384Y-78264298D01*
X124304891Y-78210642D01*
X124302072Y-78203966D01*
X124282989Y-78154892D01*
X124282985Y-78154884D01*
X124281294Y-78150535D01*
X124278976Y-78146479D01*
X124160872Y-77939839D01*
X124160870Y-77939837D01*
X124158553Y-77935782D01*
X124005417Y-77741530D01*
X123894801Y-77637474D01*
X123858890Y-77576231D01*
X123861789Y-77505294D01*
X123902580Y-77447185D01*
X123968312Y-77420354D01*
X123981135Y-77419700D01*
X126705620Y-77419700D01*
X126773741Y-77439702D01*
G37*
%TD.AperFunction*%
%TD*%
M02*
