%TF.GenerationSoftware,KiCad,Pcbnew,6.0.11-2627ca5db0~126~ubuntu22.04.1*%
%TF.CreationDate,2023-03-29T10:33:59-07:00*%
%TF.ProjectId,GX16-8P-Horizontal Slot Test,47583136-2d38-4502-9d48-6f72697a6f6e,rev?*%
%TF.SameCoordinates,Original*%
%TF.FileFunction,Legend,Top*%
%TF.FilePolarity,Positive*%
%FSLAX46Y46*%
G04 Gerber Fmt 4.6, Leading zero omitted, Abs format (unit mm)*
G04 Created by KiCad (PCBNEW 6.0.11-2627ca5db0~126~ubuntu22.04.1) date 2023-03-29 10:33:59*
%MOMM*%
%LPD*%
G01*
G04 APERTURE LIST*
%ADD10C,0.150000*%
%ADD11C,0.120000*%
%ADD12C,2.540000*%
%ADD13R,2.540000X2.540000*%
%ADD14R,1.524000X2.794000*%
G04 APERTURE END LIST*
D10*
X145415000Y-60325000D02*
X172085000Y-60325000D01*
X107315000Y-49530000D02*
X133985000Y-49530000D01*
X107315000Y-38735000D02*
X133985000Y-38735000D01*
X107315000Y-60325000D02*
X133985000Y-60325000D01*
X145415000Y-38735000D02*
X172085000Y-38735000D01*
X145415000Y-49530000D02*
X172085000Y-49530000D01*
X142327380Y-51315714D02*
X142327380Y-51125238D01*
X142375000Y-51030000D01*
X142470238Y-50934761D01*
X142660714Y-50887142D01*
X142994047Y-50887142D01*
X143184523Y-50934761D01*
X143279761Y-51030000D01*
X143327380Y-51125238D01*
X143327380Y-51315714D01*
X143279761Y-51410952D01*
X143184523Y-51506190D01*
X142994047Y-51553809D01*
X142660714Y-51553809D01*
X142470238Y-51506190D01*
X142375000Y-51410952D01*
X142327380Y-51315714D01*
X142660714Y-50601428D02*
X142660714Y-50220476D01*
X143327380Y-50458571D02*
X142470238Y-50458571D01*
X142375000Y-50410952D01*
X142327380Y-50315714D01*
X142327380Y-50220476D01*
X142660714Y-50030000D02*
X142660714Y-49649047D01*
X143327380Y-49887142D02*
X142470238Y-49887142D01*
X142375000Y-49839523D01*
X142327380Y-49744285D01*
X142327380Y-49649047D01*
X143279761Y-49363333D02*
X143327380Y-49268095D01*
X143327380Y-49077619D01*
X143279761Y-48982380D01*
X143184523Y-48934761D01*
X143136904Y-48934761D01*
X143041666Y-48982380D01*
X142994047Y-49077619D01*
X142994047Y-49220476D01*
X142946428Y-49315714D01*
X142851190Y-49363333D01*
X142803571Y-49363333D01*
X142708333Y-49315714D01*
X142660714Y-49220476D01*
X142660714Y-49077619D01*
X142708333Y-48982380D01*
X143279761Y-48125238D02*
X143327380Y-48220476D01*
X143327380Y-48410952D01*
X143279761Y-48506190D01*
X143184523Y-48553809D01*
X142803571Y-48553809D01*
X142708333Y-48506190D01*
X142660714Y-48410952D01*
X142660714Y-48220476D01*
X142708333Y-48125238D01*
X142803571Y-48077619D01*
X142898809Y-48077619D01*
X142994047Y-48553809D01*
X142660714Y-47791904D02*
X142660714Y-47410952D01*
X142327380Y-47649047D02*
X143184523Y-47649047D01*
X143279761Y-47601428D01*
X143327380Y-47506190D01*
X143327380Y-47410952D01*
X135659761Y-53220476D02*
X135707380Y-53077619D01*
X135707380Y-52839523D01*
X135659761Y-52744285D01*
X135612142Y-52696666D01*
X135516904Y-52649047D01*
X135421666Y-52649047D01*
X135326428Y-52696666D01*
X135278809Y-52744285D01*
X135231190Y-52839523D01*
X135183571Y-53029999D01*
X135135952Y-53125238D01*
X135088333Y-53172857D01*
X134993095Y-53220476D01*
X134897857Y-53220476D01*
X134802619Y-53172857D01*
X134755000Y-53125238D01*
X134707380Y-53029999D01*
X134707380Y-52791904D01*
X134755000Y-52649047D01*
X135040714Y-52315714D02*
X135707380Y-52077619D01*
X135040714Y-51839523D02*
X135707380Y-52077619D01*
X135945476Y-52172857D01*
X135993095Y-52220476D01*
X136040714Y-52315714D01*
X135707380Y-51458571D02*
X135040714Y-51458571D01*
X135135952Y-51458571D02*
X135088333Y-51410952D01*
X135040714Y-51315714D01*
X135040714Y-51172857D01*
X135088333Y-51077619D01*
X135183571Y-51030000D01*
X135707380Y-51030000D01*
X135183571Y-51030000D02*
X135088333Y-50982380D01*
X135040714Y-50887142D01*
X135040714Y-50744285D01*
X135088333Y-50649047D01*
X135183571Y-50601428D01*
X135707380Y-50601428D01*
X135707380Y-50125238D02*
X135040714Y-50125238D01*
X135135952Y-50125238D02*
X135088333Y-50077619D01*
X135040714Y-49982380D01*
X135040714Y-49839523D01*
X135088333Y-49744285D01*
X135183571Y-49696666D01*
X135707380Y-49696666D01*
X135183571Y-49696666D02*
X135088333Y-49649047D01*
X135040714Y-49553809D01*
X135040714Y-49410952D01*
X135088333Y-49315714D01*
X135183571Y-49268095D01*
X135707380Y-49268095D01*
X135659761Y-48410952D02*
X135707380Y-48506190D01*
X135707380Y-48696666D01*
X135659761Y-48791904D01*
X135564523Y-48839523D01*
X135183571Y-48839523D01*
X135088333Y-48791904D01*
X135040714Y-48696666D01*
X135040714Y-48506190D01*
X135088333Y-48410952D01*
X135183571Y-48363333D01*
X135278809Y-48363333D01*
X135374047Y-48839523D01*
X135040714Y-48077619D02*
X135040714Y-47696666D01*
X134707380Y-47934761D02*
X135564523Y-47934761D01*
X135659761Y-47887142D01*
X135707380Y-47791904D01*
X135707380Y-47696666D01*
X135707380Y-47363333D02*
X135040714Y-47363333D01*
X135231190Y-47363333D02*
X135135952Y-47315714D01*
X135088333Y-47268095D01*
X135040714Y-47172857D01*
X135040714Y-47077619D01*
X135707380Y-46744285D02*
X135040714Y-46744285D01*
X134707380Y-46744285D02*
X134755000Y-46791904D01*
X134802619Y-46744285D01*
X134755000Y-46696666D01*
X134707380Y-46744285D01*
X134802619Y-46744285D01*
X135659761Y-45839523D02*
X135707380Y-45934761D01*
X135707380Y-46125238D01*
X135659761Y-46220476D01*
X135612142Y-46268095D01*
X135516904Y-46315714D01*
X135231190Y-46315714D01*
X135135952Y-46268095D01*
X135088333Y-46220476D01*
X135040714Y-46125238D01*
X135040714Y-45934761D01*
X135088333Y-45839523D01*
X113030952Y-40457380D02*
X112554761Y-40457380D01*
X112554761Y-39457380D01*
X113507142Y-40457380D02*
X113411904Y-40409761D01*
X113364285Y-40362142D01*
X113316666Y-40266904D01*
X113316666Y-39981190D01*
X113364285Y-39885952D01*
X113411904Y-39838333D01*
X113507142Y-39790714D01*
X113650000Y-39790714D01*
X113745238Y-39838333D01*
X113792857Y-39885952D01*
X113840476Y-39981190D01*
X113840476Y-40266904D01*
X113792857Y-40362142D01*
X113745238Y-40409761D01*
X113650000Y-40457380D01*
X113507142Y-40457380D01*
X114411904Y-40457380D02*
X114316666Y-40409761D01*
X114269047Y-40362142D01*
X114221428Y-40266904D01*
X114221428Y-39981190D01*
X114269047Y-39885952D01*
X114316666Y-39838333D01*
X114411904Y-39790714D01*
X114554761Y-39790714D01*
X114650000Y-39838333D01*
X114697619Y-39885952D01*
X114745238Y-39981190D01*
X114745238Y-40266904D01*
X114697619Y-40362142D01*
X114650000Y-40409761D01*
X114554761Y-40457380D01*
X114411904Y-40457380D01*
X115126190Y-40409761D02*
X115221428Y-40457380D01*
X115411904Y-40457380D01*
X115507142Y-40409761D01*
X115554761Y-40314523D01*
X115554761Y-40266904D01*
X115507142Y-40171666D01*
X115411904Y-40124047D01*
X115269047Y-40124047D01*
X115173809Y-40076428D01*
X115126190Y-39981190D01*
X115126190Y-39933571D01*
X115173809Y-39838333D01*
X115269047Y-39790714D01*
X115411904Y-39790714D01*
X115507142Y-39838333D01*
X116364285Y-40409761D02*
X116269047Y-40457380D01*
X116078571Y-40457380D01*
X115983333Y-40409761D01*
X115935714Y-40314523D01*
X115935714Y-39933571D01*
X115983333Y-39838333D01*
X116078571Y-39790714D01*
X116269047Y-39790714D01*
X116364285Y-39838333D01*
X116411904Y-39933571D01*
X116411904Y-40028809D01*
X115935714Y-40124047D01*
X116840476Y-40457380D02*
X116840476Y-39790714D01*
X116840476Y-39981190D02*
X116888095Y-39885952D01*
X116935714Y-39838333D01*
X117030952Y-39790714D01*
X117126190Y-39790714D01*
X117459523Y-40362142D02*
X117507142Y-40409761D01*
X117459523Y-40457380D01*
X117411904Y-40409761D01*
X117459523Y-40362142D01*
X117459523Y-40457380D01*
X117459523Y-39838333D02*
X117507142Y-39885952D01*
X117459523Y-39933571D01*
X117411904Y-39885952D01*
X117459523Y-39838333D01*
X117459523Y-39933571D01*
X119221428Y-40457380D02*
X118650000Y-40457380D01*
X118935714Y-40457380D02*
X118935714Y-39457380D01*
X118840476Y-39600238D01*
X118745238Y-39695476D01*
X118650000Y-39743095D01*
X119650000Y-40362142D02*
X119697619Y-40409761D01*
X119650000Y-40457380D01*
X119602380Y-40409761D01*
X119650000Y-40362142D01*
X119650000Y-40457380D01*
X120269047Y-39885952D02*
X120173809Y-39838333D01*
X120126190Y-39790714D01*
X120078571Y-39695476D01*
X120078571Y-39647857D01*
X120126190Y-39552619D01*
X120173809Y-39505000D01*
X120269047Y-39457380D01*
X120459523Y-39457380D01*
X120554761Y-39505000D01*
X120602380Y-39552619D01*
X120650000Y-39647857D01*
X120650000Y-39695476D01*
X120602380Y-39790714D01*
X120554761Y-39838333D01*
X120459523Y-39885952D01*
X120269047Y-39885952D01*
X120173809Y-39933571D01*
X120126190Y-39981190D01*
X120078571Y-40076428D01*
X120078571Y-40266904D01*
X120126190Y-40362142D01*
X120173809Y-40409761D01*
X120269047Y-40457380D01*
X120459523Y-40457380D01*
X120554761Y-40409761D01*
X120602380Y-40362142D01*
X120650000Y-40266904D01*
X120650000Y-40076428D01*
X120602380Y-39981190D01*
X120554761Y-39933571D01*
X120459523Y-39885952D01*
X121078571Y-40457380D02*
X121078571Y-39790714D01*
X121078571Y-39885952D02*
X121126190Y-39838333D01*
X121221428Y-39790714D01*
X121364285Y-39790714D01*
X121459523Y-39838333D01*
X121507142Y-39933571D01*
X121507142Y-40457380D01*
X121507142Y-39933571D02*
X121554761Y-39838333D01*
X121650000Y-39790714D01*
X121792857Y-39790714D01*
X121888095Y-39838333D01*
X121935714Y-39933571D01*
X121935714Y-40457380D01*
X122411904Y-40457380D02*
X122411904Y-39790714D01*
X122411904Y-39885952D02*
X122459523Y-39838333D01*
X122554761Y-39790714D01*
X122697619Y-39790714D01*
X122792857Y-39838333D01*
X122840476Y-39933571D01*
X122840476Y-40457380D01*
X122840476Y-39933571D02*
X122888095Y-39838333D01*
X122983333Y-39790714D01*
X123126190Y-39790714D01*
X123221428Y-39838333D01*
X123269047Y-39933571D01*
X123269047Y-40457380D01*
X124411904Y-40457380D02*
X124935714Y-39790714D01*
X124411904Y-39790714D02*
X124935714Y-40457380D01*
X126078571Y-40362142D02*
X126126190Y-40409761D01*
X126078571Y-40457380D01*
X126030952Y-40409761D01*
X126078571Y-40362142D01*
X126078571Y-40457380D01*
X126602380Y-40457380D02*
X126792857Y-40457380D01*
X126888095Y-40409761D01*
X126935714Y-40362142D01*
X127030952Y-40219285D01*
X127078571Y-40028809D01*
X127078571Y-39647857D01*
X127030952Y-39552619D01*
X126983333Y-39505000D01*
X126888095Y-39457380D01*
X126697619Y-39457380D01*
X126602380Y-39505000D01*
X126554761Y-39552619D01*
X126507142Y-39647857D01*
X126507142Y-39885952D01*
X126554761Y-39981190D01*
X126602380Y-40028809D01*
X126697619Y-40076428D01*
X126888095Y-40076428D01*
X126983333Y-40028809D01*
X127030952Y-39981190D01*
X127078571Y-39885952D01*
X127459523Y-39552619D02*
X127507142Y-39505000D01*
X127602380Y-39457380D01*
X127840476Y-39457380D01*
X127935714Y-39505000D01*
X127983333Y-39552619D01*
X128030952Y-39647857D01*
X128030952Y-39743095D01*
X127983333Y-39885952D01*
X127411904Y-40457380D01*
X128030952Y-40457380D01*
X128411904Y-39457380D02*
X128411904Y-39647857D01*
X128792857Y-39457380D02*
X128792857Y-39647857D01*
X151440476Y-51252380D02*
X150964285Y-51252380D01*
X150964285Y-50252380D01*
X151916666Y-51252380D02*
X151821428Y-51204761D01*
X151773809Y-51157142D01*
X151726190Y-51061904D01*
X151726190Y-50776190D01*
X151773809Y-50680952D01*
X151821428Y-50633333D01*
X151916666Y-50585714D01*
X152059523Y-50585714D01*
X152154761Y-50633333D01*
X152202380Y-50680952D01*
X152250000Y-50776190D01*
X152250000Y-51061904D01*
X152202380Y-51157142D01*
X152154761Y-51204761D01*
X152059523Y-51252380D01*
X151916666Y-51252380D01*
X152821428Y-51252380D02*
X152726190Y-51204761D01*
X152678571Y-51157142D01*
X152630952Y-51061904D01*
X152630952Y-50776190D01*
X152678571Y-50680952D01*
X152726190Y-50633333D01*
X152821428Y-50585714D01*
X152964285Y-50585714D01*
X153059523Y-50633333D01*
X153107142Y-50680952D01*
X153154761Y-50776190D01*
X153154761Y-51061904D01*
X153107142Y-51157142D01*
X153059523Y-51204761D01*
X152964285Y-51252380D01*
X152821428Y-51252380D01*
X153535714Y-51204761D02*
X153630952Y-51252380D01*
X153821428Y-51252380D01*
X153916666Y-51204761D01*
X153964285Y-51109523D01*
X153964285Y-51061904D01*
X153916666Y-50966666D01*
X153821428Y-50919047D01*
X153678571Y-50919047D01*
X153583333Y-50871428D01*
X153535714Y-50776190D01*
X153535714Y-50728571D01*
X153583333Y-50633333D01*
X153678571Y-50585714D01*
X153821428Y-50585714D01*
X153916666Y-50633333D01*
X154773809Y-51204761D02*
X154678571Y-51252380D01*
X154488095Y-51252380D01*
X154392857Y-51204761D01*
X154345238Y-51109523D01*
X154345238Y-50728571D01*
X154392857Y-50633333D01*
X154488095Y-50585714D01*
X154678571Y-50585714D01*
X154773809Y-50633333D01*
X154821428Y-50728571D01*
X154821428Y-50823809D01*
X154345238Y-50919047D01*
X155250000Y-51157142D02*
X155297619Y-51204761D01*
X155250000Y-51252380D01*
X155202380Y-51204761D01*
X155250000Y-51157142D01*
X155250000Y-51252380D01*
X155250000Y-50633333D02*
X155297619Y-50680952D01*
X155250000Y-50728571D01*
X155202380Y-50680952D01*
X155250000Y-50633333D01*
X155250000Y-50728571D01*
X157011904Y-51252380D02*
X156440476Y-51252380D01*
X156726190Y-51252380D02*
X156726190Y-50252380D01*
X156630952Y-50395238D01*
X156535714Y-50490476D01*
X156440476Y-50538095D01*
X157440476Y-51157142D02*
X157488095Y-51204761D01*
X157440476Y-51252380D01*
X157392857Y-51204761D01*
X157440476Y-51157142D01*
X157440476Y-51252380D01*
X157821428Y-50252380D02*
X158488095Y-50252380D01*
X158059523Y-51252380D01*
X158869047Y-51252380D02*
X158869047Y-50585714D01*
X158869047Y-50680952D02*
X158916666Y-50633333D01*
X159011904Y-50585714D01*
X159154761Y-50585714D01*
X159250000Y-50633333D01*
X159297619Y-50728571D01*
X159297619Y-51252380D01*
X159297619Y-50728571D02*
X159345238Y-50633333D01*
X159440476Y-50585714D01*
X159583333Y-50585714D01*
X159678571Y-50633333D01*
X159726190Y-50728571D01*
X159726190Y-51252380D01*
X160202380Y-51252380D02*
X160202380Y-50585714D01*
X160202380Y-50680952D02*
X160250000Y-50633333D01*
X160345238Y-50585714D01*
X160488095Y-50585714D01*
X160583333Y-50633333D01*
X160630952Y-50728571D01*
X160630952Y-51252380D01*
X160630952Y-50728571D02*
X160678571Y-50633333D01*
X160773809Y-50585714D01*
X160916666Y-50585714D01*
X161011904Y-50633333D01*
X161059523Y-50728571D01*
X161059523Y-51252380D01*
X162202380Y-51252380D02*
X162726190Y-50585714D01*
X162202380Y-50585714D02*
X162726190Y-51252380D01*
X163869047Y-51157142D02*
X163916666Y-51204761D01*
X163869047Y-51252380D01*
X163821428Y-51204761D01*
X163869047Y-51157142D01*
X163869047Y-51252380D01*
X164392857Y-51252380D02*
X164583333Y-51252380D01*
X164678571Y-51204761D01*
X164726190Y-51157142D01*
X164821428Y-51014285D01*
X164869047Y-50823809D01*
X164869047Y-50442857D01*
X164821428Y-50347619D01*
X164773809Y-50300000D01*
X164678571Y-50252380D01*
X164488095Y-50252380D01*
X164392857Y-50300000D01*
X164345238Y-50347619D01*
X164297619Y-50442857D01*
X164297619Y-50680952D01*
X164345238Y-50776190D01*
X164392857Y-50823809D01*
X164488095Y-50871428D01*
X164678571Y-50871428D01*
X164773809Y-50823809D01*
X164821428Y-50776190D01*
X164869047Y-50680952D01*
X165726190Y-50252380D02*
X165535714Y-50252380D01*
X165440476Y-50300000D01*
X165392857Y-50347619D01*
X165297619Y-50490476D01*
X165250000Y-50680952D01*
X165250000Y-51061904D01*
X165297619Y-51157142D01*
X165345238Y-51204761D01*
X165440476Y-51252380D01*
X165630952Y-51252380D01*
X165726190Y-51204761D01*
X165773809Y-51157142D01*
X165821428Y-51061904D01*
X165821428Y-50823809D01*
X165773809Y-50728571D01*
X165726190Y-50680952D01*
X165630952Y-50633333D01*
X165440476Y-50633333D01*
X165345238Y-50680952D01*
X165297619Y-50728571D01*
X165250000Y-50823809D01*
X166202380Y-50252380D02*
X166202380Y-50442857D01*
X166583333Y-50252380D02*
X166583333Y-50442857D01*
X150750000Y-29662380D02*
X150273809Y-29662380D01*
X150273809Y-28662380D01*
X151226190Y-29662380D02*
X151130952Y-29614761D01*
X151083333Y-29567142D01*
X151035714Y-29471904D01*
X151035714Y-29186190D01*
X151083333Y-29090952D01*
X151130952Y-29043333D01*
X151226190Y-28995714D01*
X151369047Y-28995714D01*
X151464285Y-29043333D01*
X151511904Y-29090952D01*
X151559523Y-29186190D01*
X151559523Y-29471904D01*
X151511904Y-29567142D01*
X151464285Y-29614761D01*
X151369047Y-29662380D01*
X151226190Y-29662380D01*
X152130952Y-29662380D02*
X152035714Y-29614761D01*
X151988095Y-29567142D01*
X151940476Y-29471904D01*
X151940476Y-29186190D01*
X151988095Y-29090952D01*
X152035714Y-29043333D01*
X152130952Y-28995714D01*
X152273809Y-28995714D01*
X152369047Y-29043333D01*
X152416666Y-29090952D01*
X152464285Y-29186190D01*
X152464285Y-29471904D01*
X152416666Y-29567142D01*
X152369047Y-29614761D01*
X152273809Y-29662380D01*
X152130952Y-29662380D01*
X152845238Y-29614761D02*
X152940476Y-29662380D01*
X153130952Y-29662380D01*
X153226190Y-29614761D01*
X153273809Y-29519523D01*
X153273809Y-29471904D01*
X153226190Y-29376666D01*
X153130952Y-29329047D01*
X152988095Y-29329047D01*
X152892857Y-29281428D01*
X152845238Y-29186190D01*
X152845238Y-29138571D01*
X152892857Y-29043333D01*
X152988095Y-28995714D01*
X153130952Y-28995714D01*
X153226190Y-29043333D01*
X154083333Y-29614761D02*
X153988095Y-29662380D01*
X153797619Y-29662380D01*
X153702380Y-29614761D01*
X153654761Y-29519523D01*
X153654761Y-29138571D01*
X153702380Y-29043333D01*
X153797619Y-28995714D01*
X153988095Y-28995714D01*
X154083333Y-29043333D01*
X154130952Y-29138571D01*
X154130952Y-29233809D01*
X153654761Y-29329047D01*
X154511904Y-29614761D02*
X154607142Y-29662380D01*
X154797619Y-29662380D01*
X154892857Y-29614761D01*
X154940476Y-29519523D01*
X154940476Y-29471904D01*
X154892857Y-29376666D01*
X154797619Y-29329047D01*
X154654761Y-29329047D01*
X154559523Y-29281428D01*
X154511904Y-29186190D01*
X154511904Y-29138571D01*
X154559523Y-29043333D01*
X154654761Y-28995714D01*
X154797619Y-28995714D01*
X154892857Y-29043333D01*
X155226190Y-28995714D02*
X155607142Y-28995714D01*
X155369047Y-28662380D02*
X155369047Y-29519523D01*
X155416666Y-29614761D01*
X155511904Y-29662380D01*
X155607142Y-29662380D01*
X155940476Y-29567142D02*
X155988095Y-29614761D01*
X155940476Y-29662380D01*
X155892857Y-29614761D01*
X155940476Y-29567142D01*
X155940476Y-29662380D01*
X155940476Y-29043333D02*
X155988095Y-29090952D01*
X155940476Y-29138571D01*
X155892857Y-29090952D01*
X155940476Y-29043333D01*
X155940476Y-29138571D01*
X157702380Y-29662380D02*
X157130952Y-29662380D01*
X157416666Y-29662380D02*
X157416666Y-28662380D01*
X157321428Y-28805238D01*
X157226190Y-28900476D01*
X157130952Y-28948095D01*
X158130952Y-29567142D02*
X158178571Y-29614761D01*
X158130952Y-29662380D01*
X158083333Y-29614761D01*
X158130952Y-29567142D01*
X158130952Y-29662380D01*
X158654761Y-29662380D02*
X158845238Y-29662380D01*
X158940476Y-29614761D01*
X158988095Y-29567142D01*
X159083333Y-29424285D01*
X159130952Y-29233809D01*
X159130952Y-28852857D01*
X159083333Y-28757619D01*
X159035714Y-28710000D01*
X158940476Y-28662380D01*
X158750000Y-28662380D01*
X158654761Y-28710000D01*
X158607142Y-28757619D01*
X158559523Y-28852857D01*
X158559523Y-29090952D01*
X158607142Y-29186190D01*
X158654761Y-29233809D01*
X158750000Y-29281428D01*
X158940476Y-29281428D01*
X159035714Y-29233809D01*
X159083333Y-29186190D01*
X159130952Y-29090952D01*
X159559523Y-29662380D02*
X159559523Y-28995714D01*
X159559523Y-29090952D02*
X159607142Y-29043333D01*
X159702380Y-28995714D01*
X159845238Y-28995714D01*
X159940476Y-29043333D01*
X159988095Y-29138571D01*
X159988095Y-29662380D01*
X159988095Y-29138571D02*
X160035714Y-29043333D01*
X160130952Y-28995714D01*
X160273809Y-28995714D01*
X160369047Y-29043333D01*
X160416666Y-29138571D01*
X160416666Y-29662380D01*
X160892857Y-29662380D02*
X160892857Y-28995714D01*
X160892857Y-29090952D02*
X160940476Y-29043333D01*
X161035714Y-28995714D01*
X161178571Y-28995714D01*
X161273809Y-29043333D01*
X161321428Y-29138571D01*
X161321428Y-29662380D01*
X161321428Y-29138571D02*
X161369047Y-29043333D01*
X161464285Y-28995714D01*
X161607142Y-28995714D01*
X161702380Y-29043333D01*
X161750000Y-29138571D01*
X161750000Y-29662380D01*
X162892857Y-29662380D02*
X163416666Y-28995714D01*
X162892857Y-28995714D02*
X163416666Y-29662380D01*
X164559523Y-29567142D02*
X164607142Y-29614761D01*
X164559523Y-29662380D01*
X164511904Y-29614761D01*
X164559523Y-29567142D01*
X164559523Y-29662380D01*
X165083333Y-29662380D02*
X165273809Y-29662380D01*
X165369047Y-29614761D01*
X165416666Y-29567142D01*
X165511904Y-29424285D01*
X165559523Y-29233809D01*
X165559523Y-28852857D01*
X165511904Y-28757619D01*
X165464285Y-28710000D01*
X165369047Y-28662380D01*
X165178571Y-28662380D01*
X165083333Y-28710000D01*
X165035714Y-28757619D01*
X164988095Y-28852857D01*
X164988095Y-29090952D01*
X165035714Y-29186190D01*
X165083333Y-29233809D01*
X165178571Y-29281428D01*
X165369047Y-29281428D01*
X165464285Y-29233809D01*
X165511904Y-29186190D01*
X165559523Y-29090952D01*
X166035714Y-29662380D02*
X166226190Y-29662380D01*
X166321428Y-29614761D01*
X166369047Y-29567142D01*
X166464285Y-29424285D01*
X166511904Y-29233809D01*
X166511904Y-28852857D01*
X166464285Y-28757619D01*
X166416666Y-28710000D01*
X166321428Y-28662380D01*
X166130952Y-28662380D01*
X166035714Y-28710000D01*
X165988095Y-28757619D01*
X165940476Y-28852857D01*
X165940476Y-29090952D01*
X165988095Y-29186190D01*
X166035714Y-29233809D01*
X166130952Y-29281428D01*
X166321428Y-29281428D01*
X166416666Y-29233809D01*
X166464285Y-29186190D01*
X166511904Y-29090952D01*
X166892857Y-28662380D02*
X166892857Y-28852857D01*
X167273809Y-28662380D02*
X167273809Y-28852857D01*
X151083333Y-61523571D02*
X151416666Y-61523571D01*
X151559523Y-62047380D02*
X151083333Y-62047380D01*
X151083333Y-61047380D01*
X151559523Y-61047380D01*
X151892857Y-62047380D02*
X152416666Y-61380714D01*
X151892857Y-61380714D02*
X152416666Y-62047380D01*
X153226190Y-62047380D02*
X153226190Y-61523571D01*
X153178571Y-61428333D01*
X153083333Y-61380714D01*
X152892857Y-61380714D01*
X152797619Y-61428333D01*
X153226190Y-61999761D02*
X153130952Y-62047380D01*
X152892857Y-62047380D01*
X152797619Y-61999761D01*
X152750000Y-61904523D01*
X152750000Y-61809285D01*
X152797619Y-61714047D01*
X152892857Y-61666428D01*
X153130952Y-61666428D01*
X153226190Y-61618809D01*
X154130952Y-61999761D02*
X154035714Y-62047380D01*
X153845238Y-62047380D01*
X153750000Y-61999761D01*
X153702380Y-61952142D01*
X153654761Y-61856904D01*
X153654761Y-61571190D01*
X153702380Y-61475952D01*
X153750000Y-61428333D01*
X153845238Y-61380714D01*
X154035714Y-61380714D01*
X154130952Y-61428333D01*
X154416666Y-61380714D02*
X154797619Y-61380714D01*
X154559523Y-61047380D02*
X154559523Y-61904523D01*
X154607142Y-61999761D01*
X154702380Y-62047380D01*
X154797619Y-62047380D01*
X155130952Y-61952142D02*
X155178571Y-61999761D01*
X155130952Y-62047380D01*
X155083333Y-61999761D01*
X155130952Y-61952142D01*
X155130952Y-62047380D01*
X155130952Y-61428333D02*
X155178571Y-61475952D01*
X155130952Y-61523571D01*
X155083333Y-61475952D01*
X155130952Y-61428333D01*
X155130952Y-61523571D01*
X156892857Y-62047380D02*
X156321428Y-62047380D01*
X156607142Y-62047380D02*
X156607142Y-61047380D01*
X156511904Y-61190238D01*
X156416666Y-61285476D01*
X156321428Y-61333095D01*
X157321428Y-61952142D02*
X157369047Y-61999761D01*
X157321428Y-62047380D01*
X157273809Y-61999761D01*
X157321428Y-61952142D01*
X157321428Y-62047380D01*
X158226190Y-61047380D02*
X158035714Y-61047380D01*
X157940476Y-61095000D01*
X157892857Y-61142619D01*
X157797619Y-61285476D01*
X157750000Y-61475952D01*
X157750000Y-61856904D01*
X157797619Y-61952142D01*
X157845238Y-61999761D01*
X157940476Y-62047380D01*
X158130952Y-62047380D01*
X158226190Y-61999761D01*
X158273809Y-61952142D01*
X158321428Y-61856904D01*
X158321428Y-61618809D01*
X158273809Y-61523571D01*
X158226190Y-61475952D01*
X158130952Y-61428333D01*
X157940476Y-61428333D01*
X157845238Y-61475952D01*
X157797619Y-61523571D01*
X157750000Y-61618809D01*
X158750000Y-62047380D02*
X158750000Y-61380714D01*
X158750000Y-61475952D02*
X158797619Y-61428333D01*
X158892857Y-61380714D01*
X159035714Y-61380714D01*
X159130952Y-61428333D01*
X159178571Y-61523571D01*
X159178571Y-62047380D01*
X159178571Y-61523571D02*
X159226190Y-61428333D01*
X159321428Y-61380714D01*
X159464285Y-61380714D01*
X159559523Y-61428333D01*
X159607142Y-61523571D01*
X159607142Y-62047380D01*
X160083333Y-62047380D02*
X160083333Y-61380714D01*
X160083333Y-61475952D02*
X160130952Y-61428333D01*
X160226190Y-61380714D01*
X160369047Y-61380714D01*
X160464285Y-61428333D01*
X160511904Y-61523571D01*
X160511904Y-62047380D01*
X160511904Y-61523571D02*
X160559523Y-61428333D01*
X160654761Y-61380714D01*
X160797619Y-61380714D01*
X160892857Y-61428333D01*
X160940476Y-61523571D01*
X160940476Y-62047380D01*
X162083333Y-62047380D02*
X162607142Y-61380714D01*
X162083333Y-61380714D02*
X162607142Y-62047380D01*
X163750000Y-61952142D02*
X163797619Y-61999761D01*
X163750000Y-62047380D01*
X163702380Y-61999761D01*
X163750000Y-61952142D01*
X163750000Y-62047380D01*
X164273809Y-62047380D02*
X164464285Y-62047380D01*
X164559523Y-61999761D01*
X164607142Y-61952142D01*
X164702380Y-61809285D01*
X164750000Y-61618809D01*
X164750000Y-61237857D01*
X164702380Y-61142619D01*
X164654761Y-61095000D01*
X164559523Y-61047380D01*
X164369047Y-61047380D01*
X164273809Y-61095000D01*
X164226190Y-61142619D01*
X164178571Y-61237857D01*
X164178571Y-61475952D01*
X164226190Y-61571190D01*
X164273809Y-61618809D01*
X164369047Y-61666428D01*
X164559523Y-61666428D01*
X164654761Y-61618809D01*
X164702380Y-61571190D01*
X164750000Y-61475952D01*
X165654761Y-61047380D02*
X165178571Y-61047380D01*
X165130952Y-61523571D01*
X165178571Y-61475952D01*
X165273809Y-61428333D01*
X165511904Y-61428333D01*
X165607142Y-61475952D01*
X165654761Y-61523571D01*
X165702380Y-61618809D01*
X165702380Y-61856904D01*
X165654761Y-61952142D01*
X165607142Y-61999761D01*
X165511904Y-62047380D01*
X165273809Y-62047380D01*
X165178571Y-61999761D01*
X165130952Y-61952142D01*
X166083333Y-61047380D02*
X166083333Y-61237857D01*
X166464285Y-61047380D02*
X166464285Y-61237857D01*
X112650000Y-29662380D02*
X112173809Y-29662380D01*
X112173809Y-28662380D01*
X113126190Y-29662380D02*
X113030952Y-29614761D01*
X112983333Y-29567142D01*
X112935714Y-29471904D01*
X112935714Y-29186190D01*
X112983333Y-29090952D01*
X113030952Y-29043333D01*
X113126190Y-28995714D01*
X113269047Y-28995714D01*
X113364285Y-29043333D01*
X113411904Y-29090952D01*
X113459523Y-29186190D01*
X113459523Y-29471904D01*
X113411904Y-29567142D01*
X113364285Y-29614761D01*
X113269047Y-29662380D01*
X113126190Y-29662380D01*
X114030952Y-29662380D02*
X113935714Y-29614761D01*
X113888095Y-29567142D01*
X113840476Y-29471904D01*
X113840476Y-29186190D01*
X113888095Y-29090952D01*
X113935714Y-29043333D01*
X114030952Y-28995714D01*
X114173809Y-28995714D01*
X114269047Y-29043333D01*
X114316666Y-29090952D01*
X114364285Y-29186190D01*
X114364285Y-29471904D01*
X114316666Y-29567142D01*
X114269047Y-29614761D01*
X114173809Y-29662380D01*
X114030952Y-29662380D01*
X114745238Y-29614761D02*
X114840476Y-29662380D01*
X115030952Y-29662380D01*
X115126190Y-29614761D01*
X115173809Y-29519523D01*
X115173809Y-29471904D01*
X115126190Y-29376666D01*
X115030952Y-29329047D01*
X114888095Y-29329047D01*
X114792857Y-29281428D01*
X114745238Y-29186190D01*
X114745238Y-29138571D01*
X114792857Y-29043333D01*
X114888095Y-28995714D01*
X115030952Y-28995714D01*
X115126190Y-29043333D01*
X115983333Y-29614761D02*
X115888095Y-29662380D01*
X115697619Y-29662380D01*
X115602380Y-29614761D01*
X115554761Y-29519523D01*
X115554761Y-29138571D01*
X115602380Y-29043333D01*
X115697619Y-28995714D01*
X115888095Y-28995714D01*
X115983333Y-29043333D01*
X116030952Y-29138571D01*
X116030952Y-29233809D01*
X115554761Y-29329047D01*
X116411904Y-29614761D02*
X116507142Y-29662380D01*
X116697619Y-29662380D01*
X116792857Y-29614761D01*
X116840476Y-29519523D01*
X116840476Y-29471904D01*
X116792857Y-29376666D01*
X116697619Y-29329047D01*
X116554761Y-29329047D01*
X116459523Y-29281428D01*
X116411904Y-29186190D01*
X116411904Y-29138571D01*
X116459523Y-29043333D01*
X116554761Y-28995714D01*
X116697619Y-28995714D01*
X116792857Y-29043333D01*
X117126190Y-28995714D02*
X117507142Y-28995714D01*
X117269047Y-28662380D02*
X117269047Y-29519523D01*
X117316666Y-29614761D01*
X117411904Y-29662380D01*
X117507142Y-29662380D01*
X117840476Y-29567142D02*
X117888095Y-29614761D01*
X117840476Y-29662380D01*
X117792857Y-29614761D01*
X117840476Y-29567142D01*
X117840476Y-29662380D01*
X117840476Y-29043333D02*
X117888095Y-29090952D01*
X117840476Y-29138571D01*
X117792857Y-29090952D01*
X117840476Y-29043333D01*
X117840476Y-29138571D01*
X119602380Y-29662380D02*
X119030952Y-29662380D01*
X119316666Y-29662380D02*
X119316666Y-28662380D01*
X119221428Y-28805238D01*
X119126190Y-28900476D01*
X119030952Y-28948095D01*
X120030952Y-29567142D02*
X120078571Y-29614761D01*
X120030952Y-29662380D01*
X119983333Y-29614761D01*
X120030952Y-29567142D01*
X120030952Y-29662380D01*
X120554761Y-29662380D02*
X120745238Y-29662380D01*
X120840476Y-29614761D01*
X120888095Y-29567142D01*
X120983333Y-29424285D01*
X121030952Y-29233809D01*
X121030952Y-28852857D01*
X120983333Y-28757619D01*
X120935714Y-28710000D01*
X120840476Y-28662380D01*
X120650000Y-28662380D01*
X120554761Y-28710000D01*
X120507142Y-28757619D01*
X120459523Y-28852857D01*
X120459523Y-29090952D01*
X120507142Y-29186190D01*
X120554761Y-29233809D01*
X120650000Y-29281428D01*
X120840476Y-29281428D01*
X120935714Y-29233809D01*
X120983333Y-29186190D01*
X121030952Y-29090952D01*
X121459523Y-29662380D02*
X121459523Y-28995714D01*
X121459523Y-29090952D02*
X121507142Y-29043333D01*
X121602380Y-28995714D01*
X121745238Y-28995714D01*
X121840476Y-29043333D01*
X121888095Y-29138571D01*
X121888095Y-29662380D01*
X121888095Y-29138571D02*
X121935714Y-29043333D01*
X122030952Y-28995714D01*
X122173809Y-28995714D01*
X122269047Y-29043333D01*
X122316666Y-29138571D01*
X122316666Y-29662380D01*
X122792857Y-29662380D02*
X122792857Y-28995714D01*
X122792857Y-29090952D02*
X122840476Y-29043333D01*
X122935714Y-28995714D01*
X123078571Y-28995714D01*
X123173809Y-29043333D01*
X123221428Y-29138571D01*
X123221428Y-29662380D01*
X123221428Y-29138571D02*
X123269047Y-29043333D01*
X123364285Y-28995714D01*
X123507142Y-28995714D01*
X123602380Y-29043333D01*
X123650000Y-29138571D01*
X123650000Y-29662380D01*
X124792857Y-29662380D02*
X125316666Y-28995714D01*
X124792857Y-28995714D02*
X125316666Y-29662380D01*
X126459523Y-29567142D02*
X126507142Y-29614761D01*
X126459523Y-29662380D01*
X126411904Y-29614761D01*
X126459523Y-29567142D01*
X126459523Y-29662380D01*
X126983333Y-29662380D02*
X127173809Y-29662380D01*
X127269047Y-29614761D01*
X127316666Y-29567142D01*
X127411904Y-29424285D01*
X127459523Y-29233809D01*
X127459523Y-28852857D01*
X127411904Y-28757619D01*
X127364285Y-28710000D01*
X127269047Y-28662380D01*
X127078571Y-28662380D01*
X126983333Y-28710000D01*
X126935714Y-28757619D01*
X126888095Y-28852857D01*
X126888095Y-29090952D01*
X126935714Y-29186190D01*
X126983333Y-29233809D01*
X127078571Y-29281428D01*
X127269047Y-29281428D01*
X127364285Y-29233809D01*
X127411904Y-29186190D01*
X127459523Y-29090952D01*
X128316666Y-28995714D02*
X128316666Y-29662380D01*
X128078571Y-28614761D02*
X127840476Y-29329047D01*
X128459523Y-29329047D01*
X128792857Y-28662380D02*
X128792857Y-28852857D01*
X129173809Y-28662380D02*
X129173809Y-28852857D01*
X113340476Y-51252380D02*
X112864285Y-51252380D01*
X112864285Y-50252380D01*
X113816666Y-51252380D02*
X113721428Y-51204761D01*
X113673809Y-51157142D01*
X113626190Y-51061904D01*
X113626190Y-50776190D01*
X113673809Y-50680952D01*
X113721428Y-50633333D01*
X113816666Y-50585714D01*
X113959523Y-50585714D01*
X114054761Y-50633333D01*
X114102380Y-50680952D01*
X114150000Y-50776190D01*
X114150000Y-51061904D01*
X114102380Y-51157142D01*
X114054761Y-51204761D01*
X113959523Y-51252380D01*
X113816666Y-51252380D01*
X114721428Y-51252380D02*
X114626190Y-51204761D01*
X114578571Y-51157142D01*
X114530952Y-51061904D01*
X114530952Y-50776190D01*
X114578571Y-50680952D01*
X114626190Y-50633333D01*
X114721428Y-50585714D01*
X114864285Y-50585714D01*
X114959523Y-50633333D01*
X115007142Y-50680952D01*
X115054761Y-50776190D01*
X115054761Y-51061904D01*
X115007142Y-51157142D01*
X114959523Y-51204761D01*
X114864285Y-51252380D01*
X114721428Y-51252380D01*
X115435714Y-51204761D02*
X115530952Y-51252380D01*
X115721428Y-51252380D01*
X115816666Y-51204761D01*
X115864285Y-51109523D01*
X115864285Y-51061904D01*
X115816666Y-50966666D01*
X115721428Y-50919047D01*
X115578571Y-50919047D01*
X115483333Y-50871428D01*
X115435714Y-50776190D01*
X115435714Y-50728571D01*
X115483333Y-50633333D01*
X115578571Y-50585714D01*
X115721428Y-50585714D01*
X115816666Y-50633333D01*
X116673809Y-51204761D02*
X116578571Y-51252380D01*
X116388095Y-51252380D01*
X116292857Y-51204761D01*
X116245238Y-51109523D01*
X116245238Y-50728571D01*
X116292857Y-50633333D01*
X116388095Y-50585714D01*
X116578571Y-50585714D01*
X116673809Y-50633333D01*
X116721428Y-50728571D01*
X116721428Y-50823809D01*
X116245238Y-50919047D01*
X117150000Y-51157142D02*
X117197619Y-51204761D01*
X117150000Y-51252380D01*
X117102380Y-51204761D01*
X117150000Y-51157142D01*
X117150000Y-51252380D01*
X117150000Y-50633333D02*
X117197619Y-50680952D01*
X117150000Y-50728571D01*
X117102380Y-50680952D01*
X117150000Y-50633333D01*
X117150000Y-50728571D01*
X118911904Y-51252380D02*
X118340476Y-51252380D01*
X118626190Y-51252380D02*
X118626190Y-50252380D01*
X118530952Y-50395238D01*
X118435714Y-50490476D01*
X118340476Y-50538095D01*
X119340476Y-51157142D02*
X119388095Y-51204761D01*
X119340476Y-51252380D01*
X119292857Y-51204761D01*
X119340476Y-51157142D01*
X119340476Y-51252380D01*
X119721428Y-50252380D02*
X120388095Y-50252380D01*
X119959523Y-51252380D01*
X120769047Y-51252380D02*
X120769047Y-50585714D01*
X120769047Y-50680952D02*
X120816666Y-50633333D01*
X120911904Y-50585714D01*
X121054761Y-50585714D01*
X121150000Y-50633333D01*
X121197619Y-50728571D01*
X121197619Y-51252380D01*
X121197619Y-50728571D02*
X121245238Y-50633333D01*
X121340476Y-50585714D01*
X121483333Y-50585714D01*
X121578571Y-50633333D01*
X121626190Y-50728571D01*
X121626190Y-51252380D01*
X122102380Y-51252380D02*
X122102380Y-50585714D01*
X122102380Y-50680952D02*
X122150000Y-50633333D01*
X122245238Y-50585714D01*
X122388095Y-50585714D01*
X122483333Y-50633333D01*
X122530952Y-50728571D01*
X122530952Y-51252380D01*
X122530952Y-50728571D02*
X122578571Y-50633333D01*
X122673809Y-50585714D01*
X122816666Y-50585714D01*
X122911904Y-50633333D01*
X122959523Y-50728571D01*
X122959523Y-51252380D01*
X124102380Y-51252380D02*
X124626190Y-50585714D01*
X124102380Y-50585714D02*
X124626190Y-51252380D01*
X125769047Y-51157142D02*
X125816666Y-51204761D01*
X125769047Y-51252380D01*
X125721428Y-51204761D01*
X125769047Y-51157142D01*
X125769047Y-51252380D01*
X126292857Y-51252380D02*
X126483333Y-51252380D01*
X126578571Y-51204761D01*
X126626190Y-51157142D01*
X126721428Y-51014285D01*
X126769047Y-50823809D01*
X126769047Y-50442857D01*
X126721428Y-50347619D01*
X126673809Y-50300000D01*
X126578571Y-50252380D01*
X126388095Y-50252380D01*
X126292857Y-50300000D01*
X126245238Y-50347619D01*
X126197619Y-50442857D01*
X126197619Y-50680952D01*
X126245238Y-50776190D01*
X126292857Y-50823809D01*
X126388095Y-50871428D01*
X126578571Y-50871428D01*
X126673809Y-50823809D01*
X126721428Y-50776190D01*
X126769047Y-50680952D01*
X127721428Y-51252380D02*
X127150000Y-51252380D01*
X127435714Y-51252380D02*
X127435714Y-50252380D01*
X127340476Y-50395238D01*
X127245238Y-50490476D01*
X127150000Y-50538095D01*
X128102380Y-50252380D02*
X128102380Y-50442857D01*
X128483333Y-50252380D02*
X128483333Y-50442857D01*
X151130952Y-40457380D02*
X150654761Y-40457380D01*
X150654761Y-39457380D01*
X151607142Y-40457380D02*
X151511904Y-40409761D01*
X151464285Y-40362142D01*
X151416666Y-40266904D01*
X151416666Y-39981190D01*
X151464285Y-39885952D01*
X151511904Y-39838333D01*
X151607142Y-39790714D01*
X151750000Y-39790714D01*
X151845238Y-39838333D01*
X151892857Y-39885952D01*
X151940476Y-39981190D01*
X151940476Y-40266904D01*
X151892857Y-40362142D01*
X151845238Y-40409761D01*
X151750000Y-40457380D01*
X151607142Y-40457380D01*
X152511904Y-40457380D02*
X152416666Y-40409761D01*
X152369047Y-40362142D01*
X152321428Y-40266904D01*
X152321428Y-39981190D01*
X152369047Y-39885952D01*
X152416666Y-39838333D01*
X152511904Y-39790714D01*
X152654761Y-39790714D01*
X152750000Y-39838333D01*
X152797619Y-39885952D01*
X152845238Y-39981190D01*
X152845238Y-40266904D01*
X152797619Y-40362142D01*
X152750000Y-40409761D01*
X152654761Y-40457380D01*
X152511904Y-40457380D01*
X153226190Y-40409761D02*
X153321428Y-40457380D01*
X153511904Y-40457380D01*
X153607142Y-40409761D01*
X153654761Y-40314523D01*
X153654761Y-40266904D01*
X153607142Y-40171666D01*
X153511904Y-40124047D01*
X153369047Y-40124047D01*
X153273809Y-40076428D01*
X153226190Y-39981190D01*
X153226190Y-39933571D01*
X153273809Y-39838333D01*
X153369047Y-39790714D01*
X153511904Y-39790714D01*
X153607142Y-39838333D01*
X154464285Y-40409761D02*
X154369047Y-40457380D01*
X154178571Y-40457380D01*
X154083333Y-40409761D01*
X154035714Y-40314523D01*
X154035714Y-39933571D01*
X154083333Y-39838333D01*
X154178571Y-39790714D01*
X154369047Y-39790714D01*
X154464285Y-39838333D01*
X154511904Y-39933571D01*
X154511904Y-40028809D01*
X154035714Y-40124047D01*
X154940476Y-40457380D02*
X154940476Y-39790714D01*
X154940476Y-39981190D02*
X154988095Y-39885952D01*
X155035714Y-39838333D01*
X155130952Y-39790714D01*
X155226190Y-39790714D01*
X155559523Y-40362142D02*
X155607142Y-40409761D01*
X155559523Y-40457380D01*
X155511904Y-40409761D01*
X155559523Y-40362142D01*
X155559523Y-40457380D01*
X155559523Y-39838333D02*
X155607142Y-39885952D01*
X155559523Y-39933571D01*
X155511904Y-39885952D01*
X155559523Y-39838333D01*
X155559523Y-39933571D01*
X157321428Y-40457380D02*
X156750000Y-40457380D01*
X157035714Y-40457380D02*
X157035714Y-39457380D01*
X156940476Y-39600238D01*
X156845238Y-39695476D01*
X156750000Y-39743095D01*
X157750000Y-40362142D02*
X157797619Y-40409761D01*
X157750000Y-40457380D01*
X157702380Y-40409761D01*
X157750000Y-40362142D01*
X157750000Y-40457380D01*
X158369047Y-39885952D02*
X158273809Y-39838333D01*
X158226190Y-39790714D01*
X158178571Y-39695476D01*
X158178571Y-39647857D01*
X158226190Y-39552619D01*
X158273809Y-39505000D01*
X158369047Y-39457380D01*
X158559523Y-39457380D01*
X158654761Y-39505000D01*
X158702380Y-39552619D01*
X158750000Y-39647857D01*
X158750000Y-39695476D01*
X158702380Y-39790714D01*
X158654761Y-39838333D01*
X158559523Y-39885952D01*
X158369047Y-39885952D01*
X158273809Y-39933571D01*
X158226190Y-39981190D01*
X158178571Y-40076428D01*
X158178571Y-40266904D01*
X158226190Y-40362142D01*
X158273809Y-40409761D01*
X158369047Y-40457380D01*
X158559523Y-40457380D01*
X158654761Y-40409761D01*
X158702380Y-40362142D01*
X158750000Y-40266904D01*
X158750000Y-40076428D01*
X158702380Y-39981190D01*
X158654761Y-39933571D01*
X158559523Y-39885952D01*
X159178571Y-40457380D02*
X159178571Y-39790714D01*
X159178571Y-39885952D02*
X159226190Y-39838333D01*
X159321428Y-39790714D01*
X159464285Y-39790714D01*
X159559523Y-39838333D01*
X159607142Y-39933571D01*
X159607142Y-40457380D01*
X159607142Y-39933571D02*
X159654761Y-39838333D01*
X159750000Y-39790714D01*
X159892857Y-39790714D01*
X159988095Y-39838333D01*
X160035714Y-39933571D01*
X160035714Y-40457380D01*
X160511904Y-40457380D02*
X160511904Y-39790714D01*
X160511904Y-39885952D02*
X160559523Y-39838333D01*
X160654761Y-39790714D01*
X160797619Y-39790714D01*
X160892857Y-39838333D01*
X160940476Y-39933571D01*
X160940476Y-40457380D01*
X160940476Y-39933571D02*
X160988095Y-39838333D01*
X161083333Y-39790714D01*
X161226190Y-39790714D01*
X161321428Y-39838333D01*
X161369047Y-39933571D01*
X161369047Y-40457380D01*
X162511904Y-40457380D02*
X163035714Y-39790714D01*
X162511904Y-39790714D02*
X163035714Y-40457380D01*
X164178571Y-40362142D02*
X164226190Y-40409761D01*
X164178571Y-40457380D01*
X164130952Y-40409761D01*
X164178571Y-40362142D01*
X164178571Y-40457380D01*
X164702380Y-40457380D02*
X164892857Y-40457380D01*
X164988095Y-40409761D01*
X165035714Y-40362142D01*
X165130952Y-40219285D01*
X165178571Y-40028809D01*
X165178571Y-39647857D01*
X165130952Y-39552619D01*
X165083333Y-39505000D01*
X164988095Y-39457380D01*
X164797619Y-39457380D01*
X164702380Y-39505000D01*
X164654761Y-39552619D01*
X164607142Y-39647857D01*
X164607142Y-39885952D01*
X164654761Y-39981190D01*
X164702380Y-40028809D01*
X164797619Y-40076428D01*
X164988095Y-40076428D01*
X165083333Y-40028809D01*
X165130952Y-39981190D01*
X165178571Y-39885952D01*
X165511904Y-39457380D02*
X166178571Y-39457380D01*
X165750000Y-40457380D01*
X166511904Y-39457380D02*
X166511904Y-39647857D01*
X166892857Y-39457380D02*
X166892857Y-39647857D01*
X112983333Y-61523571D02*
X113316666Y-61523571D01*
X113459523Y-62047380D02*
X112983333Y-62047380D01*
X112983333Y-61047380D01*
X113459523Y-61047380D01*
X113792857Y-62047380D02*
X114316666Y-61380714D01*
X113792857Y-61380714D02*
X114316666Y-62047380D01*
X115126190Y-62047380D02*
X115126190Y-61523571D01*
X115078571Y-61428333D01*
X114983333Y-61380714D01*
X114792857Y-61380714D01*
X114697619Y-61428333D01*
X115126190Y-61999761D02*
X115030952Y-62047380D01*
X114792857Y-62047380D01*
X114697619Y-61999761D01*
X114650000Y-61904523D01*
X114650000Y-61809285D01*
X114697619Y-61714047D01*
X114792857Y-61666428D01*
X115030952Y-61666428D01*
X115126190Y-61618809D01*
X116030952Y-61999761D02*
X115935714Y-62047380D01*
X115745238Y-62047380D01*
X115650000Y-61999761D01*
X115602380Y-61952142D01*
X115554761Y-61856904D01*
X115554761Y-61571190D01*
X115602380Y-61475952D01*
X115650000Y-61428333D01*
X115745238Y-61380714D01*
X115935714Y-61380714D01*
X116030952Y-61428333D01*
X116316666Y-61380714D02*
X116697619Y-61380714D01*
X116459523Y-61047380D02*
X116459523Y-61904523D01*
X116507142Y-61999761D01*
X116602380Y-62047380D01*
X116697619Y-62047380D01*
X117030952Y-61952142D02*
X117078571Y-61999761D01*
X117030952Y-62047380D01*
X116983333Y-61999761D01*
X117030952Y-61952142D01*
X117030952Y-62047380D01*
X117030952Y-61428333D02*
X117078571Y-61475952D01*
X117030952Y-61523571D01*
X116983333Y-61475952D01*
X117030952Y-61428333D01*
X117030952Y-61523571D01*
X118792857Y-62047380D02*
X118221428Y-62047380D01*
X118507142Y-62047380D02*
X118507142Y-61047380D01*
X118411904Y-61190238D01*
X118316666Y-61285476D01*
X118221428Y-61333095D01*
X119221428Y-61952142D02*
X119269047Y-61999761D01*
X119221428Y-62047380D01*
X119173809Y-61999761D01*
X119221428Y-61952142D01*
X119221428Y-62047380D01*
X120126190Y-61047380D02*
X119935714Y-61047380D01*
X119840476Y-61095000D01*
X119792857Y-61142619D01*
X119697619Y-61285476D01*
X119650000Y-61475952D01*
X119650000Y-61856904D01*
X119697619Y-61952142D01*
X119745238Y-61999761D01*
X119840476Y-62047380D01*
X120030952Y-62047380D01*
X120126190Y-61999761D01*
X120173809Y-61952142D01*
X120221428Y-61856904D01*
X120221428Y-61618809D01*
X120173809Y-61523571D01*
X120126190Y-61475952D01*
X120030952Y-61428333D01*
X119840476Y-61428333D01*
X119745238Y-61475952D01*
X119697619Y-61523571D01*
X119650000Y-61618809D01*
X120650000Y-62047380D02*
X120650000Y-61380714D01*
X120650000Y-61475952D02*
X120697619Y-61428333D01*
X120792857Y-61380714D01*
X120935714Y-61380714D01*
X121030952Y-61428333D01*
X121078571Y-61523571D01*
X121078571Y-62047380D01*
X121078571Y-61523571D02*
X121126190Y-61428333D01*
X121221428Y-61380714D01*
X121364285Y-61380714D01*
X121459523Y-61428333D01*
X121507142Y-61523571D01*
X121507142Y-62047380D01*
X121983333Y-62047380D02*
X121983333Y-61380714D01*
X121983333Y-61475952D02*
X122030952Y-61428333D01*
X122126190Y-61380714D01*
X122269047Y-61380714D01*
X122364285Y-61428333D01*
X122411904Y-61523571D01*
X122411904Y-62047380D01*
X122411904Y-61523571D02*
X122459523Y-61428333D01*
X122554761Y-61380714D01*
X122697619Y-61380714D01*
X122792857Y-61428333D01*
X122840476Y-61523571D01*
X122840476Y-62047380D01*
X123983333Y-62047380D02*
X124507142Y-61380714D01*
X123983333Y-61380714D02*
X124507142Y-62047380D01*
X125650000Y-61952142D02*
X125697619Y-61999761D01*
X125650000Y-62047380D01*
X125602380Y-61999761D01*
X125650000Y-61952142D01*
X125650000Y-62047380D01*
X126173809Y-62047380D02*
X126364285Y-62047380D01*
X126459523Y-61999761D01*
X126507142Y-61952142D01*
X126602380Y-61809285D01*
X126650000Y-61618809D01*
X126650000Y-61237857D01*
X126602380Y-61142619D01*
X126554761Y-61095000D01*
X126459523Y-61047380D01*
X126269047Y-61047380D01*
X126173809Y-61095000D01*
X126126190Y-61142619D01*
X126078571Y-61237857D01*
X126078571Y-61475952D01*
X126126190Y-61571190D01*
X126173809Y-61618809D01*
X126269047Y-61666428D01*
X126459523Y-61666428D01*
X126554761Y-61618809D01*
X126602380Y-61571190D01*
X126650000Y-61475952D01*
X127269047Y-61047380D02*
X127364285Y-61047380D01*
X127459523Y-61095000D01*
X127507142Y-61142619D01*
X127554761Y-61237857D01*
X127602380Y-61428333D01*
X127602380Y-61666428D01*
X127554761Y-61856904D01*
X127507142Y-61952142D01*
X127459523Y-61999761D01*
X127364285Y-62047380D01*
X127269047Y-62047380D01*
X127173809Y-61999761D01*
X127126190Y-61952142D01*
X127078571Y-61856904D01*
X127030952Y-61666428D01*
X127030952Y-61428333D01*
X127078571Y-61237857D01*
X127126190Y-61142619D01*
X127173809Y-61095000D01*
X127269047Y-61047380D01*
X127983333Y-61047380D02*
X127983333Y-61237857D01*
X128364285Y-61047380D02*
X128364285Y-61237857D01*
D11*
%TO.C,J1*%
X120650000Y-75184000D02*
X123444000Y-75184000D01*
X120650000Y-93395800D02*
X130048000Y-87975440D01*
X111252000Y-87975440D02*
X111252000Y-77124560D01*
X111252000Y-87975440D02*
X120650000Y-93395800D01*
X120650000Y-71704200D02*
X130048000Y-77124560D01*
X120650000Y-71704200D02*
X111252000Y-77124560D01*
X130048000Y-87975440D02*
X130048000Y-77124560D01*
X120650000Y-75184000D02*
X117856000Y-75184000D01*
X117856000Y-75184001D02*
G75*
G03*
X117856000Y-89915999I2794000J-7365999D01*
G01*
X123444000Y-89915999D02*
G75*
G03*
X123444000Y-75184001I-2794000J7365999D01*
G01*
X117856000Y-89915998D02*
G75*
G03*
X123444000Y-89915998I2794000J7365996D01*
G01*
X129794000Y-82550000D02*
G75*
G03*
X129794000Y-82550000I-9144000J0D01*
G01*
%TO.C,J19*%
X148590000Y-41275000D02*
X149225000Y-40640000D01*
X149225000Y-40640000D02*
X147955000Y-40640000D01*
X170180000Y-43815000D02*
X170180000Y-40640000D01*
X147320000Y-43815000D02*
X147320000Y-40640000D01*
X147955000Y-40640000D02*
X148590000Y-41275000D01*
%TO.C,J5*%
X109855000Y-70180000D02*
X111125000Y-70180000D01*
X110490000Y-69545000D02*
X109855000Y-70180000D01*
X109220000Y-67005000D02*
X109220000Y-70180000D01*
X111125000Y-70180000D02*
X110490000Y-69545000D01*
X132080000Y-67005000D02*
X132080000Y-70180000D01*
%TO.C,J7*%
X111125000Y-59358000D02*
X110490000Y-58723000D01*
X109855000Y-59358000D02*
X111125000Y-59358000D01*
X110490000Y-58723000D02*
X109855000Y-59358000D01*
X109220000Y-56183000D02*
X109220000Y-59358000D01*
X132080000Y-56183000D02*
X132080000Y-59358000D01*
%TO.C,J15*%
X148590000Y-62865000D02*
X149225000Y-62230000D01*
X170180000Y-65405000D02*
X170180000Y-62230000D01*
X147320000Y-65405000D02*
X147320000Y-62230000D01*
X149225000Y-62230000D02*
X147955000Y-62230000D01*
X147955000Y-62230000D02*
X148590000Y-62865000D01*
%TO.C,J21*%
X170180000Y-33020000D02*
X170180000Y-29845000D01*
X147320000Y-33020000D02*
X147320000Y-29845000D01*
X148590000Y-30480000D02*
X149225000Y-29845000D01*
X149225000Y-29845000D02*
X147955000Y-29845000D01*
X147955000Y-29845000D02*
X148590000Y-30480000D01*
%TO.C,J11*%
X110490000Y-37460000D02*
X109855000Y-38095000D01*
X111125000Y-38095000D02*
X110490000Y-37460000D01*
X109220000Y-34920000D02*
X109220000Y-38095000D01*
X132080000Y-34920000D02*
X132080000Y-38095000D01*
X109855000Y-38095000D02*
X111125000Y-38095000D01*
%TO.C,J2*%
X132080000Y-91440000D02*
X132080000Y-88265000D01*
X110490000Y-88900000D02*
X111125000Y-88265000D01*
X109220000Y-91440000D02*
X109220000Y-88265000D01*
X109855000Y-88265000D02*
X110490000Y-88900000D01*
X111125000Y-88265000D02*
X109855000Y-88265000D01*
%TO.C,J13*%
X170180000Y-91440000D02*
X170180000Y-88265000D01*
X148590000Y-88900000D02*
X149225000Y-88265000D01*
X147320000Y-91440000D02*
X147320000Y-88265000D01*
X147955000Y-88265000D02*
X148590000Y-88900000D01*
X149225000Y-88265000D02*
X147955000Y-88265000D01*
%TO.C,J20*%
X147320000Y-45615000D02*
X147320000Y-48790000D01*
X147955000Y-48790000D02*
X149225000Y-48790000D01*
X170180000Y-45615000D02*
X170180000Y-48790000D01*
X148590000Y-48155000D02*
X147955000Y-48790000D01*
X149225000Y-48790000D02*
X148590000Y-48155000D01*
%TO.C,J17*%
X149225000Y-51435000D02*
X147955000Y-51435000D01*
X148590000Y-52070000D02*
X149225000Y-51435000D01*
X147955000Y-51435000D02*
X148590000Y-52070000D01*
X170180000Y-54610000D02*
X170180000Y-51435000D01*
X147320000Y-54610000D02*
X147320000Y-51435000D01*
%TO.C,J12*%
X158750000Y-75184000D02*
X161544000Y-75184000D01*
X158750000Y-93395800D02*
X168148000Y-87975440D01*
X149352000Y-87975440D02*
X149352000Y-77124560D01*
X149352000Y-87975440D02*
X158750000Y-93395800D01*
X158750000Y-71704200D02*
X168148000Y-77124560D01*
X158750000Y-71704200D02*
X149352000Y-77124560D01*
X168148000Y-87975440D02*
X168148000Y-77124560D01*
X158750000Y-75184000D02*
X155956000Y-75184000D01*
X155956000Y-75184001D02*
G75*
G03*
X155956000Y-89915999I2794000J-7365999D01*
G01*
X161544000Y-89915999D02*
G75*
G03*
X161544000Y-75184001I-2794000J7365999D01*
G01*
X155956000Y-89915998D02*
G75*
G03*
X161544000Y-89915998I2794000J7365996D01*
G01*
X167894000Y-82550000D02*
G75*
G03*
X167894000Y-82550000I-9144000J0D01*
G01*
%TO.C,J18*%
X149225000Y-59358000D02*
X148590000Y-58723000D01*
X147955000Y-59358000D02*
X149225000Y-59358000D01*
X148590000Y-58723000D02*
X147955000Y-59358000D01*
X147320000Y-56183000D02*
X147320000Y-59358000D01*
X170180000Y-56183000D02*
X170180000Y-59358000D01*
%TO.C,J8*%
X110490000Y-41275000D02*
X111125000Y-40640000D01*
X111125000Y-40640000D02*
X109855000Y-40640000D01*
X132080000Y-43815000D02*
X132080000Y-40640000D01*
X109220000Y-43815000D02*
X109220000Y-40640000D01*
X109855000Y-40640000D02*
X110490000Y-41275000D01*
%TO.C,J22*%
X148590000Y-37460000D02*
X147955000Y-38095000D01*
X149225000Y-38095000D02*
X148590000Y-37460000D01*
X147320000Y-34920000D02*
X147320000Y-38095000D01*
X170180000Y-34920000D02*
X170180000Y-38095000D01*
X147955000Y-38095000D02*
X149225000Y-38095000D01*
%TO.C,J4*%
X110490000Y-62865000D02*
X111125000Y-62230000D01*
X132080000Y-65405000D02*
X132080000Y-62230000D01*
X109220000Y-65405000D02*
X109220000Y-62230000D01*
X111125000Y-62230000D02*
X109855000Y-62230000D01*
X109855000Y-62230000D02*
X110490000Y-62865000D01*
%TO.C,J9*%
X109220000Y-45615000D02*
X109220000Y-48790000D01*
X109855000Y-48790000D02*
X111125000Y-48790000D01*
X132080000Y-45615000D02*
X132080000Y-48790000D01*
X110490000Y-48155000D02*
X109855000Y-48790000D01*
X111125000Y-48790000D02*
X110490000Y-48155000D01*
%TO.C,J10*%
X132080000Y-33020000D02*
X132080000Y-29845000D01*
X109220000Y-33020000D02*
X109220000Y-29845000D01*
X110490000Y-30480000D02*
X111125000Y-29845000D01*
X111125000Y-29845000D02*
X109855000Y-29845000D01*
X109855000Y-29845000D02*
X110490000Y-30480000D01*
%TO.C,J6*%
X111125000Y-51435000D02*
X109855000Y-51435000D01*
X110490000Y-52070000D02*
X111125000Y-51435000D01*
X109855000Y-51435000D02*
X110490000Y-52070000D01*
X132080000Y-54610000D02*
X132080000Y-51435000D01*
X109220000Y-54610000D02*
X109220000Y-51435000D01*
%TO.C,J16*%
X147955000Y-70180000D02*
X149225000Y-70180000D01*
X148590000Y-69545000D02*
X147955000Y-70180000D01*
X147320000Y-67005000D02*
X147320000Y-70180000D01*
X149225000Y-70180000D02*
X148590000Y-69545000D01*
X170180000Y-67005000D02*
X170180000Y-70180000D01*
%TD*%
%LPC*%
D12*
%TO.C,J1*%
X118525000Y-78869000D03*
X116465000Y-81812000D03*
X117394000Y-85282000D03*
X120650000Y-86800000D03*
X123906000Y-85282000D03*
X124835000Y-81812000D03*
X122775000Y-78869000D03*
X120650000Y-82550000D03*
D13*
X112850000Y-82550000D03*
X128450000Y-82550000D03*
%TD*%
D14*
%TO.C,J19*%
X148590000Y-42672000D03*
X151130000Y-42672000D03*
X153670000Y-42672000D03*
X156210000Y-42672000D03*
X158750000Y-42672000D03*
X161290000Y-42672000D03*
X163830000Y-42672000D03*
X166370000Y-42672000D03*
X168910000Y-42672000D03*
%TD*%
%TO.C,J5*%
X110490000Y-68148000D03*
X113030000Y-68148000D03*
X115570000Y-68148000D03*
X118110000Y-68148000D03*
X120650000Y-68148000D03*
X123190000Y-68148000D03*
X125730000Y-68148000D03*
X128270000Y-68148000D03*
X130810000Y-68148000D03*
%TD*%
%TO.C,J7*%
X110490000Y-57326000D03*
X113030000Y-57326000D03*
X115570000Y-57326000D03*
X118110000Y-57326000D03*
X120650000Y-57326000D03*
X123190000Y-57326000D03*
X125730000Y-57326000D03*
X128270000Y-57326000D03*
X130810000Y-57326000D03*
%TD*%
%TO.C,J15*%
X148590000Y-64262000D03*
X151130000Y-64262000D03*
X153670000Y-64262000D03*
X156210000Y-64262000D03*
X158750000Y-64262000D03*
X161290000Y-64262000D03*
X163830000Y-64262000D03*
X166370000Y-64262000D03*
X168910000Y-64262000D03*
%TD*%
%TO.C,J21*%
X148590000Y-31877000D03*
X151130000Y-31877000D03*
X153670000Y-31877000D03*
X156210000Y-31877000D03*
X158750000Y-31877000D03*
X161290000Y-31877000D03*
X163830000Y-31877000D03*
X166370000Y-31877000D03*
X168910000Y-31877000D03*
%TD*%
%TO.C,J11*%
X110490000Y-36063000D03*
X113030000Y-36063000D03*
X115570000Y-36063000D03*
X118110000Y-36063000D03*
X120650000Y-36063000D03*
X123190000Y-36063000D03*
X125730000Y-36063000D03*
X128270000Y-36063000D03*
X130810000Y-36063000D03*
%TD*%
%TO.C,J2*%
X110490000Y-90297000D03*
X113030000Y-90297000D03*
X115570000Y-90297000D03*
X118110000Y-90297000D03*
X120650000Y-90297000D03*
X123190000Y-90297000D03*
X125730000Y-90297000D03*
X128270000Y-90297000D03*
X130810000Y-90297000D03*
%TD*%
%TO.C,J13*%
X148590000Y-90297000D03*
X151130000Y-90297000D03*
X153670000Y-90297000D03*
X156210000Y-90297000D03*
X158750000Y-90297000D03*
X161290000Y-90297000D03*
X163830000Y-90297000D03*
X166370000Y-90297000D03*
X168910000Y-90297000D03*
%TD*%
%TO.C,J20*%
X148590000Y-46758000D03*
X151130000Y-46758000D03*
X153670000Y-46758000D03*
X156210000Y-46758000D03*
X158750000Y-46758000D03*
X161290000Y-46758000D03*
X163830000Y-46758000D03*
X166370000Y-46758000D03*
X168910000Y-46758000D03*
%TD*%
%TO.C,J17*%
X148590000Y-53467000D03*
X151130000Y-53467000D03*
X153670000Y-53467000D03*
X156210000Y-53467000D03*
X158750000Y-53467000D03*
X161290000Y-53467000D03*
X163830000Y-53467000D03*
X166370000Y-53467000D03*
X168910000Y-53467000D03*
%TD*%
D12*
%TO.C,J12*%
X156625000Y-78869000D03*
X154565000Y-81812000D03*
X155494000Y-85282000D03*
X158750000Y-86800000D03*
X162006000Y-85282000D03*
X162935000Y-81812000D03*
X160875000Y-78869000D03*
X158750000Y-82550000D03*
D13*
X150950000Y-82550000D03*
X166550000Y-82550000D03*
%TD*%
D14*
%TO.C,J18*%
X148590000Y-57326000D03*
X151130000Y-57326000D03*
X153670000Y-57326000D03*
X156210000Y-57326000D03*
X158750000Y-57326000D03*
X161290000Y-57326000D03*
X163830000Y-57326000D03*
X166370000Y-57326000D03*
X168910000Y-57326000D03*
%TD*%
%TO.C,J8*%
X110490000Y-42672000D03*
X113030000Y-42672000D03*
X115570000Y-42672000D03*
X118110000Y-42672000D03*
X120650000Y-42672000D03*
X123190000Y-42672000D03*
X125730000Y-42672000D03*
X128270000Y-42672000D03*
X130810000Y-42672000D03*
%TD*%
%TO.C,J22*%
X148590000Y-36063000D03*
X151130000Y-36063000D03*
X153670000Y-36063000D03*
X156210000Y-36063000D03*
X158750000Y-36063000D03*
X161290000Y-36063000D03*
X163830000Y-36063000D03*
X166370000Y-36063000D03*
X168910000Y-36063000D03*
%TD*%
%TO.C,J4*%
X110490000Y-64262000D03*
X113030000Y-64262000D03*
X115570000Y-64262000D03*
X118110000Y-64262000D03*
X120650000Y-64262000D03*
X123190000Y-64262000D03*
X125730000Y-64262000D03*
X128270000Y-64262000D03*
X130810000Y-64262000D03*
%TD*%
%TO.C,J9*%
X110490000Y-46758000D03*
X113030000Y-46758000D03*
X115570000Y-46758000D03*
X118110000Y-46758000D03*
X120650000Y-46758000D03*
X123190000Y-46758000D03*
X125730000Y-46758000D03*
X128270000Y-46758000D03*
X130810000Y-46758000D03*
%TD*%
%TO.C,J10*%
X110490000Y-31877000D03*
X113030000Y-31877000D03*
X115570000Y-31877000D03*
X118110000Y-31877000D03*
X120650000Y-31877000D03*
X123190000Y-31877000D03*
X125730000Y-31877000D03*
X128270000Y-31877000D03*
X130810000Y-31877000D03*
%TD*%
%TO.C,J6*%
X110490000Y-53467000D03*
X113030000Y-53467000D03*
X115570000Y-53467000D03*
X118110000Y-53467000D03*
X120650000Y-53467000D03*
X123190000Y-53467000D03*
X125730000Y-53467000D03*
X128270000Y-53467000D03*
X130810000Y-53467000D03*
%TD*%
%TO.C,J16*%
X148590000Y-68148000D03*
X151130000Y-68148000D03*
X153670000Y-68148000D03*
X156210000Y-68148000D03*
X158750000Y-68148000D03*
X161290000Y-68148000D03*
X163830000Y-68148000D03*
X166370000Y-68148000D03*
X168910000Y-68148000D03*
%TD*%
M02*
