M48
; DRILL file {KiCad 6.0.11-2627ca5db0~126~ubuntu22.04.1} date Wed 29 Mar 2023 10:33:59 AM PDT
; FORMAT={-:-/ absolute / inch / decimal}
; #@! TF.CreationDate,2023-03-29T10:33:59-07:00
; #@! TF.GenerationSoftware,Kicad,Pcbnew,6.0.11-2627ca5db0~126~ubuntu22.04.1
; #@! TF.FileFunction,Plated,1,2,PTH
FMAT,2
INCH
; #@! TA.AperFunction,Plated,PTH,ViaDrill
T1C0.0157
; #@! TA.AperFunction,Plated,PTH,ComponentDrill
T2C0.0630
%
G90
G05
T1
X4.35Y-3.525
X4.4Y-3.325
X4.4Y-3.45
X4.45Y-3.15
X4.45Y-3.525
X4.5Y-3.25
X4.5Y-3.45
X4.525Y-3.075
X4.55Y-3.525
X4.65Y-3.525
X4.67Y-3.195
X4.675Y-3.45
X4.71Y-3.33
X4.75Y-3.525
X4.79Y-3.33
X4.825Y-3.45
X4.83Y-3.195
X4.85Y-3.525
X4.95Y-3.525
X4.975Y-3.075
X5.0Y-3.25
X5.0Y-3.45
X5.05Y-3.15
X5.05Y-3.525
X5.1Y-3.35
X5.1Y-3.45
X5.15Y-3.525
X5.85Y-3.525
X5.9Y-3.325
X5.9Y-3.45
X5.95Y-3.15
X5.95Y-3.525
X6.0Y-3.25
X6.0Y-3.45
X6.025Y-3.075
X6.05Y-3.525
X6.15Y-3.525
X6.17Y-3.195
X6.175Y-3.45
X6.21Y-3.33
X6.25Y-3.525
X6.29Y-3.33
X6.325Y-3.45
X6.33Y-3.195
X6.35Y-3.525
X6.45Y-3.525
X6.475Y-3.075
X6.5Y-3.25
X6.5Y-3.45
X6.55Y-3.15
X6.55Y-3.525
X6.6Y-3.35
X6.6Y-3.45
X6.65Y-3.525
T2
X4.5852Y-3.2209
X4.6218Y-3.3576
X4.6663Y-3.1051
X4.75Y-3.25
X4.75Y-3.4173
X4.8337Y-3.1051
X4.8782Y-3.3576
X4.9148Y-3.2209
X6.0852Y-3.2209
X6.1218Y-3.3576
X6.1663Y-3.1051
X6.25Y-3.25
X6.25Y-3.4173
X6.3337Y-3.1051
X6.3782Y-3.3576
X6.4148Y-3.2209
T0
M30
