%TF.GenerationSoftware,KiCad,Pcbnew,6.0.11-2627ca5db0~126~ubuntu22.04.1*%
%TF.CreationDate,2023-03-29T10:33:59-07:00*%
%TF.ProjectId,GX16-8P-Horizontal Slot Test,47583136-2d38-4502-9d48-6f72697a6f6e,rev?*%
%TF.SameCoordinates,Original*%
%TF.FileFunction,Profile,NP*%
%FSLAX46Y46*%
G04 Gerber Fmt 4.6, Leading zero omitted, Abs format (unit mm)*
G04 Created by KiCad (PCBNEW 6.0.11-2627ca5db0~126~ubuntu22.04.1) date 2023-03-29 10:33:59*
%MOMM*%
%LPD*%
G01*
G04 APERTURE LIST*
%TA.AperFunction,Profile*%
%ADD10C,0.100000*%
%TD*%
%TA.AperFunction,Profile*%
%ADD11C,0.150000*%
%TD*%
G04 APERTURE END LIST*
D10*
X147320000Y-91440000D02*
X147320000Y-93345000D01*
X109220000Y-93345000D02*
X132080000Y-93345000D01*
X171450000Y-93345000D02*
X171450000Y-91440000D01*
X145415000Y-91440000D02*
X147320000Y-91440000D01*
X107315000Y-74930000D02*
X107315000Y-91440000D01*
X109220000Y-91440000D02*
X109220000Y-93345000D01*
X171450000Y-91440000D02*
X173355000Y-91440000D01*
D11*
X108712000Y-33020000D02*
X132588000Y-33020000D01*
X132588000Y-33020000D02*
X132588000Y-34920000D01*
X132588000Y-34920000D02*
X108712000Y-34920000D01*
X108712000Y-34920000D02*
X108712000Y-33020000D01*
X146812000Y-33020000D02*
X171958000Y-33020000D01*
X171958000Y-33020000D02*
X171958000Y-34920000D01*
X171958000Y-34920000D02*
X146812000Y-34920000D01*
X146812000Y-34920000D02*
X146812000Y-33020000D01*
D10*
X147320000Y-93345000D02*
X171450000Y-93345000D01*
D11*
X139700000Y-93345000D02*
X177800000Y-93345000D01*
X177800000Y-93345000D02*
X177800000Y-98425000D01*
X177800000Y-98425000D02*
X139700000Y-98425000D01*
X139700000Y-98425000D02*
X139700000Y-93345000D01*
D10*
X133985000Y-91440000D02*
X133985000Y-74930000D01*
X147193000Y-54610000D02*
X171577000Y-54610000D01*
X171577000Y-54610000D02*
X171577000Y-56183000D01*
X171577000Y-56183000D02*
X147193000Y-56183000D01*
X147193000Y-56183000D02*
X147193000Y-54610000D01*
X132080000Y-91440000D02*
X133985000Y-91440000D01*
X133985000Y-74930000D02*
X107315000Y-74930000D01*
X109093000Y-54610000D02*
X132207000Y-54610000D01*
X132207000Y-54610000D02*
X132207000Y-56183000D01*
X132207000Y-56183000D02*
X109093000Y-56183000D01*
X109093000Y-56183000D02*
X109093000Y-54610000D01*
X173355000Y-91440000D02*
X173355000Y-74930000D01*
X132080000Y-65405000D02*
X109220000Y-65405000D01*
X109220000Y-65405000D02*
X109220000Y-67005000D01*
X109220000Y-67005000D02*
X132080000Y-67005000D01*
X132080000Y-67005000D02*
X132080000Y-65405000D01*
X173355000Y-74930000D02*
X145415000Y-74930000D01*
X171450000Y-65405000D02*
X147320000Y-65405000D01*
X147320000Y-65405000D02*
X147320000Y-67005000D01*
X147320000Y-67005000D02*
X171450000Y-67005000D01*
X171450000Y-67005000D02*
X171450000Y-65405000D01*
X132080000Y-93345000D02*
X132080000Y-91440000D01*
X107315000Y-91440000D02*
X109220000Y-91440000D01*
D11*
X101600000Y-93345000D02*
X139700000Y-93345000D01*
X139700000Y-93345000D02*
X139700000Y-98425000D01*
X139700000Y-98425000D02*
X101600000Y-98425000D01*
X101600000Y-98425000D02*
X101600000Y-93345000D01*
D10*
X145415000Y-74930000D02*
X145415000Y-91440000D01*
X139700000Y-74930000D02*
X101600000Y-74930000D01*
X101600000Y-74930000D02*
X101600000Y-27940000D01*
X101600000Y-27940000D02*
X139700000Y-27940000D01*
X139700000Y-27940000D02*
X139700000Y-74930000D01*
X177800000Y-74930000D02*
X139700000Y-74930000D01*
X139700000Y-74930000D02*
X139700000Y-27940000D01*
X139700000Y-27940000D02*
X177800000Y-27940000D01*
X177800000Y-27940000D02*
X177800000Y-74930000D01*
D11*
X147066000Y-43815000D02*
X171704000Y-43815000D01*
X171704000Y-43815000D02*
X171704000Y-45615000D01*
X171704000Y-45615000D02*
X147066000Y-45615000D01*
X147066000Y-45615000D02*
X147066000Y-43815000D01*
X108966000Y-43815000D02*
X132334000Y-43815000D01*
X132334000Y-43815000D02*
X132334000Y-45615000D01*
X132334000Y-45615000D02*
X108966000Y-45615000D01*
X108966000Y-45615000D02*
X108966000Y-43815000D01*
M02*
