%TF.GenerationSoftware,KiCad,Pcbnew,6.0.10-86aedd382b~118~ubuntu22.04.1*%
%TF.CreationDate,2023-01-03T21:57:38-08:00*%
%TF.ProjectId,GX16-8P-Horizontal,47583136-2d38-4502-9d48-6f72697a6f6e,rev?*%
%TF.SameCoordinates,Original*%
%TF.FileFunction,Soldermask,Top*%
%TF.FilePolarity,Negative*%
%FSLAX46Y46*%
G04 Gerber Fmt 4.6, Leading zero omitted, Abs format (unit mm)*
G04 Created by KiCad (PCBNEW 6.0.10-86aedd382b~118~ubuntu22.04.1) date 2023-01-03 21:57:38*
%MOMM*%
%LPD*%
G01*
G04 APERTURE LIST*
%ADD10C,0.127000*%
%ADD11C,2.540000*%
%ADD12R,1.700000X1.700000*%
%ADD13O,1.700000X1.700000*%
G04 APERTURE END LIST*
D10*
X136452428Y-59907714D02*
X136597571Y-59907714D01*
X136670142Y-59944000D01*
X136742714Y-60016571D01*
X136779000Y-60161714D01*
X136779000Y-60415714D01*
X136742714Y-60560857D01*
X136670142Y-60633428D01*
X136597571Y-60669714D01*
X136452428Y-60669714D01*
X136379857Y-60633428D01*
X136307285Y-60560857D01*
X136271000Y-60415714D01*
X136271000Y-60161714D01*
X136307285Y-60016571D01*
X136379857Y-59944000D01*
X136452428Y-59907714D01*
X136506857Y-62066714D02*
X135926285Y-62284428D01*
X136506857Y-62502142D01*
X136869714Y-62066714D02*
X137450285Y-62284428D01*
X136869714Y-62502142D01*
X138393714Y-62066714D02*
X137813142Y-62284428D01*
X138393714Y-62502142D01*
X135835571Y-61939714D02*
X135763000Y-61903428D01*
X135726714Y-61867142D01*
X135690428Y-61794571D01*
X135690428Y-61576857D01*
X135726714Y-61504285D01*
X135763000Y-61468000D01*
X135835571Y-61431714D01*
X135944428Y-61431714D01*
X136017000Y-61468000D01*
X136053285Y-61504285D01*
X136089571Y-61576857D01*
X136089571Y-61794571D01*
X136053285Y-61867142D01*
X136017000Y-61903428D01*
X135944428Y-61939714D01*
X135835571Y-61939714D01*
X134021285Y-62701714D02*
X134601857Y-62919428D01*
X134021285Y-63137142D01*
X135545285Y-62701714D02*
X134964714Y-62919428D01*
X135545285Y-63137142D01*
X135908142Y-62701714D02*
X136488714Y-62919428D01*
X135908142Y-63137142D01*
X135182428Y-58637714D02*
X135327571Y-58637714D01*
X135400142Y-58674000D01*
X135472714Y-58746571D01*
X135509000Y-58891714D01*
X135509000Y-59145714D01*
X135472714Y-59290857D01*
X135400142Y-59363428D01*
X135327571Y-59399714D01*
X135182428Y-59399714D01*
X135109857Y-59363428D01*
X135037285Y-59290857D01*
X135001000Y-59145714D01*
X135001000Y-58891714D01*
X135037285Y-58746571D01*
X135109857Y-58674000D01*
X135182428Y-58637714D01*
D11*
%TO.C,J1*%
X129125000Y-59819000D03*
X131185000Y-62762000D03*
X130256000Y-66232000D03*
X127000000Y-67750000D03*
X123744000Y-66232000D03*
X122815000Y-62762000D03*
X124875000Y-59819000D03*
X127000000Y-63500000D03*
%TD*%
D12*
%TO.C,J2*%
X137160000Y-71120000D03*
D13*
X134620000Y-71120000D03*
X132080000Y-71120000D03*
X129540000Y-71120000D03*
X127000000Y-71120000D03*
X124460000Y-71120000D03*
X121920000Y-71120000D03*
X119380000Y-71120000D03*
X116840000Y-71120000D03*
%TD*%
M02*
