%TF.GenerationSoftware,KiCad,Pcbnew,6.0.10-86aedd382b~118~ubuntu22.04.1*%
%TF.CreationDate,2023-01-03T21:57:38-08:00*%
%TF.ProjectId,GX16-8P-Horizontal,47583136-2d38-4502-9d48-6f72697a6f6e,rev?*%
%TF.SameCoordinates,Original*%
%TF.FileFunction,Copper,L2,Bot*%
%TF.FilePolarity,Positive*%
%FSLAX46Y46*%
G04 Gerber Fmt 4.6, Leading zero omitted, Abs format (unit mm)*
G04 Created by KiCad (PCBNEW 6.0.10-86aedd382b~118~ubuntu22.04.1) date 2023-01-03 21:57:38*
%MOMM*%
%LPD*%
G01*
G04 APERTURE LIST*
%TA.AperFunction,ComponentPad*%
%ADD10C,2.540000*%
%TD*%
%TA.AperFunction,SMDPad,CuDef*%
%ADD11R,2.540000X2.540000*%
%TD*%
%TA.AperFunction,ComponentPad*%
%ADD12R,1.700000X1.700000*%
%TD*%
%TA.AperFunction,ComponentPad*%
%ADD13O,1.700000X1.700000*%
%TD*%
%TA.AperFunction,ViaPad*%
%ADD14C,0.800000*%
%TD*%
G04 APERTURE END LIST*
D10*
%TO.P,J1,1,Pin_1*%
%TO.N,Net-(J1-Pad1)*%
X129125000Y-59819000D03*
%TO.P,J1,2,Pin_2*%
%TO.N,Net-(J1-Pad2)*%
X131185000Y-62762000D03*
%TO.P,J1,3,Pin_3*%
%TO.N,Net-(J1-Pad3)*%
X130256000Y-66232000D03*
%TO.P,J1,4,Pin_4*%
%TO.N,Net-(J1-Pad4)*%
X127000000Y-67750000D03*
%TO.P,J1,5,Pin_5*%
%TO.N,Net-(J1-Pad5)*%
X123744000Y-66232000D03*
%TO.P,J1,6,Pin_6*%
%TO.N,Net-(J1-Pad6)*%
X122815000Y-62762000D03*
%TO.P,J1,7,Pin_7*%
%TO.N,Net-(J1-Pad7)*%
X124875000Y-59819000D03*
%TO.P,J1,8,Pin_8*%
%TO.N,Net-(J1-Pad8)*%
X127000000Y-63500000D03*
D11*
%TO.P,J1,MP,MountPin*%
%TO.N,GND*%
X134800000Y-63500000D03*
X119200000Y-63500000D03*
%TD*%
D12*
%TO.P,J2,1,Pin_1*%
%TO.N,GND*%
X137160000Y-71120000D03*
D13*
%TO.P,J2,2,Pin_2*%
%TO.N,Net-(J1-Pad1)*%
X134620000Y-71120000D03*
%TO.P,J2,3,Pin_3*%
%TO.N,Net-(J1-Pad2)*%
X132080000Y-71120000D03*
%TO.P,J2,4,Pin_4*%
%TO.N,Net-(J1-Pad3)*%
X129540000Y-71120000D03*
%TO.P,J2,5,Pin_5*%
%TO.N,Net-(J1-Pad4)*%
X127000000Y-71120000D03*
%TO.P,J2,6,Pin_6*%
%TO.N,Net-(J1-Pad5)*%
X124460000Y-71120000D03*
%TO.P,J2,7,Pin_7*%
%TO.N,Net-(J1-Pad6)*%
X121920000Y-71120000D03*
%TO.P,J2,8,Pin_8*%
%TO.N,Net-(J1-Pad7)*%
X119380000Y-71120000D03*
%TO.P,J2,9,Pin_9*%
%TO.N,Net-(J1-Pad8)*%
X116840000Y-71120000D03*
%TD*%
D14*
%TO.N,GND*%
X116840000Y-57785000D03*
X128270000Y-65405000D03*
X118110000Y-69850000D03*
X127635000Y-57785000D03*
X123190000Y-69850000D03*
X137160000Y-69850000D03*
X135890000Y-63500000D03*
X138176000Y-63500000D03*
X120650000Y-69850000D03*
X118745000Y-65405000D03*
X133350000Y-69850000D03*
X137160000Y-57785000D03*
X135255000Y-65405000D03*
X118745000Y-61595000D03*
X128270000Y-69850000D03*
X133350000Y-57785000D03*
X118110000Y-63500000D03*
X130810000Y-69850000D03*
X122555000Y-58420000D03*
X135255000Y-61595000D03*
X125095000Y-62230000D03*
X125730000Y-69850000D03*
X128905000Y-62230000D03*
X130810000Y-68580000D03*
X125730000Y-65405000D03*
X133350000Y-67310000D03*
X115824000Y-63500000D03*
X115824000Y-69723000D03*
X120650000Y-67310000D03*
X123190000Y-68580000D03*
%TD*%
%TA.AperFunction,Conductor*%
%TO.N,GND*%
G36*
X138625621Y-56916502D02*
G01*
X138672114Y-56970158D01*
X138683500Y-57022500D01*
X138683500Y-71882500D01*
X138663498Y-71950621D01*
X138609842Y-71997114D01*
X138557500Y-72008500D01*
X138517000Y-72008500D01*
X138448879Y-71988498D01*
X138402386Y-71934842D01*
X138391000Y-71882500D01*
X138391000Y-71519115D01*
X138386525Y-71503876D01*
X138385135Y-71502671D01*
X138377452Y-71501000D01*
X136905000Y-71501000D01*
X136836879Y-71480998D01*
X136790386Y-71427342D01*
X136779000Y-71375000D01*
X136779000Y-70720885D01*
X137541000Y-70720885D01*
X137545475Y-70736124D01*
X137546865Y-70737329D01*
X137554548Y-70739000D01*
X138372885Y-70739000D01*
X138388124Y-70734525D01*
X138389329Y-70733135D01*
X138391000Y-70725452D01*
X138391000Y-70238496D01*
X138390330Y-70229336D01*
X138381402Y-70168687D01*
X138375661Y-70150213D01*
X138328665Y-70054493D01*
X138316705Y-70037788D01*
X138241678Y-69962891D01*
X138224950Y-69950959D01*
X138129140Y-69904127D01*
X138110672Y-69898419D01*
X138050636Y-69889660D01*
X138041537Y-69889000D01*
X137559115Y-69889000D01*
X137543876Y-69893475D01*
X137542671Y-69894865D01*
X137541000Y-69902548D01*
X137541000Y-70720885D01*
X136779000Y-70720885D01*
X136779000Y-69907115D01*
X136774525Y-69891876D01*
X136773135Y-69890671D01*
X136765452Y-69889000D01*
X136278496Y-69889000D01*
X136269336Y-69889670D01*
X136208687Y-69898598D01*
X136190213Y-69904339D01*
X136094493Y-69951335D01*
X136077788Y-69963295D01*
X136002891Y-70038322D01*
X135990959Y-70055050D01*
X135944127Y-70150860D01*
X135938419Y-70169328D01*
X135929660Y-70229364D01*
X135929000Y-70238463D01*
X135929000Y-70445567D01*
X135908998Y-70513688D01*
X135855342Y-70560181D01*
X135785068Y-70570285D01*
X135720488Y-70540791D01*
X135693881Y-70508567D01*
X135692908Y-70506882D01*
X135690584Y-70501898D01*
X135566987Y-70325383D01*
X135414617Y-70173013D01*
X135410109Y-70169856D01*
X135410106Y-70169854D01*
X135242611Y-70052573D01*
X135242609Y-70052572D01*
X135238102Y-70049416D01*
X135233120Y-70047093D01*
X135233115Y-70047090D01*
X135047789Y-69960671D01*
X135047787Y-69960670D01*
X135042807Y-69958348D01*
X135037499Y-69956926D01*
X135037497Y-69956925D01*
X134839980Y-69904001D01*
X134839978Y-69904001D01*
X134834665Y-69902577D01*
X134620000Y-69883796D01*
X134405335Y-69902577D01*
X134400022Y-69904001D01*
X134400020Y-69904001D01*
X134202503Y-69956925D01*
X134202501Y-69956926D01*
X134197193Y-69958348D01*
X134192213Y-69960670D01*
X134192211Y-69960671D01*
X134006885Y-70047090D01*
X134006880Y-70047093D01*
X134001898Y-70049416D01*
X133997391Y-70052572D01*
X133997389Y-70052573D01*
X133829894Y-70169854D01*
X133829891Y-70169856D01*
X133825383Y-70173013D01*
X133673013Y-70325383D01*
X133549416Y-70501898D01*
X133547093Y-70506880D01*
X133547090Y-70506885D01*
X133464195Y-70684654D01*
X133417277Y-70737939D01*
X133349000Y-70757400D01*
X133281040Y-70736858D01*
X133235805Y-70684654D01*
X133152910Y-70506885D01*
X133152907Y-70506880D01*
X133150584Y-70501898D01*
X133026987Y-70325383D01*
X132874617Y-70173013D01*
X132870109Y-70169856D01*
X132870106Y-70169854D01*
X132702611Y-70052573D01*
X132702609Y-70052572D01*
X132698102Y-70049416D01*
X132693120Y-70047093D01*
X132693115Y-70047090D01*
X132507789Y-69960671D01*
X132507787Y-69960670D01*
X132502807Y-69958348D01*
X132497499Y-69956926D01*
X132497497Y-69956925D01*
X132299980Y-69904001D01*
X132299978Y-69904001D01*
X132294665Y-69902577D01*
X132080000Y-69883796D01*
X131865335Y-69902577D01*
X131860022Y-69904001D01*
X131860020Y-69904001D01*
X131662503Y-69956925D01*
X131662501Y-69956926D01*
X131657193Y-69958348D01*
X131652213Y-69960670D01*
X131652211Y-69960671D01*
X131466885Y-70047090D01*
X131466880Y-70047093D01*
X131461898Y-70049416D01*
X131457391Y-70052572D01*
X131457389Y-70052573D01*
X131289894Y-70169854D01*
X131289891Y-70169856D01*
X131285383Y-70173013D01*
X131133013Y-70325383D01*
X131009416Y-70501898D01*
X131007093Y-70506880D01*
X131007090Y-70506885D01*
X130924195Y-70684654D01*
X130877277Y-70737939D01*
X130809000Y-70757400D01*
X130741040Y-70736858D01*
X130695805Y-70684654D01*
X130612910Y-70506885D01*
X130612907Y-70506880D01*
X130610584Y-70501898D01*
X130486987Y-70325383D01*
X130334617Y-70173013D01*
X130330109Y-70169856D01*
X130330106Y-70169854D01*
X130162611Y-70052573D01*
X130162609Y-70052572D01*
X130158102Y-70049416D01*
X130153120Y-70047093D01*
X130153115Y-70047090D01*
X129967789Y-69960671D01*
X129967787Y-69960670D01*
X129962807Y-69958348D01*
X129957499Y-69956926D01*
X129957497Y-69956925D01*
X129759980Y-69904001D01*
X129759978Y-69904001D01*
X129754665Y-69902577D01*
X129540000Y-69883796D01*
X129325335Y-69902577D01*
X129320022Y-69904001D01*
X129320020Y-69904001D01*
X129122503Y-69956925D01*
X129122501Y-69956926D01*
X129117193Y-69958348D01*
X129112213Y-69960670D01*
X129112211Y-69960671D01*
X128926885Y-70047090D01*
X128926880Y-70047093D01*
X128921898Y-70049416D01*
X128917391Y-70052572D01*
X128917389Y-70052573D01*
X128749894Y-70169854D01*
X128749891Y-70169856D01*
X128745383Y-70173013D01*
X128593013Y-70325383D01*
X128469416Y-70501898D01*
X128467093Y-70506880D01*
X128467090Y-70506885D01*
X128384195Y-70684654D01*
X128337277Y-70737939D01*
X128269000Y-70757400D01*
X128201040Y-70736858D01*
X128155805Y-70684654D01*
X128072910Y-70506885D01*
X128072907Y-70506880D01*
X128070584Y-70501898D01*
X127946987Y-70325383D01*
X127794617Y-70173013D01*
X127790109Y-70169856D01*
X127790106Y-70169854D01*
X127622611Y-70052573D01*
X127622609Y-70052572D01*
X127618102Y-70049416D01*
X127613120Y-70047093D01*
X127613115Y-70047090D01*
X127427789Y-69960671D01*
X127427787Y-69960670D01*
X127422807Y-69958348D01*
X127417499Y-69956926D01*
X127417497Y-69956925D01*
X127219980Y-69904001D01*
X127219978Y-69904001D01*
X127214665Y-69902577D01*
X127000000Y-69883796D01*
X126785335Y-69902577D01*
X126780022Y-69904001D01*
X126780020Y-69904001D01*
X126582503Y-69956925D01*
X126582501Y-69956926D01*
X126577193Y-69958348D01*
X126572213Y-69960670D01*
X126572211Y-69960671D01*
X126386885Y-70047090D01*
X126386880Y-70047093D01*
X126381898Y-70049416D01*
X126377391Y-70052572D01*
X126377389Y-70052573D01*
X126209894Y-70169854D01*
X126209891Y-70169856D01*
X126205383Y-70173013D01*
X126053013Y-70325383D01*
X125929416Y-70501898D01*
X125927093Y-70506880D01*
X125927090Y-70506885D01*
X125844195Y-70684654D01*
X125797277Y-70737939D01*
X125729000Y-70757400D01*
X125661040Y-70736858D01*
X125615805Y-70684654D01*
X125532910Y-70506885D01*
X125532907Y-70506880D01*
X125530584Y-70501898D01*
X125406987Y-70325383D01*
X125254617Y-70173013D01*
X125250109Y-70169856D01*
X125250106Y-70169854D01*
X125082611Y-70052573D01*
X125082609Y-70052572D01*
X125078102Y-70049416D01*
X125073120Y-70047093D01*
X125073115Y-70047090D01*
X124887789Y-69960671D01*
X124887787Y-69960670D01*
X124882807Y-69958348D01*
X124877499Y-69956926D01*
X124877497Y-69956925D01*
X124679980Y-69904001D01*
X124679978Y-69904001D01*
X124674665Y-69902577D01*
X124460000Y-69883796D01*
X124245335Y-69902577D01*
X124240022Y-69904001D01*
X124240020Y-69904001D01*
X124042503Y-69956925D01*
X124042501Y-69956926D01*
X124037193Y-69958348D01*
X124032213Y-69960670D01*
X124032211Y-69960671D01*
X123846885Y-70047090D01*
X123846880Y-70047093D01*
X123841898Y-70049416D01*
X123837391Y-70052572D01*
X123837389Y-70052573D01*
X123669894Y-70169854D01*
X123669891Y-70169856D01*
X123665383Y-70173013D01*
X123513013Y-70325383D01*
X123389416Y-70501898D01*
X123387093Y-70506880D01*
X123387090Y-70506885D01*
X123304195Y-70684654D01*
X123257277Y-70737939D01*
X123189000Y-70757400D01*
X123121040Y-70736858D01*
X123075805Y-70684654D01*
X122992910Y-70506885D01*
X122992907Y-70506880D01*
X122990584Y-70501898D01*
X122866987Y-70325383D01*
X122714617Y-70173013D01*
X122710109Y-70169856D01*
X122710106Y-70169854D01*
X122542611Y-70052573D01*
X122542609Y-70052572D01*
X122538102Y-70049416D01*
X122533120Y-70047093D01*
X122533115Y-70047090D01*
X122347789Y-69960671D01*
X122347787Y-69960670D01*
X122342807Y-69958348D01*
X122337499Y-69956926D01*
X122337497Y-69956925D01*
X122139980Y-69904001D01*
X122139978Y-69904001D01*
X122134665Y-69902577D01*
X121920000Y-69883796D01*
X121705335Y-69902577D01*
X121700022Y-69904001D01*
X121700020Y-69904001D01*
X121502503Y-69956925D01*
X121502501Y-69956926D01*
X121497193Y-69958348D01*
X121492213Y-69960670D01*
X121492211Y-69960671D01*
X121306885Y-70047090D01*
X121306880Y-70047093D01*
X121301898Y-70049416D01*
X121297391Y-70052572D01*
X121297389Y-70052573D01*
X121129894Y-70169854D01*
X121129891Y-70169856D01*
X121125383Y-70173013D01*
X120973013Y-70325383D01*
X120849416Y-70501898D01*
X120847093Y-70506880D01*
X120847090Y-70506885D01*
X120764195Y-70684654D01*
X120717277Y-70737939D01*
X120649000Y-70757400D01*
X120581040Y-70736858D01*
X120535805Y-70684654D01*
X120452910Y-70506885D01*
X120452907Y-70506880D01*
X120450584Y-70501898D01*
X120326987Y-70325383D01*
X120174617Y-70173013D01*
X120170109Y-70169856D01*
X120170106Y-70169854D01*
X120002611Y-70052573D01*
X120002609Y-70052572D01*
X119998102Y-70049416D01*
X119993120Y-70047093D01*
X119993115Y-70047090D01*
X119807789Y-69960671D01*
X119807787Y-69960670D01*
X119802807Y-69958348D01*
X119797499Y-69956926D01*
X119797497Y-69956925D01*
X119599980Y-69904001D01*
X119599978Y-69904001D01*
X119594665Y-69902577D01*
X119380000Y-69883796D01*
X119165335Y-69902577D01*
X119160022Y-69904001D01*
X119160020Y-69904001D01*
X118962503Y-69956925D01*
X118962501Y-69956926D01*
X118957193Y-69958348D01*
X118952213Y-69960670D01*
X118952211Y-69960671D01*
X118766885Y-70047090D01*
X118766880Y-70047093D01*
X118761898Y-70049416D01*
X118757391Y-70052572D01*
X118757389Y-70052573D01*
X118589894Y-70169854D01*
X118589891Y-70169856D01*
X118585383Y-70173013D01*
X118433013Y-70325383D01*
X118309416Y-70501898D01*
X118307093Y-70506880D01*
X118307090Y-70506885D01*
X118224195Y-70684654D01*
X118177277Y-70737939D01*
X118109000Y-70757400D01*
X118041040Y-70736858D01*
X117995805Y-70684654D01*
X117912910Y-70506885D01*
X117912907Y-70506880D01*
X117910584Y-70501898D01*
X117786987Y-70325383D01*
X117634617Y-70173013D01*
X117630109Y-70169856D01*
X117630106Y-70169854D01*
X117462611Y-70052573D01*
X117462609Y-70052572D01*
X117458102Y-70049416D01*
X117453120Y-70047093D01*
X117453115Y-70047090D01*
X117267789Y-69960671D01*
X117267787Y-69960670D01*
X117262807Y-69958348D01*
X117257499Y-69956926D01*
X117257497Y-69956925D01*
X117059980Y-69904001D01*
X117059978Y-69904001D01*
X117054665Y-69902577D01*
X116840000Y-69883796D01*
X116625335Y-69902577D01*
X116620022Y-69904001D01*
X116620020Y-69904001D01*
X116422503Y-69956925D01*
X116422501Y-69956926D01*
X116417193Y-69958348D01*
X116412213Y-69960670D01*
X116412211Y-69960671D01*
X116226885Y-70047090D01*
X116226880Y-70047093D01*
X116221898Y-70049416D01*
X116217391Y-70052572D01*
X116217389Y-70052573D01*
X116049894Y-70169854D01*
X116049891Y-70169856D01*
X116045383Y-70173013D01*
X115893013Y-70325383D01*
X115769416Y-70501898D01*
X115767093Y-70506880D01*
X115767090Y-70506885D01*
X115742238Y-70560181D01*
X115678348Y-70697193D01*
X115676926Y-70702501D01*
X115676925Y-70702503D01*
X115667430Y-70737939D01*
X115622577Y-70905335D01*
X115603796Y-71120000D01*
X115622577Y-71334665D01*
X115624001Y-71339978D01*
X115624001Y-71339980D01*
X115667917Y-71503876D01*
X115678348Y-71542807D01*
X115680670Y-71547787D01*
X115680671Y-71547789D01*
X115767090Y-71733115D01*
X115767093Y-71733120D01*
X115769416Y-71738102D01*
X115772573Y-71742610D01*
X115819920Y-71810229D01*
X115842608Y-71877503D01*
X115825323Y-71946364D01*
X115773553Y-71994948D01*
X115716707Y-72008500D01*
X115442500Y-72008500D01*
X115374379Y-71988498D01*
X115327886Y-71934842D01*
X115316500Y-71882500D01*
X115316500Y-66232000D01*
X122087393Y-66232000D01*
X122107789Y-66491150D01*
X122168473Y-66743920D01*
X122267952Y-66984084D01*
X122403777Y-67205729D01*
X122406994Y-67209496D01*
X122406995Y-67209497D01*
X122431407Y-67238080D01*
X122572602Y-67403398D01*
X122770271Y-67572223D01*
X122991916Y-67708048D01*
X122996486Y-67709941D01*
X122996488Y-67709942D01*
X123081295Y-67745070D01*
X123232080Y-67807527D01*
X123318543Y-67828285D01*
X123480037Y-67867056D01*
X123480043Y-67867057D01*
X123484850Y-67868211D01*
X123744000Y-67888607D01*
X124003150Y-67868211D01*
X124007957Y-67867057D01*
X124007963Y-67867056D01*
X124169457Y-67828285D01*
X124255920Y-67807527D01*
X124394803Y-67750000D01*
X125343393Y-67750000D01*
X125363789Y-68009150D01*
X125424473Y-68261920D01*
X125523952Y-68502084D01*
X125659777Y-68723729D01*
X125828602Y-68921398D01*
X126026271Y-69090223D01*
X126247916Y-69226048D01*
X126252486Y-69227941D01*
X126252488Y-69227942D01*
X126483507Y-69323633D01*
X126488080Y-69325527D01*
X126574543Y-69346285D01*
X126736037Y-69385056D01*
X126736043Y-69385057D01*
X126740850Y-69386211D01*
X127000000Y-69406607D01*
X127259150Y-69386211D01*
X127263957Y-69385057D01*
X127263963Y-69385056D01*
X127425457Y-69346285D01*
X127511920Y-69325527D01*
X127516493Y-69323633D01*
X127747512Y-69227942D01*
X127747514Y-69227941D01*
X127752084Y-69226048D01*
X127973729Y-69090223D01*
X128171398Y-68921398D01*
X128340223Y-68723729D01*
X128476048Y-68502084D01*
X128575527Y-68261920D01*
X128636211Y-68009150D01*
X128656607Y-67750000D01*
X128636211Y-67490850D01*
X128575527Y-67238080D01*
X128476048Y-66997916D01*
X128340223Y-66776271D01*
X128316499Y-66748493D01*
X128174611Y-66582364D01*
X128171398Y-66578602D01*
X127973729Y-66409777D01*
X127752084Y-66273952D01*
X127747514Y-66272059D01*
X127747512Y-66272058D01*
X127650803Y-66232000D01*
X128599393Y-66232000D01*
X128619789Y-66491150D01*
X128680473Y-66743920D01*
X128779952Y-66984084D01*
X128915777Y-67205729D01*
X128918994Y-67209496D01*
X128918995Y-67209497D01*
X128943407Y-67238080D01*
X129084602Y-67403398D01*
X129282271Y-67572223D01*
X129503916Y-67708048D01*
X129508486Y-67709941D01*
X129508488Y-67709942D01*
X129593295Y-67745070D01*
X129744080Y-67807527D01*
X129830543Y-67828285D01*
X129992037Y-67867056D01*
X129992043Y-67867057D01*
X129996850Y-67868211D01*
X130256000Y-67888607D01*
X130515150Y-67868211D01*
X130519957Y-67867057D01*
X130519963Y-67867056D01*
X130681457Y-67828285D01*
X130767920Y-67807527D01*
X130918705Y-67745070D01*
X131003512Y-67709942D01*
X131003514Y-67709941D01*
X131008084Y-67708048D01*
X131229729Y-67572223D01*
X131427398Y-67403398D01*
X131568593Y-67238080D01*
X131593005Y-67209497D01*
X131593006Y-67209496D01*
X131596223Y-67205729D01*
X131732048Y-66984084D01*
X131831527Y-66743920D01*
X131892211Y-66491150D01*
X131912607Y-66232000D01*
X131892211Y-65972850D01*
X131831527Y-65720080D01*
X131732048Y-65479916D01*
X131596223Y-65258271D01*
X131509063Y-65156219D01*
X131440145Y-65075527D01*
X131427398Y-65060602D01*
X131229729Y-64891777D01*
X131082418Y-64801504D01*
X133149000Y-64801504D01*
X133149670Y-64810664D01*
X133158598Y-64871313D01*
X133164339Y-64889787D01*
X133211335Y-64985507D01*
X133223295Y-65002212D01*
X133298322Y-65077109D01*
X133315050Y-65089041D01*
X133410860Y-65135873D01*
X133429328Y-65141581D01*
X133489364Y-65150340D01*
X133498463Y-65151000D01*
X134400885Y-65151000D01*
X134416124Y-65146525D01*
X134417329Y-65145135D01*
X134419000Y-65137452D01*
X134419000Y-65132885D01*
X135181000Y-65132885D01*
X135185475Y-65148124D01*
X135186865Y-65149329D01*
X135194548Y-65151000D01*
X136101504Y-65151000D01*
X136110664Y-65150330D01*
X136171313Y-65141402D01*
X136189787Y-65135661D01*
X136285507Y-65088665D01*
X136302212Y-65076705D01*
X136377109Y-65001678D01*
X136389041Y-64984950D01*
X136435873Y-64889140D01*
X136441581Y-64870672D01*
X136450340Y-64810636D01*
X136451000Y-64801537D01*
X136451000Y-63899115D01*
X136446525Y-63883876D01*
X136445135Y-63882671D01*
X136437452Y-63881000D01*
X135199115Y-63881000D01*
X135183876Y-63885475D01*
X135182671Y-63886865D01*
X135181000Y-63894548D01*
X135181000Y-65132885D01*
X134419000Y-65132885D01*
X134419000Y-63899115D01*
X134414525Y-63883876D01*
X134413135Y-63882671D01*
X134405452Y-63881000D01*
X133167115Y-63881000D01*
X133151876Y-63885475D01*
X133150671Y-63886865D01*
X133149000Y-63894548D01*
X133149000Y-64801504D01*
X131082418Y-64801504D01*
X131008084Y-64755952D01*
X131003514Y-64754059D01*
X131003512Y-64754058D01*
X130772493Y-64658367D01*
X130772491Y-64658366D01*
X130767920Y-64656473D01*
X130681457Y-64635715D01*
X130519963Y-64596944D01*
X130519957Y-64596943D01*
X130515150Y-64595789D01*
X130256000Y-64575393D01*
X129996850Y-64595789D01*
X129992043Y-64596943D01*
X129992037Y-64596944D01*
X129830543Y-64635715D01*
X129744080Y-64656473D01*
X129739509Y-64658366D01*
X129739507Y-64658367D01*
X129508488Y-64754058D01*
X129508486Y-64754059D01*
X129503916Y-64755952D01*
X129282271Y-64891777D01*
X129084602Y-65060602D01*
X129071855Y-65075527D01*
X129002938Y-65156219D01*
X128915777Y-65258271D01*
X128779952Y-65479916D01*
X128680473Y-65720080D01*
X128619789Y-65972850D01*
X128599393Y-66232000D01*
X127650803Y-66232000D01*
X127516493Y-66176367D01*
X127516491Y-66176366D01*
X127511920Y-66174473D01*
X127425457Y-66153715D01*
X127263963Y-66114944D01*
X127263957Y-66114943D01*
X127259150Y-66113789D01*
X127000000Y-66093393D01*
X126740850Y-66113789D01*
X126736043Y-66114943D01*
X126736037Y-66114944D01*
X126574543Y-66153715D01*
X126488080Y-66174473D01*
X126483509Y-66176366D01*
X126483507Y-66176367D01*
X126252488Y-66272058D01*
X126252486Y-66272059D01*
X126247916Y-66273952D01*
X126026271Y-66409777D01*
X125828602Y-66578602D01*
X125825389Y-66582364D01*
X125683502Y-66748493D01*
X125659777Y-66776271D01*
X125523952Y-66997916D01*
X125424473Y-67238080D01*
X125363789Y-67490850D01*
X125343393Y-67750000D01*
X124394803Y-67750000D01*
X124406705Y-67745070D01*
X124491512Y-67709942D01*
X124491514Y-67709941D01*
X124496084Y-67708048D01*
X124717729Y-67572223D01*
X124915398Y-67403398D01*
X125056593Y-67238080D01*
X125081005Y-67209497D01*
X125081006Y-67209496D01*
X125084223Y-67205729D01*
X125220048Y-66984084D01*
X125319527Y-66743920D01*
X125380211Y-66491150D01*
X125400607Y-66232000D01*
X125380211Y-65972850D01*
X125319527Y-65720080D01*
X125220048Y-65479916D01*
X125084223Y-65258271D01*
X124997063Y-65156219D01*
X124928145Y-65075527D01*
X124915398Y-65060602D01*
X124717729Y-64891777D01*
X124496084Y-64755952D01*
X124491514Y-64754059D01*
X124491512Y-64754058D01*
X124260493Y-64658367D01*
X124260491Y-64658366D01*
X124255920Y-64656473D01*
X124169457Y-64635715D01*
X124007963Y-64596944D01*
X124007957Y-64596943D01*
X124003150Y-64595789D01*
X123744000Y-64575393D01*
X123484850Y-64595789D01*
X123480043Y-64596943D01*
X123480037Y-64596944D01*
X123318543Y-64635715D01*
X123232080Y-64656473D01*
X123227509Y-64658366D01*
X123227507Y-64658367D01*
X122996488Y-64754058D01*
X122996486Y-64754059D01*
X122991916Y-64755952D01*
X122770271Y-64891777D01*
X122572602Y-65060602D01*
X122559855Y-65075527D01*
X122490938Y-65156219D01*
X122403777Y-65258271D01*
X122267952Y-65479916D01*
X122168473Y-65720080D01*
X122107789Y-65972850D01*
X122087393Y-66232000D01*
X115316500Y-66232000D01*
X115316500Y-64801504D01*
X117549000Y-64801504D01*
X117549670Y-64810664D01*
X117558598Y-64871313D01*
X117564339Y-64889787D01*
X117611335Y-64985507D01*
X117623295Y-65002212D01*
X117698322Y-65077109D01*
X117715050Y-65089041D01*
X117810860Y-65135873D01*
X117829328Y-65141581D01*
X117889364Y-65150340D01*
X117898463Y-65151000D01*
X118800885Y-65151000D01*
X118816124Y-65146525D01*
X118817329Y-65145135D01*
X118819000Y-65137452D01*
X118819000Y-65132885D01*
X119581000Y-65132885D01*
X119585475Y-65148124D01*
X119586865Y-65149329D01*
X119594548Y-65151000D01*
X120501504Y-65151000D01*
X120510664Y-65150330D01*
X120571313Y-65141402D01*
X120589787Y-65135661D01*
X120685507Y-65088665D01*
X120702212Y-65076705D01*
X120777109Y-65001678D01*
X120789041Y-64984950D01*
X120835873Y-64889140D01*
X120841581Y-64870672D01*
X120850340Y-64810636D01*
X120851000Y-64801537D01*
X120851000Y-63899115D01*
X120846525Y-63883876D01*
X120845135Y-63882671D01*
X120837452Y-63881000D01*
X119599115Y-63881000D01*
X119583876Y-63885475D01*
X119582671Y-63886865D01*
X119581000Y-63894548D01*
X119581000Y-65132885D01*
X118819000Y-65132885D01*
X118819000Y-63899115D01*
X118814525Y-63883876D01*
X118813135Y-63882671D01*
X118805452Y-63881000D01*
X117567115Y-63881000D01*
X117551876Y-63885475D01*
X117550671Y-63886865D01*
X117549000Y-63894548D01*
X117549000Y-64801504D01*
X115316500Y-64801504D01*
X115316500Y-63100885D01*
X117549000Y-63100885D01*
X117553475Y-63116124D01*
X117554865Y-63117329D01*
X117562548Y-63119000D01*
X118800885Y-63119000D01*
X118816124Y-63114525D01*
X118817329Y-63113135D01*
X118819000Y-63105452D01*
X118819000Y-63100885D01*
X119581000Y-63100885D01*
X119585475Y-63116124D01*
X119586865Y-63117329D01*
X119594548Y-63119000D01*
X120832885Y-63119000D01*
X120848124Y-63114525D01*
X120849329Y-63113135D01*
X120851000Y-63105452D01*
X120851000Y-62762000D01*
X121158393Y-62762000D01*
X121178789Y-63021150D01*
X121239473Y-63273920D01*
X121338952Y-63514084D01*
X121474777Y-63735729D01*
X121643602Y-63933398D01*
X121841271Y-64102223D01*
X122062916Y-64238048D01*
X122067486Y-64239941D01*
X122067488Y-64239942D01*
X122106997Y-64256307D01*
X122303080Y-64337527D01*
X122389543Y-64358285D01*
X122551037Y-64397056D01*
X122551043Y-64397057D01*
X122555850Y-64398211D01*
X122815000Y-64418607D01*
X123074150Y-64398211D01*
X123078957Y-64397057D01*
X123078963Y-64397056D01*
X123240457Y-64358285D01*
X123326920Y-64337527D01*
X123523003Y-64256307D01*
X123562512Y-64239942D01*
X123562514Y-64239941D01*
X123567084Y-64238048D01*
X123788729Y-64102223D01*
X123986398Y-63933398D01*
X124155223Y-63735729D01*
X124291048Y-63514084D01*
X124296882Y-63500000D01*
X125343393Y-63500000D01*
X125363789Y-63759150D01*
X125364943Y-63763957D01*
X125364944Y-63763963D01*
X125394450Y-63886865D01*
X125424473Y-64011920D01*
X125426366Y-64016491D01*
X125426367Y-64016493D01*
X125518923Y-64239942D01*
X125523952Y-64252084D01*
X125659777Y-64473729D01*
X125662994Y-64477496D01*
X125662995Y-64477497D01*
X125764026Y-64595789D01*
X125828602Y-64671398D01*
X126026271Y-64840223D01*
X126247916Y-64976048D01*
X126252486Y-64977941D01*
X126252488Y-64977942D01*
X126461130Y-65064364D01*
X126488080Y-65075527D01*
X126544371Y-65089041D01*
X126736037Y-65135056D01*
X126736043Y-65135057D01*
X126740850Y-65136211D01*
X127000000Y-65156607D01*
X127259150Y-65136211D01*
X127263957Y-65135057D01*
X127263963Y-65135056D01*
X127455629Y-65089041D01*
X127511920Y-65075527D01*
X127538870Y-65064364D01*
X127747512Y-64977942D01*
X127747514Y-64977941D01*
X127752084Y-64976048D01*
X127973729Y-64840223D01*
X128171398Y-64671398D01*
X128235974Y-64595789D01*
X128337005Y-64477497D01*
X128337006Y-64477496D01*
X128340223Y-64473729D01*
X128476048Y-64252084D01*
X128481078Y-64239942D01*
X128573633Y-64016493D01*
X128573634Y-64016491D01*
X128575527Y-64011920D01*
X128605550Y-63886865D01*
X128635056Y-63763963D01*
X128635057Y-63763957D01*
X128636211Y-63759150D01*
X128656607Y-63500000D01*
X128636211Y-63240850D01*
X128605884Y-63114525D01*
X128576682Y-62992892D01*
X128575527Y-62988080D01*
X128481882Y-62762000D01*
X129528393Y-62762000D01*
X129548789Y-63021150D01*
X129609473Y-63273920D01*
X129708952Y-63514084D01*
X129844777Y-63735729D01*
X130013602Y-63933398D01*
X130211271Y-64102223D01*
X130432916Y-64238048D01*
X130437486Y-64239941D01*
X130437488Y-64239942D01*
X130476997Y-64256307D01*
X130673080Y-64337527D01*
X130759543Y-64358285D01*
X130921037Y-64397056D01*
X130921043Y-64397057D01*
X130925850Y-64398211D01*
X131185000Y-64418607D01*
X131444150Y-64398211D01*
X131448957Y-64397057D01*
X131448963Y-64397056D01*
X131610457Y-64358285D01*
X131696920Y-64337527D01*
X131893003Y-64256307D01*
X131932512Y-64239942D01*
X131932514Y-64239941D01*
X131937084Y-64238048D01*
X132158729Y-64102223D01*
X132356398Y-63933398D01*
X132525223Y-63735729D01*
X132661048Y-63514084D01*
X132760527Y-63273920D01*
X132802069Y-63100885D01*
X133149000Y-63100885D01*
X133153475Y-63116124D01*
X133154865Y-63117329D01*
X133162548Y-63119000D01*
X134400885Y-63119000D01*
X134416124Y-63114525D01*
X134417329Y-63113135D01*
X134419000Y-63105452D01*
X134419000Y-63100885D01*
X135181000Y-63100885D01*
X135185475Y-63116124D01*
X135186865Y-63117329D01*
X135194548Y-63119000D01*
X136432885Y-63119000D01*
X136448124Y-63114525D01*
X136449329Y-63113135D01*
X136451000Y-63105452D01*
X136451000Y-62198496D01*
X136450330Y-62189336D01*
X136441402Y-62128687D01*
X136435661Y-62110213D01*
X136388665Y-62014493D01*
X136376705Y-61997788D01*
X136301678Y-61922891D01*
X136284950Y-61910959D01*
X136189140Y-61864127D01*
X136170672Y-61858419D01*
X136110636Y-61849660D01*
X136101537Y-61849000D01*
X135199115Y-61849000D01*
X135183876Y-61853475D01*
X135182671Y-61854865D01*
X135181000Y-61862548D01*
X135181000Y-63100885D01*
X134419000Y-63100885D01*
X134419000Y-61867115D01*
X134414525Y-61851876D01*
X134413135Y-61850671D01*
X134405452Y-61849000D01*
X133498496Y-61849000D01*
X133489336Y-61849670D01*
X133428687Y-61858598D01*
X133410213Y-61864339D01*
X133314493Y-61911335D01*
X133297788Y-61923295D01*
X133222891Y-61998322D01*
X133210959Y-62015050D01*
X133164127Y-62110860D01*
X133158419Y-62129328D01*
X133149660Y-62189364D01*
X133149000Y-62198463D01*
X133149000Y-63100885D01*
X132802069Y-63100885D01*
X132821211Y-63021150D01*
X132841607Y-62762000D01*
X132821211Y-62502850D01*
X132760527Y-62250080D01*
X132724455Y-62162995D01*
X132662942Y-62014488D01*
X132662941Y-62014486D01*
X132661048Y-62009916D01*
X132525223Y-61788271D01*
X132356398Y-61590602D01*
X132158729Y-61421777D01*
X131937084Y-61285952D01*
X131932514Y-61284059D01*
X131932512Y-61284058D01*
X131701493Y-61188367D01*
X131701491Y-61188366D01*
X131696920Y-61186473D01*
X131610457Y-61165715D01*
X131448963Y-61126944D01*
X131448957Y-61126943D01*
X131444150Y-61125789D01*
X131185000Y-61105393D01*
X130925850Y-61125789D01*
X130921043Y-61126943D01*
X130921037Y-61126944D01*
X130759543Y-61165715D01*
X130673080Y-61186473D01*
X130668509Y-61188366D01*
X130668507Y-61188367D01*
X130437488Y-61284058D01*
X130437486Y-61284059D01*
X130432916Y-61285952D01*
X130211271Y-61421777D01*
X130013602Y-61590602D01*
X129844777Y-61788271D01*
X129708952Y-62009916D01*
X129707059Y-62014486D01*
X129707058Y-62014488D01*
X129645545Y-62162995D01*
X129609473Y-62250080D01*
X129548789Y-62502850D01*
X129528393Y-62762000D01*
X128481882Y-62762000D01*
X128476048Y-62747916D01*
X128340223Y-62526271D01*
X128171398Y-62328602D01*
X127973729Y-62159777D01*
X127752084Y-62023952D01*
X127747514Y-62022059D01*
X127747512Y-62022058D01*
X127516493Y-61926367D01*
X127516491Y-61926366D01*
X127511920Y-61924473D01*
X127425457Y-61903715D01*
X127263963Y-61864944D01*
X127263957Y-61864943D01*
X127259150Y-61863789D01*
X127000000Y-61843393D01*
X126740850Y-61863789D01*
X126736043Y-61864943D01*
X126736037Y-61864944D01*
X126574543Y-61903715D01*
X126488080Y-61924473D01*
X126483509Y-61926366D01*
X126483507Y-61926367D01*
X126252488Y-62022058D01*
X126252486Y-62022059D01*
X126247916Y-62023952D01*
X126026271Y-62159777D01*
X125828602Y-62328602D01*
X125659777Y-62526271D01*
X125523952Y-62747916D01*
X125424473Y-62988080D01*
X125423318Y-62992892D01*
X125394117Y-63114525D01*
X125363789Y-63240850D01*
X125343393Y-63500000D01*
X124296882Y-63500000D01*
X124390527Y-63273920D01*
X124451211Y-63021150D01*
X124471607Y-62762000D01*
X124451211Y-62502850D01*
X124390527Y-62250080D01*
X124354455Y-62162995D01*
X124292942Y-62014488D01*
X124292941Y-62014486D01*
X124291048Y-62009916D01*
X124155223Y-61788271D01*
X123986398Y-61590602D01*
X123788729Y-61421777D01*
X123567084Y-61285952D01*
X123562514Y-61284059D01*
X123562512Y-61284058D01*
X123331493Y-61188367D01*
X123331491Y-61188366D01*
X123326920Y-61186473D01*
X123240457Y-61165715D01*
X123078963Y-61126944D01*
X123078957Y-61126943D01*
X123074150Y-61125789D01*
X122815000Y-61105393D01*
X122555850Y-61125789D01*
X122551043Y-61126943D01*
X122551037Y-61126944D01*
X122389543Y-61165715D01*
X122303080Y-61186473D01*
X122298509Y-61188366D01*
X122298507Y-61188367D01*
X122067488Y-61284058D01*
X122067486Y-61284059D01*
X122062916Y-61285952D01*
X121841271Y-61421777D01*
X121643602Y-61590602D01*
X121474777Y-61788271D01*
X121338952Y-62009916D01*
X121337059Y-62014486D01*
X121337058Y-62014488D01*
X121275545Y-62162995D01*
X121239473Y-62250080D01*
X121178789Y-62502850D01*
X121158393Y-62762000D01*
X120851000Y-62762000D01*
X120851000Y-62198496D01*
X120850330Y-62189336D01*
X120841402Y-62128687D01*
X120835661Y-62110213D01*
X120788665Y-62014493D01*
X120776705Y-61997788D01*
X120701678Y-61922891D01*
X120684950Y-61910959D01*
X120589140Y-61864127D01*
X120570672Y-61858419D01*
X120510636Y-61849660D01*
X120501537Y-61849000D01*
X119599115Y-61849000D01*
X119583876Y-61853475D01*
X119582671Y-61854865D01*
X119581000Y-61862548D01*
X119581000Y-63100885D01*
X118819000Y-63100885D01*
X118819000Y-61867115D01*
X118814525Y-61851876D01*
X118813135Y-61850671D01*
X118805452Y-61849000D01*
X117898496Y-61849000D01*
X117889336Y-61849670D01*
X117828687Y-61858598D01*
X117810213Y-61864339D01*
X117714493Y-61911335D01*
X117697788Y-61923295D01*
X117622891Y-61998322D01*
X117610959Y-62015050D01*
X117564127Y-62110860D01*
X117558419Y-62129328D01*
X117549660Y-62189364D01*
X117549000Y-62198463D01*
X117549000Y-63100885D01*
X115316500Y-63100885D01*
X115316500Y-59819000D01*
X123218393Y-59819000D01*
X123238789Y-60078150D01*
X123299473Y-60330920D01*
X123398952Y-60571084D01*
X123534777Y-60792729D01*
X123703602Y-60990398D01*
X123901271Y-61159223D01*
X124122916Y-61295048D01*
X124127486Y-61296941D01*
X124127488Y-61296942D01*
X124358507Y-61392633D01*
X124363080Y-61394527D01*
X124449543Y-61415285D01*
X124611037Y-61454056D01*
X124611043Y-61454057D01*
X124615850Y-61455211D01*
X124875000Y-61475607D01*
X125134150Y-61455211D01*
X125138957Y-61454057D01*
X125138963Y-61454056D01*
X125300457Y-61415285D01*
X125386920Y-61394527D01*
X125391493Y-61392633D01*
X125622512Y-61296942D01*
X125622514Y-61296941D01*
X125627084Y-61295048D01*
X125848729Y-61159223D01*
X126046398Y-60990398D01*
X126215223Y-60792729D01*
X126351048Y-60571084D01*
X126450527Y-60330920D01*
X126511211Y-60078150D01*
X126531607Y-59819000D01*
X127468393Y-59819000D01*
X127488789Y-60078150D01*
X127549473Y-60330920D01*
X127648952Y-60571084D01*
X127784777Y-60792729D01*
X127953602Y-60990398D01*
X128151271Y-61159223D01*
X128372916Y-61295048D01*
X128377486Y-61296941D01*
X128377488Y-61296942D01*
X128608507Y-61392633D01*
X128613080Y-61394527D01*
X128699543Y-61415285D01*
X128861037Y-61454056D01*
X128861043Y-61454057D01*
X128865850Y-61455211D01*
X129125000Y-61475607D01*
X129384150Y-61455211D01*
X129388957Y-61454057D01*
X129388963Y-61454056D01*
X129550457Y-61415285D01*
X129636920Y-61394527D01*
X129641493Y-61392633D01*
X129872512Y-61296942D01*
X129872514Y-61296941D01*
X129877084Y-61295048D01*
X130098729Y-61159223D01*
X130296398Y-60990398D01*
X130465223Y-60792729D01*
X130601048Y-60571084D01*
X130700527Y-60330920D01*
X130761211Y-60078150D01*
X130781607Y-59819000D01*
X130761211Y-59559850D01*
X130700527Y-59307080D01*
X130601048Y-59066916D01*
X130465223Y-58845271D01*
X130296398Y-58647602D01*
X130098729Y-58478777D01*
X129877084Y-58342952D01*
X129872514Y-58341059D01*
X129872512Y-58341058D01*
X129641493Y-58245367D01*
X129641491Y-58245366D01*
X129636920Y-58243473D01*
X129550457Y-58222715D01*
X129388963Y-58183944D01*
X129388957Y-58183943D01*
X129384150Y-58182789D01*
X129125000Y-58162393D01*
X128865850Y-58182789D01*
X128861043Y-58183943D01*
X128861037Y-58183944D01*
X128699543Y-58222715D01*
X128613080Y-58243473D01*
X128608509Y-58245366D01*
X128608507Y-58245367D01*
X128377488Y-58341058D01*
X128377486Y-58341059D01*
X128372916Y-58342952D01*
X128151271Y-58478777D01*
X127953602Y-58647602D01*
X127784777Y-58845271D01*
X127648952Y-59066916D01*
X127549473Y-59307080D01*
X127488789Y-59559850D01*
X127468393Y-59819000D01*
X126531607Y-59819000D01*
X126511211Y-59559850D01*
X126450527Y-59307080D01*
X126351048Y-59066916D01*
X126215223Y-58845271D01*
X126046398Y-58647602D01*
X125848729Y-58478777D01*
X125627084Y-58342952D01*
X125622514Y-58341059D01*
X125622512Y-58341058D01*
X125391493Y-58245367D01*
X125391491Y-58245366D01*
X125386920Y-58243473D01*
X125300457Y-58222715D01*
X125138963Y-58183944D01*
X125138957Y-58183943D01*
X125134150Y-58182789D01*
X124875000Y-58162393D01*
X124615850Y-58182789D01*
X124611043Y-58183943D01*
X124611037Y-58183944D01*
X124449543Y-58222715D01*
X124363080Y-58243473D01*
X124358509Y-58245366D01*
X124358507Y-58245367D01*
X124127488Y-58341058D01*
X124127486Y-58341059D01*
X124122916Y-58342952D01*
X123901271Y-58478777D01*
X123703602Y-58647602D01*
X123534777Y-58845271D01*
X123398952Y-59066916D01*
X123299473Y-59307080D01*
X123238789Y-59559850D01*
X123218393Y-59819000D01*
X115316500Y-59819000D01*
X115316500Y-57022500D01*
X115336502Y-56954379D01*
X115390158Y-56907886D01*
X115442500Y-56896500D01*
X138557500Y-56896500D01*
X138625621Y-56916502D01*
G37*
%TD.AperFunction*%
%TD*%
M02*
