%TF.GenerationSoftware,KiCad,Pcbnew,6.0.9-8da3e8f707~117~ubuntu22.04.1*%
%TF.CreationDate,2022-12-06T13:33:21-08:00*%
%TF.ProjectId,GX16-8P-Horizontal,47583136-2d38-4502-9d48-6f72697a6f6e,rev?*%
%TF.SameCoordinates,Original*%
%TF.FileFunction,Legend,Bot*%
%TF.FilePolarity,Positive*%
%FSLAX46Y46*%
G04 Gerber Fmt 4.6, Leading zero omitted, Abs format (unit mm)*
G04 Created by KiCad (PCBNEW 6.0.9-8da3e8f707~117~ubuntu22.04.1) date 2022-12-06 13:33:21*
%MOMM*%
%LPD*%
G01*
G04 APERTURE LIST*
%ADD10C,0.120000*%
%ADD11R,1.700000X1.700000*%
%ADD12O,1.700000X1.700000*%
%ADD13R,1.270000X2.540000*%
%ADD14C,2.540000*%
G04 APERTURE END LIST*
D10*
%TO.C,J2*%
X137160000Y-72450000D02*
X138490000Y-72450000D01*
X135890000Y-72450000D02*
X115510000Y-72450000D01*
X135890000Y-69790000D02*
X115510000Y-69790000D01*
X135890000Y-72450000D02*
X135890000Y-69790000D01*
X115510000Y-72450000D02*
X115510000Y-69790000D01*
X138490000Y-72450000D02*
X138490000Y-71120000D01*
%TO.C,J1*%
X136144000Y-63500000D02*
G75*
G03*
X136144000Y-63500000I-9144000J0D01*
G01*
X134365999Y-60706000D02*
G75*
G03*
X119634001Y-60706000I-7365999J-2794000D01*
G01*
X119634001Y-66294000D02*
G75*
G03*
X134365999Y-66294000I7365999J2794000D01*
G01*
X117602000Y-68925440D02*
X117602000Y-58074560D01*
X136398000Y-68925440D02*
X136398000Y-58074560D01*
X134366000Y-63500000D02*
X134366000Y-60706000D01*
X134366000Y-63500000D02*
X134366000Y-66294000D01*
X127000000Y-74345800D02*
X117602000Y-68925440D01*
X119634000Y-63500000D02*
X119634000Y-66294000D01*
X127000000Y-52654200D02*
X136398000Y-58074560D01*
X127000000Y-52654200D02*
X117602000Y-58074560D01*
X119634000Y-63500000D02*
X119634000Y-60706000D01*
X136398000Y-68925440D02*
X127000000Y-74345800D01*
%TD*%
%LPC*%
D11*
%TO.C,J2*%
X137160000Y-71120000D03*
D12*
X134620000Y-71120000D03*
X132080000Y-71120000D03*
X129540000Y-71120000D03*
X127000000Y-71120000D03*
X124460000Y-71120000D03*
X121920000Y-71120000D03*
X119380000Y-71120000D03*
X116840000Y-71120000D03*
%TD*%
D13*
%TO.C,J1*%
X119126000Y-63500000D03*
X134874000Y-63500000D03*
D14*
X127000000Y-63500000D03*
X124777500Y-59651900D03*
X122623580Y-62727840D03*
X123596400Y-66357500D03*
X127000000Y-67945000D03*
X130403600Y-66357500D03*
X131376420Y-62727840D03*
X129222500Y-59651900D03*
%TD*%
M02*
