%TF.GenerationSoftware,KiCad,Pcbnew,6.0.10-86aedd382b~118~ubuntu22.04.1*%
%TF.CreationDate,2023-01-03T21:57:38-08:00*%
%TF.ProjectId,GX16-8P-Horizontal,47583136-2d38-4502-9d48-6f72697a6f6e,rev?*%
%TF.SameCoordinates,Original*%
%TF.FileFunction,Legend,Bot*%
%TF.FilePolarity,Positive*%
%FSLAX46Y46*%
G04 Gerber Fmt 4.6, Leading zero omitted, Abs format (unit mm)*
G04 Created by KiCad (PCBNEW 6.0.10-86aedd382b~118~ubuntu22.04.1) date 2023-01-03 21:57:38*
%MOMM*%
%LPD*%
G01*
G04 APERTURE LIST*
%ADD10C,0.120000*%
%ADD11C,2.540000*%
%ADD12R,2.540000X2.540000*%
%ADD13R,1.700000X1.700000*%
%ADD14O,1.700000X1.700000*%
G04 APERTURE END LIST*
D10*
%TO.C,J1*%
X136398000Y-68925440D02*
X127000000Y-74345800D01*
X127000000Y-56134000D02*
X129794000Y-56134000D01*
X127000000Y-52654200D02*
X117602000Y-58074560D01*
X127000000Y-52654200D02*
X136398000Y-58074560D01*
X127000000Y-56134000D02*
X124206000Y-56134000D01*
X127000000Y-74345800D02*
X117602000Y-68925440D01*
X136398000Y-68925440D02*
X136398000Y-58074560D01*
X117602000Y-68925440D02*
X117602000Y-58074560D01*
X124206000Y-70865998D02*
G75*
G03*
X129794000Y-70865998I2794000J7365996D01*
G01*
X124206000Y-56134001D02*
G75*
G03*
X124206000Y-70865999I2794000J-7365999D01*
G01*
X129794000Y-70865999D02*
G75*
G03*
X129794000Y-56134001I-2794000J7365999D01*
G01*
X136144000Y-63500000D02*
G75*
G03*
X136144000Y-63500000I-9144000J0D01*
G01*
%TO.C,J2*%
X137160000Y-72450000D02*
X138490000Y-72450000D01*
X115510000Y-72450000D02*
X115510000Y-69790000D01*
X135890000Y-72450000D02*
X135890000Y-69790000D01*
X135890000Y-72450000D02*
X115510000Y-72450000D01*
X135890000Y-69790000D02*
X115510000Y-69790000D01*
X138490000Y-72450000D02*
X138490000Y-71120000D01*
%TD*%
%LPC*%
D11*
%TO.C,J1*%
X129125000Y-59819000D03*
X131185000Y-62762000D03*
X130256000Y-66232000D03*
X127000000Y-67750000D03*
X123744000Y-66232000D03*
X122815000Y-62762000D03*
X124875000Y-59819000D03*
X127000000Y-63500000D03*
D12*
X134800000Y-63500000D03*
X119200000Y-63500000D03*
%TD*%
D13*
%TO.C,J2*%
X137160000Y-71120000D03*
D14*
X134620000Y-71120000D03*
X132080000Y-71120000D03*
X129540000Y-71120000D03*
X127000000Y-71120000D03*
X124460000Y-71120000D03*
X121920000Y-71120000D03*
X119380000Y-71120000D03*
X116840000Y-71120000D03*
%TD*%
M02*
