%TF.GenerationSoftware,KiCad,Pcbnew,6.0.9-8da3e8f707~117~ubuntu22.04.1*%
%TF.CreationDate,2022-12-06T13:33:21-08:00*%
%TF.ProjectId,GX16-8P-Horizontal,47583136-2d38-4502-9d48-6f72697a6f6e,rev?*%
%TF.SameCoordinates,Original*%
%TF.FileFunction,Copper,L1,Top*%
%TF.FilePolarity,Positive*%
%FSLAX46Y46*%
G04 Gerber Fmt 4.6, Leading zero omitted, Abs format (unit mm)*
G04 Created by KiCad (PCBNEW 6.0.9-8da3e8f707~117~ubuntu22.04.1) date 2022-12-06 13:33:21*
%MOMM*%
%LPD*%
G01*
G04 APERTURE LIST*
%TA.AperFunction,ComponentPad*%
%ADD10R,1.700000X1.700000*%
%TD*%
%TA.AperFunction,ComponentPad*%
%ADD11O,1.700000X1.700000*%
%TD*%
%TA.AperFunction,ComponentPad*%
%ADD12C,2.540000*%
%TD*%
%TA.AperFunction,ViaPad*%
%ADD13C,0.800000*%
%TD*%
%TA.AperFunction,Conductor*%
%ADD14C,0.381000*%
%TD*%
G04 APERTURE END LIST*
D10*
%TO.P,J2,1,Pin_1*%
%TO.N,GND*%
X137160000Y-71120000D03*
D11*
%TO.P,J2,2,Pin_2*%
%TO.N,Net-(J1-Pad1)*%
X134620000Y-71120000D03*
%TO.P,J2,3,Pin_3*%
%TO.N,Net-(J1-Pad2)*%
X132080000Y-71120000D03*
%TO.P,J2,4,Pin_4*%
%TO.N,Net-(J1-Pad3)*%
X129540000Y-71120000D03*
%TO.P,J2,5,Pin_5*%
%TO.N,Net-(J1-Pad4)*%
X127000000Y-71120000D03*
%TO.P,J2,6,Pin_6*%
%TO.N,Net-(J1-Pad5)*%
X124460000Y-71120000D03*
%TO.P,J2,7,Pin_7*%
%TO.N,Net-(J1-Pad6)*%
X121920000Y-71120000D03*
%TO.P,J2,8,Pin_8*%
%TO.N,Net-(J1-Pad7)*%
X119380000Y-71120000D03*
%TO.P,J2,9,Pin_9*%
%TO.N,Net-(J1-Pad8)*%
X116840000Y-71120000D03*
%TD*%
D12*
%TO.P,J1,8,Pin_8*%
%TO.N,Net-(J1-Pad8)*%
X127000000Y-63500000D03*
%TO.P,J1,7,Pin_7*%
%TO.N,Net-(J1-Pad7)*%
X124777500Y-59651900D03*
%TO.P,J1,6,Pin_6*%
%TO.N,Net-(J1-Pad6)*%
X122623580Y-62727840D03*
%TO.P,J1,5,Pin_5*%
%TO.N,Net-(J1-Pad5)*%
X123596400Y-66357500D03*
%TO.P,J1,4,Pin_4*%
%TO.N,Net-(J1-Pad4)*%
X127000000Y-67945000D03*
%TO.P,J1,3,Pin_3*%
%TO.N,Net-(J1-Pad3)*%
X130403600Y-66357500D03*
%TO.P,J1,2,Pin_2*%
%TO.N,Net-(J1-Pad2)*%
X131376420Y-62727840D03*
%TO.P,J1,1,Pin_1*%
%TO.N,Net-(J1-Pad1)*%
X129222500Y-59651900D03*
%TD*%
D13*
%TO.N,GND*%
X137160000Y-69850000D03*
X138176000Y-63500000D03*
X115824000Y-63500000D03*
X133350000Y-57785000D03*
X115824000Y-69723000D03*
X135255000Y-65405000D03*
X135890000Y-63500000D03*
X135255000Y-61595000D03*
X137160000Y-57785000D03*
X116840000Y-57785000D03*
X127635000Y-57785000D03*
X125095000Y-62230000D03*
X125730000Y-65405000D03*
X128270000Y-65405000D03*
X128905000Y-62230000D03*
X133350000Y-67310000D03*
X130810000Y-68580000D03*
X123190000Y-68580000D03*
X120650000Y-67310000D03*
X118110000Y-69850000D03*
X120650000Y-69850000D03*
X123190000Y-69850000D03*
X125730000Y-69850000D03*
X128270000Y-69850000D03*
X130810000Y-69850000D03*
X133350000Y-69850000D03*
X118745000Y-65405000D03*
X118745000Y-61595000D03*
X118110000Y-63500000D03*
X122555000Y-58420000D03*
%TD*%
D14*
%TO.N,Net-(J1-Pad8)*%
X125730000Y-57150000D02*
X120015000Y-57150000D01*
X127000000Y-63500000D02*
X127000000Y-58420000D01*
X127000000Y-58420000D02*
X125730000Y-57150000D01*
X120015000Y-57150000D02*
X116840000Y-60325000D01*
X116840000Y-60325000D02*
X116840000Y-71755000D01*
%TO.N,Net-(J1-Pad7)*%
X120650000Y-65405000D02*
X119380000Y-66675000D01*
X121958100Y-59651900D02*
X120650000Y-60960000D01*
X124777500Y-59651900D02*
X121958100Y-59651900D01*
X120650000Y-60960000D02*
X120650000Y-65405000D01*
X119380000Y-66675000D02*
X119380000Y-71755000D01*
%TO.N,Net-(J1-Pad1)*%
X129222500Y-59651900D02*
X132041900Y-59651900D01*
X132041900Y-59651900D02*
X133350000Y-60960000D01*
X133350000Y-60960000D02*
X133350000Y-65405000D01*
X133350000Y-65405000D02*
X134620000Y-66675000D01*
X134620000Y-66675000D02*
X134620000Y-71755000D01*
%TO.N,Net-(J1-Pad6)*%
X122623580Y-64066420D02*
X121920000Y-64770000D01*
X122623580Y-62727840D02*
X122623580Y-64066420D01*
X121920000Y-64770000D02*
X121920000Y-71755000D01*
%TO.N,Net-(J1-Pad2)*%
X131376420Y-62727840D02*
X131376420Y-64066420D01*
X131376420Y-64066420D02*
X132080000Y-64770000D01*
X132080000Y-64770000D02*
X132080000Y-71755000D01*
%TO.N,Net-(J1-Pad5)*%
X124460000Y-71755000D02*
X124460000Y-67221100D01*
X124460000Y-67221100D02*
X123596400Y-66357500D01*
%TO.N,Net-(J1-Pad3)*%
X129540000Y-71755000D02*
X129540000Y-67221100D01*
X129540000Y-67221100D02*
X130403600Y-66357500D01*
%TO.N,Net-(J1-Pad4)*%
X127000000Y-67945000D02*
X127000000Y-71755000D01*
%TD*%
%TA.AperFunction,Conductor*%
%TO.N,GND*%
G36*
X119223501Y-56916502D02*
G01*
X119269994Y-56970158D01*
X119280098Y-57040432D01*
X119250604Y-57105012D01*
X119244475Y-57111595D01*
X116467886Y-59888184D01*
X116455495Y-59899051D01*
X116432045Y-59917045D01*
X116340359Y-60036532D01*
X116282723Y-60175678D01*
X116268000Y-60287508D01*
X116268000Y-60287514D01*
X116263065Y-60325000D01*
X116264143Y-60333188D01*
X116264143Y-60333189D01*
X116266922Y-60354298D01*
X116268000Y-60370744D01*
X116268000Y-69951543D01*
X116247998Y-70019664D01*
X116214271Y-70054756D01*
X116049894Y-70169854D01*
X116049891Y-70169856D01*
X116045383Y-70173013D01*
X115893013Y-70325383D01*
X115769416Y-70501898D01*
X115767093Y-70506880D01*
X115767090Y-70506885D01*
X115742238Y-70560181D01*
X115678348Y-70697193D01*
X115676926Y-70702501D01*
X115676925Y-70702503D01*
X115667430Y-70737939D01*
X115622577Y-70905335D01*
X115603796Y-71120000D01*
X115622577Y-71334665D01*
X115624001Y-71339978D01*
X115624001Y-71339980D01*
X115667917Y-71503876D01*
X115678348Y-71542807D01*
X115680670Y-71547787D01*
X115680671Y-71547789D01*
X115767090Y-71733115D01*
X115767093Y-71733120D01*
X115769416Y-71738102D01*
X115772573Y-71742610D01*
X115819920Y-71810229D01*
X115842608Y-71877503D01*
X115825323Y-71946364D01*
X115773553Y-71994948D01*
X115716707Y-72008500D01*
X115442500Y-72008500D01*
X115374379Y-71988498D01*
X115327886Y-71934842D01*
X115316500Y-71882500D01*
X115316500Y-57022500D01*
X115336502Y-56954379D01*
X115390158Y-56907886D01*
X115442500Y-56896500D01*
X119155380Y-56896500D01*
X119223501Y-56916502D01*
G37*
%TD.AperFunction*%
%TA.AperFunction,Conductor*%
G36*
X138625621Y-56916502D02*
G01*
X138672114Y-56970158D01*
X138683500Y-57022500D01*
X138683500Y-71882500D01*
X138663498Y-71950621D01*
X138609842Y-71997114D01*
X138557500Y-72008500D01*
X138517000Y-72008500D01*
X138448879Y-71988498D01*
X138402386Y-71934842D01*
X138391000Y-71882500D01*
X138391000Y-71519115D01*
X138386525Y-71503876D01*
X138385135Y-71502671D01*
X138377452Y-71501000D01*
X136905000Y-71501000D01*
X136836879Y-71480998D01*
X136790386Y-71427342D01*
X136779000Y-71375000D01*
X136779000Y-70720885D01*
X137541000Y-70720885D01*
X137545475Y-70736124D01*
X137546865Y-70737329D01*
X137554548Y-70739000D01*
X138372885Y-70739000D01*
X138388124Y-70734525D01*
X138389329Y-70733135D01*
X138391000Y-70725452D01*
X138391000Y-70238496D01*
X138390330Y-70229336D01*
X138381402Y-70168687D01*
X138375661Y-70150213D01*
X138328665Y-70054493D01*
X138316705Y-70037788D01*
X138241678Y-69962891D01*
X138224950Y-69950959D01*
X138129140Y-69904127D01*
X138110672Y-69898419D01*
X138050636Y-69889660D01*
X138041537Y-69889000D01*
X137559115Y-69889000D01*
X137543876Y-69893475D01*
X137542671Y-69894865D01*
X137541000Y-69902548D01*
X137541000Y-70720885D01*
X136779000Y-70720885D01*
X136779000Y-69907115D01*
X136774525Y-69891876D01*
X136773135Y-69890671D01*
X136765452Y-69889000D01*
X136278496Y-69889000D01*
X136269336Y-69889670D01*
X136208687Y-69898598D01*
X136190213Y-69904339D01*
X136094493Y-69951335D01*
X136077788Y-69963295D01*
X136002891Y-70038322D01*
X135990959Y-70055050D01*
X135944127Y-70150860D01*
X135938419Y-70169328D01*
X135929660Y-70229364D01*
X135929000Y-70238463D01*
X135929000Y-70445567D01*
X135908998Y-70513688D01*
X135855342Y-70560181D01*
X135785068Y-70570285D01*
X135720488Y-70540791D01*
X135693881Y-70508567D01*
X135692908Y-70506882D01*
X135690584Y-70501898D01*
X135566987Y-70325383D01*
X135414617Y-70173013D01*
X135410109Y-70169856D01*
X135410106Y-70169854D01*
X135245729Y-70054756D01*
X135201401Y-69999299D01*
X135192000Y-69951543D01*
X135192000Y-66720744D01*
X135193078Y-66704298D01*
X135195857Y-66683189D01*
X135195857Y-66683188D01*
X135196935Y-66675000D01*
X135192000Y-66637514D01*
X135192000Y-66637508D01*
X135177277Y-66525678D01*
X135119641Y-66386532D01*
X135097364Y-66357500D01*
X135050976Y-66297046D01*
X135050975Y-66297045D01*
X135027955Y-66267045D01*
X135004505Y-66249051D01*
X134992114Y-66238184D01*
X133958905Y-65204975D01*
X133924879Y-65142663D01*
X133922000Y-65115880D01*
X133922000Y-61005751D01*
X133923078Y-60989304D01*
X133925858Y-60968188D01*
X133926936Y-60960000D01*
X133907277Y-60810678D01*
X133849641Y-60671532D01*
X133780976Y-60582046D01*
X133780975Y-60582045D01*
X133757955Y-60552045D01*
X133734505Y-60534051D01*
X133722114Y-60523184D01*
X132478716Y-59279786D01*
X132467849Y-59267395D01*
X132454881Y-59250495D01*
X132449855Y-59243945D01*
X132330368Y-59152259D01*
X132191222Y-59094623D01*
X132160525Y-59090582D01*
X132079403Y-59079901D01*
X132079394Y-59079900D01*
X132079391Y-59079900D01*
X132079379Y-59079899D01*
X132050089Y-59076043D01*
X132050088Y-59076043D01*
X132041900Y-59074965D01*
X132033712Y-59076043D01*
X132033711Y-59076043D01*
X132012602Y-59078822D01*
X131996156Y-59079900D01*
X130857332Y-59079900D01*
X130789211Y-59059898D01*
X130740923Y-59002118D01*
X130700442Y-58904388D01*
X130700441Y-58904386D01*
X130698548Y-58899816D01*
X130562723Y-58678171D01*
X130393898Y-58480502D01*
X130196229Y-58311677D01*
X129974584Y-58175852D01*
X129970014Y-58173959D01*
X129970012Y-58173958D01*
X129738993Y-58078267D01*
X129738991Y-58078266D01*
X129734420Y-58076373D01*
X129647957Y-58055615D01*
X129486463Y-58016844D01*
X129486457Y-58016843D01*
X129481650Y-58015689D01*
X129222500Y-57995293D01*
X128963350Y-58015689D01*
X128958543Y-58016843D01*
X128958537Y-58016844D01*
X128797043Y-58055615D01*
X128710580Y-58076373D01*
X128706009Y-58078266D01*
X128706007Y-58078267D01*
X128474988Y-58173958D01*
X128474986Y-58173959D01*
X128470416Y-58175852D01*
X128248771Y-58311677D01*
X128051102Y-58480502D01*
X127882277Y-58678171D01*
X127805431Y-58803572D01*
X127752785Y-58851201D01*
X127682743Y-58862808D01*
X127617546Y-58834705D01*
X127577892Y-58775814D01*
X127572000Y-58737735D01*
X127572000Y-58465744D01*
X127573078Y-58449298D01*
X127575857Y-58428189D01*
X127575857Y-58428188D01*
X127576935Y-58420000D01*
X127572000Y-58382514D01*
X127572000Y-58382508D01*
X127557277Y-58270678D01*
X127499641Y-58131532D01*
X127407955Y-58012045D01*
X127384505Y-57994051D01*
X127372114Y-57983184D01*
X126500525Y-57111595D01*
X126466499Y-57049283D01*
X126471564Y-56978468D01*
X126514111Y-56921632D01*
X126580631Y-56896821D01*
X126589620Y-56896500D01*
X138557500Y-56896500D01*
X138625621Y-56916502D01*
G37*
%TD.AperFunction*%
%TA.AperFunction,Conductor*%
G36*
X123210789Y-60243902D02*
G01*
X123259077Y-60301682D01*
X123299558Y-60399412D01*
X123301452Y-60403984D01*
X123437277Y-60625629D01*
X123606102Y-60823298D01*
X123803771Y-60992123D01*
X124025416Y-61127948D01*
X124029986Y-61129841D01*
X124029988Y-61129842D01*
X124261007Y-61225533D01*
X124265580Y-61227427D01*
X124352043Y-61248185D01*
X124513537Y-61286956D01*
X124513543Y-61286957D01*
X124518350Y-61288111D01*
X124777500Y-61308507D01*
X125036650Y-61288111D01*
X125041457Y-61286957D01*
X125041463Y-61286956D01*
X125202957Y-61248185D01*
X125289420Y-61227427D01*
X125293993Y-61225533D01*
X125525012Y-61129842D01*
X125525014Y-61129841D01*
X125529584Y-61127948D01*
X125751229Y-60992123D01*
X125948898Y-60823298D01*
X126117723Y-60625629D01*
X126194569Y-60500228D01*
X126247215Y-60452599D01*
X126317257Y-60440992D01*
X126382454Y-60469095D01*
X126422108Y-60527986D01*
X126428000Y-60566065D01*
X126428000Y-61865168D01*
X126407998Y-61933289D01*
X126350218Y-61981577D01*
X126252488Y-62022058D01*
X126252486Y-62022059D01*
X126247916Y-62023952D01*
X126026271Y-62159777D01*
X125828602Y-62328602D01*
X125659777Y-62526271D01*
X125523952Y-62747916D01*
X125424473Y-62988080D01*
X125423318Y-62992892D01*
X125365206Y-63234948D01*
X125363789Y-63240850D01*
X125343393Y-63500000D01*
X125363789Y-63759150D01*
X125364943Y-63763957D01*
X125364944Y-63763963D01*
X125396517Y-63895474D01*
X125424473Y-64011920D01*
X125426366Y-64016491D01*
X125426367Y-64016493D01*
X125503989Y-64203888D01*
X125523952Y-64252084D01*
X125659777Y-64473729D01*
X125662994Y-64477496D01*
X125662995Y-64477497D01*
X125684978Y-64503236D01*
X125828602Y-64671398D01*
X125832364Y-64674611D01*
X125956717Y-64780818D01*
X126026271Y-64840223D01*
X126247916Y-64976048D01*
X126252486Y-64977941D01*
X126252488Y-64977942D01*
X126483507Y-65073633D01*
X126488080Y-65075527D01*
X126574543Y-65096285D01*
X126736037Y-65135056D01*
X126736043Y-65135057D01*
X126740850Y-65136211D01*
X127000000Y-65156607D01*
X127259150Y-65136211D01*
X127263957Y-65135057D01*
X127263963Y-65135056D01*
X127425457Y-65096285D01*
X127511920Y-65075527D01*
X127516493Y-65073633D01*
X127747512Y-64977942D01*
X127747514Y-64977941D01*
X127752084Y-64976048D01*
X127973729Y-64840223D01*
X128043284Y-64780818D01*
X128167636Y-64674611D01*
X128171398Y-64671398D01*
X128315022Y-64503236D01*
X128337005Y-64477497D01*
X128337006Y-64477496D01*
X128340223Y-64473729D01*
X128476048Y-64252084D01*
X128496012Y-64203888D01*
X128573633Y-64016493D01*
X128573634Y-64016491D01*
X128575527Y-64011920D01*
X128603483Y-63895474D01*
X128635056Y-63763963D01*
X128635057Y-63763957D01*
X128636211Y-63759150D01*
X128656607Y-63500000D01*
X128636211Y-63240850D01*
X128634795Y-63234948D01*
X128576682Y-62992892D01*
X128575527Y-62988080D01*
X128476048Y-62747916D01*
X128340223Y-62526271D01*
X128171398Y-62328602D01*
X127973729Y-62159777D01*
X127752084Y-62023952D01*
X127747514Y-62022059D01*
X127747512Y-62022058D01*
X127649782Y-61981577D01*
X127594501Y-61937029D01*
X127572000Y-61865168D01*
X127572000Y-60566065D01*
X127592002Y-60497944D01*
X127645658Y-60451451D01*
X127715932Y-60441347D01*
X127780512Y-60470841D01*
X127805429Y-60500226D01*
X127882277Y-60625629D01*
X128051102Y-60823298D01*
X128248771Y-60992123D01*
X128470416Y-61127948D01*
X128474986Y-61129841D01*
X128474988Y-61129842D01*
X128706007Y-61225533D01*
X128710580Y-61227427D01*
X128797043Y-61248185D01*
X128958537Y-61286956D01*
X128958543Y-61286957D01*
X128963350Y-61288111D01*
X129222500Y-61308507D01*
X129481650Y-61288111D01*
X129486457Y-61286957D01*
X129486463Y-61286956D01*
X129647957Y-61248185D01*
X129734420Y-61227427D01*
X129738993Y-61225533D01*
X129970012Y-61129842D01*
X129970014Y-61129841D01*
X129974584Y-61127948D01*
X130196229Y-60992123D01*
X130393898Y-60823298D01*
X130562723Y-60625629D01*
X130698548Y-60403984D01*
X130700442Y-60399412D01*
X130740923Y-60301682D01*
X130785471Y-60246401D01*
X130857332Y-60223900D01*
X131752780Y-60223900D01*
X131820901Y-60243902D01*
X131841875Y-60260805D01*
X132741095Y-61160025D01*
X132775121Y-61222337D01*
X132778000Y-61249120D01*
X132778000Y-61484413D01*
X132757998Y-61552534D01*
X132704342Y-61599027D01*
X132634068Y-61609131D01*
X132569488Y-61579637D01*
X132556190Y-61566244D01*
X132551033Y-61560206D01*
X132551031Y-61560204D01*
X132547818Y-61556442D01*
X132350149Y-61387617D01*
X132128504Y-61251792D01*
X132123934Y-61249899D01*
X132123932Y-61249898D01*
X131892913Y-61154207D01*
X131892911Y-61154206D01*
X131888340Y-61152313D01*
X131801877Y-61131555D01*
X131640383Y-61092784D01*
X131640377Y-61092783D01*
X131635570Y-61091629D01*
X131376420Y-61071233D01*
X131117270Y-61091629D01*
X131112463Y-61092783D01*
X131112457Y-61092784D01*
X130950963Y-61131555D01*
X130864500Y-61152313D01*
X130859929Y-61154206D01*
X130859927Y-61154207D01*
X130628908Y-61249898D01*
X130628906Y-61249899D01*
X130624336Y-61251792D01*
X130402691Y-61387617D01*
X130205022Y-61556442D01*
X130036197Y-61754111D01*
X129900372Y-61975756D01*
X129898479Y-61980326D01*
X129898478Y-61980328D01*
X129824148Y-62159777D01*
X129800893Y-62215920D01*
X129740209Y-62468690D01*
X129719813Y-62727840D01*
X129740209Y-62986990D01*
X129741363Y-62991797D01*
X129741364Y-62991803D01*
X129780135Y-63153297D01*
X129800893Y-63239760D01*
X129900372Y-63479924D01*
X130036197Y-63701569D01*
X130205022Y-63899238D01*
X130402691Y-64068063D01*
X130624336Y-64203888D01*
X130628906Y-64205781D01*
X130628908Y-64205782D01*
X130679664Y-64226806D01*
X130805345Y-64278864D01*
X130860625Y-64323411D01*
X130873534Y-64347054D01*
X130876779Y-64354888D01*
X130881805Y-64361437D01*
X130881805Y-64361438D01*
X130899460Y-64384446D01*
X130899461Y-64384447D01*
X130960565Y-64464079D01*
X130968465Y-64474375D01*
X130975015Y-64479401D01*
X130975018Y-64479404D01*
X130991915Y-64492369D01*
X131004306Y-64503236D01*
X131095009Y-64593939D01*
X131129035Y-64656251D01*
X131123970Y-64727066D01*
X131081423Y-64783902D01*
X131014903Y-64808713D01*
X130957696Y-64799443D01*
X130920093Y-64783867D01*
X130920091Y-64783866D01*
X130915520Y-64781973D01*
X130829057Y-64761215D01*
X130667563Y-64722444D01*
X130667557Y-64722443D01*
X130662750Y-64721289D01*
X130403600Y-64700893D01*
X130144450Y-64721289D01*
X130139643Y-64722443D01*
X130139637Y-64722444D01*
X129978143Y-64761215D01*
X129891680Y-64781973D01*
X129887109Y-64783866D01*
X129887107Y-64783867D01*
X129656088Y-64879558D01*
X129656086Y-64879559D01*
X129651516Y-64881452D01*
X129429871Y-65017277D01*
X129426104Y-65020494D01*
X129426103Y-65020495D01*
X129299200Y-65128880D01*
X129232202Y-65186102D01*
X129063377Y-65383771D01*
X128927552Y-65605416D01*
X128925659Y-65609986D01*
X128925658Y-65609988D01*
X128829967Y-65841007D01*
X128828073Y-65845580D01*
X128767389Y-66098350D01*
X128746993Y-66357500D01*
X128767389Y-66616650D01*
X128768543Y-66621457D01*
X128768544Y-66621463D01*
X128781397Y-66675000D01*
X128828073Y-66869420D01*
X128829966Y-66873991D01*
X128829967Y-66873993D01*
X128830395Y-66875025D01*
X128927552Y-67109584D01*
X128930138Y-67113804D01*
X128930140Y-67113807D01*
X128945575Y-67138995D01*
X128964143Y-67204831D01*
X128964143Y-67212912D01*
X128963065Y-67221100D01*
X128964143Y-67229288D01*
X128964143Y-67229289D01*
X128966922Y-67250398D01*
X128968000Y-67266844D01*
X128968000Y-69951543D01*
X128947998Y-70019664D01*
X128914271Y-70054756D01*
X128749894Y-70169854D01*
X128749891Y-70169856D01*
X128745383Y-70173013D01*
X128593013Y-70325383D01*
X128469416Y-70501898D01*
X128467093Y-70506880D01*
X128467090Y-70506885D01*
X128384195Y-70684654D01*
X128337277Y-70737939D01*
X128269000Y-70757400D01*
X128201040Y-70736858D01*
X128155805Y-70684654D01*
X128072910Y-70506885D01*
X128072907Y-70506880D01*
X128070584Y-70501898D01*
X127946987Y-70325383D01*
X127794617Y-70173013D01*
X127790109Y-70169856D01*
X127790106Y-70169854D01*
X127625729Y-70054756D01*
X127581401Y-69999299D01*
X127572000Y-69951543D01*
X127572000Y-69579832D01*
X127592002Y-69511711D01*
X127649782Y-69463423D01*
X127747512Y-69422942D01*
X127747514Y-69422941D01*
X127752084Y-69421048D01*
X127973729Y-69285223D01*
X128171398Y-69116398D01*
X128340223Y-68918729D01*
X128476048Y-68697084D01*
X128575527Y-68456920D01*
X128636211Y-68204150D01*
X128656607Y-67945000D01*
X128636211Y-67685850D01*
X128575527Y-67433080D01*
X128503252Y-67258592D01*
X128477942Y-67197488D01*
X128477941Y-67197486D01*
X128476048Y-67192916D01*
X128340223Y-66971271D01*
X128334116Y-66964120D01*
X128174611Y-66777364D01*
X128171398Y-66773602D01*
X127973729Y-66604777D01*
X127752084Y-66468952D01*
X127747514Y-66467059D01*
X127747512Y-66467058D01*
X127516493Y-66371367D01*
X127516491Y-66371366D01*
X127511920Y-66369473D01*
X127425457Y-66348715D01*
X127263963Y-66309944D01*
X127263957Y-66309943D01*
X127259150Y-66308789D01*
X127000000Y-66288393D01*
X126740850Y-66308789D01*
X126736043Y-66309943D01*
X126736037Y-66309944D01*
X126574543Y-66348715D01*
X126488080Y-66369473D01*
X126483509Y-66371366D01*
X126483507Y-66371367D01*
X126252488Y-66467058D01*
X126252486Y-66467059D01*
X126247916Y-66468952D01*
X126026271Y-66604777D01*
X125828602Y-66773602D01*
X125825389Y-66777364D01*
X125665885Y-66964120D01*
X125659777Y-66971271D01*
X125523952Y-67192916D01*
X125522059Y-67197486D01*
X125522058Y-67197488D01*
X125496748Y-67258592D01*
X125424473Y-67433080D01*
X125363789Y-67685850D01*
X125343393Y-67945000D01*
X125363789Y-68204150D01*
X125424473Y-68456920D01*
X125523952Y-68697084D01*
X125659777Y-68918729D01*
X125828602Y-69116398D01*
X126026271Y-69285223D01*
X126247916Y-69421048D01*
X126252486Y-69422941D01*
X126252488Y-69422942D01*
X126350218Y-69463423D01*
X126405499Y-69507971D01*
X126428000Y-69579832D01*
X126428000Y-69951543D01*
X126407998Y-70019664D01*
X126374271Y-70054756D01*
X126209894Y-70169854D01*
X126209891Y-70169856D01*
X126205383Y-70173013D01*
X126053013Y-70325383D01*
X125929416Y-70501898D01*
X125927093Y-70506880D01*
X125927090Y-70506885D01*
X125844195Y-70684654D01*
X125797277Y-70737939D01*
X125729000Y-70757400D01*
X125661040Y-70736858D01*
X125615805Y-70684654D01*
X125532910Y-70506885D01*
X125532907Y-70506880D01*
X125530584Y-70501898D01*
X125406987Y-70325383D01*
X125254617Y-70173013D01*
X125250109Y-70169856D01*
X125250106Y-70169854D01*
X125085729Y-70054756D01*
X125041401Y-69999299D01*
X125032000Y-69951543D01*
X125032000Y-67266851D01*
X125033078Y-67250404D01*
X125035858Y-67229288D01*
X125036936Y-67221100D01*
X125035858Y-67212912D01*
X125035858Y-67204830D01*
X125054425Y-67138995D01*
X125069862Y-67113804D01*
X125072448Y-67109584D01*
X125169606Y-66875025D01*
X125170033Y-66873993D01*
X125170034Y-66873991D01*
X125171927Y-66869420D01*
X125218603Y-66675000D01*
X125231456Y-66621463D01*
X125231457Y-66621457D01*
X125232611Y-66616650D01*
X125253007Y-66357500D01*
X125232611Y-66098350D01*
X125171927Y-65845580D01*
X125170033Y-65841007D01*
X125074342Y-65609988D01*
X125074341Y-65609986D01*
X125072448Y-65605416D01*
X124936623Y-65383771D01*
X124767798Y-65186102D01*
X124700800Y-65128880D01*
X124573897Y-65020495D01*
X124573896Y-65020494D01*
X124570129Y-65017277D01*
X124348484Y-64881452D01*
X124343914Y-64879559D01*
X124343912Y-64879558D01*
X124112893Y-64783867D01*
X124112891Y-64783866D01*
X124108320Y-64781973D01*
X124021857Y-64761215D01*
X123860363Y-64722444D01*
X123860357Y-64722443D01*
X123855550Y-64721289D01*
X123596400Y-64700893D01*
X123337250Y-64721289D01*
X123332443Y-64722443D01*
X123332437Y-64722444D01*
X123170943Y-64761215D01*
X123084480Y-64781973D01*
X123079909Y-64783866D01*
X123079907Y-64783867D01*
X123042304Y-64799443D01*
X122971715Y-64807032D01*
X122908228Y-64775253D01*
X122872000Y-64714195D01*
X122874534Y-64643244D01*
X122904991Y-64593939D01*
X122995694Y-64503236D01*
X123008085Y-64492369D01*
X123024982Y-64479404D01*
X123024985Y-64479401D01*
X123031535Y-64474375D01*
X123039436Y-64464079D01*
X123100540Y-64384447D01*
X123118192Y-64361442D01*
X123123221Y-64354888D01*
X123126464Y-64347058D01*
X123126577Y-64346918D01*
X123130510Y-64340106D01*
X123131572Y-64340719D01*
X123171007Y-64291777D01*
X123194652Y-64278865D01*
X123320336Y-64226806D01*
X123371092Y-64205782D01*
X123371094Y-64205781D01*
X123375664Y-64203888D01*
X123597309Y-64068063D01*
X123794978Y-63899238D01*
X123963803Y-63701569D01*
X124099628Y-63479924D01*
X124199107Y-63239760D01*
X124219865Y-63153297D01*
X124258636Y-62991803D01*
X124258637Y-62991797D01*
X124259791Y-62986990D01*
X124280187Y-62727840D01*
X124259791Y-62468690D01*
X124199107Y-62215920D01*
X124175852Y-62159777D01*
X124101522Y-61980328D01*
X124101521Y-61980326D01*
X124099628Y-61975756D01*
X123963803Y-61754111D01*
X123794978Y-61556442D01*
X123597309Y-61387617D01*
X123375664Y-61251792D01*
X123371094Y-61249899D01*
X123371092Y-61249898D01*
X123140073Y-61154207D01*
X123140071Y-61154206D01*
X123135500Y-61152313D01*
X123049037Y-61131555D01*
X122887543Y-61092784D01*
X122887537Y-61092783D01*
X122882730Y-61091629D01*
X122623580Y-61071233D01*
X122364430Y-61091629D01*
X122359623Y-61092783D01*
X122359617Y-61092784D01*
X122198123Y-61131555D01*
X122111660Y-61152313D01*
X122107089Y-61154206D01*
X122107087Y-61154207D01*
X121876068Y-61249898D01*
X121876066Y-61249899D01*
X121871496Y-61251792D01*
X121649851Y-61387617D01*
X121452182Y-61556442D01*
X121448969Y-61560204D01*
X121448967Y-61560206D01*
X121443810Y-61566244D01*
X121384359Y-61605053D01*
X121313365Y-61605559D01*
X121253366Y-61567602D01*
X121223414Y-61503234D01*
X121222000Y-61484413D01*
X121222000Y-61249120D01*
X121242002Y-61180999D01*
X121258905Y-61160025D01*
X122158125Y-60260805D01*
X122220437Y-60226779D01*
X122247220Y-60223900D01*
X123142668Y-60223900D01*
X123210789Y-60243902D01*
G37*
%TD.AperFunction*%
%TA.AperFunction,Conductor*%
G36*
X125509001Y-57742002D02*
G01*
X125529975Y-57758905D01*
X125854663Y-58083593D01*
X125888689Y-58145905D01*
X125883624Y-58216720D01*
X125841077Y-58273556D01*
X125774557Y-58298367D01*
X125699736Y-58280122D01*
X125529584Y-58175852D01*
X125525014Y-58173959D01*
X125525012Y-58173958D01*
X125293993Y-58078267D01*
X125293991Y-58078266D01*
X125289420Y-58076373D01*
X125202957Y-58055615D01*
X125041463Y-58016844D01*
X125041457Y-58016843D01*
X125036650Y-58015689D01*
X124777500Y-57995293D01*
X124518350Y-58015689D01*
X124513543Y-58016843D01*
X124513537Y-58016844D01*
X124352043Y-58055615D01*
X124265580Y-58076373D01*
X124261009Y-58078266D01*
X124261007Y-58078267D01*
X124029988Y-58173958D01*
X124029986Y-58173959D01*
X124025416Y-58175852D01*
X123803771Y-58311677D01*
X123606102Y-58480502D01*
X123437277Y-58678171D01*
X123301452Y-58899816D01*
X123299559Y-58904386D01*
X123299558Y-58904388D01*
X123259077Y-59002118D01*
X123214529Y-59057399D01*
X123142668Y-59079900D01*
X122003851Y-59079900D01*
X121987404Y-59078822D01*
X121966288Y-59076042D01*
X121958100Y-59074964D01*
X121920608Y-59079900D01*
X121808778Y-59094623D01*
X121669632Y-59152259D01*
X121550145Y-59243945D01*
X121545119Y-59250495D01*
X121532151Y-59267395D01*
X121521284Y-59279786D01*
X120277886Y-60523184D01*
X120265495Y-60534051D01*
X120242045Y-60552045D01*
X120150359Y-60671532D01*
X120092723Y-60810678D01*
X120078000Y-60922508D01*
X120078000Y-60922514D01*
X120073065Y-60960000D01*
X120074143Y-60968188D01*
X120074143Y-60968189D01*
X120076922Y-60989298D01*
X120078000Y-61005744D01*
X120078000Y-65115880D01*
X120057998Y-65184001D01*
X120041095Y-65204975D01*
X119007886Y-66238184D01*
X118995495Y-66249051D01*
X118972045Y-66267045D01*
X118949025Y-66297045D01*
X118949024Y-66297046D01*
X118902636Y-66357500D01*
X118880359Y-66386532D01*
X118822723Y-66525678D01*
X118808000Y-66637508D01*
X118808000Y-66637514D01*
X118803065Y-66675000D01*
X118804143Y-66683188D01*
X118804143Y-66683189D01*
X118806922Y-66704298D01*
X118808000Y-66720744D01*
X118808000Y-69951543D01*
X118787998Y-70019664D01*
X118754271Y-70054756D01*
X118589894Y-70169854D01*
X118589891Y-70169856D01*
X118585383Y-70173013D01*
X118433013Y-70325383D01*
X118309416Y-70501898D01*
X118307093Y-70506880D01*
X118307090Y-70506885D01*
X118224195Y-70684654D01*
X118177277Y-70737939D01*
X118109000Y-70757400D01*
X118041040Y-70736858D01*
X117995805Y-70684654D01*
X117912910Y-70506885D01*
X117912907Y-70506880D01*
X117910584Y-70501898D01*
X117786987Y-70325383D01*
X117634617Y-70173013D01*
X117630109Y-70169856D01*
X117630106Y-70169854D01*
X117465729Y-70054756D01*
X117421401Y-69999299D01*
X117412000Y-69951543D01*
X117412000Y-60614120D01*
X117432002Y-60545999D01*
X117448905Y-60525025D01*
X120215025Y-57758905D01*
X120277337Y-57724879D01*
X120304120Y-57722000D01*
X125440880Y-57722000D01*
X125509001Y-57742002D01*
G37*
%TD.AperFunction*%
%TA.AperFunction,Conductor*%
G36*
X121312176Y-65718144D02*
G01*
X121345438Y-65780867D01*
X121348000Y-65806146D01*
X121348000Y-69951543D01*
X121327998Y-70019664D01*
X121294271Y-70054756D01*
X121129894Y-70169854D01*
X121129891Y-70169856D01*
X121125383Y-70173013D01*
X120973013Y-70325383D01*
X120849416Y-70501898D01*
X120847093Y-70506880D01*
X120847090Y-70506885D01*
X120764195Y-70684654D01*
X120717277Y-70737939D01*
X120649000Y-70757400D01*
X120581040Y-70736858D01*
X120535805Y-70684654D01*
X120452910Y-70506885D01*
X120452907Y-70506880D01*
X120450584Y-70501898D01*
X120326987Y-70325383D01*
X120174617Y-70173013D01*
X120170109Y-70169856D01*
X120170106Y-70169854D01*
X120005729Y-70054756D01*
X119961401Y-69999299D01*
X119952000Y-69951543D01*
X119952000Y-66964120D01*
X119972002Y-66895999D01*
X119988905Y-66875025D01*
X121022114Y-65841816D01*
X121034505Y-65830949D01*
X121051402Y-65817984D01*
X121051405Y-65817981D01*
X121057955Y-65812955D01*
X121121746Y-65729822D01*
X121121749Y-65729824D01*
X121121770Y-65729791D01*
X121122061Y-65729412D01*
X121179411Y-65687562D01*
X121250284Y-65683362D01*
X121312176Y-65718144D01*
G37*
%TD.AperFunction*%
%TA.AperFunction,Conductor*%
G36*
X132860512Y-65710921D02*
G01*
X132878007Y-65729499D01*
X132878255Y-65729822D01*
X132936820Y-65806145D01*
X132942045Y-65812955D01*
X132948595Y-65817981D01*
X132948598Y-65817984D01*
X132965495Y-65830949D01*
X132977886Y-65841816D01*
X134011095Y-66875025D01*
X134045121Y-66937337D01*
X134048000Y-66964120D01*
X134048000Y-69951543D01*
X134027998Y-70019664D01*
X133994271Y-70054756D01*
X133829894Y-70169854D01*
X133829891Y-70169856D01*
X133825383Y-70173013D01*
X133673013Y-70325383D01*
X133549416Y-70501898D01*
X133547093Y-70506880D01*
X133547090Y-70506885D01*
X133464195Y-70684654D01*
X133417277Y-70737939D01*
X133349000Y-70757400D01*
X133281040Y-70736858D01*
X133235805Y-70684654D01*
X133152910Y-70506885D01*
X133152907Y-70506880D01*
X133150584Y-70501898D01*
X133026987Y-70325383D01*
X132874617Y-70173013D01*
X132870109Y-70169856D01*
X132870106Y-70169854D01*
X132705729Y-70054756D01*
X132661401Y-69999299D01*
X132652000Y-69951543D01*
X132652000Y-65806145D01*
X132672002Y-65738024D01*
X132725658Y-65691531D01*
X132795932Y-65681427D01*
X132860512Y-65710921D01*
G37*
%TD.AperFunction*%
%TA.AperFunction,Conductor*%
G36*
X122683833Y-67735203D02*
G01*
X122844316Y-67833548D01*
X122848886Y-67835441D01*
X122848888Y-67835442D01*
X123079907Y-67931133D01*
X123084480Y-67933027D01*
X123113817Y-67940070D01*
X123332437Y-67992556D01*
X123332443Y-67992557D01*
X123337250Y-67993711D01*
X123596400Y-68014107D01*
X123601330Y-68013719D01*
X123752114Y-68001852D01*
X123821594Y-68016448D01*
X123872154Y-68066291D01*
X123888000Y-68127464D01*
X123888000Y-69951543D01*
X123867998Y-70019664D01*
X123834271Y-70054756D01*
X123669894Y-70169854D01*
X123669891Y-70169856D01*
X123665383Y-70173013D01*
X123513013Y-70325383D01*
X123389416Y-70501898D01*
X123387093Y-70506880D01*
X123387090Y-70506885D01*
X123304195Y-70684654D01*
X123257277Y-70737939D01*
X123189000Y-70757400D01*
X123121040Y-70736858D01*
X123075805Y-70684654D01*
X122992910Y-70506885D01*
X122992907Y-70506880D01*
X122990584Y-70501898D01*
X122866987Y-70325383D01*
X122714617Y-70173013D01*
X122710109Y-70169856D01*
X122710106Y-70169854D01*
X122545729Y-70054756D01*
X122501401Y-69999299D01*
X122492000Y-69951543D01*
X122492000Y-67842637D01*
X122512002Y-67774516D01*
X122565658Y-67728023D01*
X122635932Y-67717919D01*
X122683833Y-67735203D01*
G37*
%TD.AperFunction*%
%TA.AperFunction,Conductor*%
G36*
X131452375Y-67738122D02*
G01*
X131497708Y-67792761D01*
X131508000Y-67842637D01*
X131508000Y-69951543D01*
X131487998Y-70019664D01*
X131454271Y-70054756D01*
X131289894Y-70169854D01*
X131289891Y-70169856D01*
X131285383Y-70173013D01*
X131133013Y-70325383D01*
X131009416Y-70501898D01*
X131007093Y-70506880D01*
X131007090Y-70506885D01*
X130924195Y-70684654D01*
X130877277Y-70737939D01*
X130809000Y-70757400D01*
X130741040Y-70736858D01*
X130695805Y-70684654D01*
X130612910Y-70506885D01*
X130612907Y-70506880D01*
X130610584Y-70501898D01*
X130486987Y-70325383D01*
X130334617Y-70173013D01*
X130330109Y-70169856D01*
X130330106Y-70169854D01*
X130165729Y-70054756D01*
X130121401Y-69999299D01*
X130112000Y-69951543D01*
X130112000Y-68127464D01*
X130132002Y-68059343D01*
X130185658Y-68012850D01*
X130247886Y-68001852D01*
X130398670Y-68013719D01*
X130403600Y-68014107D01*
X130662750Y-67993711D01*
X130667557Y-67992557D01*
X130667563Y-67992556D01*
X130886183Y-67940070D01*
X130915520Y-67933027D01*
X130920093Y-67931133D01*
X131151112Y-67835442D01*
X131151114Y-67835441D01*
X131155684Y-67833548D01*
X131316167Y-67735204D01*
X131384699Y-67716666D01*
X131452375Y-67738122D01*
G37*
%TD.AperFunction*%
%TD*%
M02*
