%TF.GenerationSoftware,KiCad,Pcbnew,6.0.9-8da3e8f707~117~ubuntu22.04.1*%
%TF.CreationDate,2022-12-06T13:33:21-08:00*%
%TF.ProjectId,GX16-8P-Horizontal,47583136-2d38-4502-9d48-6f72697a6f6e,rev?*%
%TF.SameCoordinates,Original*%
%TF.FileFunction,Copper,L2,Bot*%
%TF.FilePolarity,Positive*%
%FSLAX46Y46*%
G04 Gerber Fmt 4.6, Leading zero omitted, Abs format (unit mm)*
G04 Created by KiCad (PCBNEW 6.0.9-8da3e8f707~117~ubuntu22.04.1) date 2022-12-06 13:33:21*
%MOMM*%
%LPD*%
G01*
G04 APERTURE LIST*
%TA.AperFunction,ComponentPad*%
%ADD10R,1.700000X1.700000*%
%TD*%
%TA.AperFunction,ComponentPad*%
%ADD11O,1.700000X1.700000*%
%TD*%
%TA.AperFunction,SMDPad,CuDef*%
%ADD12R,1.270000X2.540000*%
%TD*%
%TA.AperFunction,ComponentPad*%
%ADD13C,2.540000*%
%TD*%
%TA.AperFunction,ViaPad*%
%ADD14C,0.800000*%
%TD*%
G04 APERTURE END LIST*
D10*
%TO.P,J2,1,Pin_1*%
%TO.N,GND*%
X137160000Y-71120000D03*
D11*
%TO.P,J2,2,Pin_2*%
%TO.N,Net-(J1-Pad1)*%
X134620000Y-71120000D03*
%TO.P,J2,3,Pin_3*%
%TO.N,Net-(J1-Pad2)*%
X132080000Y-71120000D03*
%TO.P,J2,4,Pin_4*%
%TO.N,Net-(J1-Pad3)*%
X129540000Y-71120000D03*
%TO.P,J2,5,Pin_5*%
%TO.N,Net-(J1-Pad4)*%
X127000000Y-71120000D03*
%TO.P,J2,6,Pin_6*%
%TO.N,Net-(J1-Pad5)*%
X124460000Y-71120000D03*
%TO.P,J2,7,Pin_7*%
%TO.N,Net-(J1-Pad6)*%
X121920000Y-71120000D03*
%TO.P,J2,8,Pin_8*%
%TO.N,Net-(J1-Pad7)*%
X119380000Y-71120000D03*
%TO.P,J2,9,Pin_9*%
%TO.N,Net-(J1-Pad8)*%
X116840000Y-71120000D03*
%TD*%
D12*
%TO.P,J1,MP,MountPin*%
%TO.N,GND*%
X119126000Y-63500000D03*
X134874000Y-63500000D03*
D13*
%TO.P,J1,8,Pin_8*%
%TO.N,Net-(J1-Pad8)*%
X127000000Y-63500000D03*
%TO.P,J1,7,Pin_7*%
%TO.N,Net-(J1-Pad7)*%
X124777500Y-59651900D03*
%TO.P,J1,6,Pin_6*%
%TO.N,Net-(J1-Pad6)*%
X122623580Y-62727840D03*
%TO.P,J1,5,Pin_5*%
%TO.N,Net-(J1-Pad5)*%
X123596400Y-66357500D03*
%TO.P,J1,4,Pin_4*%
%TO.N,Net-(J1-Pad4)*%
X127000000Y-67945000D03*
%TO.P,J1,3,Pin_3*%
%TO.N,Net-(J1-Pad3)*%
X130403600Y-66357500D03*
%TO.P,J1,2,Pin_2*%
%TO.N,Net-(J1-Pad2)*%
X131376420Y-62727840D03*
%TO.P,J1,1,Pin_1*%
%TO.N,Net-(J1-Pad1)*%
X129222500Y-59651900D03*
%TD*%
D14*
%TO.N,GND*%
X137160000Y-69850000D03*
X138176000Y-63500000D03*
X115824000Y-63500000D03*
X133350000Y-57785000D03*
X115824000Y-69723000D03*
X135255000Y-65405000D03*
X135890000Y-63500000D03*
X135255000Y-61595000D03*
X137160000Y-57785000D03*
X116840000Y-57785000D03*
X127635000Y-57785000D03*
X125095000Y-62230000D03*
X125730000Y-65405000D03*
X128270000Y-65405000D03*
X128905000Y-62230000D03*
X133350000Y-67310000D03*
X130810000Y-68580000D03*
X123190000Y-68580000D03*
X120650000Y-67310000D03*
X118110000Y-69850000D03*
X120650000Y-69850000D03*
X123190000Y-69850000D03*
X125730000Y-69850000D03*
X128270000Y-69850000D03*
X130810000Y-69850000D03*
X133350000Y-69850000D03*
X118745000Y-65405000D03*
X118745000Y-61595000D03*
X118110000Y-63500000D03*
X122555000Y-58420000D03*
%TD*%
%TA.AperFunction,Conductor*%
%TO.N,GND*%
G36*
X138625621Y-56916502D02*
G01*
X138672114Y-56970158D01*
X138683500Y-57022500D01*
X138683500Y-71882500D01*
X138663498Y-71950621D01*
X138609842Y-71997114D01*
X138557500Y-72008500D01*
X138517000Y-72008500D01*
X138448879Y-71988498D01*
X138402386Y-71934842D01*
X138391000Y-71882500D01*
X138391000Y-71519115D01*
X138386525Y-71503876D01*
X138385135Y-71502671D01*
X138377452Y-71501000D01*
X136905000Y-71501000D01*
X136836879Y-71480998D01*
X136790386Y-71427342D01*
X136779000Y-71375000D01*
X136779000Y-70720885D01*
X137541000Y-70720885D01*
X137545475Y-70736124D01*
X137546865Y-70737329D01*
X137554548Y-70739000D01*
X138372885Y-70739000D01*
X138388124Y-70734525D01*
X138389329Y-70733135D01*
X138391000Y-70725452D01*
X138391000Y-70238496D01*
X138390330Y-70229336D01*
X138381402Y-70168687D01*
X138375661Y-70150213D01*
X138328665Y-70054493D01*
X138316705Y-70037788D01*
X138241678Y-69962891D01*
X138224950Y-69950959D01*
X138129140Y-69904127D01*
X138110672Y-69898419D01*
X138050636Y-69889660D01*
X138041537Y-69889000D01*
X137559115Y-69889000D01*
X137543876Y-69893475D01*
X137542671Y-69894865D01*
X137541000Y-69902548D01*
X137541000Y-70720885D01*
X136779000Y-70720885D01*
X136779000Y-69907115D01*
X136774525Y-69891876D01*
X136773135Y-69890671D01*
X136765452Y-69889000D01*
X136278496Y-69889000D01*
X136269336Y-69889670D01*
X136208687Y-69898598D01*
X136190213Y-69904339D01*
X136094493Y-69951335D01*
X136077788Y-69963295D01*
X136002891Y-70038322D01*
X135990959Y-70055050D01*
X135944127Y-70150860D01*
X135938419Y-70169328D01*
X135929660Y-70229364D01*
X135929000Y-70238463D01*
X135929000Y-70445567D01*
X135908998Y-70513688D01*
X135855342Y-70560181D01*
X135785068Y-70570285D01*
X135720488Y-70540791D01*
X135693881Y-70508567D01*
X135692908Y-70506882D01*
X135690584Y-70501898D01*
X135566987Y-70325383D01*
X135414617Y-70173013D01*
X135410109Y-70169856D01*
X135410106Y-70169854D01*
X135242611Y-70052573D01*
X135242609Y-70052572D01*
X135238102Y-70049416D01*
X135233120Y-70047093D01*
X135233115Y-70047090D01*
X135047789Y-69960671D01*
X135047787Y-69960670D01*
X135042807Y-69958348D01*
X135037499Y-69956926D01*
X135037497Y-69956925D01*
X134839980Y-69904001D01*
X134839978Y-69904001D01*
X134834665Y-69902577D01*
X134620000Y-69883796D01*
X134405335Y-69902577D01*
X134400022Y-69904001D01*
X134400020Y-69904001D01*
X134202503Y-69956925D01*
X134202501Y-69956926D01*
X134197193Y-69958348D01*
X134192213Y-69960670D01*
X134192211Y-69960671D01*
X134006885Y-70047090D01*
X134006880Y-70047093D01*
X134001898Y-70049416D01*
X133997391Y-70052572D01*
X133997389Y-70052573D01*
X133829894Y-70169854D01*
X133829891Y-70169856D01*
X133825383Y-70173013D01*
X133673013Y-70325383D01*
X133549416Y-70501898D01*
X133547093Y-70506880D01*
X133547090Y-70506885D01*
X133464195Y-70684654D01*
X133417277Y-70737939D01*
X133349000Y-70757400D01*
X133281040Y-70736858D01*
X133235805Y-70684654D01*
X133152910Y-70506885D01*
X133152907Y-70506880D01*
X133150584Y-70501898D01*
X133026987Y-70325383D01*
X132874617Y-70173013D01*
X132870109Y-70169856D01*
X132870106Y-70169854D01*
X132702611Y-70052573D01*
X132702609Y-70052572D01*
X132698102Y-70049416D01*
X132693120Y-70047093D01*
X132693115Y-70047090D01*
X132507789Y-69960671D01*
X132507787Y-69960670D01*
X132502807Y-69958348D01*
X132497499Y-69956926D01*
X132497497Y-69956925D01*
X132299980Y-69904001D01*
X132299978Y-69904001D01*
X132294665Y-69902577D01*
X132080000Y-69883796D01*
X131865335Y-69902577D01*
X131860022Y-69904001D01*
X131860020Y-69904001D01*
X131662503Y-69956925D01*
X131662501Y-69956926D01*
X131657193Y-69958348D01*
X131652213Y-69960670D01*
X131652211Y-69960671D01*
X131466885Y-70047090D01*
X131466880Y-70047093D01*
X131461898Y-70049416D01*
X131457391Y-70052572D01*
X131457389Y-70052573D01*
X131289894Y-70169854D01*
X131289891Y-70169856D01*
X131285383Y-70173013D01*
X131133013Y-70325383D01*
X131009416Y-70501898D01*
X131007093Y-70506880D01*
X131007090Y-70506885D01*
X130924195Y-70684654D01*
X130877277Y-70737939D01*
X130809000Y-70757400D01*
X130741040Y-70736858D01*
X130695805Y-70684654D01*
X130612910Y-70506885D01*
X130612907Y-70506880D01*
X130610584Y-70501898D01*
X130486987Y-70325383D01*
X130334617Y-70173013D01*
X130330109Y-70169856D01*
X130330106Y-70169854D01*
X130162611Y-70052573D01*
X130162609Y-70052572D01*
X130158102Y-70049416D01*
X130153120Y-70047093D01*
X130153115Y-70047090D01*
X129967789Y-69960671D01*
X129967787Y-69960670D01*
X129962807Y-69958348D01*
X129957499Y-69956926D01*
X129957497Y-69956925D01*
X129759980Y-69904001D01*
X129759978Y-69904001D01*
X129754665Y-69902577D01*
X129540000Y-69883796D01*
X129325335Y-69902577D01*
X129320022Y-69904001D01*
X129320020Y-69904001D01*
X129122503Y-69956925D01*
X129122501Y-69956926D01*
X129117193Y-69958348D01*
X129112213Y-69960670D01*
X129112211Y-69960671D01*
X128926885Y-70047090D01*
X128926880Y-70047093D01*
X128921898Y-70049416D01*
X128917391Y-70052572D01*
X128917389Y-70052573D01*
X128749894Y-70169854D01*
X128749891Y-70169856D01*
X128745383Y-70173013D01*
X128593013Y-70325383D01*
X128469416Y-70501898D01*
X128467093Y-70506880D01*
X128467090Y-70506885D01*
X128384195Y-70684654D01*
X128337277Y-70737939D01*
X128269000Y-70757400D01*
X128201040Y-70736858D01*
X128155805Y-70684654D01*
X128072910Y-70506885D01*
X128072907Y-70506880D01*
X128070584Y-70501898D01*
X127946987Y-70325383D01*
X127794617Y-70173013D01*
X127790109Y-70169856D01*
X127790106Y-70169854D01*
X127622611Y-70052573D01*
X127622609Y-70052572D01*
X127618102Y-70049416D01*
X127613120Y-70047093D01*
X127613115Y-70047090D01*
X127427789Y-69960671D01*
X127427787Y-69960670D01*
X127422807Y-69958348D01*
X127417499Y-69956926D01*
X127417497Y-69956925D01*
X127219980Y-69904001D01*
X127219978Y-69904001D01*
X127214665Y-69902577D01*
X127000000Y-69883796D01*
X126785335Y-69902577D01*
X126780022Y-69904001D01*
X126780020Y-69904001D01*
X126582503Y-69956925D01*
X126582501Y-69956926D01*
X126577193Y-69958348D01*
X126572213Y-69960670D01*
X126572211Y-69960671D01*
X126386885Y-70047090D01*
X126386880Y-70047093D01*
X126381898Y-70049416D01*
X126377391Y-70052572D01*
X126377389Y-70052573D01*
X126209894Y-70169854D01*
X126209891Y-70169856D01*
X126205383Y-70173013D01*
X126053013Y-70325383D01*
X125929416Y-70501898D01*
X125927093Y-70506880D01*
X125927090Y-70506885D01*
X125844195Y-70684654D01*
X125797277Y-70737939D01*
X125729000Y-70757400D01*
X125661040Y-70736858D01*
X125615805Y-70684654D01*
X125532910Y-70506885D01*
X125532907Y-70506880D01*
X125530584Y-70501898D01*
X125406987Y-70325383D01*
X125254617Y-70173013D01*
X125250109Y-70169856D01*
X125250106Y-70169854D01*
X125082611Y-70052573D01*
X125082609Y-70052572D01*
X125078102Y-70049416D01*
X125073120Y-70047093D01*
X125073115Y-70047090D01*
X124887789Y-69960671D01*
X124887787Y-69960670D01*
X124882807Y-69958348D01*
X124877499Y-69956926D01*
X124877497Y-69956925D01*
X124679980Y-69904001D01*
X124679978Y-69904001D01*
X124674665Y-69902577D01*
X124460000Y-69883796D01*
X124245335Y-69902577D01*
X124240022Y-69904001D01*
X124240020Y-69904001D01*
X124042503Y-69956925D01*
X124042501Y-69956926D01*
X124037193Y-69958348D01*
X124032213Y-69960670D01*
X124032211Y-69960671D01*
X123846885Y-70047090D01*
X123846880Y-70047093D01*
X123841898Y-70049416D01*
X123837391Y-70052572D01*
X123837389Y-70052573D01*
X123669894Y-70169854D01*
X123669891Y-70169856D01*
X123665383Y-70173013D01*
X123513013Y-70325383D01*
X123389416Y-70501898D01*
X123387093Y-70506880D01*
X123387090Y-70506885D01*
X123304195Y-70684654D01*
X123257277Y-70737939D01*
X123189000Y-70757400D01*
X123121040Y-70736858D01*
X123075805Y-70684654D01*
X122992910Y-70506885D01*
X122992907Y-70506880D01*
X122990584Y-70501898D01*
X122866987Y-70325383D01*
X122714617Y-70173013D01*
X122710109Y-70169856D01*
X122710106Y-70169854D01*
X122542611Y-70052573D01*
X122542609Y-70052572D01*
X122538102Y-70049416D01*
X122533120Y-70047093D01*
X122533115Y-70047090D01*
X122347789Y-69960671D01*
X122347787Y-69960670D01*
X122342807Y-69958348D01*
X122337499Y-69956926D01*
X122337497Y-69956925D01*
X122139980Y-69904001D01*
X122139978Y-69904001D01*
X122134665Y-69902577D01*
X121920000Y-69883796D01*
X121705335Y-69902577D01*
X121700022Y-69904001D01*
X121700020Y-69904001D01*
X121502503Y-69956925D01*
X121502501Y-69956926D01*
X121497193Y-69958348D01*
X121492213Y-69960670D01*
X121492211Y-69960671D01*
X121306885Y-70047090D01*
X121306880Y-70047093D01*
X121301898Y-70049416D01*
X121297391Y-70052572D01*
X121297389Y-70052573D01*
X121129894Y-70169854D01*
X121129891Y-70169856D01*
X121125383Y-70173013D01*
X120973013Y-70325383D01*
X120849416Y-70501898D01*
X120847093Y-70506880D01*
X120847090Y-70506885D01*
X120764195Y-70684654D01*
X120717277Y-70737939D01*
X120649000Y-70757400D01*
X120581040Y-70736858D01*
X120535805Y-70684654D01*
X120452910Y-70506885D01*
X120452907Y-70506880D01*
X120450584Y-70501898D01*
X120326987Y-70325383D01*
X120174617Y-70173013D01*
X120170109Y-70169856D01*
X120170106Y-70169854D01*
X120002611Y-70052573D01*
X120002609Y-70052572D01*
X119998102Y-70049416D01*
X119993120Y-70047093D01*
X119993115Y-70047090D01*
X119807789Y-69960671D01*
X119807787Y-69960670D01*
X119802807Y-69958348D01*
X119797499Y-69956926D01*
X119797497Y-69956925D01*
X119599980Y-69904001D01*
X119599978Y-69904001D01*
X119594665Y-69902577D01*
X119380000Y-69883796D01*
X119165335Y-69902577D01*
X119160022Y-69904001D01*
X119160020Y-69904001D01*
X118962503Y-69956925D01*
X118962501Y-69956926D01*
X118957193Y-69958348D01*
X118952213Y-69960670D01*
X118952211Y-69960671D01*
X118766885Y-70047090D01*
X118766880Y-70047093D01*
X118761898Y-70049416D01*
X118757391Y-70052572D01*
X118757389Y-70052573D01*
X118589894Y-70169854D01*
X118589891Y-70169856D01*
X118585383Y-70173013D01*
X118433013Y-70325383D01*
X118309416Y-70501898D01*
X118307093Y-70506880D01*
X118307090Y-70506885D01*
X118224195Y-70684654D01*
X118177277Y-70737939D01*
X118109000Y-70757400D01*
X118041040Y-70736858D01*
X117995805Y-70684654D01*
X117912910Y-70506885D01*
X117912907Y-70506880D01*
X117910584Y-70501898D01*
X117786987Y-70325383D01*
X117634617Y-70173013D01*
X117630109Y-70169856D01*
X117630106Y-70169854D01*
X117462611Y-70052573D01*
X117462609Y-70052572D01*
X117458102Y-70049416D01*
X117453120Y-70047093D01*
X117453115Y-70047090D01*
X117267789Y-69960671D01*
X117267787Y-69960670D01*
X117262807Y-69958348D01*
X117257499Y-69956926D01*
X117257497Y-69956925D01*
X117059980Y-69904001D01*
X117059978Y-69904001D01*
X117054665Y-69902577D01*
X116840000Y-69883796D01*
X116625335Y-69902577D01*
X116620022Y-69904001D01*
X116620020Y-69904001D01*
X116422503Y-69956925D01*
X116422501Y-69956926D01*
X116417193Y-69958348D01*
X116412213Y-69960670D01*
X116412211Y-69960671D01*
X116226885Y-70047090D01*
X116226880Y-70047093D01*
X116221898Y-70049416D01*
X116217391Y-70052572D01*
X116217389Y-70052573D01*
X116049894Y-70169854D01*
X116049891Y-70169856D01*
X116045383Y-70173013D01*
X115893013Y-70325383D01*
X115769416Y-70501898D01*
X115767093Y-70506880D01*
X115767090Y-70506885D01*
X115742238Y-70560181D01*
X115678348Y-70697193D01*
X115676926Y-70702501D01*
X115676925Y-70702503D01*
X115667430Y-70737939D01*
X115622577Y-70905335D01*
X115603796Y-71120000D01*
X115622577Y-71334665D01*
X115624001Y-71339978D01*
X115624001Y-71339980D01*
X115667917Y-71503876D01*
X115678348Y-71542807D01*
X115680670Y-71547787D01*
X115680671Y-71547789D01*
X115767090Y-71733115D01*
X115767093Y-71733120D01*
X115769416Y-71738102D01*
X115772573Y-71742610D01*
X115819920Y-71810229D01*
X115842608Y-71877503D01*
X115825323Y-71946364D01*
X115773553Y-71994948D01*
X115716707Y-72008500D01*
X115442500Y-72008500D01*
X115374379Y-71988498D01*
X115327886Y-71934842D01*
X115316500Y-71882500D01*
X115316500Y-66357500D01*
X121939793Y-66357500D01*
X121960189Y-66616650D01*
X122020873Y-66869420D01*
X122120352Y-67109584D01*
X122256177Y-67331229D01*
X122425002Y-67528898D01*
X122622671Y-67697723D01*
X122844316Y-67833548D01*
X122848886Y-67835441D01*
X122848888Y-67835442D01*
X123079907Y-67931133D01*
X123084480Y-67933027D01*
X123113817Y-67940070D01*
X123332437Y-67992556D01*
X123332443Y-67992557D01*
X123337250Y-67993711D01*
X123596400Y-68014107D01*
X123855550Y-67993711D01*
X123860357Y-67992557D01*
X123860363Y-67992556D01*
X124058448Y-67945000D01*
X125343393Y-67945000D01*
X125363789Y-68204150D01*
X125424473Y-68456920D01*
X125523952Y-68697084D01*
X125659777Y-68918729D01*
X125828602Y-69116398D01*
X126026271Y-69285223D01*
X126247916Y-69421048D01*
X126252486Y-69422941D01*
X126252488Y-69422942D01*
X126483507Y-69518633D01*
X126488080Y-69520527D01*
X126574543Y-69541285D01*
X126736037Y-69580056D01*
X126736043Y-69580057D01*
X126740850Y-69581211D01*
X127000000Y-69601607D01*
X127259150Y-69581211D01*
X127263957Y-69580057D01*
X127263963Y-69580056D01*
X127425457Y-69541285D01*
X127511920Y-69520527D01*
X127516493Y-69518633D01*
X127747512Y-69422942D01*
X127747514Y-69422941D01*
X127752084Y-69421048D01*
X127973729Y-69285223D01*
X128171398Y-69116398D01*
X128340223Y-68918729D01*
X128476048Y-68697084D01*
X128575527Y-68456920D01*
X128636211Y-68204150D01*
X128656607Y-67945000D01*
X128636211Y-67685850D01*
X128575527Y-67433080D01*
X128476048Y-67192916D01*
X128340223Y-66971271D01*
X128171398Y-66773602D01*
X127973729Y-66604777D01*
X127752084Y-66468952D01*
X127747514Y-66467059D01*
X127747512Y-66467058D01*
X127516493Y-66371367D01*
X127516491Y-66371366D01*
X127511920Y-66369473D01*
X127462049Y-66357500D01*
X128746993Y-66357500D01*
X128767389Y-66616650D01*
X128828073Y-66869420D01*
X128927552Y-67109584D01*
X129063377Y-67331229D01*
X129232202Y-67528898D01*
X129429871Y-67697723D01*
X129651516Y-67833548D01*
X129656086Y-67835441D01*
X129656088Y-67835442D01*
X129887107Y-67931133D01*
X129891680Y-67933027D01*
X129921017Y-67940070D01*
X130139637Y-67992556D01*
X130139643Y-67992557D01*
X130144450Y-67993711D01*
X130403600Y-68014107D01*
X130662750Y-67993711D01*
X130667557Y-67992557D01*
X130667563Y-67992556D01*
X130886183Y-67940070D01*
X130915520Y-67933027D01*
X130920093Y-67931133D01*
X131151112Y-67835442D01*
X131151114Y-67835441D01*
X131155684Y-67833548D01*
X131377329Y-67697723D01*
X131574998Y-67528898D01*
X131743823Y-67331229D01*
X131879648Y-67109584D01*
X131979127Y-66869420D01*
X132039811Y-66616650D01*
X132060207Y-66357500D01*
X132039811Y-66098350D01*
X131979127Y-65845580D01*
X131879648Y-65605416D01*
X131743823Y-65383771D01*
X131574998Y-65186102D01*
X131446910Y-65076705D01*
X131381097Y-65020495D01*
X131381096Y-65020494D01*
X131377329Y-65017277D01*
X131155684Y-64881452D01*
X131151114Y-64879559D01*
X131151112Y-64879558D01*
X130962673Y-64801504D01*
X133858000Y-64801504D01*
X133858670Y-64810664D01*
X133867598Y-64871313D01*
X133873339Y-64889787D01*
X133920335Y-64985507D01*
X133932295Y-65002212D01*
X134007322Y-65077109D01*
X134024050Y-65089041D01*
X134119860Y-65135873D01*
X134138328Y-65141581D01*
X134198364Y-65150340D01*
X134207463Y-65151000D01*
X134474885Y-65151000D01*
X134490124Y-65146525D01*
X134491329Y-65145135D01*
X134493000Y-65137452D01*
X134493000Y-65132885D01*
X135255000Y-65132885D01*
X135259475Y-65148124D01*
X135260865Y-65149329D01*
X135268548Y-65151000D01*
X135540504Y-65151000D01*
X135549664Y-65150330D01*
X135610313Y-65141402D01*
X135628787Y-65135661D01*
X135724507Y-65088665D01*
X135741212Y-65076705D01*
X135816109Y-65001678D01*
X135828041Y-64984950D01*
X135874873Y-64889140D01*
X135880581Y-64870672D01*
X135889340Y-64810636D01*
X135890000Y-64801537D01*
X135890000Y-63899115D01*
X135885525Y-63883876D01*
X135884135Y-63882671D01*
X135876452Y-63881000D01*
X135273115Y-63881000D01*
X135257876Y-63885475D01*
X135256671Y-63886865D01*
X135255000Y-63894548D01*
X135255000Y-65132885D01*
X134493000Y-65132885D01*
X134493000Y-63899115D01*
X134488525Y-63883876D01*
X134487135Y-63882671D01*
X134479452Y-63881000D01*
X133876115Y-63881000D01*
X133860876Y-63885475D01*
X133859671Y-63886865D01*
X133858000Y-63894548D01*
X133858000Y-64801504D01*
X130962673Y-64801504D01*
X130920093Y-64783867D01*
X130920091Y-64783866D01*
X130915520Y-64781973D01*
X130829057Y-64761215D01*
X130667563Y-64722444D01*
X130667557Y-64722443D01*
X130662750Y-64721289D01*
X130403600Y-64700893D01*
X130144450Y-64721289D01*
X130139643Y-64722443D01*
X130139637Y-64722444D01*
X129978143Y-64761215D01*
X129891680Y-64781973D01*
X129887109Y-64783866D01*
X129887107Y-64783867D01*
X129656088Y-64879558D01*
X129656086Y-64879559D01*
X129651516Y-64881452D01*
X129429871Y-65017277D01*
X129426104Y-65020494D01*
X129426103Y-65020495D01*
X129360290Y-65076705D01*
X129232202Y-65186102D01*
X129063377Y-65383771D01*
X128927552Y-65605416D01*
X128828073Y-65845580D01*
X128767389Y-66098350D01*
X128746993Y-66357500D01*
X127462049Y-66357500D01*
X127425457Y-66348715D01*
X127263963Y-66309944D01*
X127263957Y-66309943D01*
X127259150Y-66308789D01*
X127000000Y-66288393D01*
X126740850Y-66308789D01*
X126736043Y-66309943D01*
X126736037Y-66309944D01*
X126574543Y-66348715D01*
X126488080Y-66369473D01*
X126483509Y-66371366D01*
X126483507Y-66371367D01*
X126252488Y-66467058D01*
X126252486Y-66467059D01*
X126247916Y-66468952D01*
X126026271Y-66604777D01*
X125828602Y-66773602D01*
X125659777Y-66971271D01*
X125523952Y-67192916D01*
X125424473Y-67433080D01*
X125363789Y-67685850D01*
X125343393Y-67945000D01*
X124058448Y-67945000D01*
X124078983Y-67940070D01*
X124108320Y-67933027D01*
X124112893Y-67931133D01*
X124343912Y-67835442D01*
X124343914Y-67835441D01*
X124348484Y-67833548D01*
X124570129Y-67697723D01*
X124767798Y-67528898D01*
X124936623Y-67331229D01*
X125072448Y-67109584D01*
X125171927Y-66869420D01*
X125232611Y-66616650D01*
X125253007Y-66357500D01*
X125232611Y-66098350D01*
X125171927Y-65845580D01*
X125072448Y-65605416D01*
X124936623Y-65383771D01*
X124767798Y-65186102D01*
X124639710Y-65076705D01*
X124573897Y-65020495D01*
X124573896Y-65020494D01*
X124570129Y-65017277D01*
X124348484Y-64881452D01*
X124343914Y-64879559D01*
X124343912Y-64879558D01*
X124112893Y-64783867D01*
X124112891Y-64783866D01*
X124108320Y-64781973D01*
X124021857Y-64761215D01*
X123860363Y-64722444D01*
X123860357Y-64722443D01*
X123855550Y-64721289D01*
X123596400Y-64700893D01*
X123337250Y-64721289D01*
X123332443Y-64722443D01*
X123332437Y-64722444D01*
X123170943Y-64761215D01*
X123084480Y-64781973D01*
X123079909Y-64783866D01*
X123079907Y-64783867D01*
X122848888Y-64879558D01*
X122848886Y-64879559D01*
X122844316Y-64881452D01*
X122622671Y-65017277D01*
X122618904Y-65020494D01*
X122618903Y-65020495D01*
X122553090Y-65076705D01*
X122425002Y-65186102D01*
X122256177Y-65383771D01*
X122120352Y-65605416D01*
X122020873Y-65845580D01*
X121960189Y-66098350D01*
X121939793Y-66357500D01*
X115316500Y-66357500D01*
X115316500Y-64801504D01*
X118110000Y-64801504D01*
X118110670Y-64810664D01*
X118119598Y-64871313D01*
X118125339Y-64889787D01*
X118172335Y-64985507D01*
X118184295Y-65002212D01*
X118259322Y-65077109D01*
X118276050Y-65089041D01*
X118371860Y-65135873D01*
X118390328Y-65141581D01*
X118450364Y-65150340D01*
X118459463Y-65151000D01*
X118726885Y-65151000D01*
X118742124Y-65146525D01*
X118743329Y-65145135D01*
X118745000Y-65137452D01*
X118745000Y-65132885D01*
X119507000Y-65132885D01*
X119511475Y-65148124D01*
X119512865Y-65149329D01*
X119520548Y-65151000D01*
X119792504Y-65151000D01*
X119801664Y-65150330D01*
X119862313Y-65141402D01*
X119880787Y-65135661D01*
X119976507Y-65088665D01*
X119993212Y-65076705D01*
X120068109Y-65001678D01*
X120080041Y-64984950D01*
X120126873Y-64889140D01*
X120132581Y-64870672D01*
X120141340Y-64810636D01*
X120142000Y-64801537D01*
X120142000Y-63899115D01*
X120137525Y-63883876D01*
X120136135Y-63882671D01*
X120128452Y-63881000D01*
X119525115Y-63881000D01*
X119509876Y-63885475D01*
X119508671Y-63886865D01*
X119507000Y-63894548D01*
X119507000Y-65132885D01*
X118745000Y-65132885D01*
X118745000Y-63899115D01*
X118740525Y-63883876D01*
X118739135Y-63882671D01*
X118731452Y-63881000D01*
X118128115Y-63881000D01*
X118112876Y-63885475D01*
X118111671Y-63886865D01*
X118110000Y-63894548D01*
X118110000Y-64801504D01*
X115316500Y-64801504D01*
X115316500Y-63100885D01*
X118110000Y-63100885D01*
X118114475Y-63116124D01*
X118115865Y-63117329D01*
X118123548Y-63119000D01*
X118726885Y-63119000D01*
X118742124Y-63114525D01*
X118743329Y-63113135D01*
X118745000Y-63105452D01*
X118745000Y-63100885D01*
X119507000Y-63100885D01*
X119511475Y-63116124D01*
X119512865Y-63117329D01*
X119520548Y-63119000D01*
X120123885Y-63119000D01*
X120139124Y-63114525D01*
X120140329Y-63113135D01*
X120142000Y-63105452D01*
X120142000Y-62727840D01*
X120966973Y-62727840D01*
X120987369Y-62986990D01*
X120988523Y-62991797D01*
X120988524Y-62991803D01*
X121014712Y-63100885D01*
X121048053Y-63239760D01*
X121147532Y-63479924D01*
X121283357Y-63701569D01*
X121452182Y-63899238D01*
X121649851Y-64068063D01*
X121871496Y-64203888D01*
X121876066Y-64205781D01*
X121876068Y-64205782D01*
X122107087Y-64301473D01*
X122111660Y-64303367D01*
X122198123Y-64324125D01*
X122359617Y-64362896D01*
X122359623Y-64362897D01*
X122364430Y-64364051D01*
X122623580Y-64384447D01*
X122882730Y-64364051D01*
X122887537Y-64362897D01*
X122887543Y-64362896D01*
X123049037Y-64324125D01*
X123135500Y-64303367D01*
X123140073Y-64301473D01*
X123371092Y-64205782D01*
X123371094Y-64205781D01*
X123375664Y-64203888D01*
X123597309Y-64068063D01*
X123794978Y-63899238D01*
X123963803Y-63701569D01*
X124087325Y-63500000D01*
X125343393Y-63500000D01*
X125363789Y-63759150D01*
X125364943Y-63763957D01*
X125364944Y-63763963D01*
X125394450Y-63886865D01*
X125424473Y-64011920D01*
X125426366Y-64016491D01*
X125426367Y-64016493D01*
X125503989Y-64203888D01*
X125523952Y-64252084D01*
X125659777Y-64473729D01*
X125828602Y-64671398D01*
X125832364Y-64674611D01*
X125956717Y-64780818D01*
X126026271Y-64840223D01*
X126247916Y-64976048D01*
X126252486Y-64977941D01*
X126252488Y-64977942D01*
X126483507Y-65073633D01*
X126488080Y-65075527D01*
X126544371Y-65089041D01*
X126736037Y-65135056D01*
X126736043Y-65135057D01*
X126740850Y-65136211D01*
X127000000Y-65156607D01*
X127259150Y-65136211D01*
X127263957Y-65135057D01*
X127263963Y-65135056D01*
X127455629Y-65089041D01*
X127511920Y-65075527D01*
X127516493Y-65073633D01*
X127747512Y-64977942D01*
X127747514Y-64977941D01*
X127752084Y-64976048D01*
X127973729Y-64840223D01*
X128043284Y-64780818D01*
X128167636Y-64674611D01*
X128171398Y-64671398D01*
X128340223Y-64473729D01*
X128476048Y-64252084D01*
X128496012Y-64203888D01*
X128573633Y-64016493D01*
X128573634Y-64016491D01*
X128575527Y-64011920D01*
X128605550Y-63886865D01*
X128635056Y-63763963D01*
X128635057Y-63763957D01*
X128636211Y-63759150D01*
X128656607Y-63500000D01*
X128636211Y-63240850D01*
X128634795Y-63234948D01*
X128576682Y-62992892D01*
X128575527Y-62988080D01*
X128476048Y-62747916D01*
X128463745Y-62727840D01*
X129719813Y-62727840D01*
X129740209Y-62986990D01*
X129741363Y-62991797D01*
X129741364Y-62991803D01*
X129767552Y-63100885D01*
X129800893Y-63239760D01*
X129900372Y-63479924D01*
X130036197Y-63701569D01*
X130205022Y-63899238D01*
X130402691Y-64068063D01*
X130624336Y-64203888D01*
X130628906Y-64205781D01*
X130628908Y-64205782D01*
X130859927Y-64301473D01*
X130864500Y-64303367D01*
X130950963Y-64324125D01*
X131112457Y-64362896D01*
X131112463Y-64362897D01*
X131117270Y-64364051D01*
X131376420Y-64384447D01*
X131635570Y-64364051D01*
X131640377Y-64362897D01*
X131640383Y-64362896D01*
X131801877Y-64324125D01*
X131888340Y-64303367D01*
X131892913Y-64301473D01*
X132123932Y-64205782D01*
X132123934Y-64205781D01*
X132128504Y-64203888D01*
X132350149Y-64068063D01*
X132547818Y-63899238D01*
X132716643Y-63701569D01*
X132852468Y-63479924D01*
X132951947Y-63239760D01*
X132985288Y-63100885D01*
X133858000Y-63100885D01*
X133862475Y-63116124D01*
X133863865Y-63117329D01*
X133871548Y-63119000D01*
X134474885Y-63119000D01*
X134490124Y-63114525D01*
X134491329Y-63113135D01*
X134493000Y-63105452D01*
X134493000Y-63100885D01*
X135255000Y-63100885D01*
X135259475Y-63116124D01*
X135260865Y-63117329D01*
X135268548Y-63119000D01*
X135871885Y-63119000D01*
X135887124Y-63114525D01*
X135888329Y-63113135D01*
X135890000Y-63105452D01*
X135890000Y-62198496D01*
X135889330Y-62189336D01*
X135880402Y-62128687D01*
X135874661Y-62110213D01*
X135827665Y-62014493D01*
X135815705Y-61997788D01*
X135740678Y-61922891D01*
X135723950Y-61910959D01*
X135628140Y-61864127D01*
X135609672Y-61858419D01*
X135549636Y-61849660D01*
X135540537Y-61849000D01*
X135273115Y-61849000D01*
X135257876Y-61853475D01*
X135256671Y-61854865D01*
X135255000Y-61862548D01*
X135255000Y-63100885D01*
X134493000Y-63100885D01*
X134493000Y-61867115D01*
X134488525Y-61851876D01*
X134487135Y-61850671D01*
X134479452Y-61849000D01*
X134207496Y-61849000D01*
X134198336Y-61849670D01*
X134137687Y-61858598D01*
X134119213Y-61864339D01*
X134023493Y-61911335D01*
X134006788Y-61923295D01*
X133931891Y-61998322D01*
X133919959Y-62015050D01*
X133873127Y-62110860D01*
X133867419Y-62129328D01*
X133858660Y-62189364D01*
X133858000Y-62198463D01*
X133858000Y-63100885D01*
X132985288Y-63100885D01*
X133011476Y-62991803D01*
X133011477Y-62991797D01*
X133012631Y-62986990D01*
X133033027Y-62727840D01*
X133012631Y-62468690D01*
X132951947Y-62215920D01*
X132928692Y-62159777D01*
X132854362Y-61980328D01*
X132854361Y-61980326D01*
X132852468Y-61975756D01*
X132716643Y-61754111D01*
X132547818Y-61556442D01*
X132350149Y-61387617D01*
X132128504Y-61251792D01*
X132123934Y-61249899D01*
X132123932Y-61249898D01*
X131892913Y-61154207D01*
X131892911Y-61154206D01*
X131888340Y-61152313D01*
X131801877Y-61131555D01*
X131640383Y-61092784D01*
X131640377Y-61092783D01*
X131635570Y-61091629D01*
X131376420Y-61071233D01*
X131117270Y-61091629D01*
X131112463Y-61092783D01*
X131112457Y-61092784D01*
X130950963Y-61131555D01*
X130864500Y-61152313D01*
X130859929Y-61154206D01*
X130859927Y-61154207D01*
X130628908Y-61249898D01*
X130628906Y-61249899D01*
X130624336Y-61251792D01*
X130402691Y-61387617D01*
X130205022Y-61556442D01*
X130036197Y-61754111D01*
X129900372Y-61975756D01*
X129898479Y-61980326D01*
X129898478Y-61980328D01*
X129824148Y-62159777D01*
X129800893Y-62215920D01*
X129740209Y-62468690D01*
X129719813Y-62727840D01*
X128463745Y-62727840D01*
X128340223Y-62526271D01*
X128171398Y-62328602D01*
X127973729Y-62159777D01*
X127752084Y-62023952D01*
X127747514Y-62022059D01*
X127747512Y-62022058D01*
X127516493Y-61926367D01*
X127516491Y-61926366D01*
X127511920Y-61924473D01*
X127425457Y-61903715D01*
X127263963Y-61864944D01*
X127263957Y-61864943D01*
X127259150Y-61863789D01*
X127000000Y-61843393D01*
X126740850Y-61863789D01*
X126736043Y-61864943D01*
X126736037Y-61864944D01*
X126574543Y-61903715D01*
X126488080Y-61924473D01*
X126483509Y-61926366D01*
X126483507Y-61926367D01*
X126252488Y-62022058D01*
X126252486Y-62022059D01*
X126247916Y-62023952D01*
X126026271Y-62159777D01*
X125828602Y-62328602D01*
X125659777Y-62526271D01*
X125523952Y-62747916D01*
X125424473Y-62988080D01*
X125423318Y-62992892D01*
X125365206Y-63234948D01*
X125363789Y-63240850D01*
X125343393Y-63500000D01*
X124087325Y-63500000D01*
X124099628Y-63479924D01*
X124199107Y-63239760D01*
X124232448Y-63100885D01*
X124258636Y-62991803D01*
X124258637Y-62991797D01*
X124259791Y-62986990D01*
X124280187Y-62727840D01*
X124259791Y-62468690D01*
X124199107Y-62215920D01*
X124175852Y-62159777D01*
X124101522Y-61980328D01*
X124101521Y-61980326D01*
X124099628Y-61975756D01*
X123963803Y-61754111D01*
X123794978Y-61556442D01*
X123597309Y-61387617D01*
X123375664Y-61251792D01*
X123371094Y-61249899D01*
X123371092Y-61249898D01*
X123140073Y-61154207D01*
X123140071Y-61154206D01*
X123135500Y-61152313D01*
X123049037Y-61131555D01*
X122887543Y-61092784D01*
X122887537Y-61092783D01*
X122882730Y-61091629D01*
X122623580Y-61071233D01*
X122364430Y-61091629D01*
X122359623Y-61092783D01*
X122359617Y-61092784D01*
X122198123Y-61131555D01*
X122111660Y-61152313D01*
X122107089Y-61154206D01*
X122107087Y-61154207D01*
X121876068Y-61249898D01*
X121876066Y-61249899D01*
X121871496Y-61251792D01*
X121649851Y-61387617D01*
X121452182Y-61556442D01*
X121283357Y-61754111D01*
X121147532Y-61975756D01*
X121145639Y-61980326D01*
X121145638Y-61980328D01*
X121071308Y-62159777D01*
X121048053Y-62215920D01*
X120987369Y-62468690D01*
X120966973Y-62727840D01*
X120142000Y-62727840D01*
X120142000Y-62198496D01*
X120141330Y-62189336D01*
X120132402Y-62128687D01*
X120126661Y-62110213D01*
X120079665Y-62014493D01*
X120067705Y-61997788D01*
X119992678Y-61922891D01*
X119975950Y-61910959D01*
X119880140Y-61864127D01*
X119861672Y-61858419D01*
X119801636Y-61849660D01*
X119792537Y-61849000D01*
X119525115Y-61849000D01*
X119509876Y-61853475D01*
X119508671Y-61854865D01*
X119507000Y-61862548D01*
X119507000Y-63100885D01*
X118745000Y-63100885D01*
X118745000Y-61867115D01*
X118740525Y-61851876D01*
X118739135Y-61850671D01*
X118731452Y-61849000D01*
X118459496Y-61849000D01*
X118450336Y-61849670D01*
X118389687Y-61858598D01*
X118371213Y-61864339D01*
X118275493Y-61911335D01*
X118258788Y-61923295D01*
X118183891Y-61998322D01*
X118171959Y-62015050D01*
X118125127Y-62110860D01*
X118119419Y-62129328D01*
X118110660Y-62189364D01*
X118110000Y-62198463D01*
X118110000Y-63100885D01*
X115316500Y-63100885D01*
X115316500Y-59651900D01*
X123120893Y-59651900D01*
X123141289Y-59911050D01*
X123201973Y-60163820D01*
X123301452Y-60403984D01*
X123437277Y-60625629D01*
X123606102Y-60823298D01*
X123803771Y-60992123D01*
X124025416Y-61127948D01*
X124029986Y-61129841D01*
X124029988Y-61129842D01*
X124261007Y-61225533D01*
X124265580Y-61227427D01*
X124352043Y-61248185D01*
X124513537Y-61286956D01*
X124513543Y-61286957D01*
X124518350Y-61288111D01*
X124777500Y-61308507D01*
X125036650Y-61288111D01*
X125041457Y-61286957D01*
X125041463Y-61286956D01*
X125202957Y-61248185D01*
X125289420Y-61227427D01*
X125293993Y-61225533D01*
X125525012Y-61129842D01*
X125525014Y-61129841D01*
X125529584Y-61127948D01*
X125751229Y-60992123D01*
X125948898Y-60823298D01*
X126117723Y-60625629D01*
X126253548Y-60403984D01*
X126353027Y-60163820D01*
X126413711Y-59911050D01*
X126434107Y-59651900D01*
X127565893Y-59651900D01*
X127586289Y-59911050D01*
X127646973Y-60163820D01*
X127746452Y-60403984D01*
X127882277Y-60625629D01*
X128051102Y-60823298D01*
X128248771Y-60992123D01*
X128470416Y-61127948D01*
X128474986Y-61129841D01*
X128474988Y-61129842D01*
X128706007Y-61225533D01*
X128710580Y-61227427D01*
X128797043Y-61248185D01*
X128958537Y-61286956D01*
X128958543Y-61286957D01*
X128963350Y-61288111D01*
X129222500Y-61308507D01*
X129481650Y-61288111D01*
X129486457Y-61286957D01*
X129486463Y-61286956D01*
X129647957Y-61248185D01*
X129734420Y-61227427D01*
X129738993Y-61225533D01*
X129970012Y-61129842D01*
X129970014Y-61129841D01*
X129974584Y-61127948D01*
X130196229Y-60992123D01*
X130393898Y-60823298D01*
X130562723Y-60625629D01*
X130698548Y-60403984D01*
X130798027Y-60163820D01*
X130858711Y-59911050D01*
X130879107Y-59651900D01*
X130858711Y-59392750D01*
X130798027Y-59139980D01*
X130698548Y-58899816D01*
X130562723Y-58678171D01*
X130393898Y-58480502D01*
X130196229Y-58311677D01*
X129974584Y-58175852D01*
X129970014Y-58173959D01*
X129970012Y-58173958D01*
X129738993Y-58078267D01*
X129738991Y-58078266D01*
X129734420Y-58076373D01*
X129647957Y-58055615D01*
X129486463Y-58016844D01*
X129486457Y-58016843D01*
X129481650Y-58015689D01*
X129222500Y-57995293D01*
X128963350Y-58015689D01*
X128958543Y-58016843D01*
X128958537Y-58016844D01*
X128797043Y-58055615D01*
X128710580Y-58076373D01*
X128706009Y-58078266D01*
X128706007Y-58078267D01*
X128474988Y-58173958D01*
X128474986Y-58173959D01*
X128470416Y-58175852D01*
X128248771Y-58311677D01*
X128051102Y-58480502D01*
X127882277Y-58678171D01*
X127746452Y-58899816D01*
X127646973Y-59139980D01*
X127586289Y-59392750D01*
X127565893Y-59651900D01*
X126434107Y-59651900D01*
X126413711Y-59392750D01*
X126353027Y-59139980D01*
X126253548Y-58899816D01*
X126117723Y-58678171D01*
X125948898Y-58480502D01*
X125751229Y-58311677D01*
X125529584Y-58175852D01*
X125525014Y-58173959D01*
X125525012Y-58173958D01*
X125293993Y-58078267D01*
X125293991Y-58078266D01*
X125289420Y-58076373D01*
X125202957Y-58055615D01*
X125041463Y-58016844D01*
X125041457Y-58016843D01*
X125036650Y-58015689D01*
X124777500Y-57995293D01*
X124518350Y-58015689D01*
X124513543Y-58016843D01*
X124513537Y-58016844D01*
X124352043Y-58055615D01*
X124265580Y-58076373D01*
X124261009Y-58078266D01*
X124261007Y-58078267D01*
X124029988Y-58173958D01*
X124029986Y-58173959D01*
X124025416Y-58175852D01*
X123803771Y-58311677D01*
X123606102Y-58480502D01*
X123437277Y-58678171D01*
X123301452Y-58899816D01*
X123201973Y-59139980D01*
X123141289Y-59392750D01*
X123120893Y-59651900D01*
X115316500Y-59651900D01*
X115316500Y-57022500D01*
X115336502Y-56954379D01*
X115390158Y-56907886D01*
X115442500Y-56896500D01*
X138557500Y-56896500D01*
X138625621Y-56916502D01*
G37*
%TD.AperFunction*%
%TD*%
M02*
